<?xml version="1.0" encoding="utf-8"?>
<!-- Generator: Adobe Illustrator 17.0.0, SVG Export Plug-In . SVG Version: 6.00 Build 0)  -->
<!DOCTYPE svg PUBLIC "-//W3C//DTD SVG 1.1//EN" "http://www.w3.org/Graphics/SVG/1.1/DTD/svg11.dtd">
<svg version="1.1" id="Layer_1" xmlns="http://www.w3.org/2000/svg" xmlns:xlink="http://www.w3.org/1999/xlink" x="0px" y="0px"
	 width="73px" height="73px" viewBox="0 0 73 73" enable-background="new 0 0 73 73" xml:space="preserve">
<g>
	<path fill="#010101" d="M72.529,36.5c0,19.896-16.132,36.03-36.03,36.03c-19.896,0-36.028-16.134-36.028-36.03
		c0-19.899,16.132-36.03,36.028-36.03C56.398,0.47,72.529,16.601,72.529,36.5"/>
	<path fill="#FFFFFF" d="M45.485,16.439H27.513c-6.106,0-11.075,4.962-11.075,11.077v17.971c0,6.101,4.969,11.075,11.075,11.075
		h17.971c6.101,0,11.077-4.978,11.077-11.075V27.516C56.562,21.401,51.586,16.439,45.485,16.439 M52.998,45.487
		c0,4.137-3.367,7.509-7.513,7.509H27.513c-4.148,0-7.518-3.372-7.518-7.509V27.516c0-4.153,3.37-7.525,7.518-7.525h17.971
		c4.146,0,7.513,3.372,7.513,7.525V45.487z"/>
	<path fill="#FFFFFF" d="M47.27,23.137c-0.686,0-1.364,0.289-1.844,0.767c-0.49,0.485-0.765,1.16-0.765,1.856
		c0,0.675,0.275,1.352,0.765,1.835c0.481,0.481,1.158,0.772,1.844,0.772c0.686,0,1.368-0.291,1.847-0.772
		c0.481-0.483,0.77-1.16,0.77-1.835c0-0.696-0.289-1.37-0.77-1.856C48.638,23.425,47.956,23.137,47.27,23.137"/>
	<path fill="#FFFFFF" d="M36.5,26.157c-5.697,0-10.342,4.645-10.342,10.335c0,5.706,4.645,10.352,10.342,10.352
		c5.695,0,10.34-4.645,10.34-10.352C46.84,30.802,42.194,26.157,36.5,26.157 M36.5,43.273c-3.732,0-6.779-3.034-6.779-6.781
		c0-3.737,3.046-6.778,6.779-6.778c3.728,0,6.774,3.041,6.774,6.778C43.274,40.239,40.228,43.273,36.5,43.273"/>
</g>
</svg>
