<?xml version="1.0" encoding="utf-8"?>
<!-- Generator: Adobe Illustrator 17.0.0, SVG Export Plug-In . SVG Version: 6.00 Build 0)  -->
<!DOCTYPE svg PUBLIC "-//W3C//DTD SVG 1.1//EN" "http://www.w3.org/Graphics/SVG/1.1/DTD/svg11.dtd">
<svg version="1.1" id="Layer_1" xmlns="http://www.w3.org/2000/svg" xmlns:xlink="http://www.w3.org/1999/xlink" x="0px" y="0px"
	 width="73px" height="73px" viewBox="0 0 73 73" enable-background="new 0 0 73 73" xml:space="preserve">
<g>
	<path fill="#010101" d="M72.932,36.5c0,20.119-16.312,36.433-36.433,36.433C16.38,72.933,0.068,56.619,0.068,36.5
		c0-20.121,16.312-36.433,36.431-36.433C56.62,0.067,72.932,16.379,72.932,36.5"/>
	<rect x="16.712" y="29.714" fill="#FFFFFF" width="8.717" height="26.176"/>
	<path fill="#FFFFFF" d="M21.126,17.11c-1.463,0-2.648,0.43-3.555,1.283c-0.907,0.853-1.36,1.923-1.36,3.23
		c0,1.285,0.442,2.358,1.32,3.227c0.879,0.862,2.04,1.295,3.484,1.295h0.054c1.479,0,2.676-0.432,3.583-1.295
		c0.904-0.869,1.346-1.942,1.332-3.227c-0.016-1.306-0.465-2.377-1.348-3.23C23.755,17.54,22.586,17.11,21.126,17.11"/>
	<path fill="#FFFFFF" d="M54.041,32.107c-1.83-2.005-4.256-3.003-7.266-3.003c-1.105,0-2.117,0.131-3.022,0.414
		c-0.909,0.264-1.673,0.654-2.302,1.14c-0.622,0.5-1.122,0.954-1.491,1.379c-0.353,0.404-0.696,0.867-1.031,1.395v-3.718h-8.694
		l0.03,1.264c0.014,0.844,0.026,3.454,0.026,7.817c0,4.368-0.019,10.075-0.056,17.095h8.694V41.282c0-0.895,0.098-1.615,0.29-2.143
		c0.372-0.895,0.928-1.648,1.678-2.253c0.753-0.61,1.678-0.918,2.786-0.918c1.514,0,2.634,0.526,3.347,1.577
		c0.71,1.045,1.066,2.494,1.066,4.349v13.994h8.691V40.882C56.787,37.028,55.873,34.102,54.041,32.107"/>
</g>
</svg>
