<?xml version="1.0" encoding="utf-8"?>
<!-- Generator: Adobe Illustrator 17.0.0, SVG Export Plug-In . SVG Version: 6.00 Build 0)  -->
<!DOCTYPE svg PUBLIC "-//W3C//DTD SVG 1.1//EN" "http://www.w3.org/Graphics/SVG/1.1/DTD/svg11.dtd">
<svg version="1.1" id="Layer_1" xmlns="http://www.w3.org/2000/svg" xmlns:xlink="http://www.w3.org/1999/xlink" x="0px" y="0px"
	 width="73px" height="73px" viewBox="0 0 73 73" enable-background="new 0 0 73 73" xml:space="preserve">
<g>
	<path fill="#010101" d="M72.595,36.5c0,19.933-16.159,36.097-36.097,36.097c-19.933,0-36.094-16.164-36.094-36.097
		c0-19.935,16.161-36.097,36.094-36.097C56.437,0.403,72.595,16.565,72.595,36.5"/>
	<path fill="#FFFFFF" d="M55.685,21.285H45.078l-7.56,18.856l-8.59-18.868h-11.13v0.648l3.582,4.323
		c0.357,0.317,0.535,0.778,0.486,1.25v16.953c0.1,0.611-0.09,1.236-0.523,1.681l-4.029,4.885v0.648h11.447v-0.648l-4.029-4.885
		c-0.433-0.445-0.648-1.07-0.56-1.681V29.787l10.033,21.876h1.16l8.618-21.876V47.24c0,0.458,0,0.546-0.306,0.852l-3.098,3.01v0.623
		h15.043v-0.648l-2.996-2.931c-0.269-0.192-0.396-0.523-0.345-0.857V25.707c-0.051-0.317,0.076-0.648,0.345-0.852l3.059-2.934
		V21.285z"/>
</g>
</svg>
