<?xml version="1.0" encoding="utf-8"?>
<!-- Generator: Adobe Illustrator 17.0.0, SVG Export Plug-In . SVG Version: 6.00 Build 0)  -->
<!DOCTYPE svg PUBLIC "-//W3C//DTD SVG 1.1//EN" "http://www.w3.org/Graphics/SVG/1.1/DTD/svg11.dtd">
<svg version="1.1" id="Layer_1" xmlns="http://www.w3.org/2000/svg" xmlns:xlink="http://www.w3.org/1999/xlink" x="0px" y="0px"
	 width="73px" height="73px" viewBox="0 0 73 73" enable-background="new 0 0 73 73" xml:space="preserve">
<g>
	<path fill="#010101" d="M72.508,36.5c0,19.885-16.122,36.009-36.009,36.009c-19.885,0-36.007-16.124-36.007-36.009
		c0-19.887,16.122-36.009,36.007-36.009C56.386,0.491,72.508,16.613,72.508,36.5"/>
	<path fill-rule="evenodd" clip-rule="evenodd" fill="#FFFFFF" d="M36.499,16.45c-11.073,0-20.051,8.976-20.051,20.051
		c0,8.488,5.282,15.727,12.734,18.654c-0.007-0.025-0.014-0.053-0.021-0.074c-0.118-0.497-0.127-1.012-0.152-1.52
		c-0.086-1.832,0.072-3.659,0.529-5.437c0.674-2.617,1.238-5.262,1.887-7.888c0.118-0.483,0.067-0.885-0.074-1.349
		c-0.677-2.162-0.499-4.264,0.871-6.102c0.656-0.882,1.719-1.233,2.853-1.076c1.065,0.141,1.7,0.806,1.975,1.829
		c0.231,0.868,0.099,1.728-0.097,2.578c-0.37,1.598-0.986,3.127-1.312,4.74c-0.127,0.642-0.106,1.462,0.062,2.095
		c0.693,2.566,4.128,2.033,5.761,0.797c1.109-0.841,1.903-2.07,2.43-3.342c0.619-1.487,0.871-2.915,0.848-4.506
		c-0.016-1.109-0.155-2.515-0.584-3.555c-1.056-2.538-3.455-4.303-6.146-4.684c-3.021-0.43-5.721,0.215-8.098,2.434
		c-2.624,2.455-3.356,7.352-1.229,10.373c0.27,0.381,0.259,0.644,0.169,1.076c-0.099,0.473-0.155,0.959-0.305,1.423
		c-0.141,0.42-0.27,0.903-0.774,0.94c-0.363,0.025-0.704-0.164-0.984-0.376c-0.601-0.462-1.092-1.143-1.416-1.822
		c-0.134-0.284-0.319-0.55-0.462-0.834c-0.917-1.792-1.358-3.788-1.166-5.8c0.081-0.836,0.217-1.675,0.443-2.483
		c0.852-3.021,2.945-5.506,5.661-7.049c0.758-0.432,1.594-0.797,2.428-1.065c2.899-0.938,6.121-0.815,8.992,0.185
		c2.116,0.739,4.098,1.91,5.5,3.686c2.307,2.933,2.947,6.34,2.243,9.994c-0.545,2.811-1.719,5.287-3.871,7.25
		c-0.753,0.691-1.633,1.22-2.568,1.621c-0.478,0.208-0.972,0.386-1.469,0.541c-2.418,0.737-5.178,0.023-6.837-1.878
		c-0.155,0.677-0.631,2.381-0.716,2.712c-0.245,0.938-0.497,1.88-0.82,2.793c-0.494,1.411-1.153,2.795-1.991,4.033
		c-0.048,0.069-0.109,0.157-0.173,0.245c1.875,0.58,3.866,0.892,5.934,0.892c11.075,0,20.053-8.973,20.053-20.049
		C56.552,25.425,47.574,16.45,36.499,16.45"/>
</g>
</svg>
