<?xml version="1.0" encoding="utf-8"?>
<!-- Generator: Adobe Illustrator 17.0.0, SVG Export Plug-In . SVG Version: 6.00 Build 0)  -->
<!DOCTYPE svg PUBLIC "-//W3C//DTD SVG 1.1//EN" "http://www.w3.org/Graphics/SVG/1.1/DTD/svg11.dtd">
<svg version="1.1" id="Layer_1" xmlns="http://www.w3.org/2000/svg" xmlns:xlink="http://www.w3.org/1999/xlink" x="0px" y="0px"
	 width="73px" height="73px" viewBox="0 0 73 73" enable-background="new 0 0 73 73" xml:space="preserve">
<g>
	<path fill="#010101" d="M72.778,36.5c0,20.034-16.243,36.279-36.279,36.279c-20.034,0-36.277-16.245-36.277-36.279
		c0-20.036,16.243-36.279,36.277-36.279C56.535,0.221,72.778,16.464,72.778,36.5"/>
	<path fill="#FFFFFF" d="M55.582,17.168L13.397,33.434c-1.038,0.407-1.033,1.876,0.019,2.267l10.276,3.835l3.979,12.797
		c0.247,0.819,1.254,1.124,1.913,0.577l5.729-4.673c0.603-0.489,1.464-0.512,2.085-0.056l10.335,7.505
		c0.705,0.514,1.717,0.123,1.899-0.735l7.563-36.407C57.395,17.603,56.469,16.819,55.582,17.168 M47.528,25.68L30.953,41.09
		c-0.577,0.542-0.954,1.268-1.066,2.053l-0.563,4.186c-0.074,0.561-0.852,0.61-1.01,0.072l-2.176-7.626
		c-0.244-0.87,0.114-1.803,0.889-2.276l20.08-12.375C47.475,24.906,47.85,25.39,47.528,25.68"/>
</g>
</svg>
