<?xml version="1.0" encoding="utf-8"?>
<!-- Generator: Adobe Illustrator 17.0.0, SVG Export Plug-In . SVG Version: 6.00 Build 0)  -->
<!DOCTYPE svg PUBLIC "-//W3C//DTD SVG 1.1//EN" "http://www.w3.org/Graphics/SVG/1.1/DTD/svg11.dtd">
<svg version="1.1" id="Layer_1" xmlns="http://www.w3.org/2000/svg" xmlns:xlink="http://www.w3.org/1999/xlink" x="0px" y="0px"
	 width="73px" height="73px" viewBox="0 0 73 73" enable-background="new 0 0 73 73" xml:space="preserve">
<g>
	<path fill="#FFFFFF" d="M47.734,25.494h-5.032c-1.309,0-1.707,0.764-1.707,1.819v4.155h6.739l-0.958,7.944h-5.781v18.266h-9.203
		V39.411h-6.106v-7.944h6.106v-3.993c0-6.151,4.529-10.965,10.318-10.965h5.625V25.494z"/>
	<path fill="#010101" d="M72.688,36.5c0,19.984-16.203,36.189-36.189,36.189c-19.984,0-36.187-16.205-36.187-36.189
		c0-19.987,16.203-36.189,36.187-36.189C56.485,0.311,72.688,16.513,72.688,36.5"/>
	<path fill="#FFFFFF" d="M53.926,29.849c0.016,0.348,0.026,0.715,0.026,1.072c0,10.92-8.322,23.531-23.527,23.531
		c-4.67,0-9.018-1.384-12.677-3.721c0.648,0.072,1.3,0.125,1.971,0.125c3.874,0,7.444-1.326,10.267-3.549
		c-3.617-0.065-6.674-2.447-7.725-5.752c0.506,0.114,1.028,0.158,1.56,0.158c0.752,0,1.483-0.102,2.177-0.297
		c-3.786-0.752-6.632-4.099-6.632-8.111v-0.081c1.112,0.601,2.391,0.975,3.744,1.028c-2.217-1.49-3.679-4.03-3.679-6.885
		c0-1.516,0.411-2.946,1.121-4.167c4.079,5.009,10.165,8.294,17.045,8.642c-0.144-0.603-0.211-1.24-0.211-1.878
		c0-4.571,3.698-8.271,8.266-8.271c2.372,0,4.524,0.998,6.038,2.607c1.88-0.374,3.654-1.052,5.246-2.006
		c-0.613,1.934-1.931,3.549-3.635,4.573c1.674-0.195,3.264-0.634,4.749-1.3C56.944,27.226,55.535,28.679,53.926,29.849"/>
</g>
</svg>
