<?xml version="1.0" encoding="utf-8"?>
<!-- Generator: Adobe Illustrator 17.0.0, SVG Export Plug-In . SVG Version: 6.00 Build 0)  -->
<!DOCTYPE svg PUBLIC "-//W3C//DTD SVG 1.1//EN" "http://www.w3.org/Graphics/SVG/1.1/DTD/svg11.dtd">
<svg version="1.1" id="Layer_1" xmlns="http://www.w3.org/2000/svg" xmlns:xlink="http://www.w3.org/1999/xlink" x="0px" y="0px"
	 width="200px" height="43.429px" viewBox="0 0 200 43.429" enable-background="new 0 0 200 43.429" xml:space="preserve">
<linearGradient id="SVGID_1_" gradientUnits="userSpaceOnUse" x1="-692.2278" y1="3816.9138" x2="-691.7747" y2="3816.386" gradientTransform="matrix(1 0 0 -1 1029.9302 4009.0291)">
	<stop  offset="0" style="stop-color:#006537"/>
	<stop  offset="0.33" style="stop-color:#008A40"/>
	<stop  offset="0.66" style="stop-color:#36AC47"/>
	<stop  offset="1" style="stop-color:#36AC47"/>
</linearGradient>
<path fill="url(#SVGID_1_)" d="M184.021,15.171c0.254-0.186,0.309-0.542,0.123-0.795l-3.496-4.778
	c-0.186-0.253-0.541-0.308-0.795-0.123c-0.253,0.186-0.308,0.541-0.122,0.795l3.496,4.777c0.186,0.253,0.541,0.309,0.794,0.123
	l0.001,0L184.021,15.171z M189.218,14.713c0-0.628-0.509-1.137-1.137-1.137h-3.945c-0.628,0-1.136,0.51-1.136,1.138
	c0.001,0.627,0.509,1.135,1.136,1.135h3.945C188.709,15.849,189.218,15.341,189.218,14.713z M183.686,13.267
	c-0.798-0.001-1.446,0.646-1.446,1.445c0,0.799,0.646,1.446,1.445,1.446c0.798,0,1.446-0.647,1.446-1.445v0
	C185.131,13.914,184.484,13.267,183.686,13.267z M183.932,24.043c-1.103,0.001-2.199-0.18-3.243-0.538l0.491-1.434
	c4.435,1.519,9.261-0.844,10.781-5.279c1.52-4.435-0.844-9.261-5.279-10.78c-3.544-1.214-7.465,0.039-9.648,3.083l-1.231-0.884
	c3.219-4.49,9.468-5.52,13.958-2.301c4.49,3.219,5.52,9.468,2.301,13.958C190.183,22.489,187.156,24.043,183.932,24.043
	L183.932,24.043z"/>
<g>
	<path fill="#009C42" d="M159.608,26.786h-2.783v-5.789h-5.428v5.789h-2.783V13.278h2.783v5.474h5.428v-5.474h2.783V26.786z"/>
	<path fill="#009C42" d="M167.039,21.841h-2.217v4.945h-2.783V13.278h5.019c1.596,0,2.826,0.355,3.692,1.066
		c0.866,0.712,1.299,1.717,1.299,3.016c0,0.922-0.199,1.69-0.598,2.306c-0.399,0.615-1.004,1.105-1.814,1.47l2.923,5.521v0.13
		h-2.987L167.039,21.841z M164.822,19.587h2.245c0.698,0,1.239-0.178,1.623-0.533s0.575-0.846,0.575-1.471
		c0-0.637-0.181-1.138-0.542-1.503c-0.362-0.365-0.918-0.548-1.666-0.548h-2.235V19.587z"/>
</g>
<polygon points="23.58,1.089 22.353,1.798 6.945,10.694 5.719,11.403 5.719,32.03 6.945,32.738 22.353,41.634 23.58,42.343 
	24.806,41.634 40.215,32.738 41.441,32.03 41.441,11.403 40.215,10.694 24.807,1.798 23.581,1.089 "/>
<polygon points="23.58,39.507 8.171,30.611 8.171,12.82 23.58,3.924 38.988,12.82 38.988,30.611 "/>
<path fill="#FFFFFF" d="M23.58,2.79l-0.491,0.283l-15.41,8.895l-0.49,0.284v18.927l0.49,0.284l15.409,8.896l0.491,0.284l0.491-0.284
	l15.408-8.896l0.491-0.284V12.252l-0.491-0.284L24.071,3.073l-0.491-0.284L23.58,2.79z M23.58,3.923l15.408,8.896v17.795
	L23.58,39.51L8.171,30.614V12.82L23.58,3.923"/>
<rect x="22.388" y="16.777" transform="matrix(-0.866 0.5 -0.5 -0.866 67.0112 16.58)" fill="#FFFFFF" width="17.792" height="0.982"/>
<rect x="15.384" y="8.372" transform="matrix(-0.4999 0.8661 -0.8661 -0.4999 38.7661 12.1507)" fill="#FFFFFF" width="0.982" height="17.792"/>
<rect x="30.793" y="17.267" transform="matrix(-0.4999 0.8661 -0.8661 -0.4999 69.5826 12.1486)" fill="#FFFFFF" width="0.982" height="17.792"/>
<rect x="6.98" y="25.674" transform="matrix(-0.866 0.5 -0.5 -0.866 42.7065 40.886)" fill="#FFFFFF" width="17.792" height="0.982"/>
<g>
	<defs>
		<polygon id="SVGID_2_" points="23.58,39.508 8.171,30.612 8.171,12.82 23.58,3.924 38.988,12.82 38.988,30.612 		"/>
	</defs>
	<clipPath id="SVGID_3_">
		<use xlink:href="#SVGID_2_"  overflow="visible"/>
	</clipPath>
	<g clip-path="url(#SVGID_3_)" enable-background="new    ">
		<g>
			<defs>
				<rect id="SVGID_4_" x="8.117" y="3.753" width="31" height="36"/>
			</defs>
			<clipPath id="SVGID_5_">
				<use xlink:href="#SVGID_4_"  overflow="visible"/>
			</clipPath>
			
				<linearGradient id="SVGID_6_" gradientUnits="userSpaceOnUse" x1="-1233.4922" y1="3980.9919" x2="-1232.9083" y2="3980.9919" gradientTransform="matrix(1 0 0 -1 1130.6039 4003.7537)">
				<stop  offset="0" style="stop-color:#339A4C"/>
				<stop  offset="0.34" style="stop-color:#6EB94D"/>
				<stop  offset="1" style="stop-color:#A5CA50"/>
			</linearGradient>
			<polygon clip-path="url(#SVGID_5_)" fill="url(#SVGID_6_)" points="38.988,12.82 23.58,32.704 8.171,12.82 23.58,20.527 			"/>
			<path clip-path="url(#SVGID_5_)" fill="#FFFFFF" d="M4.752,10.011l2.643,3.41l15.409,19.884l0.776,1.002l0.776-1.002
				l15.408-19.884l2.643-3.41l-3.859,1.93L23.58,19.574L8.611,11.941L4.752,10.011z M38.988,12.82L23.58,32.703L8.171,12.82
				l15.409,7.852L38.988,12.82"/>
		</g>
	</g>
</g>
<linearGradient id="SVGID_7_" gradientUnits="userSpaceOnUse" x1="-1114.7281" y1="3430.4277" x2="-1114.7281" y2="3429.844" gradientTransform="matrix(1 0 0 -1 1130.6038 4003.7537)">
	<stop  offset="0" style="stop-color:#036738"/>
	<stop  offset="0.379" style="stop-color:#339A4C"/>
	<stop  offset="1" style="stop-color:#6EB94D"/>
</linearGradient>
<polygon fill="url(#SVGID_7_)" points="8.171,12.82 23.58,32.704 23.58,20.672 "/>
<rect x="23.089" y="32.704" fill="#FFFFFF" width="0.982" height="7.229"/>
<polygon points="61.654,14.005 72.157,14.005 72.157,17.487 65.945,17.487 65.945,19.956 71.815,19.956 71.815,23.299 
	65.945,23.299 65.945,25.933 72.525,25.933 72.525,29.442 61.654,29.442 "/>
<path d="M79.027,20.668h1.448c0.239,0,0.477-0.027,0.71-0.081c0.221-0.053,0.431-0.146,0.619-0.274
	c0.19-0.136,0.344-0.317,0.448-0.525c0.124-0.266,0.183-0.557,0.172-0.85c0.061-0.466-0.162-0.924-0.566-1.164
	c-0.422-0.204-0.887-0.304-1.356-0.292h-1.474V20.668z M74.683,14.005h6.201c0.78-0.004,1.559,0.078,2.321,0.246
	c0.675,0.145,1.316,0.42,1.887,0.81c0.539,0.379,0.974,0.888,1.264,1.48c0.698,1.603,0.6,3.442-0.263,4.962
	c-0.474,0.733-1.16,1.302-1.968,1.631l3.613,6.306h-4.853l-2.854-5.483h-1.004v5.483h-4.344V14.005z"/>
<rect x="88.583" y="14.005" width="4.397" height="15.437"/>
<path d="M99.341,25.8h1.101c0.552,0,1.101-0.069,1.635-0.207c0.497-0.128,0.958-0.368,1.348-0.701
	c0.402-0.352,0.716-0.793,0.917-1.288c0.244-0.628,0.359-1.299,0.339-1.974c0.021-0.656-0.091-1.309-0.327-1.921
	c-0.193-0.477-0.499-0.899-0.891-1.232c-0.387-0.319-0.838-0.548-1.323-0.676c-0.53-0.137-1.075-0.205-1.623-0.203h-1.179
	L99.341,25.8z M94.943,29.444V14.005h5.739c1.091-0.003,2.179,0.125,3.239,0.383c0.994,0.237,1.93,0.671,2.752,1.277
	c0.82,0.621,1.478,1.428,1.921,2.356c0.518,1.149,0.765,2.402,0.723,3.662c0.032,1.203-0.211,2.398-0.71,3.494
	c-0.442,0.938-1.09,1.764-1.896,2.416c-0.808,0.64-1.734,1.116-2.726,1.401c-1.03,0.3-2.098,0.452-3.171,0.45H94.943z"/>
<polygon points="56.4,13.987 60.802,13.987 55.11,29.452 50.706,29.452 "/>
<polygon points="55.11,29.452 50.706,29.452 45.105,13.987 49.508,13.987 "/>
<path d="M118.737,17.74c-2.195,0-3.976,1.779-3.976,3.976c-0.001,2.196,1.779,3.976,3.975,3.976c2.195,0,3.975-1.779,3.976-3.975
	C122.711,19.522,120.932,17.742,118.737,17.74z M126.866,21.717c-0.002,4.48-3.636,8.11-8.116,8.107
	c-4.48-0.002-8.11-3.635-8.108-8.116c0.003-4.479,3.634-8.108,8.113-8.108c4.48,0,8.111,3.632,8.111,8.112V21.717z"/>
<path d="M139.822,23.433c-0.682,1.383-2.091,2.258-3.633,2.258c-2.196-0.006-3.97-1.792-3.965-3.987
	c0.006-2.196,1.791-3.971,3.987-3.965c1.573,0,3,0.919,3.652,2.351l3.994-1.054c-1.482-4.227-6.109-6.452-10.336-4.971
	c-4.227,1.482-6.452,6.109-4.97,10.336c1.481,4.227,6.108,6.452,10.335,4.97c2.295-0.804,4.108-2.596,4.939-4.882L139.822,23.433z"
	/>
</svg>
