<?xml version="1.0" encoding="utf-8"?>
<!-- Generator: Adobe Illustrator 25.2.3, SVG Export Plug-In . SVG Version: 6.00 Build 0)  -->
<svg version="1.1" id="Logo" xmlns="http://www.w3.org/2000/svg" xmlns:xlink="http://www.w3.org/1999/xlink" x="0px" y="0px"
	 viewBox="0 0 247.5 56.8" style="enable-background:new 0 0 247.5 56.8;" xml:space="preserve">
<style type="text/css">
	.st0{fill:url(#SVGID_1_);}
	.st1{fill:url(#SVGID_2_);}
	.st2{fill:#FFFFFF;}
	.st3{fill:url(#SVGID_3_);}
	.st4{fill:url(#SVGID_4_);}
	.st5{fill:url(#SVGID_5_);}
	.st6{fill:url(#SVGID_6_);}
	.st7{fill:url(#SVGID_7_);}
	.st8{fill:url(#SVGID_8_);}
	.st9{fill:url(#SVGID_9_);}
	.st10{fill:url(#SVGID_10_);}
	.st11{fill:url(#SVGID_11_);}
	.st12{fill:url(#SVGID_12_);}
	.st13{fill:url(#SVGID_13_);}
	.st14{fill:url(#SVGID_14_);}
	.st15{fill:url(#SVGID_15_);}
	.st16{enable-background:new    ;}
	.st17{fill:#25984E;}
</style>
<g>
	<g>
		
			<linearGradient id="SVGID_1_" gradientUnits="userSpaceOnUse" x1="221.9437" y1="27.777" x2="246.6548" y2="52.488" gradientTransform="matrix(1 0 0 -1 0 57.2756)">
			<stop  offset="0" style="stop-color:#006537"/>
			<stop  offset="0.33" style="stop-color:#008A40"/>
			<stop  offset="0.66" style="stop-color:#36AC47"/>
			<stop  offset="1" style="stop-color:#9AC341"/>
		</linearGradient>
		<path class="st0" d="M232.1,19.1c0,1.2,1,2.2,2.2,2.2c0.6,0,1.2-0.3,1.6-0.7h3.7c0.8,0,1.5-0.7,1.5-1.5s-0.7-1.5-1.5-1.5h-3.7
			c-0.4-0.4-1-0.7-1.6-0.7c-0.2,0-0.4,0-0.6,0.1l-3.2-4.3c-0.2-0.3-0.7-0.4-1-0.1c-0.3,0.2-0.4,0.7-0.1,1l3.2,4.3
			C232.2,18.3,232.1,18.7,232.1,19.1z"/>
		
			<linearGradient id="SVGID_2_" gradientUnits="userSpaceOnUse" x1="222.225" y1="26.9842" x2="247.4244" y2="52.1836" gradientTransform="matrix(1 0 0 -1 0 57.2756)">
			<stop  offset="0" style="stop-color:#006537"/>
			<stop  offset="0.33" style="stop-color:#008A40"/>
			<stop  offset="0.66" style="stop-color:#36AC47"/>
			<stop  offset="1" style="stop-color:#9AC341"/>
		</linearGradient>
		<path class="st1" d="M234.2,5.1c-4.1,0-7.9,1.9-10.5,5.2l1.5,1.2c2.2-2.8,5.4-4.4,9-4.4c6.2,0,11.3,5.1,11.3,11.3
			s-5.1,11.3-11.3,11.3c-1.2,0-2.3-0.2-3.5-0.5l-0.6,1.8c1.3,0.4,2.7,0.6,4,0.6c7.3,0,13.2-5.9,13.2-13.2S241.5,5.1,234.2,5.1z"/>
	</g>
	<g>
		<path class="st2" d="M47.5,13.2L26.2,0.9l-1.7-1l-1.7,1L1.6,13.2l-1.7,1v2v24.5v2l1.7,1L22.8,56l1.7,1l1.7-1l21.2-12.3l1.7-1v-2
			V16.1v-2L47.5,13.2z M47.9,16.7V40v1.8l-1.6,0.9L26.2,54.3l-1.6,0.9L23,54.3L2.8,42.7l-1.6-0.9V40V16.7v-1.8L2.8,14L22.9,2.4
			l1.6-0.9l1.6,0.9L46.3,14l1.6,0.9C47.9,14.9,47.9,16.7,47.9,16.7z"/>
		<polygon points="4.4,18.8 4.4,39.2 15.4,32.9 		"/>
		<polygon points="44.7,39.2 44.7,18.8 33.7,32.9 		"/>
		<polygon points="25.6,43.5 25.2,44 25.2,51.2 44,40.3 33,33.9 		"/>
		<path d="M4.4,16.7L4.4,16.7L4.4,16.7z"/>
		<polygon points="17.2,33.2 17.3,33.3 24.6,42.7 20,36.8 		"/>
		<polygon points="16.1,33.9 5.1,40.3 23.9,51.2 23.9,44 23.5,43.5 		"/>
		<path d="M26.2,2.4l-1.6-0.9L23,2.4L2.8,14l-1.6,0.9v1.8V40v1.8l1.6,0.9l20.1,11.6l1.6,0.9l1.6-0.9l20.1-11.6l1.6-0.9V40V16.7v-1.8
			L46.3,14L26.2,2.4z M45.9,16.7V40v0.7l-0.6,0.4L25.2,52.7l-0.6,0.4L24,52.7L3.8,41.1l-0.6-0.4V40V16.7V16l0.6-0.4L23.9,4l0.6-0.4
			L25.2,4l20.1,11.6l0.6,0.4V16.7z"/>
		<polygon points="32.6,32.3 44.7,16.7 32.2,32.9 		"/>
		<polygon points="43.3,16 24.6,5.1 5.8,16 24.6,25.6 		"/>
		<path class="st2" d="M25.2,4l-0.6-0.4L23.9,4L3.8,15.6L3.2,16v0.7V40v0.7l0.6,0.4l20.1,11.6l0.6,0.4l0.6-0.4l20.1-11.6l0.6-0.4V40
			V16.7V16l-0.6-0.4L25.2,4z M24.6,5.1L43.3,16l-18.8,9.6L5.8,16L24.6,5.1z M23.9,51.2L5.1,40.3l11.1-6.4l7.4,9.5l0.4,0.5v7.3H23.9z
			 M4.4,39.2V18.8l10.9,14.1L4.4,39.2z M25.2,51.2V44l0.4-0.5L33,34l11,6.3L25.2,51.2z M44.7,39.2l-10.9-6.3l10.9-14.1
			C44.7,18.8,44.7,39.2,44.7,39.2z M32.6,32.3l-0.5,0.6l-7.6,9.8l0,0l0,0l0,0l-7.3-9.4l-0.1-0.1L4.4,16.7l0,0l0,0l17.2,8.8l2.9,1.5
			l20.1-10.2L32.6,32.3z"/>
		<polygon points="21.7,25.5 4.4,16.7 4.4,16.7 		"/>
		
			<linearGradient id="SVGID_3_" gradientUnits="userSpaceOnUse" x1="4.4411" y1="36.1756" x2="44.6624" y2="36.1756" gradientTransform="matrix(1 0 0 -1 0 57.2756)">
			<stop  offset="0" style="stop-color:#33994B"/>
			<stop  offset="0.3397" style="stop-color:#6FB64D"/>
			<stop  offset="1" style="stop-color:#A3C851"/>
		</linearGradient>
		<polygon class="st3" points="21.7,25.5 4.4,16.7 4.4,16.7 		"/>
		<polygon points="24.6,27 24.6,42.7 31.8,33.3 32.2,32.9 44.7,16.7 		"/>
		
			<linearGradient id="SVGID_4_" gradientUnits="userSpaceOnUse" x1="4.4411" y1="27.5756" x2="44.6624" y2="27.5756" gradientTransform="matrix(1 0 0 -1 0 57.2756)">
			<stop  offset="0" style="stop-color:#33994B"/>
			<stop  offset="0.3397" style="stop-color:#6FB64D"/>
			<stop  offset="1" style="stop-color:#A3C851"/>
		</linearGradient>
		<polygon class="st4" points="24.6,27 24.6,42.7 31.8,33.3 32.2,32.9 44.7,16.7 		"/>
		<polygon points="20,36.8 24.6,42.7 24.6,42.7 		"/>
		
			<linearGradient id="SVGID_5_" gradientUnits="userSpaceOnUse" x1="4.4411" y1="17.5256" x2="44.6624" y2="17.5256" gradientTransform="matrix(1 0 0 -1 0 57.2756)">
			<stop  offset="0" style="stop-color:#33994B"/>
			<stop  offset="0.3397" style="stop-color:#6FB64D"/>
			<stop  offset="1" style="stop-color:#A3C851"/>
		</linearGradient>
		<polygon class="st5" points="20,36.8 24.6,42.7 24.6,42.7 		"/>
		<path class="st2" d="M24.6,42.7L24.6,42.7L24.6,42.7z"/>
		
			<linearGradient id="SVGID_6_" gradientUnits="userSpaceOnUse" x1="24.6" y1="14.5756" x2="24.6" y2="14.5756" gradientTransform="matrix(1 0 0 -1 0 57.2756)">
			<stop  offset="0" style="stop-color:#33994B"/>
			<stop  offset="0.3397" style="stop-color:#6FB64D"/>
			<stop  offset="1" style="stop-color:#A3C851"/>
		</linearGradient>
		<path class="st6" d="M24.6,42.7L24.6,42.7L24.6,42.7z"/>
		<polygon class="st2" points="24.6,42.7 24.6,42.7 32.2,32.9 31.8,33.3 		"/>
		
			<linearGradient id="SVGID_7_" gradientUnits="userSpaceOnUse" x1="4.4411" y1="19.4756" x2="44.6624" y2="19.4756" gradientTransform="matrix(1 0 0 -1 0 57.2756)">
			<stop  offset="0" style="stop-color:#33994B"/>
			<stop  offset="0.3397" style="stop-color:#6FB64D"/>
			<stop  offset="1" style="stop-color:#A3C851"/>
		</linearGradient>
		<polygon class="st7" points="24.6,42.7 24.6,42.7 32.2,32.9 31.8,33.3 		"/>
		<polygon points="4.4,16.7 4.4,16.7 16.5,32.3 17.2,33.2 20,36.8 		"/>
		
			<linearGradient id="SVGID_8_" gradientUnits="userSpaceOnUse" x1="-6603.8667" y1="14.5849" x2="-6603.8667" y2="40.5369" gradientTransform="matrix(-1 0 0 -1 -6591.6665 57.2756)">
			<stop  offset="0" style="stop-color:#026839"/>
			<stop  offset="0.3795" style="stop-color:#33994B"/>
			<stop  offset="1" style="stop-color:#6FB64D"/>
		</linearGradient>
		<polygon class="st8" points="4.4,16.7 4.4,16.7 16.5,32.3 17.2,33.2 20,36.8 		"/>
		<path class="st2" d="M24.6,27l-2.9-1.5L24.6,27z"/>
		
			<linearGradient id="SVGID_9_" gradientUnits="userSpaceOnUse" x1="-6614.8164" y1="14.5849" x2="-6614.8164" y2="40.5369" gradientTransform="matrix(-1 0 0 -1 -6591.6665 57.2756)">
			<stop  offset="0" style="stop-color:#026839"/>
			<stop  offset="0.3795" style="stop-color:#33994B"/>
			<stop  offset="1" style="stop-color:#6FB64D"/>
		</linearGradient>
		<path class="st9" d="M24.6,27l-2.9-1.5L24.6,27z"/>
		<polygon class="st2" points="4.4,16.7 4.4,16.7 17.2,33.2 16.5,32.3 		"/>
		
			<linearGradient id="SVGID_10_" gradientUnits="userSpaceOnUse" x1="-6602.4663" y1="14.5849" x2="-6602.4663" y2="40.5369" gradientTransform="matrix(-1 0 0 -1 -6591.6665 57.2756)">
			<stop  offset="0" style="stop-color:#026839"/>
			<stop  offset="0.3795" style="stop-color:#33994B"/>
			<stop  offset="1" style="stop-color:#6FB64D"/>
		</linearGradient>
		<polygon class="st10" points="4.4,16.7 4.4,16.7 17.2,33.2 16.5,32.3 		"/>
		<path class="st2" d="M24.6,42.7L24.6,42.7L24.6,42.7z"/>
		
			<linearGradient id="SVGID_11_" gradientUnits="userSpaceOnUse" x1="-6616.2666" y1="14.5756" x2="-6616.2666" y2="14.5756" gradientTransform="matrix(-1 0 0 -1 -6591.6665 57.2756)">
			<stop  offset="0" style="stop-color:#026839"/>
			<stop  offset="0.3795" style="stop-color:#33994B"/>
			<stop  offset="1" style="stop-color:#6FB64D"/>
		</linearGradient>
		<path class="st11" d="M24.6,42.7L24.6,42.7L24.6,42.7z"/>
		<polygon points="20,36.8 24.6,42.7 24.6,42.7 24.6,27 24.6,27 24.6,27 21.7,25.5 4.4,16.7 		"/>
		
			<linearGradient id="SVGID_12_" gradientUnits="userSpaceOnUse" x1="4.4412" y1="27.5756" x2="44.6623" y2="27.5756" gradientTransform="matrix(1 0 0 -1 0 57.2756)">
			<stop  offset="0" style="stop-color:#33994B"/>
			<stop  offset="0.3397" style="stop-color:#6FB64D"/>
			<stop  offset="1" style="stop-color:#A3C851"/>
		</linearGradient>
		<polygon class="st12" points="20,36.8 24.6,42.7 24.6,42.7 24.6,27 24.6,27 24.6,27 21.7,25.5 4.4,16.7 		"/>
		
			<linearGradient id="SVGID_13_" gradientUnits="userSpaceOnUse" x1="-6606.1665" y1="14.5756" x2="-6606.1665" y2="40.5275" gradientTransform="matrix(-1 0 0 -1 -6591.6665 57.2756)">
			<stop  offset="0" style="stop-color:#026839"/>
			<stop  offset="0.3795" style="stop-color:#33994B"/>
			<stop  offset="1" style="stop-color:#6FB64D"/>
		</linearGradient>
		<polygon class="st13" points="20,36.8 24.6,42.7 24.6,42.7 24.6,27 24.6,27 24.6,27 21.7,25.5 4.4,16.7 		"/>
		<polygon class="st2" points="24.6,42.7 24.6,42.7 24.6,42.7 		"/>
		
			<linearGradient id="SVGID_14_" gradientUnits="userSpaceOnUse" x1="24.6" y1="14.5756" x2="24.6" y2="14.5756" gradientTransform="matrix(1 0 0 -1 0 57.2756)">
			<stop  offset="0" style="stop-color:#33994B"/>
			<stop  offset="0.3397" style="stop-color:#6FB64D"/>
			<stop  offset="1" style="stop-color:#A3C851"/>
		</linearGradient>
		<polygon class="st14" points="24.6,42.7 24.6,42.7 24.6,42.7 		"/>
		
			<linearGradient id="SVGID_15_" gradientUnits="userSpaceOnUse" x1="-6616.2666" y1="14.5756" x2="-6616.2666" y2="14.5756" gradientTransform="matrix(-1 0 0 -1 -6591.6665 57.2756)">
			<stop  offset="0" style="stop-color:#026839"/>
			<stop  offset="0.3795" style="stop-color:#33994B"/>
			<stop  offset="1" style="stop-color:#6FB64D"/>
		</linearGradient>
		<polygon class="st15" points="24.6,42.7 24.6,42.7 24.6,42.7 		"/>
	</g>
	<g>
		<g>
			<polygon points="79.8,30.6 87.4,30.6 87.4,26.2 79.8,26.2 79.8,23 87.9,23 87.9,18.5 74.2,18.5 74.2,38.6 88.4,38.6 88.4,34.1 
				79.8,34.1 			"/>
		</g>
		<g>
			<path d="M106.1,28.3c0.6-1,0.9-2.2,0.9-3.6c0-1.1-0.2-2.1-0.6-2.9s-1-1.4-1.7-1.9s-1.5-0.8-2.5-1.1c-0.9-0.2-2-0.3-3-0.3h-8.1
				v20.1h5.7v-7.2h1.3l3.7,7.2h6.3l-4.7-8.2C104.6,29.9,105.4,29.2,106.1,28.3z M101.1,26c-0.2,0.3-0.3,0.5-0.6,0.7
				c-0.2,0.2-0.5,0.3-0.8,0.4s-0.6,0.1-0.9,0.1h-1.9V23h1.9c0.7,0,1.3,0.1,1.8,0.4c0.5,0.2,0.7,0.8,0.7,1.5
				C101.3,25.4,101.2,25.7,101.1,26z"/>
		</g>
		<g>
			<rect x="109.3" y="18.5" width="5.7" height="20.1"/>
		</g>
		<g>
			<path d="M132.9,20.6c-1-0.8-2.2-1.3-3.6-1.7c-1.4-0.3-2.8-0.5-4.2-0.5h-7.5v20.1h7.7c1.4,0,2.8-0.2,4.1-0.6
				c1.3-0.4,2.5-1,3.6-1.8c1-0.8,1.9-1.9,2.5-3.2s0.9-2.8,0.9-4.6c0-1.9-0.3-3.5-0.9-4.8C134.8,22.4,134,21.4,132.9,20.6z M129.9,31
				c-0.3,0.7-0.7,1.3-1.2,1.7s-1.1,0.7-1.8,0.9c-0.7,0.2-1.4,0.3-2.1,0.3h-1.4V23.2h1.5c0.8,0,1.5,0.1,2.1,0.3
				c0.7,0.2,1.2,0.5,1.7,0.9s0.9,0.9,1.2,1.6s0.4,1.5,0.4,2.5C130.3,29.5,130.2,30.3,129.9,31z"/>
		</g>
		<g>
			<polygon points="62.8,30.8 58.3,18.5 52.6,18.5 59.9,38.6 65.6,38.6 73.1,18.5 67.3,18.5 			"/>
		</g>
		<g>
			<path d="M148.7,18c-5.9,0-10.6,4.7-10.6,10.6c0,5.8,4.7,10.6,10.6,10.6c5.8,0,10.6-4.7,10.6-10.6S154.6,18,148.7,18z M148.7,33.7
				c-2.9,0-5.2-2.3-5.2-5.2s2.3-5.2,5.2-5.2s5.2,2.3,5.2,5.2S151.5,33.7,148.7,33.7z"/>
		</g>
		<g>
			<path d="M171.5,33.7c-2.9,0-5.2-2.3-5.2-5.2s2.3-5.2,5.2-5.2c2.1,0,4,1.3,4.8,3.1l5.2-1.4c-1.4-4.1-5.4-7.1-10-7.1
				c-5.9,0-10.6,4.7-10.6,10.6c0,5.8,4.7,10.6,10.6,10.6c4.6,0,8.5-2.9,9.9-7l-5.2-1.4C175.4,32.5,173.5,33.7,171.5,33.7z"/>
		</g>
	</g>
	<g class="st16">
		<path class="st17" d="M203.3,39.1h-4.9l1.5-8.8h-7.2l-1.5,8.8h-4.9l3.6-21.1h5l-1.5,8.4h7.2l1.4-8.4h4.9L203.3,39.1z"/>
		<path class="st17" d="M215.6,31.6h-2.7l-1.3,7.5h-4.9l3.6-21.1l7.4,0c2.4,0,4.2,0.6,5.5,1.7c1.3,1.1,1.9,2.6,1.7,4.6
			c-0.1,1.5-0.5,2.8-1.3,3.8c-0.8,1-1.9,1.8-3.2,2.4l2.8,8.4v0.2h-5.3L215.6,31.6z M213.5,27.7l2.9,0c0.8,0,1.5-0.2,2.1-0.6
			c0.6-0.4,1-0.9,1.3-1.6s0.3-1.3,0.2-2c-0.2-1.1-0.9-1.6-2.1-1.7l-3.4,0L213.5,27.7z"/>
	</g>
</g>
</svg>
