<?xml version="1.0" encoding="utf-8"?>
<!-- Generator: Adobe Illustrator 17.0.0, SVG Export Plug-In . SVG Version: 6.00 Build 0)  -->
<!DOCTYPE svg PUBLIC "-//W3C//DTD SVG 1.1//EN" "http://www.w3.org/Graphics/SVG/1.1/DTD/svg11.dtd">
<svg version="1.1" id="Layer_1" xmlns="http://www.w3.org/2000/svg" xmlns:xlink="http://www.w3.org/1999/xlink" x="0px" y="0px"
	 width="300px" height="300px" viewBox="0 0 300 300" enable-background="new 0 0 300 300" xml:space="preserve">
<linearGradient id="SVGID_1_" gradientUnits="userSpaceOnUse" x1="-671.3598" y1="3086.9988" x2="-493.8684" y2="3086.9988" gradientTransform="matrix(1 0 0 -1 701.0258 3189.3281)">
	<stop  offset="0" style="stop-color:#0D3455"/>
	<stop  offset="0.932" style="stop-color:#010406"/>
	<stop  offset="1" style="stop-color:#000000"/>
</linearGradient>
<path fill="url(#SVGID_1_)" d="M207.157,57.956c0-3.098-1.182-6.192-3.546-8.556c-2.364-2.364-5.462-3.546-8.556-3.546H41.768
	c-3.098,0-6.196,1.182-8.56,3.546c-2.36,2.363-3.542,5.458-3.542,8.556v100.848h177.491V57.956z"/>
<rect x="41.664" y="57.668" fill="#FFFFFF" width="154" height="89"/>
<path fill="#DFE3E6" d="M207.157,170.906c0,3.098-1.182,6.192-3.546,8.556c-2.364,2.364-5.462,3.546-8.556,3.546H41.768
	c-3.098,0-6.196-1.182-8.56-3.546c-2.36-2.363-3.542-5.458-3.542-8.556v-12.102h177.491V170.906z"/>
<rect x="90.664" y="183.668" fill="#CFD3D6" width="56" height="24"/>
<line fill="none" stroke="#DFE3E6" stroke-width="2" stroke-miterlimit="10" x1="82.664" y1="210.668" x2="154.664" y2="210.668"/>
<rect x="49.664" y="64.668" fill="#08994B" width="138" height="73"/>
<linearGradient id="SVGID_2_" gradientUnits="userSpaceOnUse" x1="-517.3358" y1="3605.3318" x2="-501.3357" y2="3605.3318" gradientTransform="matrix(1 0 0 -1 563 3853)">
	<stop  offset="0" style="stop-color:#0D3455"/>
	<stop  offset="0.932" style="stop-color:#010406"/>
	<stop  offset="1" style="stop-color:#000000"/>
</linearGradient>
<rect x="45.664" y="223.668" fill="url(#SVGID_2_)" width="16" height="48"/>
<linearGradient id="SVGID_3_" gradientUnits="userSpaceOnUse" x1="-517.3358" y1="3605.3318" x2="-408.3357" y2="3605.3318" gradientTransform="matrix(1 0 0 -1 680 3853)">
	<stop  offset="0" style="stop-color:#0D3455"/>
	<stop  offset="0.932" style="stop-color:#010406"/>
	<stop  offset="1" style="stop-color:#000000"/>
</linearGradient>
<rect x="162.664" y="223.668" fill="url(#SVGID_3_)" width="109" height="48"/>
<line fill="none" stroke="#08994B" stroke-width="4" stroke-miterlimit="10" x1="187.664" y1="251.668" x2="247.664" y2="251.668"/>
<linearGradient id="SVGID_4_" gradientUnits="userSpaceOnUse" x1="-517.3358" y1="3621.8318" x2="-258.3357" y2="3621.8318" gradientTransform="matrix(1 0 0 -1 547 3845)">
	<stop  offset="0" style="stop-color:#0D3455"/>
	<stop  offset="0.932" style="stop-color:#010406"/>
	<stop  offset="1" style="stop-color:#000000"/>
</linearGradient>
<rect x="29.664" y="215.668" fill="url(#SVGID_4_)" width="259" height="15"/>
<rect x="58.075" y="129.797" fill="#A4CE4C" width="13.288" height="5.274"/>
<rect x="78.007" y="122.765" fill="#A4CE4C" width="13.288" height="12.307"/>
<rect x="97.939" y="115.732" fill="#A4CE4C" width="13.288" height="19.34"/>
<rect x="117.871" y="108.7" fill="#A4CE4C" width="13.288" height="26.372"/>
<rect x="137.803" y="101.666" fill="#A4CE4C" width="13.288" height="33.405"/>
<rect x="157.736" y="94.634" fill="#A4CE4C" width="13.288" height="40.438"/>
<path fill="#FFFFFF" d="M171.164,64.668c0.54,0,1.079,0.027,1.617,0.082s1.072,0.136,1.602,0.244
	c0.53,0.109,1.054,0.244,1.571,0.406c0.517,0.161,1.025,0.349,1.525,0.562c0.499,0.213,0.987,0.451,1.464,0.714
	c0.477,0.262,0.94,0.548,1.389,0.857c0.449,0.309,0.883,0.641,1.301,0.993c0.418,0.354,0.818,0.728,1.2,1.12
	c0.382,0.395,0.745,0.807,1.087,1.236c0.343,0.431,0.664,0.877,0.965,1.34s0.578,0.94,0.832,1.432
	c0.255,0.49,0.485,0.994,0.692,1.508c0.207,0.515,0.389,1.038,0.546,1.57c0.157,0.533,0.288,1.072,0.393,1.619
	c0.105,0.546,0.185,1.096,0.238,1.65c0.053,0.554,0.079,1.109,0.079,1.666s-0.026,1.112-0.079,1.666
	c-0.053,0.555-0.132,1.104-0.238,1.65s-0.237,1.086-0.393,1.618c-0.157,0.533-0.339,1.057-0.546,1.571
	c-0.207,0.514-0.438,1.017-0.692,1.508c-0.255,0.491-0.532,0.968-0.832,1.431s-0.622,0.91-0.965,1.341
	c-0.343,0.43-0.705,0.842-1.087,1.235s-0.782,0.768-1.2,1.12c-0.418,0.354-0.851,0.685-1.301,0.994s-0.912,0.596-1.389,0.857
	c-0.477,0.263-0.965,0.5-1.464,0.714c-0.499,0.213-1.007,0.4-1.525,0.562c-0.517,0.162-1.041,0.297-1.571,0.406
	c-0.53,0.107-1.064,0.189-1.602,0.244s-1.077,0.082-1.617,0.082c-0.54,0-1.08-0.027-1.617-0.082s-1.072-0.137-1.602-0.244
	c-0.53-0.109-1.054-0.244-1.571-0.406c-0.517-0.161-1.025-0.349-1.525-0.562c-0.499-0.214-0.987-0.451-1.464-0.714
	c-0.477-0.262-0.94-0.548-1.389-0.857s-0.883-0.641-1.301-0.994c-0.418-0.353-0.818-0.727-1.2-1.12s-0.745-0.806-1.087-1.235
	c-0.343-0.431-0.664-0.878-0.965-1.341s-0.578-0.939-0.832-1.431c-0.255-0.491-0.485-0.994-0.692-1.508
	c-0.207-0.515-0.389-1.038-0.546-1.571c-0.157-0.532-0.288-1.072-0.393-1.618s-0.185-1.096-0.238-1.65
	c-0.053-0.554-0.079-1.109-0.079-1.666s0.026-1.112,0.079-1.666c0.053-0.555,0.132-1.104,0.238-1.65
	c0.105-0.547,0.237-1.086,0.393-1.619c0.157-0.532,0.339-1.056,0.546-1.57c0.207-0.514,0.438-1.018,0.692-1.508
	c0.255-0.491,0.532-0.969,0.832-1.432s0.622-0.909,0.965-1.34c0.343-0.43,0.705-0.842,1.087-1.236c0.382-0.393,0.782-0.767,1.2-1.12
	c0.418-0.353,0.851-0.685,1.301-0.993c0.449-0.31,0.912-0.596,1.389-0.857c0.477-0.263,0.965-0.501,1.464-0.714
	c0.499-0.213,1.008-0.4,1.525-0.562c0.517-0.162,1.041-0.297,1.571-0.406c0.53-0.108,1.064-0.189,1.602-0.244
	S170.624,64.668,171.164,64.668z"/>
<polyline fill="none" stroke="#5E5C5C" stroke-width="5" stroke-miterlimit="10" points="247.494,199.143 271.698,126.533 
	211.189,66.024 "/>
<rect x="191.664" y="195.668" fill="#FAB400" width="80" height="20"/>
<path fill="#5E5C5C" d="M271.664,110.668c0.557,0,1.112,0.025,1.666,0.077c0.554,0.051,1.104,0.128,1.65,0.23
	c0.546,0.102,1.086,0.229,1.618,0.381c0.533,0.152,1.056,0.329,1.571,0.529c0.514,0.2,1.017,0.425,1.508,0.671
	c0.491,0.248,0.968,0.517,1.431,0.808c0.463,0.291,0.91,0.603,1.34,0.936c0.43,0.332,0.842,0.684,1.236,1.055
	c0.394,0.37,0.767,0.758,1.12,1.163s0.684,0.825,0.994,1.262c0.309,0.436,0.595,0.884,0.858,1.346c0.262,0.463,0.5,0.936,0.713,1.42
	s0.4,0.977,0.562,1.479c0.162,0.501,0.297,1.009,0.405,1.523c0.109,0.514,0.19,1.031,0.245,1.553s0.082,1.044,0.082,1.568
	c0,0.523-0.027,1.047-0.082,1.568c-0.055,0.521-0.136,1.039-0.245,1.553c-0.109,0.514-0.244,1.021-0.405,1.523
	s-0.349,0.994-0.562,1.479s-0.451,0.957-0.713,1.419s-0.548,0.911-0.858,1.347s-0.641,0.856-0.994,1.262
	c-0.353,0.404-0.727,0.793-1.12,1.163c-0.394,0.37-0.806,0.722-1.236,1.055c-0.43,0.332-0.877,0.644-1.34,0.936
	c-0.463,0.291-0.94,0.56-1.431,0.807s-0.994,0.471-1.508,0.672c-0.514,0.2-1.038,0.376-1.571,0.528s-1.072,0.279-1.618,0.382
	c-0.546,0.103-1.096,0.179-1.65,0.23s-1.109,0.077-1.666,0.077c-0.557,0-1.112-0.025-1.666-0.077s-1.104-0.128-1.65-0.23
	c-0.546-0.103-1.086-0.229-1.618-0.382s-1.056-0.328-1.571-0.528c-0.514-0.201-1.017-0.425-1.508-0.672s-0.968-0.516-1.431-0.807
	c-0.463-0.292-0.91-0.604-1.34-0.936c-0.43-0.333-0.842-0.685-1.236-1.055c-0.394-0.37-0.767-0.759-1.12-1.163
	c-0.353-0.405-0.684-0.826-0.994-1.262s-0.595-0.885-0.858-1.347s-0.5-0.935-0.713-1.419c-0.213-0.484-0.4-0.977-0.562-1.479
	s-0.297-1.01-0.405-1.523c-0.109-0.514-0.19-1.031-0.245-1.553c-0.055-0.521-0.082-1.045-0.082-1.568
	c0-0.524,0.027-1.047,0.082-1.568s0.136-1.039,0.245-1.553c0.109-0.515,0.244-1.022,0.405-1.523
	c0.162-0.502,0.349-0.994,0.562-1.479c0.213-0.484,0.451-0.957,0.713-1.42c0.262-0.462,0.548-0.91,0.858-1.346
	c0.309-0.437,0.641-0.856,0.994-1.262s0.727-0.793,1.12-1.163c0.394-0.371,0.806-0.723,1.236-1.055
	c0.43-0.333,0.877-0.645,1.34-0.936c0.463-0.291,0.94-0.56,1.431-0.808c0.491-0.246,0.994-0.471,1.508-0.671
	c0.514-0.2,1.038-0.377,1.571-0.529c0.533-0.151,1.072-0.279,1.618-0.381c0.546-0.103,1.096-0.18,1.65-0.23
	C270.552,110.694,271.107,110.668,271.664,110.668z"/>
<line fill="none" stroke="#5E5C5C" stroke-width="2" stroke-miterlimit="10" x1="211.664" y1="187.668" x2="211.664" y2="195.668"/>
<polygon fill="#FFC738" points="174.884,45.855 138.579,45.855 138.579,49.889 203.122,114.431 207.156,114.431 207.156,78.126 "/>
<rect x="186.843" y="29.086" transform="matrix(-0.7071 0.7071 -0.7071 -0.7071 380.0087 -53.5963)" fill="#FAB400" width="28.524" height="45.639"/>
<polygon fill="#CFD3D6" points="227.325,33.753 219.257,25.685 211.189,25.685 203.122,33.753 219.257,49.893 227.325,41.825 "/>
<path fill="#FFFFFF" d="M271.164,117.668c0.492,0,0.98,0.055,1.463,0.163c0.483,0.108,0.952,0.271,1.407,0.483
	c0.455,0.214,0.887,0.476,1.297,0.786c0.409,0.31,0.788,0.662,1.137,1.057s0.659,0.824,0.933,1.288
	c0.274,0.465,0.505,0.954,0.693,1.47c0.188,0.516,0.331,1.047,0.427,1.595c0.096,0.547,0.144,1.1,0.144,1.658
	c0,0.559-0.048,1.111-0.144,1.658c-0.096,0.547-0.238,1.079-0.427,1.595c-0.188,0.516-0.419,1.005-0.693,1.47
	c-0.274,0.464-0.584,0.893-0.933,1.287c-0.348,0.396-0.727,0.748-1.137,1.058s-0.842,0.571-1.297,0.785
	c-0.455,0.214-0.924,0.375-1.407,0.484c-0.483,0.108-0.971,0.163-1.463,0.163c-0.492,0-0.98-0.055-1.463-0.163
	c-0.483-0.109-0.952-0.271-1.407-0.484c-0.455-0.214-0.887-0.476-1.297-0.785s-0.788-0.662-1.137-1.058
	c-0.348-0.395-0.659-0.823-0.933-1.287c-0.274-0.465-0.505-0.954-0.693-1.47c-0.188-0.516-0.331-1.048-0.427-1.595
	c-0.096-0.547-0.144-1.1-0.144-1.658s0.048-1.111,0.144-1.658c0.096-0.548,0.238-1.079,0.427-1.595
	c0.188-0.516,0.419-1.005,0.693-1.47c0.274-0.464,0.584-0.894,0.933-1.288s0.727-0.747,1.137-1.057
	c0.409-0.311,0.842-0.572,1.297-0.786c0.455-0.213,0.924-0.375,1.407-0.483C270.184,117.723,270.672,117.668,271.164,117.668z"/>
</svg>
