<?xml version="1.0" encoding="utf-8"?>
<!-- Generator: Adobe Illustrator 17.0.0, SVG Export Plug-In . SVG Version: 6.00 Build 0)  -->
<!DOCTYPE svg PUBLIC "-//W3C//DTD SVG 1.1//EN" "http://www.w3.org/Graphics/SVG/1.1/DTD/svg11.dtd">
<svg version="1.1" id="Layer_1" xmlns="http://www.w3.org/2000/svg" xmlns:xlink="http://www.w3.org/1999/xlink" x="0px" y="0px"
	 width="300px" height="300px" viewBox="0 0 300 300" enable-background="new 0 0 300 300" xml:space="preserve">
<g>
	<rect x="58.984" y="200.982" fill="#A4CE4C" width="18" height="37"/>
	<rect x="86.984" y="167.982" fill="#A4CE4C" width="18" height="70"/>
	<rect x="112.984" y="179.982" fill="#A4CE4C" width="19" height="58"/>
	<rect x="140.984" y="155.982" fill="#A4CE4C" width="18" height="82"/>
	<rect x="167.984" y="194.982" fill="#A4CE4C" width="19" height="43"/>
	<rect x="195.984" y="146.982" fill="#A4CE4C" width="17" height="91"/>
	<rect x="221.984" y="174.982" fill="#A4CE4C" width="19" height="63"/>
	<polyline fill="none" stroke="#FFFFFF" stroke-width="5" stroke-linecap="round" stroke-miterlimit="10" points="237.982,150 
		195.508,192.475 171.237,168.203 128.763,210.678 104.492,186.406 58.984,231.914 	"/>
	<polyline fill="none" stroke="#FFFFFF" stroke-width="5" stroke-miterlimit="10" points="237.982,165.17 237.982,150 222.813,150 	
		"/>
	<path fill="#FFFFFF" d="M129.983,120.78c-1.226-1.99-2.943-3.498-4.894-4.472l-17.563-8.783H83.255l-17.563,8.783
		c-1.951,0.974-3.662,2.481-4.894,4.472c-1.235,1.99-1.814,4.199-1.814,6.38v13.737h72.813V127.16
		C131.797,124.979,131.217,122.771,129.983,120.78z"/>
	<path fill="#DFE3E6" d="M106.27,106.27c-0.546-0.549-1.001-1.207-1.317-1.967c-0.313-0.764-0.461-1.55-0.461-2.323v-6.589H86.289
		v6.589c0,0.773-0.149,1.56-0.461,2.323c-0.316,0.76-0.764,1.418-1.317,1.967l-1.256,1.256c0,6.702,5.434,12.135,12.136,12.135
		c6.702,0,12.135-5.433,12.135-12.135L106.27,106.27z"/>
	<path fill="#EFF4F7" d="M106.115,66.462c-2.958-2.964-6.845-4.444-10.725-4.444c-3.88,0-7.764,1.48-10.725,4.444
		c-2.964,2.962-4.444,6.845-4.444,10.726v6.067h0.006c0,8.119,5.054,18.203,15.163,18.203c10.109,0,15.163-10.084,15.163-18.203
		h0.006v-6.067C110.56,73.307,109.079,69.424,106.115,66.462z"/>
	<path fill="#FFFFFF" d="M239.202,120.78c-1.226-1.99-2.943-3.498-4.894-4.472l-17.563-8.783h-24.271l-17.563,8.783
		c-1.951,0.974-3.662,2.481-4.894,4.472c-1.235,1.99-1.814,4.199-1.814,6.38v13.737h72.813V127.16
		C241.016,124.979,240.437,122.771,239.202,120.78z"/>
	<path fill="#DFE3E6" d="M215.489,106.27c-0.546-0.549-1.001-1.207-1.317-1.967c-0.312-0.764-0.461-1.55-0.461-2.323v-6.589h-18.203
		v6.589c0,0.773-0.149,1.56-0.461,2.323c-0.316,0.76-0.765,1.418-1.317,1.967l-1.256,1.256c0,6.702,5.434,12.135,12.135,12.135
		s12.135-5.433,12.135-12.135L215.489,106.27z"/>
	<path fill="#EFF4F7" d="M215.334,66.462c-2.958-2.964-6.844-4.444-10.725-4.444s-7.764,1.48-10.725,4.444
		c-2.964,2.962-4.445,6.845-4.445,10.726v6.067h0.006c0,8.119,5.054,18.203,15.163,18.203s15.163-10.084,15.163-18.203h0.006v-6.067
		C219.779,73.307,218.299,69.424,215.334,66.462z"/>
	<path fill="#176939" d="M184.592,120.78c-1.226-1.99-2.943-3.498-4.893-4.472l-17.563-8.783h-24.271l-17.563,8.783
		c-1.951,0.974-3.662,2.481-4.894,4.472c-1.235,1.99-1.814,4.199-1.814,6.38v13.737h72.813V127.16
		C186.407,124.979,185.827,122.771,184.592,120.78z"/>
	<path fill="#DFE3E6" d="M160.879,106.27c-0.546-0.549-1.001-1.207-1.317-1.967c-0.313-0.764-0.461-1.55-0.461-2.323v-6.589h-18.203
		v6.589c0,0.773-0.149,1.56-0.461,2.323c-0.316,0.76-0.765,1.418-1.317,1.967l-1.256,1.256c0,6.702,5.433,12.135,12.135,12.135
		c6.702,0,12.135-5.433,12.135-12.135L160.879,106.27z"/>
	<path fill="#EFF4F7" d="M160.725,66.462c-2.958-2.964-6.844-4.444-10.725-4.444s-7.764,1.48-10.725,4.444
		c-2.964,2.962-4.445,6.845-4.445,10.726v6.067h0.006c0,8.119,5.054,18.203,15.163,18.203c10.109,0,15.163-10.084,15.163-18.203
		h0.006v-6.067C165.169,73.307,163.689,69.424,160.725,66.462z"/>
</g>
</svg>
