<?xml version="1.0" encoding="utf-8"?>
<!-- Generator: Adobe Illustrator 17.0.0, SVG Export Plug-In . SVG Version: 6.00 Build 0)  -->
<!DOCTYPE svg PUBLIC "-//W3C//DTD SVG 1.1//EN" "http://www.w3.org/Graphics/SVG/1.1/DTD/svg11.dtd">
<svg version="1.1" id="Layer_1" xmlns="http://www.w3.org/2000/svg" xmlns:xlink="http://www.w3.org/1999/xlink" x="0px" y="0px"
	 width="323px" height="71.333px" viewBox="0 0 323 71.333" enable-background="new 0 0 323 71.333" xml:space="preserve">
<polygon fill="#FFFFFF" points="292.976,71.333 30.024,71.333 0,0 323,0 "/>
<g>
	
		<linearGradient id="SVGID_1_" gradientUnits="userSpaceOnUse" x1="330.7099" y1="-32.474" x2="349.8517" y2="-7.8631" gradientTransform="matrix(1 0 0 -1 -65.5875 6.766)">
		<stop  offset="0" style="stop-color:#006537"/>
		<stop  offset="0.33" style="stop-color:#008A40"/>
		<stop  offset="0.66" style="stop-color:#36AC47"/>
		<stop  offset="1" style="stop-color:#36AC47"/>
	</linearGradient>
	<path fill="url(#SVGID_1_)" d="M276.157,26.755c0.345-0.252,0.42-0.737,0.167-1.082l-4.762-6.505
		c-0.253-0.346-0.737-0.419-1.082-0.168c-0.345,0.253-0.42,0.737-0.167,1.082l4.762,6.506c0.152,0.207,0.387,0.317,0.625,0.317
		C275.858,26.904,276.018,26.856,276.157,26.755z M283.233,26.13c0-0.856-0.693-1.548-1.548-1.548h-5.374
		c-0.855,0-1.548,0.693-1.548,1.548c0,0.855,0.693,1.548,1.548,1.548h5.374C282.54,27.679,283.233,26.985,283.233,26.13z
		 M275.7,24.162c-1.087,0-1.969,0.881-1.969,1.968c0,1.087,0.881,1.968,1.969,1.968c1.087,0,1.968-0.881,1.968-1.968
		C277.667,25.043,276.786,24.162,275.7,24.162z M276.035,38.837c-1.511,0-2.997-0.246-4.416-0.732l0.669-1.953
		c1.202,0.412,2.463,0.62,3.747,0.62c6.372,0,11.557-5.185,11.557-11.557s-5.184-11.557-11.557-11.557
		c-3.713,0-7.225,1.803-9.394,4.823l-1.677-1.204c2.555-3.559,6.695-5.684,11.071-5.684c7.511,0,13.622,6.111,13.622,13.622
		S283.545,38.837,276.035,38.837z"/>
	<text transform="matrix(1 0 0 1 226.297 46.1354)" fill="#009C42" font-family="'Roboto-BlackItalic'" font-size="30.2144">HR</text>
	<polygon points="57.67,7.577 55.998,8.542 35.015,20.657 33.344,21.622 33.344,23.552 33.344,47.782 33.344,49.712 35.015,50.676 
		55.998,62.791 57.67,63.756 59.342,62.791 80.325,50.676 81.996,49.712 81.996,47.782 81.996,23.552 81.996,21.622 80.325,20.657 
		59.342,8.542 	"/>
	<polygon points="57.67,59.896 36.687,47.782 36.687,23.552 57.67,11.438 78.653,23.552 78.653,47.782 	"/>
	<path fill="#FFFFFF" d="M57.67,9.894l-0.669,0.386L36.018,22.394L35.35,22.78v0.773v24.229v0.772l0.668,0.386l20.983,12.115
		l0.669,0.386l0.669-0.386l20.983-12.115l0.668-0.386v-0.772V23.552V22.78l-0.668-0.386L58.339,10.28L57.67,9.894z M57.67,11.438
		l20.983,12.115v24.229L57.67,59.896L36.687,47.782V23.552L57.67,11.438"/>
	
		<rect x="56.047" y="28.941" transform="matrix(-0.866 0.5001 -0.5001 -0.866 141.9951 21.1652)" fill="#FFFFFF" width="24.229" height="1.337"/>
	
		<rect x="46.51" y="17.495" transform="matrix(-0.4999 0.8661 -0.8661 -0.4999 96.4059 3.5484)" fill="#FFFFFF" width="1.338" height="24.229"/>
	
		<rect x="67.493" y="29.609" transform="matrix(-0.5001 0.866 -0.866 -0.5001 138.3807 3.5647)" fill="#FFFFFF" width="1.337" height="24.229"/>
	
		<rect x="35.064" y="41.056" transform="matrix(-0.866 0.5001 -0.5001 -0.866 108.8991 54.2639)" fill="#FFFFFF" width="24.229" height="1.337"/>
	<g>
		<defs>
			<polygon id="SVGID_2_" points="57.67,59.896 36.687,47.782 36.687,23.552 57.67,11.438 78.653,23.552 78.653,47.782 			"/>
		</defs>
		<clipPath id="SVGID_3_">
			<use xlink:href="#SVGID_2_"  overflow="visible"/>
		</clipPath>
		<g clip-path="url(#SVGID_3_)" enable-background="new    ">
			<g>
				<defs>
					<rect id="SVGID_4_" x="36.524" y="11.268" width="42.141" height="48.701"/>
				</defs>
				<clipPath id="SVGID_5_">
					<use xlink:href="#SVGID_4_"  overflow="visible"/>
				</clipPath>
				
					<linearGradient id="SVGID_6_" gradientUnits="userSpaceOnUse" x1="35.8034" y1="-33.808" x2="77.7695" y2="-33.808" gradientTransform="matrix(1 0 0 -1 0.8835 3.2835)">
					<stop  offset="0" style="stop-color:#339A4C"/>
					<stop  offset="0.3397" style="stop-color:#6EB94D"/>
					<stop  offset="1" style="stop-color:#A5CA50"/>
				</linearGradient>
				<polygon clip-path="url(#SVGID_5_)" fill="url(#SVGID_6_)" points="78.653,23.552 57.67,50.631 36.687,23.552 57.67,34.052 				
					"/>
				<path clip-path="url(#SVGID_5_)" fill="#FFFFFF" d="M32.031,19.727l3.599,4.644l20.983,27.077l1.057,1.364l1.057-1.364
					L79.71,24.372l3.599-4.644l-5.254,2.629L57.67,32.751L37.285,22.357L32.031,19.727z M78.653,23.552L57.67,50.63L36.687,23.552
					L57.67,34.246L78.653,23.552"/>
			</g>
		</g>
	</g>
	
		<linearGradient id="SVGID_7_" gradientUnits="userSpaceOnUse" x1="46.2949" y1="-47.3471" x2="46.2949" y2="-20.2689" gradientTransform="matrix(1 0 0 -1 0.8836 3.2835)">
		<stop  offset="0" style="stop-color:#036738"/>
		<stop  offset="0.3795" style="stop-color:#339A4C"/>
		<stop  offset="1" style="stop-color:#6EB94D"/>
	</linearGradient>
	<polygon fill="url(#SVGID_7_)" points="36.687,23.552 57.67,50.631 57.67,34.246 	"/>
	<rect x="57.001" y="50.631" fill="#FFFFFF" width="1.337" height="9.844"/>
	<polygon points="109.519,25.167 123.822,25.167 123.822,29.909 115.363,29.909 115.363,33.271 123.356,33.271 123.356,37.824 
		115.363,37.824 115.363,41.411 124.323,41.411 124.323,46.189 109.519,46.189 	"/>
	<path d="M133.177,34.241h1.971c0.335,0,0.656-0.036,0.968-0.11c0.31-0.072,0.592-0.204,0.842-0.374
		c0.25-0.175,0.453-0.411,0.61-0.712c0.154-0.297,0.234-0.683,0.234-1.158c0-0.792-0.257-1.324-0.772-1.583
		c-0.515-0.263-1.13-0.394-1.846-0.394h-2.007V34.241z M127.261,25.167h8.444c1.126,0,2.176,0.113,3.16,0.335
		c0.983,0.223,1.839,0.593,2.571,1.103c0.73,0.51,1.302,1.181,1.721,2.016c0.421,0.832,0.629,1.85,0.629,3.045
		c0,1.468-0.33,2.704-0.988,3.715c-0.66,1.013-1.554,1.75-2.679,2.222l4.92,8.586h-6.609l-3.887-7.467h-1.367v7.467h-5.916V25.167z"
		/>
	<rect x="146.19" y="25.167" width="5.988" height="21.022"/>
	<path d="M160.84,41.227h1.499c0.784,0,1.526-0.099,2.229-0.282c0.7-0.186,1.313-0.505,1.836-0.954
		c0.524-0.448,0.942-1.033,1.249-1.755c0.308-0.723,0.462-1.617,0.462-2.687c0-1.047-0.147-1.92-0.445-2.617
		c-0.296-0.694-0.703-1.258-1.213-1.678c-0.51-0.426-1.112-0.729-1.802-0.92c-0.688-0.18-1.426-0.276-2.209-0.276h-1.606V41.227z
		 M154.851,46.189V25.167h7.815c1.527,0,3,0.175,4.41,0.522c1.411,0.35,2.661,0.929,3.749,1.74c1.083,0.805,1.956,1.878,2.615,3.208
		c0.657,1.332,0.984,2.993,0.984,4.987c0,1.843-0.32,3.43-0.967,4.758c-0.646,1.335-1.506,2.429-2.581,3.289
		c-1.076,0.859-2.313,1.492-3.712,1.905c-1.396,0.409-2.836,0.613-4.319,0.613H154.851z"/>
	<polygon points="102.363,25.142 108.359,25.142 100.607,46.202 94.611,46.202 	"/>
	<polygon points="100.607,46.202 94.611,46.202 86.983,25.142 92.979,25.142 	"/>
	<path d="M187.253,30.253c-2.989,0-5.414,2.427-5.414,5.415c0,2.989,2.426,5.413,5.414,5.413c2.986,0,5.413-2.424,5.413-5.413
		C192.666,32.68,190.239,30.253,187.253,30.253z M198.324,35.668c0,6.101-4.946,11.046-11.046,11.046
		c-6.105,0-11.047-4.945-11.047-11.046c0-6.103,4.942-11.049,11.047-11.049C193.378,24.619,198.324,29.565,198.324,35.668z"/>
	<path d="M215.966,38.006c-0.873,1.816-2.797,3.075-4.947,3.075c-2.988,0-5.402-2.427-5.402-5.413c0-2.988,2.442-5.415,5.431-5.415
		c2.199,0,4.126,1.316,4.973,3.201l5.438-1.435c-1.508-4.309-5.605-7.399-10.423-7.399c-6.105,0-11.051,4.945-11.051,11.049
		c0,6.101,4.946,11.046,11.051,11.046c4.77,0,8.837-3.028,10.38-7.269L215.966,38.006z"/>
</g>
</svg>
