<?xml version="1.0" encoding="utf-8"?>
<!-- Generator: Adobe Illustrator 17.0.0, SVG Export Plug-In . SVG Version: 6.00 Build 0)  -->
<!DOCTYPE svg PUBLIC "-//W3C//DTD SVG 1.1//EN" "http://www.w3.org/Graphics/SVG/1.1/DTD/svg11.dtd">
<svg version="1.1" id="Layer_1" xmlns="http://www.w3.org/2000/svg" xmlns:xlink="http://www.w3.org/1999/xlink" x="0px" y="0px"
	 width="646px" height="197.326px" viewBox="0 0 646 197.326" enable-background="new 0 0 646 197.326" xml:space="preserve">
<g>
	<path fill="#B6B7B7" d="M598.699,3.361H47.326c-1.748,0-3.471,0-5.215,0.011c-1.461,0.007-2.908,0.035-4.379,0.059
		c-3.17,0.077-6.382,0.276-9.549,0.843c-3.191,0.559-6.155,1.51-9.059,2.985c-2.852,1.461-5.456,3.362-7.71,5.62
		c-2.282,2.254-4.17,4.869-5.617,7.724C4.316,23.5,3.376,26.478,2.82,29.669c-0.573,3.159-0.772,6.351-0.853,9.541
		c-0.045,1.461-0.049,2.929-0.073,4.39v5.201v99.728v5.211c0.025,1.479,0.028,2.911,0.073,4.394c0.08,3.191,0.28,6.382,0.853,9.541
		c0.556,3.191,1.496,6.183,2.978,9.07c1.447,2.841,3.334,5.456,5.617,7.696c2.254,2.272,4.858,4.166,7.71,5.613
		c2.905,1.492,5.868,2.429,9.059,3.006c3.167,0.567,6.379,0.755,9.549,0.846c1.472,0.028,2.918,0.049,4.379,0.049
		c1.744,0.01,3.467,0.01,5.215,0.01h551.372c1.713,0,3.453,0,5.166-0.01c1.45,0,2.939-0.021,4.393-0.049
		c3.191-0.091,6.392-0.279,9.528-0.846c3.195-0.576,6.162-1.513,9.094-3.006c2.849-1.447,5.456-3.341,7.706-5.613
		c2.268-2.24,4.159-4.855,5.631-7.696c1.461-2.887,2.412-5.879,2.95-9.07c0.587-3.16,0.772-6.351,0.884-9.541
		c0.018-1.482,0.018-2.915,0.018-4.394c0.038-1.733,0.038-3.453,0.038-5.211V48.801c0-1.744,0-3.474-0.038-5.201
		c0-1.461,0-2.929-0.018-4.39c-0.112-3.191-0.297-6.382-0.884-9.541c-0.538-3.191-1.489-6.169-2.95-9.066
		c-1.471-2.856-3.362-5.47-5.631-7.724c-2.251-2.258-4.858-4.159-7.706-5.62c-2.932-1.475-5.9-2.426-9.094-2.985
		c-3.135-0.566-6.337-0.765-9.528-0.843c-1.454-0.024-2.943-0.052-4.393-0.059C602.152,3.361,600.411,3.361,598.699,3.361"/>
	<path fill="#010101" d="M42.134,189.795c-1.454,0-2.87-0.017-4.31-0.052c-2.663-0.073-5.823-0.22-8.905-0.776
		c-2.908-0.528-5.494-1.384-7.895-2.611c-2.485-1.262-4.718-2.891-6.658-4.845c-1.971-1.936-3.593-4.162-4.862-6.651
		c-1.234-2.408-2.079-4.991-2.586-7.899c-0.584-3.205-0.73-6.459-0.793-8.937c-0.031-1.003-0.07-4.351-0.07-4.351V43.599
		c0,0,0.042-3.292,0.07-4.264c0.063-2.495,0.21-5.746,0.787-8.923c0.51-2.922,1.356-5.501,2.59-7.916
		c1.269-2.499,2.891-4.736,4.837-6.662c1.971-1.975,4.215-3.607,6.683-4.872c2.45-1.241,5.029-2.094,7.878-2.593
		c3.209-0.573,6.462-0.716,8.941-0.783l4.299-0.056h561.704l4.351,0.059c2.44,0.063,5.693,0.206,8.853,0.776
		c2.873,0.5,5.47,1.359,7.962,2.611c2.443,1.251,4.683,2.884,6.634,4.841c1.947,1.933,3.583,4.184,4.876,6.69
		c1.227,2.436,2.066,5.015,2.551,7.857c0.552,3.006,0.724,6.095,0.828,8.993c0.01,1.353,0.01,2.8,0.01,4.243
		c0.039,1.786,0.039,3.488,0.039,5.201v99.729c0,1.73,0,3.422-0.039,5.124c0,1.552,0,2.971-0.018,4.432
		c-0.098,2.803-0.269,5.889-0.814,8.829c-0.493,2.922-1.332,5.505-2.572,7.959c-1.283,2.475-2.918,4.715-4.841,6.602
		c-1.968,1.992-4.201,3.618-6.668,4.876c-2.471,1.255-4.991,2.087-7.948,2.618c-3.051,0.556-6.211,0.703-8.906,0.776
		c-1.395,0.035-2.859,0.052-4.278,0.052l-5.166,0.011L42.134,189.795z"/>
	<path fill="#FFFFFF" d="M158.921,100.093c-0.119-13.107,10.733-19.485,11.23-19.782c-6.144-8.965-15.672-10.188-19.02-10.286
		c-8-0.839-15.756,4.792-19.835,4.792c-4.156,0-10.436-4.704-17.196-4.565c-8.703,0.133-16.846,5.169-21.313,12.998
		c-9.216,15.955-2.342,39.404,6.487,52.304c4.418,6.312,9.576,13.368,16.333,13.117c6.609-0.276,9.077-4.215,17.056-4.215
		c7.906,0,10.219,4.215,17.112,4.057c7.091-0.119,11.562-6.347,15.822-12.718c5.103-7.242,7.154-14.372,7.235-14.739
		C172.667,121.001,159.057,115.811,158.921,100.093"/>
	<path fill="#FFFFFF" d="M145.905,61.545c3.554-4.442,5.987-10.492,5.312-16.633c-5.148,0.23-11.583,3.558-15.287,7.909
		c-3.275,3.834-6.204,10.111-5.449,16.018C136.262,69.27,142.193,65.925,145.905,61.545"/>
	<path fill="#FFFFFF" d="M242.469,132.681h-22.554l-5.417,15.993h-9.552l21.362-59.168h9.926l21.365,59.168h-9.72L242.469,132.681z
		 M222.25,125.303h17.877l-8.811-25.957h-0.248L222.25,125.303z"/>
	<path fill="#FFFFFF" d="M303.735,127.109c0,13.407-7.175,22.019-18.003,22.019c-6.148,0-11.027-2.747-13.575-7.546h-0.203v21.369
		h-8.857v-57.417h8.57v7.179h0.164c2.461-4.631,7.71-7.63,13.736-7.63C296.517,105.083,303.735,113.74,303.735,127.109
		 M294.634,127.109c0-8.734-4.516-14.476-11.401-14.476c-6.767,0-11.317,5.861-11.317,14.476c0,8.692,4.55,14.512,11.317,14.512
		C290.118,141.62,294.634,135.92,294.634,127.109"/>
	<path fill="#FFFFFF" d="M351.219,127.109c0,13.407-7.175,22.019-18.003,22.019c-6.148,0-11.03-2.747-13.575-7.546h-0.206v21.369
		h-8.853v-57.417h8.57v7.179h0.164c2.461-4.631,7.71-7.63,13.736-7.63C344.001,105.083,351.219,113.74,351.219,127.109
		 M342.118,127.109c0-8.734-4.516-14.476-11.401-14.476c-6.767,0-11.317,5.861-11.317,14.476c0,8.692,4.55,14.512,11.317,14.512
		C337.602,141.62,342.118,135.92,342.118,127.109"/>
	<path fill="#FFFFFF" d="M382.602,132.191c0.657,5.868,6.357,9.72,14.148,9.72c7.462,0,12.83-3.851,12.83-9.143
		c0-4.592-3.237-7.346-10.905-9.23l-7.668-1.845c-10.866-2.625-15.91-7.707-15.91-15.952c0-10.209,8.895-17.22,21.53-17.22
		c12.502,0,21.075,7.011,21.362,17.22h-8.937c-0.535-5.906-5.418-9.468-12.551-9.468c-7.134,0-12.016,3.607-12.016,8.853
		c0,4.183,3.118,6.644,10.747,8.528l6.518,1.601c12.138,2.876,17.185,7.752,17.185,16.406c0,11.073-8.818,18.003-22.844,18.003
		c-13.124,0-21.984-6.766-22.557-17.472H382.602z"/>
	<path fill="#FFFFFF" d="M438.047,95.325v10.209h8.203v7.015h-8.203v23.78c0,3.698,1.643,5.418,5.249,5.418
		c0.902,0,2.342-0.126,2.911-0.203v6.973c-0.982,0.244-2.95,0.409-4.918,0.409c-8.734,0-12.142-3.285-12.142-11.649v-24.727h-6.27
		v-7.015h6.27V95.325H438.047z"/>
	<path fill="#FFFFFF" d="M451.003,127.109c0-13.575,7.993-22.103,20.46-22.103c12.509,0,20.467,8.528,20.467,22.103
		c0,13.613-7.916,22.103-20.467,22.103C458.916,149.212,451.003,140.722,451.003,127.109 M482.907,127.109
		c0-9.311-4.268-14.805-11.443-14.805c-7.175,0-11.439,5.536-11.439,14.805c0,9.349,4.264,14.802,11.439,14.802
		C478.639,141.911,482.907,136.458,482.907,127.109"/>
	<path fill="#FFFFFF" d="M499.231,105.534h8.448v7.347h0.203c1.356-4.883,5.292-7.797,10.377-7.797c1.272,0,2.338,0.168,3.034,0.332
		v8.283c-0.695-0.29-2.254-0.535-3.977-0.535c-5.7,0-9.227,3.855-9.227,9.922v25.591h-8.857V105.534z"/>
	<path fill="#FFFFFF" d="M562.122,136.008c-1.192,7.829-8.818,13.204-18.576,13.204c-12.551,0-20.341-8.409-20.341-21.9
		c0-13.533,7.832-22.309,19.967-22.309c11.939,0,19.443,8.199,19.443,21.281v3.034h-30.47v0.535c0,7.381,4.634,12.222,11.607,12.222
		c4.917,0,8.773-2.338,9.961-6.067H562.122z M532.186,123.129h21.568c-0.206-6.602-4.428-10.95-10.583-10.95
		C537.062,112.179,532.637,116.611,532.186,123.129"/>
	<path fill="#FFFFFF" d="M221.141,44.966c8.43,0,13.379,5.179,13.379,14.127c0,9.084-4.911,14.302-13.379,14.302h-10.268V44.966
		H221.141z M215.287,69.375h5.361c5.945,0,9.377-3.705,9.377-10.226c0-6.424-3.488-10.167-9.377-10.167h-5.361V69.375z"/>
	<path fill="#FFFFFF" d="M239.508,62.658c0-6.916,3.862-11.135,10.125-11.135c6.249,0,10.111,4.219,10.111,11.135
		c0,6.956-3.844,11.153-10.111,11.153C243.352,73.811,239.508,69.614,239.508,62.658 M255.389,62.658
		c0-4.648-2.09-7.367-5.757-7.367c-3.68,0-5.749,2.719-5.749,7.367c0,4.691,2.069,7.389,5.749,7.389
		C253.299,70.047,255.389,67.328,255.389,62.658"/>
	<polygon fill="#FFFFFF" points="286.646,73.396 282.253,73.396 277.818,57.594 277.482,57.594 273.068,73.396 268.716,73.396 
		262.803,51.94 267.098,51.94 270.943,68.314 271.257,68.314 275.668,51.94 279.729,51.94 284.144,68.314 284.479,68.314 
		288.303,51.94 292.539,51.94 	"/>
	<path fill="#FFFFFF" d="M297.512,51.941h4.075v3.408h0.318c1.042-2.384,3.174-3.824,6.403-3.824c4.788,0,7.427,2.876,7.427,7.983
		v13.889h-4.236V60.57c0-3.45-1.499-5.166-4.631-5.166c-3.132,0-5.12,2.094-5.12,5.442v12.551h-4.236V51.941z"/>
	<rect x="322.484" y="43.566" fill="#FFFFFF" width="4.233" height="29.831"/>
	<path fill="#FFFFFF" d="M332.604,62.658c0-6.916,3.862-11.135,10.125-11.135c6.249,0,10.115,4.219,10.115,11.135
		c0,6.956-3.848,11.153-10.115,11.153C336.449,73.811,332.604,69.614,332.604,62.658 M348.486,62.658
		c0-4.648-2.09-7.367-5.757-7.367c-3.68,0-5.753,2.719-5.753,7.367c0,4.691,2.073,7.389,5.753,7.389
		C346.396,70.047,348.486,67.328,348.486,62.658"/>
	<path fill="#FFFFFF" d="M357.299,67.326c0-3.859,2.876-6.088,7.983-6.403l5.812-0.332v-1.856c0-2.265-1.499-3.544-4.393-3.544
		c-2.363,0-4.002,0.867-4.47,2.384h-4.1c0.43-3.684,3.897-6.05,8.766-6.05c5.379,0,8.413,2.681,8.413,7.21v14.662h-4.075v-3.016
		h-0.336c-1.279,2.149-3.624,3.369-6.445,3.369C360.316,73.75,357.299,71.248,357.299,67.326 M371.094,65.494v-1.793l-5.239,0.335
		c-2.957,0.199-4.295,1.202-4.295,3.093c0,1.933,1.674,3.058,3.977,3.058C368.728,70.188,371.094,68.154,371.094,65.494"/>
	<path fill="#FFFFFF" d="M380.877,62.658c0-6.777,3.485-11.076,8.906-11.076c2.936,0,5.417,1.398,6.578,3.764h0.318V43.565h4.236
		v29.83h-4.058v-3.387h-0.336c-1.279,2.342-3.785,3.743-6.738,3.743C384.324,73.752,380.877,69.453,380.877,62.658 M385.25,62.658
		c0,4.554,2.146,7.291,5.732,7.291c3.572,0,5.777-2.779,5.777-7.27c0-4.47-2.23-7.291-5.777-7.291
		C387.417,55.388,385.25,58.146,385.25,62.658"/>
	<path fill="#FFFFFF" d="M418.434,62.658c0-6.916,3.862-11.135,10.125-11.135c6.249,0,10.111,4.219,10.111,11.135
		c0,6.956-3.845,11.153-10.111,11.153C422.279,73.811,418.434,69.614,418.434,62.658 M434.316,62.658
		c0-4.648-2.09-7.367-5.757-7.367c-3.68,0-5.753,2.719-5.753,7.367c0,4.691,2.073,7.389,5.753,7.389
		C432.226,70.047,434.316,67.328,434.316,62.658"/>
	<path fill="#FFFFFF" d="M444.353,51.941h4.075v3.408h0.318c1.042-2.384,3.174-3.824,6.403-3.824c4.788,0,7.427,2.876,7.427,7.983
		v13.889h-4.236V60.57c0-3.45-1.499-5.166-4.631-5.166c-3.132,0-5.12,2.094-5.12,5.442v12.551h-4.236V51.941z"/>
	<path fill="#FFFFFF" d="M486.504,46.599v5.438h4.648v3.565h-4.648v11.034c0,2.248,0.926,3.233,3.034,3.233
		c0.65,0,1.024-0.042,1.615-0.098v3.53c-0.688,0.116-1.478,0.213-2.303,0.213c-4.711,0-6.585-1.653-6.585-5.791V55.602h-3.408
		v-3.565h3.408v-5.438H486.504z"/>
	<path fill="#FFFFFF" d="M496.936,43.565h4.198v11.824h0.336c1.041-2.408,3.31-3.844,6.543-3.844c4.568,0,7.389,2.897,7.389,8
		v13.851h-4.24V60.59c0-3.429-1.594-5.162-4.585-5.162c-3.474,0-5.403,2.188-5.403,5.438v12.53h-4.236V43.565z"/>
	<path fill="#FFFFFF" d="M540.093,67.605c-0.965,3.841-4.393,6.207-9.297,6.207c-6.148,0-9.912-4.218-9.912-11.076
		c0-6.857,3.841-11.212,9.891-11.212c5.97,0,9.573,4.079,9.573,10.821v1.475h-15.151v0.238c0.14,3.76,2.328,6.148,5.714,6.148
		c2.562,0,4.317-0.926,5.103-2.6H540.093z M525.197,60.689h10.838c-0.098-3.369-2.146-5.56-5.281-5.56
		C527.623,55.128,525.435,57.337,525.197,60.689"/>
</g>
</svg>
