<?xml version="1.0" encoding="utf-8"?>
<!-- Generator: Adobe Illustrator 17.0.0, SVG Export Plug-In . SVG Version: 6.00 Build 0)  -->
<!DOCTYPE svg PUBLIC "-//W3C//DTD SVG 1.1//EN" "http://www.w3.org/Graphics/SVG/1.1/DTD/svg11.dtd">
<svg version="1.1" id="Layer_1" xmlns="http://www.w3.org/2000/svg" xmlns:xlink="http://www.w3.org/1999/xlink" x="0px" y="0px"
	 width="1000px" height="1209px" viewBox="0 0 1000 1209" enable-background="new 0 0 1000 1209" xml:space="preserve">
<g>
	<g>
		<defs>
			<polygon id="SVGID_1_" points="409.349,774.433 500.006,891.418 500.006,891.39 500.006,576.996 442.164,547.509 97.333,371.786 
							"/>
		</defs>
		<clipPath id="SVGID_2_">
			<use xlink:href="#SVGID_1_"  overflow="visible"/>
		</clipPath>
		
			<linearGradient id="SVGID_3_" gradientUnits="userSpaceOnUse" x1="-171.0161" y1="4394.4897" x2="-158.015" y2="4394.4897" gradientTransform="matrix(0 -39.9681 39.9681 0 -175340.8281 -5943.7754)">
			<stop  offset="0" style="stop-color:#096939"/>
			<stop  offset="0.3795" style="stop-color:#34994B"/>
			<stop  offset="1" style="stop-color:#6FB64C"/>
		</linearGradient>
		<rect x="97.333" y="371.786" clip-path="url(#SVGID_2_)" fill="url(#SVGID_3_)" width="402.673" height="519.632"/>
	</g>
	<path fill="#FFFFFF" d="M958.747,300.559L533.855,55.237L500,35.697l-33.842,19.54L41.253,300.559l-33.855,19.54v39.08v490.64
		v39.083l33.855,19.54l424.905,245.321l33.842,19.54l33.855-19.54l424.892-245.321l33.855-19.54v-39.083v-490.64v-39.08
		L958.747,300.559z M966.834,371.777v464.964v37.039l-32.087,18.527l-402.66,232.476L500,1143.307l-32.074-18.524L65.253,892.307
		L33.166,873.78v-37.039V371.777v-37.039l32.087-18.515L467.926,83.738L500,65.21l32.087,18.527l402.66,232.485l32.087,18.515
		V371.777z"/>
	<polygon fill="#010101" points="97.328,413.675 97.328,821.927 315.904,695.724 	"/>
	<polygon fill="#010101" points="902.676,821.93 902.676,413.681 684.099,695.743 	"/>
	<polygon fill="#010101" points="520.287,907.137 512.837,916.745 512.837,1061.815 889.846,844.146 668.241,716.204 	"/>
	<path fill="#010101" d="M97.328,371.777"/>
	<polygon fill="#010101" points="352.778,701.428 354.195,703.263 500.004,891.415 409.333,774.417 	"/>
	<polygon fill="#010101" points="331.763,716.207 110.158,844.152 487.166,1061.818 487.166,916.751 479.717,907.143 	"/>
	<path fill="#010101" d="M532.075,83.738L500.001,65.21l-32.074,18.527L65.254,316.223l-32.087,18.515v37.039v464.964v37.039
		l32.087,18.527l402.673,232.476l32.074,18.524l32.074-18.524l402.673-232.476l32.087-18.527v-37.039V371.777v-37.039
		l-32.087-18.515L532.075,83.738z M928.339,371.777v464.964v14.807l-12.833,7.424l-402.673,232.473l-12.832,7.412l-12.832-7.412
		L84.496,858.972l-12.832-7.424v-14.807V371.777v-14.82l12.832-7.399l402.673-232.485l12.832-7.412l12.832,7.412l402.673,232.485
		l12.833,7.399V371.777z"/>
	<polygon fill="#010101" points="661.671,682.79 902.674,371.777 652.206,694.988 	"/>
	<polygon fill="#010101" points="876.182,356.477 500.005,139.294 123.828,356.477 500.005,548.299 	"/>
	<path fill="#FFFFFF" d="M512.833,117.069l-12.832-7.408l-12.832,7.408L84.496,349.558l-12.832,7.399v14.82v464.961v14.81
		l12.832,7.421l402.673,232.488l12.832,7.399l12.832-7.399l402.673-232.488l12.832-7.421v-14.81V371.777v-14.82l-12.832-7.399
		L512.833,117.069z M500.001,139.288l376.177,217.186L500.001,548.293L123.825,356.474L500.001,139.288z M487.169,1061.815
		L110.16,844.149l221.605-127.946L479.719,907.14l7.45,9.608V1061.815z M97.328,821.93V413.678l218.576,282.049L97.328,821.93z
		 M512.833,1061.815V916.748l7.45-9.608l147.953-190.936l221.606,127.946L512.833,1061.815z M902.674,821.93L684.098,695.74
		l218.576-282.062V821.93z M661.671,682.79l-9.465,12.198L500.001,891.409v0.013L354.193,703.256l-1.417-1.822L97.328,371.777
		l344.831,175.751l57.842,29.459l402.673-205.21L661.671,682.79z"/>
	<path fill="#010101" d="M442.165,547.521L97.334,371.773L442.165,547.521z"/>
	<g>
		<defs>
			<polygon id="SVGID_4_" points="500.006,576.996 500.006,891.39 645.815,703.263 652.212,694.994 902.68,371.786 			"/>
		</defs>
		<clipPath id="SVGID_5_">
			<use xlink:href="#SVGID_4_"  overflow="visible"/>
		</clipPath>
		
			<linearGradient id="SVGID_6_" gradientUnits="userSpaceOnUse" x1="-197.8129" y1="4409.9277" x2="-184.8117" y2="4409.9277" gradientTransform="matrix(61.9443 0 0 -61.9443 12350.7041 273801.3125)">
			<stop  offset="0" style="stop-color:#34994B"/>
			<stop  offset="0.3397" style="stop-color:#6FB64C"/>
			<stop  offset="1" style="stop-color:#A2C851"/>
		</linearGradient>
		<rect x="500.006" y="371.786" clip-path="url(#SVGID_5_)" fill="url(#SVGID_6_)" width="402.673" height="519.607"/>
	</g>
</g>
</svg>
