<?xml version="1.0" encoding="utf-8"?>
<!-- Generator: Adobe Illustrator 17.0.0, SVG Export Plug-In . SVG Version: 6.00 Build 0)  -->
<!DOCTYPE svg PUBLIC "-//W3C//DTD SVG 1.1//EN" "http://www.w3.org/Graphics/SVG/1.1/DTD/svg11.dtd">
<svg version="1.1" id="Layer_1" xmlns="http://www.w3.org/2000/svg" xmlns:xlink="http://www.w3.org/1999/xlink" x="0px" y="0px"
	 width="300px" height="300px" viewBox="0 0 300 300" enable-background="new 0 0 300 300" xml:space="preserve">
<g>
	
		<linearGradient id="SVGID_1_" gradientUnits="userSpaceOnUse" x1="-370.5714" y1="2161.7329" x2="-370.5714" y2="2313.3687" gradientTransform="matrix(1 0 0 -1 522.7051 2400.2725)">
		<stop  offset="0" style="stop-color:#0D3455"/>
		<stop  offset="0.932" style="stop-color:#010406"/>
		<stop  offset="1" style="stop-color:#000000"/>
	</linearGradient>
	<path fill="url(#SVGID_1_)" d="M266.344,97.978l-3.384,61.242l-0.017,0.037l-4.289,77.564L44.871,238.54L37.923,94.05
		c0,0,0-5.572,5.825-7.146l88.925,3.094l126.885-0.76C259.559,89.238,266.344,90.287,266.344,97.978z"/>
	<path fill="#FFFFFF" d="M54.432,231.561h194.572c0,0,10.857-88.504,7.84-132.378c0,0-95.439-10.025-207.16-3.618
		C49.684,95.565,46.969,160.095,54.432,231.561z"/>
	
		<linearGradient id="SVGID_2_" gradientUnits="userSpaceOnUse" x1="-362.0713" y1="2223.7144" x2="-362.0713" y2="2239.5454" gradientTransform="matrix(1 0 0 -1 514.7328 2486.7871)">
		<stop  offset="0" style="stop-color:#0D3455"/>
		<stop  offset="0.932" style="stop-color:#010406"/>
		<stop  offset="1" style="stop-color:#000000"/>
	</linearGradient>
	<path fill="url(#SVGID_2_)" d="M23.148,251.464l2.111,10.251c0,0,157.029-0.751,254.051,1.357l2.865-15.831L23.148,251.464z"/>
	
		<linearGradient id="SVGID_3_" gradientUnits="userSpaceOnUse" x1="-362.0714" y1="2229.7017" x2="-362.0714" y2="2244.3413" gradientTransform="matrix(1 0 0 -1 514.7324 2481.165)">
		<stop  offset="0" style="stop-color:#0D3455"/>
		<stop  offset="0.932" style="stop-color:#010406"/>
		<stop  offset="1" style="stop-color:#000000"/>
	</linearGradient>
	<polygon fill="url(#SVGID_3_)" points="44.865,238.536 23.147,251.463 282.175,247.242 258.65,236.824 	"/>
	<g>
		<g>
			<g>
				<defs>
					<polygon id="SVGID_4_" points="53.983,238.463 53.983,250.961 247.801,247.803 247.801,236.824 					"/>
				</defs>
				<clipPath id="SVGID_5_">
					<use xlink:href="#SVGID_4_"  overflow="visible"/>
				</clipPath>
				<g clip-path="url(#SVGID_5_)">
					<defs>
						<rect id="SVGID_6_" x="53.983" y="236.824" width="193.818" height="14.137"/>
					</defs>
					<clipPath id="SVGID_7_">
						<use xlink:href="#SVGID_6_"  overflow="visible"/>
					</clipPath>
					<g clip-path="url(#SVGID_7_)">
						
							<image overflow="visible" width="808" height="59" xlink:href="9EA51135.jpg"  transform="matrix(0.24 0 0 0.24 53.9826 236.8239)">
						</image>
					</g>
				</g>
			</g>
		</g>
	</g>
	<g>
		<g>
			<g>
				<defs>
					<path id="SVGID_8_" d="M266.344,97.979l-3.384,61.242l-0.017,0.037l-5.193-2.026c2.244-32.333,0-59.253,0-59.253
						c-47.512-4.073-122.344-2.933-122.344-2.933l-2.732-5.048l126.885-0.76C259.559,89.238,266.344,90.287,266.344,97.979"/>
				</defs>
				<clipPath id="SVGID_9_">
					<use xlink:href="#SVGID_8_"  overflow="visible"/>
				</clipPath>
				<g clip-path="url(#SVGID_9_)">
					<defs>
						<rect id="SVGID_10_" x="132.674" y="89.238" width="133.67" height="70.02"/>
					</defs>
					<clipPath id="SVGID_11_">
						<use xlink:href="#SVGID_10_"  overflow="visible"/>
					</clipPath>
					<g clip-path="url(#SVGID_11_)">
						
							<image overflow="visible" width="557" height="292" xlink:href="9EA51137.jpg"  transform="matrix(0.24 0 0 0.24 132.6738 89.2378)">
						</image>
					</g>
				</g>
			</g>
		</g>
	</g>
	<g>
		<g>
			<g>
				<defs>
					<path id="SVGID_12_" d="M44.521,231.561l-2.825-57.398l7.506,6.589c0,0,1.084,31.662,3.798,50.809H44.521z"/>
				</defs>
				<clipPath id="SVGID_13_">
					<use xlink:href="#SVGID_12_"  overflow="visible"/>
				</clipPath>
				<g clip-path="url(#SVGID_13_)">
					<defs>
						<rect id="SVGID_14_" x="41.696" y="174.163" width="11.304" height="57.398"/>
					</defs>
					<clipPath id="SVGID_15_">
						<use xlink:href="#SVGID_14_"  overflow="visible"/>
					</clipPath>
					<g clip-path="url(#SVGID_15_)">
						
							<image overflow="visible" width="48" height="240" xlink:href="9EA51132.jpg"  transform="matrix(0.24 0 0 0.24 41.6961 174.1625)">
						</image>
					</g>
				</g>
			</g>
		</g>
	</g>
	<g>
		<g>
			<defs>
				<polygon id="SVGID_16_" points="54.433,231.563 53.001,232.619 249.834,233.561 249.005,231.563 				"/>
			</defs>
			<clipPath id="SVGID_17_">
				<use xlink:href="#SVGID_16_"  overflow="visible"/>
			</clipPath>
			<g clip-path="url(#SVGID_17_)">
				<defs>
					<rect id="SVGID_18_" x="53.001" y="231.563" width="196.833" height="1.998"/>
				</defs>
				<clipPath id="SVGID_19_">
					<use xlink:href="#SVGID_18_"  overflow="visible"/>
				</clipPath>
				<g clip-path="url(#SVGID_19_)">
					
						<image overflow="visible" width="821" height="9" xlink:href="9EA51133.jpg"  transform="matrix(0.24 0 0 0.24 53.0005 231.5626)">
					</image>
				</g>
			</g>
		</g>
	</g>
	<g opacity="0.6196">
		<g opacity="0.6196">
			<g>
				<defs>
					<polygon id="SVGID_20_" points="104.651,249.391 111.519,244.145 184.358,242.87 191.983,248.091 					"/>
				</defs>
				<clipPath id="SVGID_21_">
					<use xlink:href="#SVGID_20_"  overflow="visible"/>
				</clipPath>
				<g clip-path="url(#SVGID_21_)">
					<defs>
						<rect id="SVGID_22_" x="104.651" y="242.87" width="87.332" height="6.521"/>
					</defs>
					<clipPath id="SVGID_23_">
						<use xlink:href="#SVGID_22_"  overflow="visible"/>
					</clipPath>
					<g clip-path="url(#SVGID_23_)">
						
							<image overflow="visible" width="364" height="28" xlink:href="9EA5113D.jpg"  transform="matrix(0.24 0 0 0.24 104.6508 242.8696)">
						</image>
					</g>
				</g>
			</g>
		</g>
	</g>
	
		<linearGradient id="SVGID_24_" gradientUnits="userSpaceOnUse" x1="-452.2971" y1="2241.3325" x2="-452.2971" y2="2245.4458" gradientTransform="matrix(1 0 0 -1 537.014 2479.8711)">
		<stop  offset="0" style="stop-color:#0D3455"/>
		<stop  offset="0.932" style="stop-color:#010406"/>
		<stop  offset="1" style="stop-color:#000000"/>
	</linearGradient>
	<path fill="url(#SVGID_24_)" d="M64.459,238.539c0,0-0.226-2.369,0.979-4.113h39.552c0,0-0.528,0.99-0.68,4.113H64.459z"/>
	
		<linearGradient id="SVGID_25_" gradientUnits="userSpaceOnUse" x1="-389.1255" y1="2241.3325" x2="-389.1255" y2="2245.4458" gradientTransform="matrix(1 0 0 -1 611.0446 2479.8711)">
		<stop  offset="0" style="stop-color:#0D3455"/>
		<stop  offset="0.932" style="stop-color:#010406"/>
		<stop  offset="1" style="stop-color:#000000"/>
	</linearGradient>
	<path fill="url(#SVGID_25_)" d="M242.175,238.539c0,0,0.226-2.369-0.98-4.113h-39.55c0,0,0.528,0.99,0.678,4.113H242.175z"/>
	<path fill="#140047" d="M202.324,238.539l-1.114-1.246l0.437-2.867C201.646,234.425,202.534,235.603,202.324,238.539z"/>
	<path fill="#140047" d="M104.311,238.539l1.121-0.512l-0.441-3.602C104.991,234.425,104.322,234.849,104.311,238.539z"/>
	<polygon opacity="0.1804" fill="#FFFFFF" points="139.978,98.056 253.283,184.068 255.262,102.726 	"/>
	<polygon opacity="0.1804" fill="#FFFFFF" points="50.681,183.374 155.005,231.561 56.921,229.451 	"/>
	<path fill="#FF0C82" d="M257.374,253.246c0.281,0,0.551,0.054,0.811,0.161c0.26,0.107,0.489,0.261,0.687,0.46
		c0.199,0.198,0.352,0.428,0.459,0.688c0.108,0.259,0.161,0.529,0.161,0.811c0,0.28-0.054,0.551-0.161,0.811
		s-0.261,0.488-0.459,0.688c-0.199,0.198-0.428,0.352-0.687,0.459c-0.26,0.107-0.53,0.161-0.811,0.161s-0.551-0.054-0.811-0.161
		c-0.26-0.107-0.489-0.261-0.687-0.459c-0.199-0.199-0.352-0.428-0.459-0.688s-0.161-0.53-0.161-0.811
		c0-0.281,0.054-0.552,0.161-0.811c0.108-0.26,0.261-0.489,0.459-0.688c0.199-0.199,0.428-0.353,0.687-0.46
		C256.823,253.299,257.093,253.246,257.374,253.246z"/>
	<circle fill="#6EFFE8" cx="247.799" cy="255.365" r="2.996"/>
	<polyline fill="none" stroke="#A4CE4C" stroke-width="3" points="87.13,195.332 87.13,112.578 106.196,112.578 	"/>
	<polyline fill="none" stroke="#7BC45D" stroke-width="3" points="217.13,195.332 217.13,112.578 175.782,112.578 	"/>
	<rect x="64.147" y="149.332" fill="#A4CE4C" width="48" height="73"/>
	<path fill="#FAB400" d="M113.218,53.193c1.286-1.286,2.632-2.506,4.038-3.66c1.406-1.153,2.865-2.235,4.377-3.246
		c1.512-1.01,3.07-1.944,4.674-2.802c1.604-0.856,3.246-1.634,4.926-2.329c1.68-0.696,3.391-1.309,5.131-1.836
		c1.74-0.528,3.502-0.97,5.286-1.324c1.784-0.355,3.581-0.622,5.391-0.8c1.81-0.179,3.624-0.268,5.443-0.268
		s3.633,0.089,5.443,0.268c1.81,0.178,3.607,0.444,5.391,0.8c1.784,0.354,3.546,0.796,5.286,1.324
		c1.74,0.527,3.451,1.14,5.131,1.836c1.68,0.695,3.322,1.473,4.926,2.329c1.604,0.857,3.162,1.792,4.674,2.802
		c1.512,1.011,2.971,2.093,4.377,3.246c1.406,1.154,2.752,2.374,4.038,3.66s2.506,2.632,3.66,4.037
		c1.154,1.406,2.236,2.865,3.246,4.378c1.01,1.512,1.944,3.069,2.802,4.674s1.634,3.246,2.33,4.927
		c0.696,1.68,1.308,3.391,1.836,5.131c0.528,1.74,0.969,3.502,1.324,5.286c0.355,1.783,0.621,3.58,0.8,5.39
		c0.178,1.811,0.267,3.625,0.267,5.443s-0.089,3.633-0.267,5.443c-0.178,1.81-0.445,3.606-0.8,5.391
		c-0.355,1.783-0.796,3.545-1.324,5.286c-0.528,1.74-1.14,3.45-1.836,5.131c-0.696,1.68-1.473,3.322-2.33,4.926
		c-0.857,1.604-1.791,3.162-2.802,4.675c-1.01,1.512-2.092,2.971-3.246,4.377c-1.154,1.405-2.374,2.752-3.66,4.037
		c-1.286,1.286-2.632,2.506-4.038,3.66c-1.406,1.154-2.865,2.236-4.377,3.246c-1.512,1.011-3.07,1.944-4.674,2.802
		s-3.246,1.634-4.926,2.33c-1.68,0.696-3.391,1.308-5.131,1.836c-1.74,0.527-3.502,0.969-5.286,1.324
		c-1.784,0.354-3.581,0.621-5.391,0.8c-1.81,0.178-3.624,0.267-5.443,0.267s-3.633-0.089-5.443-0.267
		c-1.81-0.179-3.607-0.445-5.391-0.8c-1.784-0.355-3.546-0.797-5.286-1.324c-1.74-0.528-3.451-1.14-5.131-1.836
		s-3.322-1.473-4.926-2.33c-1.604-0.857-3.162-1.791-4.674-2.802c-1.512-1.01-2.971-2.092-4.377-3.246
		c-1.406-1.154-2.752-2.374-4.038-3.66c-1.286-1.285-2.506-2.632-3.66-4.037c-1.154-1.406-2.236-2.865-3.246-4.377
		c-1.01-1.513-1.944-3.07-2.802-4.675c-0.857-1.604-1.634-3.246-2.33-4.926c-0.696-1.681-1.308-3.391-1.836-5.132
		c-0.528-1.74-0.969-3.502-1.324-5.285c-0.355-1.784-0.621-3.581-0.8-5.391c-0.178-1.811-0.267-3.625-0.267-5.443
		s0.089-3.633,0.267-5.443c0.178-1.81,0.445-3.606,0.8-5.39c0.355-1.784,0.796-3.546,1.324-5.286c0.528-1.74,1.14-3.451,1.836-5.131
		c0.696-1.681,1.473-3.322,2.33-4.927c0.857-1.604,1.791-3.162,2.802-4.674c1.01-1.513,2.092-2.972,3.246-4.378
		C110.712,55.825,111.932,54.479,113.218,53.193z"/>
	<path fill="#DC9600" d="M108.06,92.458c0-28.794,21.916-52.463,49.977-55.25c-1.827-0.182-3.678-0.281-5.553-0.281
		c-30.669,0-55.531,24.862-55.531,55.531c0,30.668,24.862,55.53,55.531,55.53c1.874,0,3.726-0.099,5.553-0.28
		C129.976,144.921,108.06,121.252,108.06,92.458z"/>
	<path fill="#FFFFFF" d="M152.485,109.118c-9.187,0-16.66-7.473-16.66-16.659s7.473-16.658,16.66-16.658
		c9.186,0,16.658,7.472,16.658,16.658S161.671,109.118,152.485,109.118z M191.356,98.012V86.906h-11.77
		c-0.724-3.525-2.032-6.84-3.953-9.742l8.265-8.265l-7.853-7.853l-8.266,8.265c-2.905-1.923-6.212-3.259-9.741-3.986V53.587h-11.106
		v11.737c-3.528,0.728-6.835,2.063-9.741,3.986l-8.265-8.265l-7.853,7.853l8.266,8.265c-1.922,2.902-3.229,6.217-3.953,9.742
		h-11.771v11.106h11.771c0.723,3.524,2.031,6.839,3.953,9.741l-8.266,8.265l7.853,7.854l8.265-8.266
		c2.906,1.924,6.213,3.259,9.741,3.986v11.738h11.106v-11.738c3.529-0.728,6.836-2.063,9.741-3.986l8.266,8.266l7.853-7.854
		l-8.265-8.265c1.921-2.902,3.229-6.216,3.952-9.741H191.356z"/>
	<g>
		<rect x="75.147" y="165.332" width="24" height="4"/>
		<rect x="75.147" y="185.332" width="24" height="4"/>
		<rect x="75.147" y="205.332" width="24" height="4"/>
	</g>
	<path opacity="0.1216" fill="#FFFFFF" d="M89.656,182.412c12-18.055,22.492-32.798,22.492-32.798v72.219h-48
		C64.147,221.833,77.656,200.466,89.656,182.412z"/>
	<rect x="194.147" y="149.332" fill="#69BC46" width="48" height="73"/>
	<g>
		<rect x="206.147" y="165.332" width="24" height="4"/>
		<rect x="206.147" y="185.332" width="24" height="4"/>
		<rect x="206.147" y="205.332" width="24" height="4"/>
	</g>
	<path opacity="0.1216" fill="#FFFFFF" d="M219.656,182.412c12-18.055,22.492-32.798,22.492-32.798v72.219h-48
		C194.147,221.833,207.656,200.466,219.656,182.412z"/>
</g>
</svg>
