<?xml version="1.0" encoding="utf-8"?>
<!-- Generator: Adobe Illustrator 17.0.0, SVG Export Plug-In . SVG Version: 6.00 Build 0)  -->
<!DOCTYPE svg PUBLIC "-//W3C//DTD SVG 1.1//EN" "http://www.w3.org/Graphics/SVG/1.1/DTD/svg11.dtd">
<svg version="1.1" id="Layer_1" xmlns="http://www.w3.org/2000/svg" xmlns:xlink="http://www.w3.org/1999/xlink" x="0px" y="0px"
	 width="300px" height="300px" viewBox="0 0 300 300" enable-background="new 0 0 300 300" xml:space="preserve">
<pattern  width="3840" height="24292" patternUnits="userSpaceOnUse" id="Unnamed_Pattern_12" viewBox="0 -24292 3840 24292" overflow="visible">
	<g>
		<polygon fill="none" points="0,-24292 3840,-24292 3840,0 0,0 		"/>
		<g>
			<defs>
				<rect id="SVGID_1_" x="1838.472" y="-19008.789" width="118" height="12"/>
			</defs>
			<clipPath id="SVGID_2_">
				<use xlink:href="#SVGID_1_"  overflow="visible"/>
			</clipPath>
			<g clip-path="url(#SVGID_2_)">
				
					<image overflow="visible" width="118" height="12" xlink:href="516CFF26.png"  transform="matrix(1 0 0 1 1838.4714 -19008.7891)">
				</image>
			</g>
		</g>
		<g>
			<defs>
				<rect id="SVGID_3_" x="0" y="-19008.789" width="1838.471" height="12"/>
			</defs>
			<clipPath id="SVGID_4_">
				<use xlink:href="#SVGID_3_"  overflow="visible"/>
			</clipPath>
			<g transform="matrix(1 0 0 1 0 0)" clip-path="url(#SVGID_4_)">
				
					<image overflow="visible" width="1" height="12" xlink:href="516CFF2A.png"  transform="matrix(1838.4714 0 0 1 0 -19008.7891)">
				</image>
			</g>
		</g>
		<g>
			<defs>
				<rect id="SVGID_5_" x="1956.472" y="-19008.789" width="1883.529" height="12"/>
			</defs>
			<clipPath id="SVGID_6_">
				<use xlink:href="#SVGID_5_"  overflow="visible"/>
			</clipPath>
			<g clip-path="url(#SVGID_6_)">
				
					<image overflow="visible" width="1" height="12" xlink:href="516CFF2D.png"  transform="matrix(1883.5286 0 0 1 1956.4714 -19008.7891)">
				</image>
			</g>
		</g>
		<g>
			<defs>
				<rect id="SVGID_7_" x="1838.472" y="-24292" width="118" height="5283.211"/>
			</defs>
			<clipPath id="SVGID_8_">
				<use xlink:href="#SVGID_7_"  overflow="visible"/>
			</clipPath>
			<g clip-path="url(#SVGID_8_)">
				
					<image overflow="visible" width="118" height="1" xlink:href="516CFF2E.png"  transform="matrix(1 0 0 5283.2109 1838.4714 -24292)">
				</image>
			</g>
		</g>
		<g>
			<defs>
				<rect id="SVGID_9_" x="1838.472" y="-18996.789" width="118" height="18996.789"/>
			</defs>
			<clipPath id="SVGID_10_">
				<use xlink:href="#SVGID_9_"  overflow="visible"/>
			</clipPath>
			<g clip-path="url(#SVGID_10_)">
				
					<image overflow="visible" width="118" height="1" xlink:href="516CFF2C.png"  transform="matrix(1 0 0 18996.7891 1838.4714 -18996.7891)">
				</image>
			</g>
		</g>
	</g>
</pattern>
<g>
	<path fill="#0D2038" d="M179.863,66.106c-0.642-1.193-1.599-2.196-2.754-2.901v-0.004c-0.294-0.177-0.6-0.336-0.915-0.475h-0.004
		c-0.936-0.416-6.171-0.643-7.262-0.643l-68.293-0.002c-1.091,0-2.124,0.227-3.064,0.638c-0.319,0.143-0.621,0.303-0.915,0.482
		c-0.034,0.014-0.059,0.034-0.089,0.051c-1.116,0.705-2.044,1.691-2.67,2.858c-0.029,0.051-0.059,0.101-0.084,0.159
		c-0.533,1.042-0.835,2.222-0.835,3.473l-0.005,162.156c0,0.407,0.034,0.814,0.096,1.209c0.021,0.131,0.047,0.261,0.072,0.391
		c0.017,0.071,0.033,0.143,0.05,0.214c0.05,0.219,0.113,0.437,0.185,0.646c0.025,0.067,0.046,0.139,0.076,0.206
		c0.025,0.071,0.05,0.143,0.08,0.21c0.038,0.104,0.084,0.206,0.13,0.302c0.046,0.102,0.092,0.197,0.147,0.299
		c0.076,0.15,0.16,0.307,0.248,0.453c0.268,0.445,0.575,0.86,0.923,1.247c0.118,0.126,0.235,0.247,0.361,0.365
		c0.096,0.088,0.189,0.176,0.29,0.26c0.193,0.168,0.394,0.323,0.6,0.471c0.004,0.008,0.008,0.013,0.008,0.013
		c0.109,0.071,0.219,0.143,0.323,0.209c0.319,0.202,0.655,0.378,1.004,0.533c0.94,0.412,1.973,0.639,3.064,0.639l72.491,0.002
		c1.091,0,2.128-0.227,3.069-0.643c0.315-0.138,0.622-0.297,0.915-0.479c1.159-0.709,2.116-1.712,2.758-2.908
		c0.584-1.079,0.916-2.317,0.916-3.631l0.005-162.162c0-1.313-0.332-2.552-0.915-3.631C179.867,66.11,179.863,66.11,179.863,66.106z
		"/>
	<path fill="#11313F" d="M179.863,64.426c-0.642-1.192-1.599-2.195-2.754-2.9v-0.005c-0.294-0.177-0.6-0.336-0.915-0.474h-0.004
		c-0.936-0.416-6.171-0.644-7.262-0.644l-68.293-0.002c-1.091,0-2.124,0.227-3.064,0.638c-0.319,0.144-0.621,0.303-0.915,0.483
		c-0.034,0.013-0.059,0.033-0.089,0.05c-1.116,0.705-2.044,1.692-2.67,2.859c-0.029,0.051-0.059,0.101-0.084,0.159
		c-0.533,1.041-0.835,2.221-0.835,3.472l-0.005,162.156c0,0.408,0.034,0.814,0.096,1.209c0.021,0.131,0.046,0.261,0.072,0.391
		c0.017,0.072,0.033,0.143,0.05,0.215c0.051,0.218,0.114,0.437,0.185,0.646c0.025,0.067,0.046,0.139,0.076,0.205
		c0.025,0.072,0.05,0.144,0.08,0.21c0.037,0.105,0.083,0.206,0.13,0.303c0.046,0.101,0.092,0.197,0.147,0.298
		c0.076,0.151,0.159,0.307,0.248,0.453c0.268,0.445,0.575,0.861,0.923,1.247c0.118,0.126,0.235,0.247,0.361,0.365
		c0.096,0.088,0.189,0.177,0.29,0.261c0.193,0.168,0.395,0.322,0.6,0.47c0.004,0.009,0.008,0.013,0.008,0.013
		c0.109,0.071,0.218,0.143,0.323,0.21c0.319,0.201,0.655,0.378,1.004,0.533c0.94,0.411,1.973,0.638,3.064,0.638l72.491,0.003
		c1.091,0,2.128-0.227,3.068-0.643c0.315-0.139,0.622-0.298,0.915-0.479c1.159-0.709,2.116-1.713,2.758-2.909
		c0.584-1.079,0.916-2.317,0.916-3.631l0.004-162.161c0-1.313-0.332-2.553-0.915-3.631C179.867,64.43,179.863,64.43,179.863,64.426z
		"/>
	<path fill="#183A4C" d="M179.863,64.006c-0.642-1.192-1.599-2.195-2.754-2.9v-0.004c-0.294-0.177-0.6-0.336-0.915-0.475h-0.004
		c-0.936-0.416-6.171-0.643-7.262-0.643l-68.293-0.002c-1.091,0-2.124,0.227-3.064,0.638c-0.319,0.143-0.621,0.302-0.915,0.482
		c-0.034,0.013-0.059,0.034-0.089,0.05c-1.116,0.706-2.044,1.692-2.67,2.859c-0.029,0.051-0.058,0.101-0.084,0.159
		c-0.533,1.042-0.835,2.222-0.835,3.472L92.973,229.8c0,0.407,0.034,0.814,0.096,1.209c0.021,0.13,0.046,0.261,0.072,0.391
		c0.017,0.071,0.033,0.143,0.05,0.214c0.051,0.218,0.114,0.437,0.185,0.646c0.025,0.067,0.046,0.139,0.076,0.206
		c0.025,0.071,0.05,0.143,0.08,0.21c0.037,0.104,0.084,0.205,0.13,0.302c0.046,0.101,0.092,0.197,0.147,0.298
		c0.076,0.151,0.159,0.307,0.248,0.453c0.268,0.445,0.575,0.861,0.923,1.247c0.118,0.126,0.235,0.248,0.361,0.366
		c0.096,0.088,0.189,0.176,0.29,0.26c0.193,0.168,0.395,0.323,0.6,0.471c0.004,0.008,0.008,0.012,0.008,0.012
		c0.109,0.072,0.218,0.143,0.323,0.21c0.319,0.202,0.655,0.378,1.004,0.533c0.94,0.412,1.973,0.638,3.064,0.639l72.491,0.002
		c1.091,0,2.128-0.227,3.068-0.643c0.315-0.138,0.622-0.298,0.915-0.479c1.159-0.709,2.116-1.712,2.758-2.909
		c0.584-1.078,0.916-2.316,0.916-3.631l0.004-162.161c0-1.313-0.332-2.552-0.915-3.631C179.867,64.01,179.863,64.01,179.863,64.006z
		"/>
	<rect x="95.548" y="73.489" fill="#FFFFFF" width="81.993" height="145.496"/>
	<path opacity="0.1412" fill="#F8FDFF" d="M141.579,229.668c0,1.27-1.032,2.301-2.3,2.301h-5.474c-1.269,0-2.301-1.032-2.301-2.301
		l0-2.955c0-1.268,1.032-2.301,2.301-2.301h5.474c1.268,0,2.3,1.033,2.3,2.301L141.579,229.668z M139.279,223.154h-5.474
		c-1.963,0-3.56,1.597-3.56,3.56v2.955c0,1.963,1.597,3.561,3.56,3.561h5.474c1.963,0,3.56-1.598,3.56-3.561v-2.954
		C142.839,224.75,141.242,223.154,139.279,223.154z"/>
	<path opacity="0.1412" fill="#F8FDFF" d="M126.468,66.721L126.468,66.721c0-0.183,0.035-0.358,0.105-0.527s0.169-0.318,0.299-0.447
		c0.129-0.129,0.278-0.229,0.447-0.299c0.169-0.069,0.345-0.104,0.527-0.104h17.763c0.183,0,0.359,0.035,0.527,0.104
		c0.169,0.07,0.318,0.17,0.447,0.299s0.229,0.278,0.299,0.447c0.07,0.169,0.105,0.345,0.105,0.527s-0.035,0.358-0.105,0.527
		c-0.07,0.169-0.17,0.318-0.299,0.447s-0.278,0.229-0.447,0.299s-0.345,0.104-0.527,0.104h-17.763c-0.183,0-0.358-0.034-0.527-0.104
		s-0.318-0.17-0.447-0.299c-0.129-0.129-0.229-0.278-0.299-0.447C126.503,67.08,126.468,66.905,126.468,66.721z"/>
	<path opacity="0.1412" fill="#F8FDFF" d="M163.452,64.767c1.102,0,1.995,0.894,1.995,1.995s-0.893,1.994-1.995,1.994
		c-1.102,0-1.995-0.893-1.995-1.994S162.35,64.767,163.452,64.767z M163.452,65.215c-0.853,0-1.547,0.693-1.547,1.547
		c0,0.853,0.694,1.547,1.547,1.547c0.853,0,1.547-0.694,1.547-1.547C164.999,65.909,164.305,65.215,163.452,65.215"/>
	<rect x="176.189" y="73.46" opacity="0.2784" fill="#F8FDFF" width="4.593" height="145.507"/>
	<rect x="177.107" y="73.46" opacity="0.2784" fill="#F8FDFF" width="2.756" height="145.507"/>
	<path opacity="0.1412" fill="#F8FDFF" d="M176.186,236.834c0.319-0.139,0.626-0.298,0.919-0.479c0.5-0.306,0.958-0.674,1.375-1.083
		c0.016-0.016,0.032-0.033,0.049-0.05c0.184-0.184,0.358-0.376,0.523-0.578c0.025-0.03,0.049-0.061,0.073-0.092
		c0.065-0.081,0.135-0.158,0.196-0.242c0.197-0.272,0.382-0.563,0.541-0.86c0.365-0.676,0.634-1.419,0.781-2.204
		c0.088-0.461,0.134-0.939,0.134-1.427l0-10.862l-4.593-0.001L176.186,236.834z"/>
	<path opacity="0.1412" fill="#F8FDFF" d="M179.868,64.014c0-0.004-0.004-0.004-0.004-0.008c-0.642-1.192-1.599-2.195-2.754-2.9
		c0,0-0.004,0-0.004-0.005c-0.294-0.177-0.596-0.335-0.915-0.474l0,12.833h4.593l0-5.814c0-0.852-0.139-1.671-0.399-2.435
		C180.246,64.795,180.074,64.397,179.868,64.014z"/>
	<path opacity="0.1412" fill="#F8FDFF" d="M177.111,61.104c0,0-0.003,0-0.003-0.004l0,12.36l2.756,0.001l0-9.455
		C179.221,62.813,178.266,61.811,177.111,61.104z"/>
	<path opacity="0.1412" fill="#F8FDFF" d="M177.104,236.358c1.158-0.707,2.113-1.712,2.756-2.906l0-14.494l-2.756-0.001
		L177.104,236.358z"/>
	<rect x="92.976" y="73.458" opacity="0.2784" fill="#F8FDFF" width="4.593" height="145.497"/>
	<rect x="93.895" y="73.458" opacity="0.2784" fill="#F8FDFF" width="2.756" height="145.496"/>
	<path opacity="0.1412" fill="#F8FDFF" d="M92.974,229.8c0,0.407,0.034,0.814,0.096,1.209c0.021,0.13,0.042,0.26,0.071,0.391
		c0.017,0.071,0.029,0.143,0.05,0.214c0.05,0.218,0.113,0.437,0.185,0.646c0.025,0.067,0.046,0.139,0.076,0.206
		c0.025,0.071,0.05,0.143,0.08,0.21c0.038,0.104,0.08,0.205,0.13,0.302c0.046,0.101,0.092,0.197,0.143,0.298
		c0.025,0.055,0.055,0.109,0.084,0.164c0,0.004,0.004,0.004,0.004,0.008c0,0.005,0.004,0.005,0.004,0.009
		c0.046,0.088,0.101,0.181,0.155,0.265c-0.004,0.004,0.004,0.008,0.004,0.008c0.067,0.109,0.134,0.223,0.206,0.328
		c0.071,0.109,0.147,0.214,0.222,0.318c0.076,0.105,0.156,0.206,0.24,0.307c0.084,0.102,0.168,0.197,0.256,0.294
		c0.059,0.063,0.118,0.126,0.176,0.185c0.059,0.067,0.122,0.126,0.185,0.181c0.092,0.089,0.189,0.177,0.285,0.261
		s0.197,0.168,0.298,0.247c0.101,0.076,0.206,0.151,0.307,0.223c0.004,0.009,0.008,0.013,0.008,0.013
		c0.109,0.071,0.214,0.143,0.323,0.21c0.025,0.021,0.055,0.042,0.084,0.059c0.294,0.181,0.6,0.345,0.919,0.479l0.001-17.877h-4.593
		L92.974,229.8z"/>
	<path opacity="0.1412" fill="#F8FDFF" d="M96.568,61.153c-1.117,0.706-2.044,1.692-2.67,2.859
		c-0.034,0.051-0.059,0.101-0.089,0.159c-0.168,0.332-0.315,0.677-0.432,1.037c-0.26,0.764-0.399,1.583-0.399,2.435l0,5.814h4.593
		l0-12.838c-0.319,0.144-0.625,0.303-0.919,0.483C96.622,61.116,96.593,61.137,96.568,61.153z"/>
	<path opacity="0.1412" fill="#F8FDFF" d="M93.896,64.01l0,9.447h2.756l0-12.356c-0.031,0.016-0.058,0.034-0.086,0.052
		C95.449,61.858,94.521,62.844,93.896,64.01z"/>
	<path opacity="0.1412" fill="#F8FDFF" d="M93.893,233.449c0.643,1.194,1.598,2.199,2.756,2.906l0.001-17.4h-2.756L93.893,233.449z"
		/>
	<path fill="#FFFFFF" d="M115.405,179.121l0.142-39.696c0.001-0.206,0.041-0.404,0.12-0.594c0.08-0.19,0.192-0.358,0.339-0.503
		c0.146-0.146,0.315-0.257,0.505-0.335s0.389-0.117,0.595-0.117l39.696,0.143c0.206,0.001,0.404,0.041,0.594,0.121
		c0.19,0.079,0.358,0.191,0.503,0.338s0.257,0.314,0.335,0.506c0.078,0.19,0.117,0.389,0.116,0.595l-0.142,39.696
		c-0.001,0.206-0.041,0.404-0.12,0.595c-0.08,0.19-0.192,0.357-0.339,0.503s-0.315,0.257-0.505,0.335s-0.389,0.117-0.595,0.116
		l-39.696-0.143c-0.206,0-0.404-0.041-0.594-0.12s-0.358-0.192-0.503-0.339s-0.257-0.314-0.335-0.505
		S115.404,179.327,115.405,179.121z"/>
	<rect x="144.983" y="147.348" transform="matrix(-1 -0.0037 0.0037 -1 293.3677 299.1936)" width="3.955" height="3.955"/>
	<polygon points="141.862,164.434 145.19,164.447 146.577,164.452 148.527,164.458 148.539,161.122 146.589,161.114 
		145.202,161.109 138.536,161.085 138.528,163.556 138.524,164.422 138.501,171.109 141.838,171.121 	"/>
	<polygon points="151.884,171.157 155.207,171.168 155.215,168.757 155.219,167.832 155.243,161.145 151.905,161.133 
		151.893,164.476 148.571,164.464 148.559,167.801 151.881,167.813 151.881,167.819 151.878,168.746 151.87,171.122 
		148.499,171.109 148.51,167.825 145.173,167.812 145.149,174.481 141.826,174.469 141.241,174.467 138.489,174.458 
		138.477,177.794 141.229,177.805 141.814,177.807 148.475,177.831 148.482,175.695 148.486,174.494 148.487,174.446 
		151.872,174.458 	"/>
	<rect x="151.835" y="174.479" transform="matrix(-0.0036 1 -1 -0.0036 330.2311 23.2419)" width="3.401" height="3.337"/>
	<rect x="124.89" y="147.276" transform="matrix(-1 -0.0035 0.0035 -1 253.2193 298.9445)" width="3.955" height="3.955"/>
	<rect x="126.142" y="152.913" width="1.345" height="15.03"/>
	<rect x="128.278" y="148.634" width="15.188" height="1.345"/>
	<rect x="124.818" y="167.369" transform="matrix(-1 -0.0035 0.0035 -1 253.0059 339.1296)" width="3.955" height="3.955"/>
	<polygon points="138.611,140.917 138.589,147.181 141.912,147.193 141.922,144.25 152.036,144.287 152,154.401 141.886,154.364 
		141.896,151.464 138.574,151.453 138.551,157.674 155.31,157.735 155.37,140.976 	"/>
	<polygon points="128.909,160.975 128.897,164.297 131.871,164.307 131.835,174.421 121.721,174.385 121.757,164.272 
		124.625,164.282 124.637,160.959 118.447,160.937 118.387,177.696 135.145,177.756 135.205,160.997 	"/>
	<polygon points="131.907,154.329 128.933,154.318 128.921,157.64 135.217,157.663 135.24,151.441 131.917,151.428 	"/>
	<polygon points="118.519,140.844 118.459,157.603 124.649,157.625 124.661,154.303 121.793,154.292 121.829,144.178 
		131.943,144.215 131.932,147.157 135.255,147.168 135.277,140.905 	"/>
	<rect x="122.861" y="159.192" transform="matrix(-0.0036 1 -1 -0.0036 284.2728 36.4645)" width="2.215" height="1.345"/>
	<rect x="128.478" y="159.212" transform="matrix(-0.0036 1 -1 -0.0036 289.9298 30.8686)" width="2.215" height="1.345"/>
	<rect x="135.25" y="145.829" transform="matrix(-1 -0.0035 0.0035 -1 272.1972 293.481)" width="2.215" height="1.344"/>
	<rect x="135.23" y="151.445" transform="matrix(-1 -0.0035 0.0035 -1 272.1371 304.7143)" width="2.215" height="1.345"/>
	<path fill="#25984E" d="M162.483,180.906l-0.007,2.016c-0.005,1.214-0.995,2.198-2.209,2.193l-2.016-0.007l-3.682,3.655
		l5.685,0.021c3.242,0.012,5.879-2.607,5.891-5.849l0.021-5.686L162.483,180.906z"/>
	<path fill="#25984E" d="M111.274,137.793l0.007-2.016c0.004-1.215,0.995-2.198,2.209-2.194l2.016,0.008l3.682-3.655l-5.685-0.021
		c-3.242-0.012-5.879,2.606-5.891,5.849l-0.021,5.686L111.274,137.793z"/>
	<path fill="#25984E" d="M158.434,133.745l2.016,0.008c1.214,0.004,2.198,0.995,2.193,2.209l-0.007,2.016l3.656,3.683l0.02-5.686
		c0.012-3.241-2.607-5.879-5.849-5.891l-5.685-0.021L158.434,133.745z"/>
	<path fill="#25984E" d="M115.322,184.954l-2.016-0.007c-1.214-0.005-2.198-0.995-2.194-2.209l0.007-2.017l-3.656-3.682l-0.02,5.686
		c-0.012,3.241,2.607,5.879,5.849,5.891l5.685,0.021L115.322,184.954z"/>
	<pattern  id="SVGID_11_" xlink:href="#Unnamed_Pattern_12" patternTransform="matrix(0.5 0 0 0.5 -404.5 -21030)">
	</pattern>
	<rect x="108.861" y="165.733" fill="url(#SVGID_11_)" width="59" height="6"/>
	
		<line fill="none" stroke="#A7CC55" stroke-width="0.9274" stroke-miterlimit="10" x1="108.903" y1="166.237" x2="164.804" y2="166.437"/>
	
		<linearGradient id="SVGID_12_" gradientUnits="userSpaceOnUse" x1="-268.2304" y1="1944.6628" x2="-268.0593" y2="1944.4635" gradientTransform="matrix(1 0 0 -1 494.6074 2108.8223)">
		<stop  offset="0" style="stop-color:#006537"/>
		<stop  offset="0.33" style="stop-color:#008A40"/>
		<stop  offset="0.66" style="stop-color:#36AC47"/>
		<stop  offset="1" style="stop-color:#36AC47"/>
	</linearGradient>
	<path fill="url(#SVGID_12_)" d="M168.341,97.337c0.096-0.07,0.117-0.204,0.047-0.3l-1.32-1.805c-0.07-0.096-0.204-0.116-0.3-0.047
		c-0.096,0.07-0.116,0.205-0.046,0.301l1.32,1.804C168.112,97.385,168.246,97.407,168.341,97.337L168.341,97.337L168.341,97.337z
		 M170.304,97.165c0-0.237-0.192-0.43-0.429-0.43h-1.49c-0.237,0-0.429,0.193-0.429,0.43c0,0.236,0.192,0.429,0.429,0.429h1.49
		C170.111,97.593,170.304,97.401,170.304,97.165z M168.215,96.619c-0.302-0.001-0.546,0.244-0.546,0.546
		c0,0.301,0.244,0.545,0.546,0.546c0.302,0,0.546-0.245,0.546-0.546l0,0C168.76,96.863,168.516,96.619,168.215,96.619z
		 M168.308,100.688c-0.417,0-0.831-0.068-1.224-0.203l0.185-0.541c1.675,0.573,3.497-0.319,4.071-1.994s-0.319-3.497-1.993-4.071
		c-1.339-0.458-2.819,0.015-3.644,1.165l-0.465-0.334c1.216-1.695,3.575-2.085,5.271-0.869c1.695,1.215,2.084,3.575,0.869,5.271
		C170.668,100.101,169.525,100.688,168.308,100.688L168.308,100.688z"/>
	<text transform="matrix(1 0 0 1 154.5148 101.9263)" fill="#009C42" font-family="'Roboto-Bold'" font-size="8">HR</text>
	<polygon points="107.753,92.019 107.29,92.288 101.471,95.647 101.008,95.915 101.008,103.704 101.471,103.971 107.29,107.331 
		107.753,107.598 108.216,107.331 114.035,103.971 114.498,103.704 114.498,95.915 114.035,95.647 108.216,92.288 107.753,92.019 	
		"/>
	<polygon points="107.753,106.528 101.934,103.168 101.934,96.45 107.753,93.09 113.571,96.45 113.571,103.168 	"/>
	<path fill="#FFFFFF" d="M107.753,92.662l-0.185,0.107l-5.819,3.358l-0.185,0.107v7.147l0.185,0.107l5.819,3.359l0.185,0.107
		l0.185-0.107l5.819-3.359l0.185-0.107v-7.147l-0.185-0.107l-5.819-3.358L107.753,92.662L107.753,92.662z M107.753,93.089
		l5.819,3.36v6.72l-5.819,3.359l-5.819-3.359v-6.72L107.753,93.089"/>
	
		<rect x="107.303" y="97.944" transform="matrix(-0.866 0.5 -0.5 -0.866 255.5631 127.7821)" fill="#FFFFFF" width="6.719" height="0.37"/>
	
		<rect x="104.658" y="94.769" transform="matrix(-0.4999 0.8661 -0.8661 -0.4999 242.2401 56.3734)" fill="#FFFFFF" width="0.371" height="6.719"/>
	
		<rect x="110.477" y="98.129" transform="matrix(-0.4999 0.8661 -0.8661 -0.4999 253.8777 56.3729)" fill="#FFFFFF" width="0.371" height="6.719"/>
	
		<rect x="101.484" y="101.304" transform="matrix(-0.866 0.5 -0.5 -0.866 246.3853 136.9591)" fill="#FFFFFF" width="6.719" height="0.371"/>
	<g>
		<defs>
			<polygon id="SVGID_13_" points="107.753,106.528 101.934,103.168 101.934,96.45 107.753,93.09 113.572,96.45 113.572,103.168 			
				"/>
		</defs>
		<clipPath id="SVGID_14_">
			<use xlink:href="#SVGID_13_"  overflow="visible"/>
		</clipPath>
		<g clip-path="url(#SVGID_14_)" enable-background="new    ">
			<g>
				<defs>
					<rect id="SVGID_15_" x="101.875" y="92.877" width="11.75" height="13.75"/>
				</defs>
				<clipPath id="SVGID_16_">
					<use xlink:href="#SVGID_15_"  overflow="visible"/>
				</clipPath>
				
					<linearGradient id="SVGID_17_" gradientUnits="userSpaceOnUse" x1="-639.6149" y1="1997.876" x2="-639.3943" y2="1997.876" gradientTransform="matrix(1 0 0 -1 699.6088 2098.0801)">
					<stop  offset="0" style="stop-color:#339A4C"/>
					<stop  offset="0.34" style="stop-color:#6EB94D"/>
					<stop  offset="1" style="stop-color:#A5CA50"/>
				</linearGradient>
				<polygon clip-path="url(#SVGID_16_)" fill="url(#SVGID_17_)" points="113.572,96.45 107.753,103.958 101.934,96.45 
					107.753,99.36 				"/>
				<path clip-path="url(#SVGID_16_)" fill="#FFFFFF" d="M100.643,95.389l0.998,1.288l5.819,7.509l0.293,0.378l0.293-0.378
					l5.819-7.509l0.998-1.288l-1.457,0.729L107.753,99l-5.653-2.883L100.643,95.389z M113.572,96.45l-5.819,7.509l-5.819-7.509
					l5.819,2.965L113.572,96.45"/>
			</g>
		</g>
	</g>
	
		<linearGradient id="SVGID_18_" gradientUnits="userSpaceOnUse" x1="-594.7654" y1="1789.9629" x2="-594.7654" y2="1789.7423" gradientTransform="matrix(1 0 0 -1 699.6088 2098.0801)">
		<stop  offset="0" style="stop-color:#036738"/>
		<stop  offset="0.379" style="stop-color:#339A4C"/>
		<stop  offset="1" style="stop-color:#6EB94D"/>
	</linearGradient>
	<polygon fill="url(#SVGID_18_)" points="101.934,96.45 107.753,103.958 107.753,99.415 	"/>
	<rect x="107.567" y="103.958" fill="#FFFFFF" width="0.371" height="2.729"/>
	<polygon points="122.131,96.897 126.097,96.897 126.097,98.211 123.751,98.211 123.751,99.144 125.968,99.144 125.968,100.407 
		123.751,100.407 123.751,101.401 126.236,101.401 126.236,102.726 122.131,102.726 	"/>
	<path d="M128.692,99.413h0.547c0.09,0.001,0.18-0.01,0.268-0.03c0.084-0.02,0.163-0.055,0.234-0.104
		c0.072-0.052,0.13-0.12,0.169-0.198c0.047-0.101,0.069-0.211,0.065-0.321c0.023-0.176-0.061-0.349-0.214-0.439
		c-0.159-0.077-0.335-0.114-0.512-0.11h-0.557V99.413z M127.051,96.897h2.342c0.295-0.002,0.589,0.029,0.877,0.093
		c0.255,0.055,0.497,0.159,0.713,0.306c0.204,0.144,0.368,0.336,0.477,0.56c0.264,0.605,0.227,1.3-0.099,1.874
		c-0.179,0.276-0.438,0.491-0.743,0.615l1.364,2.382h-1.833l-1.078-2.071h-0.379v2.071h-1.641V96.897z"/>
	<rect x="132.3" y="96.897" width="1.661" height="5.83"/>
	<path d="M136.363,101.351h0.416c0.208,0,0.416-0.026,0.617-0.078c0.188-0.048,0.362-0.139,0.509-0.265
		c0.152-0.133,0.27-0.3,0.346-0.486c0.092-0.237,0.136-0.491,0.128-0.746c0.008-0.247-0.034-0.494-0.123-0.725
		c-0.073-0.181-0.188-0.34-0.336-0.466c-0.146-0.12-0.317-0.207-0.499-0.255c-0.2-0.052-0.406-0.078-0.613-0.077h-0.445
		L136.363,101.351z M134.702,102.727v-5.83h2.167c0.412-0.001,0.823,0.047,1.223,0.145c0.375,0.09,0.729,0.254,1.039,0.482
		c0.31,0.234,0.558,0.539,0.725,0.89c0.196,0.435,0.289,0.907,0.273,1.383c0.012,0.454-0.08,0.905-0.268,1.319
		c-0.167,0.354-0.411,0.666-0.716,0.912c-0.305,0.242-0.655,0.422-1.029,0.529c-0.389,0.113-0.792,0.171-1.198,0.17H134.702z"/>
	<polygon points="120.147,96.89 121.81,96.89 119.66,102.731 117.997,102.731 	"/>
	<polygon points="119.66,102.731 117.997,102.731 115.882,96.89 117.544,96.89 	"/>
	<path d="M143.688,98.307c-0.829,0-1.501,0.672-1.501,1.502c0,0.829,0.672,1.501,1.501,1.501c0.829,0,1.501-0.672,1.502-1.501
		C145.189,98.981,144.517,98.308,143.688,98.307z M146.758,99.809c-0.001,1.692-1.373,3.063-3.065,3.063
		c-1.692-0.001-3.062-1.373-3.062-3.065c0.001-1.691,1.372-3.062,3.064-3.062c1.692,0,3.063,1.371,3.063,3.063V99.809z"/>
	<path d="M151.65,100.458c-0.258,0.522-0.79,0.853-1.372,0.853c-0.829-0.002-1.499-0.677-1.497-1.505
		c0.002-0.83,0.676-1.5,1.506-1.498c0.594,0,1.133,0.348,1.379,0.889l1.508-0.398c-0.56-1.596-2.307-2.437-3.903-1.877
		s-2.437,2.307-1.877,3.902c0.559,1.597,2.307,2.438,3.903,1.877c0.867-0.303,1.551-0.979,1.865-1.843L151.65,100.458z"/>
	<path fill="#FED1A7" d="M83.43,222.307c-1.092,2.377-1.879,5.217-1.034,7.559c1.829,5.072,4.49,10.063,8.398,9.563
		c3.908-0.498,4.158-1.746,4.573-3.076c0.416-1.33-2.328-9.479-2.328-9.479v-2.499c-2.128-0.581-4.919-1.334-7.715-2.063
		C84.581,222.117,83.956,222.133,83.43,222.307z"/>
	<path fill="#FED1A7" d="M92.956,134.405c0,0-1.497,0.333-4.49,1.164c-2.994,0.832-11.974,2.328-11.974,5.488
		c0,3.149,1.323,11.668,14.423,11.313c0.739-0.234,1.437-0.439,2.042-0.61V134.405z"/>
	<path fill="#FED1A7" d="M80.937,179.365c0.478,1.536,0.889,2.802,1.152,3.599c1.116,2.73,3.034,5.812,5.979,5.672
		c1.961-0.094,3.673-0.5,5.048-0.973c0.004-0.439,0.007-0.704,0.007-0.704s3.825-3.077,3.825-6.901c0-3.825-3.326-12.64-3.326-12.64
		s-0.665-3.575-0.665-4.823v-3.615c-1.641-0.391-3.637-1.038-5.637-1.775c-0.545-0.2-1.108-0.255-1.677-0.196
		c-3.894,3.725-8.318,8.94-7.404,12.738c0.762,3.168,1.756,6.567,2.581,9.239l0.015-0.078
		C80.834,178.907,80.868,179.075,80.937,179.365z"/>
	<path fill="#FED1A7" d="M86.637,192.127c-2.752,0.714-5.679,2.492-7.678,4.257c-0.058,1.206,0.015,2.358,0.277,3.38
		c1.497,5.82,4.573,17.296,7.151,17.629c0,0-0.028,0.035-0.078,0.102c2.133,0.616,4.888,0.057,6.73-0.48v-0.037
		c0,0,4.823-3.409,3.493-9.479s-3.326-9.896-3.409-11.226c-0.031-0.499-0.039-1.933-0.037-3.529
		C91.213,192.044,88.867,191.548,86.637,192.127z"/>
	<path fill="#FBBC89" d="M87.32,157.204c2,0.737,3.996,1.385,5.637,1.775v-7.22c-0.605,0.171-1.303,0.376-2.042,0.61
		c0.043-0.002,0.085-0.002,0.129-0.003c0,0-2.56,1.923-5.401,4.641C86.212,156.949,86.775,157.003,87.32,157.204z"/>
	<path fill="#FBBC89" d="M88.068,188.634c-2.945,0.141-4.863-2.94-5.979-5.671c0.193,0.585,0.307,0.918,0.307,0.918
		s-3.165,6.84-3.437,12.503c1.999-1.765,4.925-3.543,7.678-4.257c2.231-0.58,4.576-0.083,6.45,0.615
		c0.003-1.891,0.02-4.009,0.03-5.08C91.741,188.135,90.029,188.542,88.068,188.634z"/>
	<path fill="#F1C799" d="M80.834,178.907l-0.015,0.078c0.04,0.129,0.079,0.255,0.118,0.38
		C80.868,179.075,80.834,178.907,80.834,178.907z"/>
	<path fill="#FBBC89" d="M86.31,217.495c-0.344,0.452-1.769,2.393-2.88,4.813c0.527-0.174,1.151-0.19,1.894,0.004
		c2.797,0.729,5.588,1.481,7.715,2.063v-7.359C91.197,217.551,88.443,218.111,86.31,217.495z"/>
	<path fill="#FDE7D0" d="M84.697,186.182c0,0-5.655-10.089-1.774-15.521c3.88-5.434,9.424,8.426,9.535,9.091
		c0,0-0.222,0.776-1.441,0.998C89.797,180.971,84.475,184.409,84.697,186.182z"/>
	<path fill="#FDE7D0" d="M84.807,198.932c0,0-3.548,1.996-2.661,5.877s2.661,9.313,2.661,9.313s-0.111,0.998,1.552-0.665
		c1.663-1.663,3.659-2.661,4.546-2.883c0.887-0.222,2.439,0.111,1.552-3.325C91.571,203.811,89.132,197.27,84.807,198.932z"/>
	<path fill="#FDE7D0" d="M84.364,228.536c0,0,1.12-1.885,3-1.774c1.879,0.111,3.875,6.874,3.875,6.874s-1.22,0.776-2.328,1.663
		c-1.109,0.888-1.552,2.329-2.107,2.218C86.249,237.405,83.921,232.749,84.364,228.536z"/>
	<path fill="#FDE7D0" d="M84.697,136.567c0,0-8.526,1.33-7.971,6.431c0,0-2.439-1.885,0.721-4.546
		c3.16-2.66,8.688-2.383,8.688-2.383L84.697,136.567z"/>
	<path fill="#FBBC89" d="M138.207,261.474c0.748-10.727,9.23-21.702,19.208-14.967c9.978,6.735,8.481,6.235,11.475,2.494
		c2.993-3.741,8.911-9.382,10.214-14.181l0.001-0.005c-1.659,2.835-4.737,4.751-8.242,4.751h-51.608
		c2.961,7.798,14.24,35.289,26.436,36.366h3.177C143.781,272.795,137.771,267.729,138.207,261.474z"/>
	<path fill="#FDE7D0" d="M185.922,136.734c0.543,4.994,3.107,17.217,8.731,12.41c-1.688-6.843-1.247-12.577-1.247-12.577
		s-0.001-4.623-3.96-6.172C187.793,131.441,185.568,133.475,185.922,136.734z"/>
	<path fill="#FED1A7" d="M212.234,257.965c-0.896-2.043-1.613-4.119-2.031-6.146c-0.216-1.047-0.419-2.099-0.615-3.152
		c-2.632-14.2-3.506-28.938-4.978-43.25c-0.898-8.73-2.264-17.499-2.678-26.268c-0.243-5.149-0.087-10.423-1.5-15.432
		c-1.429-5.064-4.5-9.39-5.779-14.573c-5.625,4.806-8.188-7.416-8.731-12.41c-0.354-3.259,1.87-5.294,3.524-6.339
		c-1.243-0.486-2.875-0.671-5.021-0.313c-8.981,1.497-6.153,25.112-5.322,30.933c0.832,5.821,1.164,10.312,1.164,12.64
		c0,0.474,0.138,5.648,0.138,12.528v43.842c0,1.743-0.476,3.381-1.302,4.792l-0.001,0.005c-1.303,4.799-7.221,10.439-10.214,14.181
		s-1.497,4.241-11.475-2.494c-9.978-6.735-18.459,4.24-19.208,14.967c-0.436,6.255,5.574,11.321,10.66,14.459h31.4v0.028h16.81
		h12.52h14.576C224.173,275.961,216.333,267.317,212.234,257.965z"/>
	<path fill="#0E3553" d="M180.912,24.04h-0.006v70.612l0.006,0.003l6.808-2.918l0.355-0.152l9.852-4.223
		c4.516-6.297,7.589-13.244,9.486-20.323c0.002-0.006,0.003-0.012,0.005-0.018c3.163-11.772,3.093-23.92,1.088-34.087
		C195.412,35.219,189.432,31.728,180.912,24.04z"/>
	<path fill="#14658E" d="M153.306,32.934c-3.211,16.284-1.454,37.648,10.578,54.428l17.017,7.291l0.005-0.001V24.04l-0.005-0.001
		C172.379,31.728,166.399,35.22,153.306,32.934z"/>
	<path fill="#F1F1F2" d="M157.507,59.885c1.54,8.926,4.686,16.921,9.374,23.787l14.021,6.008l0.004-0.002l0.005,0.002l0.001-0.001
		V59.885H157.507z"/>
	<path fill="#FFFFFF" d="M180.912,30.091c-0.001,0.001-0.005,0.004-0.006,0.005c-5.427,4.509-11.462,8.1-20.409,8.1
		c-1.096,0-2.225-0.051-3.404-0.151c-0.932,6.979-0.835,14.222,0.297,21.184c0.02,0.105,0.038,0.211,0.056,0.315
		c0.019,0.114,0.042,0.228,0.062,0.342h23.404V30.091z"/>
	<path fill="#FFFFFF" d="M180.912,89.679l14.019-6.007c4.689-6.867,7.834-14.861,9.374-23.787h-23.393V89.679z"/>
	<path fill="#F1F1F2" d="M204.719,38.085c-1.177,0.101-2.306,0.151-3.402,0.151c-8.386,0-14.031-2.826-20.405-8.104v29.794h23.393
		c0.02-0.114,0.042-0.227,0.061-0.341c0.018-0.105,0.038-0.211,0.057-0.316C205.554,52.307,205.651,45.063,204.719,38.085z"/>
	<path fill="#E6E7E8" d="M190.631,58.584h-19.448c-1.123,0-2.032,0.909-2.032,2.032v14.915c0,1.053,0.854,1.907,1.907,1.907h19.699
		c1.053,0,1.907-0.854,1.907-1.907V60.617C192.663,59.494,191.753,58.584,190.631,58.584z"/>
	<path fill="#E6E7E8" d="M190.636,58.584h-19.459c-1.12,0-2.027,0.909-2.027,2.032c0,1.054,0.852,1.907,1.903,1.907h19.709
		c1.051,0,1.903-0.854,1.903-1.907C192.663,59.494,191.756,58.584,190.636,58.584z"/>
	<path fill="#E6E7E8" d="M190.636,58.584h-19.46c-1.12,0-2.027,0.909-2.027,2.032c0,1.054,0.851,1.907,1.902,1.907h19.71
		c1.051,0,1.903-0.854,1.903-1.907C192.663,59.494,191.756,58.584,190.636,58.584z"/>
	<path fill="#E6E7E8" d="M191.733,70.874c-0.316,0.167-0.692,0.264-1.096,0.264h-19.461c-0.736,0-1.379-0.316-1.734-0.791
		c-0.186-0.248-0.294-0.539-0.294-0.851v4.457c0,0.085,0.008,0.168,0.024,0.25c0.132,0.657,0.782,1.176,1.599,1.274
		c0.091,0.011,0.184,0.016,0.279,0.016h19.711c0.052,0,0.104-0.001,0.157-0.005c0.977-0.065,1.746-0.728,1.746-1.535v-4.457
		c0,0.032-0.002,0.067-0.005,0.1C192.621,70.133,192.26,70.6,191.733,70.874z"/>
	<path fill="#E6E7E8" d="M192.663,73.953v-0.879l-1.746,2.415C191.895,75.422,192.663,74.76,192.663,73.953z"/>
	<path fill="#E6E7E8" d="M189.023,71.137l-3.092,4.277l-0.057,0.078h0.235h2.286l3.338-4.619c-0.316,0.167-0.692,0.264-1.096,0.264
		H189.023z"/>
	<polygon fill="#E6E7E8" points="182.107,73.734 180.836,75.493 183.355,75.493 184.019,74.575 186.504,71.137 183.985,71.137 	"/>
	<polygon fill="#E6E7E8" points="178.285,72.052 175.798,75.493 178.317,75.493 180.197,72.894 181.466,71.137 178.945,71.137 	"/>
	<polygon fill="#E6E7E8" points="176.372,71.211 176.426,71.137 176.201,71.137 	"/>
	<path fill="#E6E7E8" d="M173.907,71.137l-3.136,4.34c0.092,0.011,0.185,0.016,0.279,0.016h2.227l3.095-4.281l-0.171-0.074H173.907z
		"/>
	<path fill="#E6E7E8" d="M169.442,70.346l-0.294,0.406v3.2c0,0.085,0.008,0.168,0.024,0.25l2.216-3.065h-0.212
		C170.44,71.137,169.797,70.821,169.442,70.346z"/>
	<path fill="#E6E7E8" d="M172.785,53.758v6.636h1.492v-6.722c0-3.645,2.965-6.609,6.61-6.609h0.034v-1.401h-0.039
		C176.41,45.662,172.785,49.287,172.785,53.758z"/>
	<path fill="#E6E7E8" d="M180.96,45.662h-0.039v1.401h0.035c3.645,0,6.61,2.965,6.61,6.609v6.722h1.492v-6.636
		C189.057,49.287,185.433,45.662,180.96,45.662z"/>
	<path fill="#E6E7E8" d="M187.579,46.88c-0.864-0.863-1.869-1.541-2.989-2.015c-1.16-0.491-2.391-0.739-3.661-0.739h-0.008v1.535
		h0.039c4.472,0,8.097,3.625,8.097,8.097v6.636h1.276V53.53c0-1.27-0.249-2.501-0.739-3.66
		C189.12,48.75,188.442,47.744,187.579,46.88z"/>
	<path fill="#E6E7E8" d="M174.269,46.885c-0.865,0.865-1.544,1.872-2.019,2.994c-0.491,1.162-0.74,2.396-0.74,3.667v6.848h1.275
		v-6.636c0-4.472,3.625-8.097,8.097-8.097h0.039v-1.535c-1.268,0.001-2.499,0.25-3.659,0.74
		C176.141,45.341,175.134,46.02,174.269,46.885z"/>
	<path fill="#E6E7E8" d="M181.057,63.473c-0.767,0-1.389,0.623-1.389,1.391c0,0.528,0.296,0.988,0.732,1.223v2.437h1.314v-2.437
		c0.435-0.234,0.732-0.694,0.732-1.223C182.446,64.096,181.824,63.473,181.057,63.473z"/>
	<path fill="#E6E7E8" d="M181.155,63.479c-0.033-0.003-0.065-0.006-0.098-0.006c-0.767,0-1.389,0.623-1.389,1.391
		c0,0.528,0.296,0.988,0.732,1.223v2.437h0.196v-2.437c-0.436-0.234-0.732-0.694-0.732-1.223
		C179.864,64.129,180.434,63.529,181.155,63.479z"/>
	<path fill="#24984E" d="M190.631,57.728h-19.448c-1.123,0-2.032,0.91-2.032,2.032v14.915c0,1.054,0.854,1.907,1.907,1.907h19.699
		c1.053,0,1.907-0.854,1.907-1.907V59.76C192.663,58.638,191.753,57.728,190.631,57.728z"/>
	<path fill="#0D2038" d="M190.636,57.728h-19.459c-1.12,0-2.027,0.91-2.027,2.032c0,1.054,0.852,1.907,1.903,1.907h19.709
		c1.051,0,1.903-0.854,1.903-1.907C192.663,58.638,191.756,57.728,190.636,57.728z"/>
	<path fill="#176939" d="M190.636,57.728h-19.46c-1.12,0-2.027,0.91-2.027,2.032c0,1.054,0.851,1.907,1.902,1.907h19.71
		c1.051,0,1.903-0.854,1.903-1.907C192.663,58.638,191.756,57.728,190.636,57.728z"/>
	<path fill="#176939" d="M191.733,70.018c-0.316,0.166-0.692,0.263-1.096,0.263h-19.461c-0.736,0-1.379-0.316-1.734-0.791
		c-0.186-0.248-0.294-0.538-0.294-0.851v4.458c0,0.085,0.008,0.168,0.024,0.249c0.132,0.658,0.782,1.177,1.599,1.274
		c0.091,0.011,0.184,0.017,0.279,0.017h19.711c0.052,0,0.104-0.002,0.157-0.006c0.977-0.064,1.746-0.727,1.746-1.534v-4.458
		c0,0.033-0.002,0.067-0.005,0.1C192.621,69.278,192.26,69.744,191.733,70.018z"/>
	<path fill="#F1C40F" d="M192.663,73.097v-0.88l-1.746,2.414C191.895,74.567,192.663,73.905,192.663,73.097z"/>
	<path fill="#F1C40F" d="M189.023,70.281l-3.092,4.278l-0.057,0.078h0.235h2.286l3.338-4.619c-0.316,0.166-0.692,0.263-1.096,0.263
		H189.023z"/>
	<polygon fill="#F1C40F" points="182.107,72.878 180.836,74.637 183.355,74.637 184.019,73.718 186.504,70.281 183.985,70.281 	"/>
	<polygon fill="#F1C40F" points="178.285,71.196 175.798,74.637 178.317,74.637 180.197,72.038 181.466,70.281 178.945,70.281 	"/>
	<polygon fill="#F1C40F" points="176.372,70.356 176.426,70.281 176.201,70.281 	"/>
	<path fill="#F1C40F" d="M173.907,70.281l-3.136,4.34c0.092,0.012,0.185,0.017,0.279,0.017h2.227l3.095-4.281l-0.171-0.075H173.907z
		"/>
	<path fill="#F1C40F" d="M169.442,69.49l-0.294,0.406v3.201c0,0.085,0.008,0.168,0.024,0.249l2.216-3.065h-0.212
		C170.44,70.281,169.797,69.964,169.442,69.49z"/>
	<path fill="#808285" d="M172.785,52.903v6.636h1.492v-6.722c0-3.645,2.965-6.61,6.61-6.61h0.034v-1.401h-0.039
		C176.41,44.805,172.785,48.43,172.785,52.903z"/>
	<path fill="#BFC1C4" d="M180.96,44.805h-0.039v1.401h0.035c3.645,0,6.61,2.966,6.61,6.61v6.722h1.492v-6.636
		C189.057,48.43,185.433,44.805,180.96,44.805z"/>
	<path fill="#808285" d="M187.579,46.025c-0.864-0.864-1.869-1.542-2.989-2.016c-1.16-0.49-2.391-0.739-3.661-0.739h-0.008v1.535
		h0.039c4.472,0,8.097,3.625,8.097,8.098v6.636h1.276v-6.865c0-1.269-0.249-2.501-0.739-3.66
		C189.12,47.893,188.442,46.888,187.579,46.025z"/>
	<path fill="#BFC1C4" d="M174.269,46.03c-0.865,0.864-1.544,1.871-2.019,2.994c-0.491,1.161-0.74,2.395-0.74,3.666v6.849h1.275
		v-6.636c0-4.473,3.625-8.098,8.097-8.098h0.039V43.27c-1.268,0.002-2.499,0.25-3.659,0.74
		C176.141,44.485,175.134,45.165,174.269,46.03z"/>
	<path d="M181.057,62.618c-0.767,0-1.389,0.623-1.389,1.39c0,0.529,0.296,0.989,0.732,1.224v2.436h1.314v-2.436
		c0.435-0.234,0.732-0.694,0.732-1.224C182.446,63.241,181.824,62.618,181.057,62.618z"/>
	<path fill="#0E3553" d="M181.155,62.623c-0.033-0.002-0.065-0.005-0.098-0.005c-0.767,0-1.389,0.623-1.389,1.39
		c0,0.529,0.296,0.989,0.732,1.224v2.436h0.196v-2.436c-0.436-0.234-0.732-0.694-0.732-1.224
		C179.864,63.273,180.434,62.673,181.155,62.623z"/>
</g>
</svg>
