<?xml version="1.0" encoding="utf-8"?>
<!-- Generator: Adobe Illustrator 17.0.0, SVG Export Plug-In . SVG Version: 6.00 Build 0)  -->
<!DOCTYPE svg PUBLIC "-//W3C//DTD SVG 1.1//EN" "http://www.w3.org/Graphics/SVG/1.1/DTD/svg11.dtd">
<svg version="1.1" id="Layer_1" xmlns="http://www.w3.org/2000/svg" xmlns:xlink="http://www.w3.org/1999/xlink" x="0px" y="0px"
	 width="600px" height="600px" viewBox="0 0 600 600" enable-background="new 0 0 600 600" xml:space="preserve">
<g>
	<g>
		<g>
			<defs>
				<path id="SVGID_3_" d="M1019.102,363.864C966.29,485.533,826.875,537.791,717.644,528.882
					c-29.825-2.435-89.831-7.329-136.686-50.999c-89.983-83.866-76.124-259.17,10.014-362.38
					c11.092-13.291,87.876-102.342,207.527-101.15c87.602,0.873,149.088,49.645,156.565,55.723
					c9.446,7.674,30.276,25.916,49.051,54.852C1048.228,192.916,1052.106,287.833,1019.102,363.864"/>
			</defs>
			<clipPath id="SVGID_1_">
				<use xlink:href="#SVGID_3_"  overflow="visible"/>
			</clipPath>
			<g clip-path="url(#SVGID_1_)">
				<defs>
					<rect id="SVGID_4_" x="490.975" y="13.161" width="561.131" height="524.63"/>
				</defs>
				<clipPath id="SVGID_2_">
					<use xlink:href="#SVGID_4_"  overflow="visible"/>
				</clipPath>
				<g clip-path="url(#SVGID_2_)">
					
						<image overflow="visible" width="2339" height="2186" xlink:href="D5551C86.jpg"  transform="matrix(0.24 0 0 0.24 490.9748 13.1609)">
					</image>
				</g>
			</g>
		</g>
	</g>
	
		<linearGradient id="SVGID_5_" gradientUnits="userSpaceOnUse" x1="-1620.0841" y1="5593.3608" x2="-1471.5361" y2="5593.3608" gradientTransform="matrix(1 0 0 -1 1684.364 5796.6396)">
		<stop  offset="0" style="stop-color:#9AC341"/>
		<stop  offset="0.34" style="stop-color:#36AC47"/>
		<stop  offset="0.67" style="stop-color:#008A40"/>
		<stop  offset="1" style="stop-color:#006537"/>
	</linearGradient>
	<path fill="url(#SVGID_5_)" d="M212.828,380.883c0,0-8.711-216.266-88.223-348.811c-5.347-8.909-18.415-8.422-23.023,0.89
		C70.763,95.23-2.646,288.013,212.828,380.883z"/>
	
		<linearGradient id="SVGID_6_" gradientUnits="userSpaceOnUse" x1="-1603.7361" y1="5611.3779" x2="-1518.8193" y2="5611.3779" gradientTransform="matrix(1 0 0 -1 1713.7603 5840.7983)">
		<stop  offset="0" style="stop-color:#9AC341"/>
		<stop  offset="0.34" style="stop-color:#36AC47"/>
		<stop  offset="0.67" style="stop-color:#008A40"/>
		<stop  offset="1" style="stop-color:#006537"/>
	</linearGradient>
	<path opacity="0.502" fill="url(#SVGID_6_)" d="M194.83,363.544c0.409,0.59-0.411,1.24-0.895,0.711
		c-17.855-19.596-83.718-111.61-83.911-269.458c0-0.507,0.756-0.554,0.8-0.048C114.095,131.964,130.218,269.993,194.83,363.544z"/>
	
		<linearGradient id="SVGID_7_" gradientUnits="userSpaceOnUse" x1="-1633.3834" y1="5572.4961" x2="-1486.9725" y2="5572.4961" gradientTransform="matrix(1 0 0 -1 1660.4502 5822.8506)">
		<stop  offset="0" style="stop-color:#9AC341"/>
		<stop  offset="0.34" style="stop-color:#36AC47"/>
		<stop  offset="0.67" style="stop-color:#008A40"/>
		<stop  offset="1" style="stop-color:#006537"/>
	</linearGradient>
	<path opacity="0.702" fill="url(#SVGID_7_)" d="M155.782,417.937c-17.054-19.497-81.695-112.208-95.601-278.44
		c-0.048-0.534,0.599-0.632,0.68-0.104c6.055,38.989,31.935,183.332,95.632,277.738C156.896,417.73,156.247,418.466,155.782,417.937
		z M67.252,72.506c-5.37-9.041-16.562-7.695-19.716,2.406C26.46,142.457-19.871,350.174,173.478,434.247
		C173.478,434.247,147.158,207.035,67.252,72.506z"/>
	
		<linearGradient id="SVGID_8_" gradientUnits="userSpaceOnUse" x1="-1359.7147" y1="5272.4385" x2="-1359.7147" y2="5649.8994" gradientTransform="matrix(1 0 0 -1 1671.1497 5894.2983)">
		<stop  offset="0" style="stop-color:#9AC341"/>
		<stop  offset="0.34" style="stop-color:#36AC47"/>
		<stop  offset="0.67" style="stop-color:#008A40"/>
		<stop  offset="1" style="stop-color:#006537"/>
	</linearGradient>
	<path fill="url(#SVGID_8_)" d="M43.717,206.864v262.043c0,21.557,17.181,39.185,38.729,39.739
		c95.71,2.468,375.077,8.453,466.19,7.11c15.658-0.229,28.345-12.763,28.796-28.416c1.757-60.876,4.611-207.264-5.949-275.225
		c-2.225-14.313-14.304-25.016-28.782-25.477c-80.192-2.566-379.669-10.714-470.734-8.669
		C56.258,178.323,43.717,191.153,43.717,206.864z"/>
	<path fill="#91B3FA" d="M60.161,206.282v258.694c0,13.079,10.101,23.733,22.687,23.93l452.678,6.522
		c12.477,0.196,22.704-10.236,22.752-23.202l0.848-256.383c0.034-9.271-7.074-16.867-15.994-17.091L78.355,187.831
		C68.379,187.579,60.161,195.915,60.161,206.282z"/>
	<path opacity="0.3098" fill="#FFFFFF" d="M521.933,484.678l-433.992-4.989c-9.371,0.227-17.03-9.765-16.968-22.139l1.105-219.878
		c0.957-23.331,11.307-33.81,20.533-33.762l429.484,13.965c9.226,0.045,16.657,9.959,16.596,22.142l-1.041,207.166
		C537.589,459.173,531.013,484.457,521.933,484.678z"/>
	<path fill-rule="evenodd" clip-rule="evenodd" fill="#FFFFFF" d="M385.193,249.357l21.045,0.104
		c0.711,0.005,1.287,0.512,1.298,1.144l0.159,8.736c0.011,0.714,0.736,1.248,1.525,1.128l38.483-5.851
		c0.075-0.011,0.151-0.017,0.229-0.017l26.44,0.132c0.067,0,0.132-0.003,0.196-0.011l29.898-3.873
		c0.367-0.048,0.736,0.045,1.019,0.252l6.576,4.824c0.546,0.397,0.635,1.111,0.204,1.606l-8.12,9.324
		c-0.235,0.269-0.324,0.613-0.249,0.943l3.531,15.368c0.056,0.246,0.022,0.5-0.098,0.727l-12.544,23.675
		c-0.414,0.784-1.612,0.898-2.211,0.215l-7.334-8.394c-0.235-0.269-0.328-0.616-0.249-0.949l3.173-13.518
		c0.274-1.155-1.349-1.894-2.241-1.018l-7.843,7.681c-0.148,0.146-0.336,0.254-0.546,0.316l-9.077,2.745
		c-0.313,0.095-0.574,0.291-0.73,0.551l-4.466,7.41c-0.431,0.713,0.067,1.586,0.965,1.701l10.21,1.292
		c0.621,0.079,1.091,0.538,1.122,1.094l1.287,23.765c0.02,0.372-0.159,0.73-0.487,0.962l-9.642,6.875
		c-0.445,0.319-0.604,0.856-0.397,1.332l2.205,4.997c0.322,0.73-0.244,1.528-1.122,1.584l-2.622,0.165
		c-0.442,0.028-0.867-0.146-1.136-0.459l-7.46-8.783c-0.646-0.761-1.995-0.543-2.294,0.375l-0.795,2.442
		c-0.092,0.283-0.059,0.59,0.095,0.854l7.272,12.617c0.257,0.445,0.165,0.985-0.227,1.34l-12.927,11.774
		c-0.621,0.568-1.545,0.786-2.404,0.565l-2.275-0.582c-1.265-0.324-2.585,0.305-2.983,1.419c-0.235,0.657-0.101,1.377,0.358,1.934
		l6.592,8.002c0.722,0.876,0.602,2.096-0.285,2.843l-3.657,3.089c-0.951,0.803-2.448,0.786-3.38-0.034l-20.312-17.917
		c-0.948-0.836-2.476-0.836-3.422,0.003l-10.946,9.726c-0.324,0.286-0.548,0.649-0.652,1.047l-0.91,3.548
		c-0.459,1.785-3.047,2.283-4.295,0.826l-17.052-19.926c-0.462-0.54-1.139-0.896-1.891-0.996l-11.791-1.578
		c-0.341-0.045-0.669-0.143-0.968-0.288l-4.863-2.37c-1.354-0.661-2.874,0.59-2.241,1.844l1.1,2.186
		c0.406,0.8,1.237,1.365,2.211,1.502l8.213,1.156c1.041,0.146,1.914,0.781,2.28,1.659l0.403,0.96c0.481,1.15-0.008,2.44-1.17,3.098
		l-18.208,10.274c-0.817,0.462-1.905,0.182-2.32-0.599l-10.885-20.471c-0.355-0.668-1.22-0.988-2.003-0.736
		c-0.893,0.286-1.315,1.198-0.907,1.961l9.254,17.332c1.567,2.927,5.23,4.474,8.767,3.696l1.539-0.338
		c2.227-0.49,4.192,1.399,3.47,3.338l-2.336,6.285c-0.179,0.476-0.509,0.898-0.951,1.211l-8.366,5.929
		c-1.936,1.374-3.005,3.495-2.871,5.697l0.42,6.945c0.126,2.065-0.809,4.071-2.543,5.448l-3.366,2.675
		c-1.455,1.156-2.194,2.865-1.981,4.592l0.171,1.407c0.207,1.707-0.512,3.4-1.939,4.556l-12.776,10.356
		c-1.449,1.175-3.45,1.65-5.367,1.276l-2.476-0.484c-2.087-0.409-3.78-1.765-4.455-3.57l-7.04-18.913
		c-0.761-2.042-0.084-4.292,1.724-5.717c1.785-1.41,2.471-3.624,1.751-5.649l-3.895-10.966c-1.36-3.828-5.784-6.097-10.182-5.221
		l-10.071,2.003c-0.831,0.165-1.698-0.036-2.334-0.54L268.6,378.713c-0.56-0.445-0.879-1.086-0.876-1.757l0.067-13.166
		c0.017-3.542,1.447-6.964,4.035-9.656l1.746-1.813c3.238-3.369,7.798-5.509,12.754-5.985l10.205-0.979l6.889-0.758
		c1.357-0.151,2.619,0.652,2.902,1.847l0.473,2.006c0.165,0.71,0.697,1.315,1.433,1.631l9.863,4.236l1.228-4.027l18.031,1.883
		l0.291-4.639c0.045-0.71-0.501-1.34-1.284-1.486l-7.703-1.418l-3.24-6.265l-5.848-1.265l2.591,7.658l-4.606-5.02l-6.405-5.893
		c-0.921-0.845-2.398-0.954-3.458-0.258c-1.27,0.837-1.433,2.474-0.341,3.498l5.952,5.58l-3.517-0.008
		c-0.644-0.003-1.262-0.213-1.743-0.594l-6.967-5.512c-1.077-0.853-2.725-0.778-3.693,0.171l-5.753,5.624
		c-0.392,0.384-0.918,0.638-1.491,0.728l-4.6,0.719c-1.422,0.221-2.781-0.618-3.044-1.883l-0.965-4.614
		c-0.316-1.52,1.072-2.888,2.801-2.762l3.33,0.243c1.894,0.137,3.321-1.5,2.7-3.1l-1.525-3.915
		c-0.389-1.005,0.025-2.116,1.016-2.709l11.534-6.911l17.413-1.172l3.377-10.012l-4.449-1.444l1.62-8.887l-3.347,0.311l-4.127,7.446
		l0.277,8.24l-5.137,1.707l-2.714-6.296l-4.301,2.448l-2.261-8.193c-0.02-0.076-0.003-0.154,0.048-0.218l17.242-21.204l22.796,6.125
		l0.241,3.624l-5.912,2.356l-0.358,5.583l9.659-6.867l13.75-6.693l0.308-4.41l6.198-0.003c0.252,0,0.495,0.064,0.708,0.185
		l2.308,1.321c1.038,0.593,2.339-0.311,1.939-1.352l-2.571-6.702c-0.134-0.353-0.073-0.741,0.168-1.043l2.241-2.823
		c0.271-0.344,0.733-0.529,1.206-0.484l5.647,0.549c0.241,0.025,0.47,0.106,0.66,0.237l0.708,0.49
		c1.074,0.741,2.546-0.289,1.989-1.394c-0.344-0.68,0.109-1.466,0.932-1.614l2.636-0.47c1.119-0.201,1.43-1.494,0.498-2.084
		l-1.371-0.87c-0.683-0.434-0.736-1.321-0.109-1.816l6.671-5.258c0.117-0.095,0.255-0.168,0.403-0.218l5.582-1.88
		c0.728-0.244,1.052-0.996,0.697-1.615l-0.521-0.909c-0.28-0.484-0.901-0.733-1.494-0.593l-5.221,1.214
		c-0.859,0.199-1.684-0.403-1.634-1.192l0.115-1.811C383.926,249.833,384.5,249.351,385.193,249.357z"/>
	<path fill-rule="evenodd" clip-rule="evenodd" fill="#FFFFFF" d="M478.078,407.732l-12.116,3.92
		c-0.54,0.177-0.993,0.515-1.276,0.96l-3.565,5.576c-0.322,0.501-0.854,0.868-1.477,1.016l-10.868,2.605
		c-1.167,0.28-1.925,1.284-1.774,2.353l1.984,14.016c0.059,0.4-0.011,0.803-0.199,1.169l-1.617,3.148
		c-0.646,1.253,0.182,2.72,1.698,3.011l1.987,0.381c0.493,0.092,1.007,0.047,1.472-0.129l17.539-6.749
		c1.086-0.417,2.353-0.076,3,0.809l4.052,5.543c0.117,0.162,0.257,0.308,0.417,0.434l6.318,5.025
		c0.521,0.417,1.217,0.61,1.914,0.535l10.216-1.111c1.187-0.131,2.087-1.007,2.127-2.068l0.168-4.393
		c0.017-0.422,0.171-0.831,0.445-1.175l6.301-7.904c0.291-0.364,0.445-0.795,0.448-1.24l0.031-6.108
		c0.003-0.582-0.258-1.142-0.725-1.55l-8.434-7.381c-0.294-0.258-0.509-0.577-0.627-0.929l-1.545-4.667
		c-0.68-2.051-3.937-2.073-4.648-0.031l-0.56,1.609c-0.498,1.435-2.451,1.986-3.791,1.074l-1.917-1.307
		c-0.921-0.627-1.214-1.749-0.7-2.675l0.022-0.042c0.551-0.991,0.173-2.191-0.873-2.785l-1.296-0.733
		C479.572,407.578,478.786,407.502,478.078,407.732z"/>
	<path fill-rule="evenodd" clip-rule="evenodd" fill="#FFFFFF" d="M475.062,394.06l-0.266,0.784
		c-0.288,0.845,0.031,1.763,0.809,2.314l6.951,4.944c0.302,0.215,0.658,0.364,1.035,0.431l13.174,2.378
		c0.131,0.022,0.263,0.056,0.389,0.101l1.718,0.588c2.149,0.739,4.133-1.352,2.958-3.114l-0.691-1.035
		c-0.269-0.403-0.68-0.72-1.172-0.898l-21.666-7.86C476.976,392.211,475.476,392.846,475.062,394.06z"/>
	<path fill-rule="evenodd" clip-rule="evenodd" fill="#FFFFFF" d="M453.72,385.4c-1.727,1.709-4.055,3.996-5.367,5.286
		c-0.618,0.61-0.797,1.48-0.456,2.244l2.879,6.469c0.448,1.007,1.662,1.564,2.84,1.304l4.438-0.976
		c0.828-0.182,1.489-0.739,1.738-1.466l1.766-5.183c0.199-0.579,0.117-1.203-0.229-1.723c-0.834-1.254-2.465-3.71-3.722-5.602
		C456.773,384.496,454.814,384.317,453.72,385.4z"/>
	<path fill-rule="evenodd" clip-rule="evenodd" fill="#FFFFFF" d="M431.273,386.253l10.04,11.343
		c0.031,0.034,0.062,0.068,0.095,0.101l6.187,6.159c0.417,0.417,0.999,0.674,1.626,0.716l11.892,0.814l-0.07,0.199
		c-0.311,0.862-1.189,1.458-2.202,1.497l-16.624,0.657c-0.856,0.034-1.668-0.338-2.138-0.977l-13.056-17.737
		c-0.649-0.881-0.487-2.054,0.383-2.77l0.313-0.257C428.758,385.145,430.395,385.262,431.273,386.253z"/>
	<path fill-rule="evenodd" clip-rule="evenodd" fill="#FFFFFF" d="M189.906,375.363l-3.019,3.898
		c-0.417,0.54-1.164,0.797-1.883,0.652l-5.644-1.147c-0.823-0.168-1.405-0.823-1.402-1.573l0.02-3.59
		c0.003-0.859-0.755-1.57-1.721-1.609l-3.26-0.137c-1.326-0.056-2.135-1.324-1.505-2.365l3.526-5.814l-5.482-1.634
		c0,0-4.155,5.955-4.981,5.98c-0.828,0.025-6.24-7.549-6.24-7.549l6.844-7.695l10.513-0.227l5.003,6.486l3.184-10.446l11.738-7.857
		l23.182-14.489c0.168-0.106,0.302-0.247,0.389-0.414l4.337-8.297c0.193-0.366,0.129-0.8-0.165-1.111l-6.839-7.208
		c-0.157-0.165-0.252-0.367-0.274-0.579l-0.394-3.912c-0.104-1.021-1.631-1.31-2.188-0.412c-0.406,0.649-1.427,0.722-1.945,0.137
		l-4.614-5.229c-0.999-1.133-2.918-1.162-3.957-0.056l-5.899,6.271c-0.165,0.176-0.299,0.375-0.4,0.588l-2.583,5.557
		c-0.848,1.821-3.724,1.875-4.664,0.086l-0.134-0.257c-0.249-0.476-0.669-0.856-1.2-1.083c-2.53-1.085-10.101-4.446-10.143-5.817
		c-0.042-1.421,5.095-9.248,6.5-11.358c0.229-0.344,0.554-0.624,0.948-0.82l9.861-4.877c0.039-0.022,0.081-0.042,0.123-0.059
		l9.323-4.032c0.918-0.397,1.48-1.245,1.427-2.154l-0.129-2.216c-0.081-1.402-1.562-2.403-3.103-2.099l-4.474,0.887
		c-0.437,0.087-0.839,0.274-1.17,0.545l-2.001,1.634c-1.226,1.004-3.19,0.705-3.974-0.607l-2.784-4.659
		c-0.716-1.2-2.451-1.576-3.705-0.8l-3.803,2.348c-0.638,0.395-1.444,0.506-2.191,0.308l-12.858-3.464
		c-0.26-0.07-0.504-0.176-0.727-0.316l-11.008-6.87c-0.613-0.38-1.379-0.506-2.101-0.338l-8.672,1.992
		c-0.82,0.188-1.696,0-2.331-0.5l-14.911-11.783c-0.641-0.506-1.514-0.694-2.339-0.5c-2.804,0.663-9.34,2.174-12.054,2.487
		c-2.737,0.316-5.714,3.559-6.881,4.956c-0.316,0.38-0.358,0.884-0.106,1.304l1.259,2.113c0.442,0.741-0.067,1.654-0.999,1.785
		l-4.656,0.655c-0.963,0.137-1.466,1.097-0.965,1.841l1.091,1.62c0.173,0.257,0.235,0.563,0.173,0.859l-0.862,4.041
		c-0.148,0.688-0.909,1.127-1.676,0.962l-4.455-0.957c-0.898-0.193-1.749,0.439-1.698,1.259l0.389,6.249
		c0.017,0.246,0.118,0.487,0.288,0.683l3.705,4.256c0.504,0.579,0.333,1.418-0.372,1.796c-3.649,1.967-13.557,7.289-12.581,6.674
		c1.195-0.753,12.06,0.201,12.158-1.463c0.095-1.668,7.317-3.241,7.818-3.817c0.378-0.434,3.111-3.951,4.449-5.675
		c0.411-0.532,1.217-0.686,1.841-0.355l10.969,5.846c0.702,0.372,1.161,1.024,1.234,1.749l1.189,11.959
		c0.034,0.336,0.148,0.66,0.341,0.951l4.681,7.085l5.389,8.979c0.336,0.562,0.392,1.223,0.154,1.821l-2.969,7.521
		c-2.238,5.667-1.743,11.903,1.363,17.239c2.53,4.346,5.124,8.842,5.272,9.248c0.05,0.134,0.207,0.38,0.434,0.694
		c2.211,3.067,5.37,5.501,9.038,7.119l17.032,7.519c0.073,0.034,0.146,0.07,0.215,0.112l12.533,7.611
		c0.12,0.076,0.229,0.16,0.327,0.258l2.096,2.084c0.414,0.409,1.03,0.602,1.64,0.512c1.413-0.207,2.524,1.066,1.945,2.233
		l-3.33,6.707c-0.137,0.274-0.185,0.576-0.137,0.873l2.09,13.118c0.056,0.358,0.249,0.688,0.543,0.938l8.926,7.574
		c0.266,0.224,0.448,0.515,0.521,0.834l3.097,13.171c0.017,0.079,0.031,0.157,0.034,0.235l2.409,36.303
		c0.034,0.479,0.302,0.918,0.733,1.2l8.299,5.426c0.341,0.227,0.764,0.336,1.186,0.311l2.879-0.173
		c1.547-0.092,2.247-1.766,1.144-2.737l-2.779-2.448c-0.319-0.28-0.509-0.655-0.534-1.052l-0.215-3.438
		c-0.003-0.034-0.003-0.064-0.003-0.098l0.031-6.315c0-0.098,0.011-0.199,0.031-0.294l1.041-4.841l0.017-0.089l0.504-3.386
		c0.084-0.56,0.492-1.041,1.077-1.262l7.107-2.7c0.921-0.35,1.343-1.301,0.94-2.119l-0.918-1.86
		c-0.448-0.91,0.129-1.959,1.212-2.199l2.784-0.622c0.451-0.101,0.839-0.35,1.086-0.699l5.781-8.157
		c0.389-0.546,0.369-1.245-0.05-1.777l-0.118-0.151c-0.75-0.945-0.157-2.266,1.117-2.493l3.224-0.57
		c0.644-0.115,1.167-0.535,1.363-1.094l4.723-13.451c0.073-0.21,0.196-0.403,0.358-0.571l6.699-6.881
		c0.7-0.716,0.548-1.813-0.322-2.361l-9.183-5.773c-0.328-0.204-0.719-0.308-1.119-0.291l-6.598,0.249
		c-0.434,0.017-0.856-0.103-1.198-0.344l-3.959-2.787c-0.42-0.297-0.671-0.745-0.685-1.223l-0.115-4.332
		c-0.017-0.691-0.532-1.295-1.276-1.497l-8.064-2.188c-0.218-0.062-0.422-0.156-0.602-0.282l-5.014-3.576
		c-0.509-0.364-1.198-0.453-1.802-0.235l-4.071,1.466c-0.493,0.176-1.047,0.151-1.517-0.07l-7.877-3.696
		C191.422,374.476,190.423,374.694,189.906,375.363z"/>
	<path fill-rule="evenodd" clip-rule="evenodd" fill="#FFFFFF" d="M197.483,270.774l1.049-4.525c0.213-0.915,1.038-1.62,2.073-1.774
		l7.407-1.103c0.579-0.084,1.175,0.011,1.684,0.269l9.128,4.642c0.613,0.313,0.778,1.035,0.35,1.536l-3.652,4.281
		c-0.305,0.355-0.316,0.845-0.033,1.214l5.199,6.78c0.16,0.207,0.227,0.456,0.196,0.705l-0.988,7.807
		c-0.017,0.154-0.075,0.302-0.168,0.431l-2.891,4.158c-0.266,0.383-0.778,0.568-1.27,0.464l-7.894-1.695
		c-0.129-0.028-0.252-0.064-0.372-0.109l-0.711-0.261c-2.037-0.744-2.127-3.282-0.148-4.135l1.477-0.641
		c0.985-0.425,1.556-1.36,1.413-2.328c-0.294-1.978-0.825-5.171-1.338-6.063c-0.45-0.78-0.733-2.644-0.89-4.032
		c-0.112-1.001-0.951-1.813-2.065-2l-5.535-0.929C198.107,273.228,197.192,272.016,197.483,270.774z"/>
	<path fill-rule="evenodd" clip-rule="evenodd" fill="#FFFFFF" d="M165.696,256.296l-3.397,2.485
		c-1.06,0.775-1.24,2.157-0.406,3.128l3.246,3.783c0.059,0.067,0.112,0.137,0.159,0.209l4.236,6.279
		c0.291,0.431,0.736,0.767,1.262,0.949l3.99,1.382c0.873,0.302,1.861,0.154,2.572-0.383l2.784-2.102
		c0.252-0.19,0.462-0.425,0.613-0.686l3.24-5.565c0.188-0.322,0.285-0.68,0.288-1.041c0-2.02-2.739-3.036-4.348-1.614l-0.173,0.154
		c-1.024,0.906-2.695,0.873-3.674-0.076l-6.895-6.685C168.276,255.628,166.742,255.529,165.696,256.296z"/>
	<path fill-rule="evenodd" clip-rule="evenodd" fill="#FFFFFF" d="M235.364,245.929l-12.315,8.825
		c-0.38,0.271-0.529,0.728-0.375,1.139l2.311,6.178c0.12,0.324,0.408,0.573,0.775,0.671l6.889,1.836
		c0.563,0.151,0.971,0.584,1.038,1.105l1.766,13.787c0.028,0.209-0.003,0.422-0.09,0.621l-4.183,9.539
		c-0.115,0.254-0.131,0.537-0.053,0.806l3.428,11.579c0.112,0.378,0.406,0.691,0.803,0.854l2.832,1.169
		c0.697,0.289,1.525,0.048,1.897-0.551l5.686-9.133c0.143-0.227,0.355-0.412,0.613-0.529l9.365-4.265
		c0.117-0.053,0.227-0.12,0.324-0.202l13.747-11.243c0.218-0.179,0.369-0.411,0.437-0.668l4.9-19.117
		c0.05-0.196,0.151-0.38,0.297-0.537l7.583-8.227c0.327-0.355,0.42-0.839,0.243-1.273l-0.865-2.118
		c-0.288-0.699-1.172-1.046-1.945-0.761l-4.231,1.567c-0.26,0.098-0.546,0.123-0.823,0.078l-2.605-0.417
		c-1.556-0.249-1.629-2.21-0.095-2.549c1.139-0.251,1.5-1.53,0.63-2.232l-0.932-0.75c-0.084-0.067-0.156-0.143-0.221-0.227
		l-3.33-4.278c-0.271-0.353-0.719-0.563-1.198-0.565l-9.43-0.045c-0.389-0.002-0.764,0.135-1.041,0.378l-5.328,4.723
		c-0.341,0.305-0.493,0.739-0.406,1.162l0.529,2.526c0.21,1.01-0.918,1.83-1.99,1.444l-2.988-1.072
		c-0.336-0.12-0.61-0.35-0.77-0.641l-0.867-1.581c-0.358-0.652-1.242-0.921-1.97-0.599l-7.776,3.439
		C235.538,245.818,235.448,245.87,235.364,245.929z"/>
	<path fill-rule="evenodd" clip-rule="evenodd" fill="#FFFFFF" d="M212.973,237.35l14.858-3.464
		c0.187-0.045,0.386-0.048,0.574-0.006l13.232,2.876c1.223,0.266,1.528,1.688,0.501,2.334l-1.956,1.231l-0.07,0.045l-18.081,12.874
		l-8.084,5.851c-0.579,0.419-1.337,0.59-2.071,0.47l-7.983-1.313c-0.811-0.134-1.642,0.089-2.233,0.599l-2.482,2.138
		c-1.237,1.063-3.279,0.752-4.052-0.616l-1.086-1.925c-0.045-0.078-0.084-0.16-0.117-0.243l-0.837-2.048
		c-0.481-1.184,0.207-2.488,1.536-2.907l4.872-1.547c0.616-0.196,1.29-0.174,1.889,0.062l3.679,1.449
		c0.644,0.252,1.374,0.257,2.02,0.017l0.084-0.031c1.578-0.594,2.062-2.376,0.963-3.545l-0.946-1.007
		c-0.66-0.702-0.781-1.693-0.305-2.504l4.483-7.647C211.695,237.926,212.279,237.509,212.973,237.35z"/>
	<path fill-rule="evenodd" clip-rule="evenodd" fill="#FFFFFF" d="M176.813,246.71l5.409-1.265c1.48-0.347,2.966,0.537,3.176,1.886
		l0.772,4.997c0.16,1.019-0.473,2.001-1.536,2.398l-4.586,1.709c-1.43,0.535-3.058-0.185-3.45-1.52l-1.601-5.442
		C174.642,248.263,175.453,247.028,176.813,246.71z"/>
	
		<linearGradient id="SVGID_9_" gradientUnits="userSpaceOnUse" x1="-1586.11" y1="5635.1948" x2="-1581.4427" y2="5635.1948" gradientTransform="matrix(1 0 0 -1 1745.4542 5850.1064)">
		<stop  offset="0" style="stop-color:#9AC341"/>
		<stop  offset="0.34" style="stop-color:#36AC47"/>
		<stop  offset="0.67" style="stop-color:#008A40"/>
		<stop  offset="1" style="stop-color:#006537"/>
	</linearGradient>
	<path fill="url(#SVGID_9_)" d="M161.359,116.879c-1.102,0-1.998-0.893-2.001-1.995l-0.014-4.001
		c-0.003-1.105,0.89-2.004,1.995-2.006h0.003c1.105,0,2.001,0.89,2.004,1.992l0.014,4.004c0.003,1.105-0.89,2.003-1.995,2.006
		H161.359z M161.395,128.883c-1.1,0-1.995-0.893-2.001-1.995l-0.02-6.002c-0.003-1.105,0.89-2.003,1.995-2.006h0.006
		c1.102,0,1.998,0.89,2.001,1.992l0.02,6.002c0.006,1.105-0.887,2.003-1.992,2.009H161.395z M161.434,140.887
		c-1.103,0-1.995-0.893-2.001-1.995l-0.02-6.002c-0.003-1.105,0.89-2.003,1.995-2.006h0.006c1.103,0,1.998,0.89,2.001,1.992
		l0.02,6.002c0.003,1.105-0.89,2.003-1.995,2.009H161.434z M161.474,152.891c-1.102,0-1.998-0.893-2.001-1.995l-0.019-6.002
		c-0.003-1.105,0.89-2.003,1.995-2.006h0.005c1.103,0,1.995,0.89,2.001,1.992l0.02,6.002c0.003,1.105-0.89,2.003-1.995,2.009
		H161.474z M161.513,164.895c-1.102,0-1.998-0.893-2.001-1.996l-0.02-6.002c-0.006-1.105,0.887-2.003,1.992-2.006h0.006
		c1.102,0,1.998,0.89,2.003,1.992l0.02,6.002c0.003,1.105-0.89,2.003-1.995,2.009H161.513z M161.549,176.899
		c-1.1,0-1.998-0.893-2.001-1.995l-0.017-6.002c-0.006-1.105,0.89-2.003,1.992-2.006h0.006c1.102,0,1.998,0.89,2.003,1.992
		l0.017,6.002c0.003,1.105-0.89,2.006-1.992,2.009H161.549z M161.588,188.903c-1.102,0-1.998-0.893-2.001-1.995l-0.02-6.002
		c-0.003-1.105,0.89-2.003,1.995-2.006h0.006c1.102,0,1.998,0.89,2.001,1.992l0.02,6.002c0.003,1.105-0.89,2.006-1.995,2.009
		H161.588z M161.627,200.907c-1.103,0-1.998-0.893-2.001-1.995l-0.02-6.002c-0.003-1.105,0.89-2.003,1.995-2.006h0.006
		c1.102,0,1.998,0.89,2.001,1.992l0.02,6.002c0.003,1.105-0.89,2.006-1.995,2.009H161.627z M161.667,212.911
		c-1.102,0-1.998-0.893-2.001-1.995l-0.02-6.002c-0.003-1.105,0.89-2.003,1.992-2.006h0.008c1.102,0,1.998,0.89,2.001,1.993
		l0.02,6.002c0.003,1.105-0.89,2.006-1.995,2.009H161.667z M161.703,224.915c-1.103,0-1.998-0.893-2.001-1.995l-0.02-6.002
		c-0.003-1.105,0.89-2.003,1.995-2.006h0.005c1.103,0,1.998,0.89,2.001,1.992l0.02,6.002c0.003,1.105-0.89,2.006-1.992,2.009
		H161.703z M161.742,236.919c-1.102,0-1.998-0.893-2.001-1.995l-0.02-6.002c-0.003-1.105,0.89-2.003,1.995-2.006h0.006
		c1.103,0,1.998,0.89,2.001,1.992l0.019,6.002c0.003,1.105-0.89,2.006-1.995,2.009H161.742z M161.781,248.923
		c-1.103,0-1.998-0.893-2.001-1.995l-0.02-6.002c-0.003-1.105,0.89-2.003,1.995-2.006h0.006c1.102,0,1.998,0.89,2.001,1.993
		l0.02,6.002c0.003,1.105-0.89,2.003-1.995,2.009H161.781z M161.821,260.927c-1.102,0-1.998-0.893-2.001-1.995l-0.02-6.002
		c-0.005-1.105,0.887-2.003,1.992-2.006h0.008c1.1,0,1.995,0.89,2.001,1.992l0.02,6.002c0.003,1.105-0.89,2.003-1.995,2.009H161.821
		z M161.857,272.931c-1.1,0-1.995-0.893-2.001-1.995l-0.02-6.002c-0.003-1.105,0.89-2.003,1.995-2.006h0.005
		c1.103,0,1.998,0.89,2.001,1.992l0.02,6.002c0.005,1.105-0.887,2.003-1.992,2.009H161.857z M161.896,284.935
		c-1.103,0-1.995-0.893-2.001-1.995l-0.02-6.002c-0.003-1.105,0.89-2.003,1.995-2.006h0.006c1.102,0,1.998,0.89,2,1.992l0.02,6.002
		c0.005,1.105-0.89,2.003-1.995,2.009H161.896z M161.935,296.939c-1.102,0-1.998-0.893-2.001-1.995l-0.02-6.002
		c-0.006-1.105,0.89-2.003,1.995-2.006h0.006c1.103,0,1.995,0.89,2.001,1.992l0.02,6.002c0.003,1.105-0.89,2.003-1.995,2.009
		H161.935z M161.974,308.944c-1.102,0-1.998-0.893-2.001-1.995l-0.02-6.002c-0.006-1.105,0.887-2.003,1.992-2.006h0.008
		c1.1,0,1.995,0.89,2.001,1.992l0.02,6.002c0.003,1.105-0.89,2.003-1.995,2.009H161.974z M162.011,320.947
		c-1.1,0-1.995-0.893-2.001-1.995l-0.02-6.002c-0.003-1.105,0.89-2.004,1.995-2.006h0.006c1.102,0,1.998,0.89,2.001,1.992
		l0.02,6.002c0.006,1.105-0.887,2.003-1.992,2.009H162.011z"/>
	
		<linearGradient id="SVGID_10_" gradientUnits="userSpaceOnUse" x1="-1534.8451" y1="5610.2778" x2="-1527.5751" y2="5610.2778" gradientTransform="matrix(1 0 0 -1 1837.636 5871.5469)">
		<stop  offset="0" style="stop-color:#9AC341"/>
		<stop  offset="0.34" style="stop-color:#36AC47"/>
		<stop  offset="0.67" style="stop-color:#008A40"/>
		<stop  offset="1" style="stop-color:#006537"/>
	</linearGradient>
	<path fill="url(#SVGID_10_)" d="M304.876,152.244c-1.094,0-1.984-0.876-2.001-1.973l-0.084-6.002
		c-0.014-1.105,0.868-2.012,1.973-2.029c1.083-0.034,2.015,0.868,2.029,1.973l0.084,6.001c0.014,1.105-0.867,2.012-1.973,2.029
		H304.876z M305.044,164.248c-1.091,0-1.984-0.878-2.001-1.973l-0.084-6.002c-0.014-1.105,0.867-2.015,1.973-2.029
		c1.097,0,2.012,0.868,2.029,1.973l0.084,6.002c0.014,1.105-0.867,2.012-1.973,2.028H305.044z M305.211,176.25
		c-1.094,0-1.987-0.876-2.001-1.973l-0.084-6c-0.017-1.105,0.867-2.014,1.973-2.028c1.114-0.02,2.012,0.867,2.029,1.973l0.084,5.999
		c0.014,1.105-0.867,2.015-1.973,2.029H305.211z M305.379,188.254c-1.091,0-1.987-0.878-2.001-1.973l-0.084-6.002
		c-0.014-1.105,0.867-2.012,1.973-2.029h0.028c1.091,0,1.984,0.879,2.001,1.973l0.084,6.002c0.014,1.105-0.867,2.012-1.973,2.029
		H305.379z M305.544,200.255c-1.091,0-1.984-0.875-1.998-1.972l-0.084-6c-0.017-1.105,0.867-2.015,1.973-2.028h0.028
		c1.091,0,1.984,0.875,2.001,1.973l0.084,5.999c0.014,1.105-0.87,2.015-1.973,2.028H305.544z M305.712,212.259
		c-1.091,0-1.984-0.879-1.998-1.973l-0.084-6.002c-0.017-1.105,0.867-2.012,1.973-2.029c1.125-0.028,2.012,0.867,2.029,1.973
		l0.084,6.002c0.014,1.105-0.87,2.012-1.973,2.029H305.712z M305.88,224.263c-1.091,0-1.984-0.879-1.998-1.973l-0.084-6.002
		c-0.017-1.105,0.867-2.015,1.973-2.029h0.028c1.091,0,1.984,0.876,2.001,1.973l0.084,6.002c0.014,1.102-0.87,2.012-1.973,2.029
		H305.88z M306.048,236.264c-1.091,0-1.984-0.876-2.001-1.973l-0.084-5.999c-0.014-1.105,0.87-2.015,1.973-2.028
		c1.086-0.014,2.015,0.867,2.029,1.973l0.084,5.999c0.017,1.105-0.867,2.015-1.973,2.029H306.048z M306.216,248.268
		c-1.091,0-1.984-0.878-2.001-1.973l-0.084-6.002c-0.014-1.105,0.87-2.012,1.973-2.029h0.031c1.091,0,1.984,0.878,1.998,1.973
		l0.084,6.002c0.017,1.105-0.867,2.012-1.973,2.029H306.216z M306.384,260.269c-1.091,0-1.984-0.875-2.001-1.972l-0.084-6
		c-0.014-1.105,0.867-2.015,1.973-2.029h0.028c1.094,0,1.987,0.876,2.001,1.973l0.084,5.999c0.017,1.105-0.867,2.015-1.973,2.028
		H306.384z M306.552,272.274c-1.091,0-1.984-0.879-2.001-1.973l-0.084-6.002c-0.014-1.105,0.87-2.012,1.973-2.029
		c1.097-0.025,2.012,0.867,2.029,1.973l0.084,6.002c0.014,1.105-0.868,2.012-1.973,2.029H306.552z M306.719,284.275
		c-1.091,0-1.984-0.876-2-1.973l-0.084-5.999c-0.014-1.105,0.867-2.015,1.973-2.029h0.028c1.094,0,1.984,0.876,2.001,1.973
		l0.084,5.999c0.014,1.106-0.867,2.015-1.973,2.029H306.719z M306.888,296.279c-1.094,0-1.984-0.876-2.001-1.973l-0.084-6.002
		c-0.014-1.105,0.867-2.012,1.973-2.028c1.128-0.009,2.012,0.867,2.029,1.973l0.084,6.002c0.014,1.105-0.867,2.015-1.973,2.029
		H306.888z M307.055,308.283c-1.094,0-1.984-0.878-2.001-1.973l-0.084-6.002c-0.014-1.105,0.867-2.012,1.973-2.029
		c1.105-0.039,2.012,0.868,2.029,1.973l0.084,6.002c0.014,1.103-0.867,2.012-1.973,2.029H307.055z M307.223,320.284
		c-1.094,0-1.987-0.875-2.001-1.972l-0.084-6.002c-0.017-1.103,0.867-2.012,1.973-2.028c1.086,0.008,2.012,0.87,2.029,1.973
		l0.084,6.002c0.014,1.105-0.867,2.015-1.973,2.028H307.223z M307.388,332.288c-1.091,0-1.984-0.879-1.998-1.973l-0.084-6.002
		c-0.017-1.105,0.867-2.012,1.973-2.028h0.028c1.091,0,1.984,0.878,2.001,1.973l0.084,6.002c0.014,1.105-0.87,2.012-1.973,2.029
		H307.388z M307.556,344.289c-1.091,0-1.984-0.875-1.998-1.973l-0.084-5.999c-0.017-1.105,0.867-2.015,1.973-2.029h0.028
		c1.091,0,1.984,0.876,2.001,1.973l0.084,6c0.014,1.105-0.87,2.015-1.973,2.028H307.556z M307.724,356.293
		c-1.091,0-1.984-0.875-2.001-1.973l-0.084-6.001c-0.014-1.105,0.87-2.012,1.973-2.029h0.031c1.091,0,1.984,0.878,1.998,1.973
		l0.084,6.002c0.017,1.105-0.867,2.015-1.973,2.028H307.724z M307.892,368.298c-1.091,0-1.984-0.878-1.998-1.973l-0.087-6.002
		c-0.014-1.105,0.87-2.014,1.973-2.028c1.114-0.017,2.015,0.867,2.029,1.973l0.087,6.002c0.014,1.103-0.87,2.012-1.973,2.029
		H307.892z M308.06,380.299c-1.091,0-1.984-0.876-2.001-1.973l-0.084-6.002c-0.014-1.103,0.87-2.012,1.973-2.028h0.031
		c1.091,0,1.984,0.878,1.998,1.972l0.084,6.002c0.017,1.105-0.867,2.015-1.973,2.029H308.06z"/>
	
		<linearGradient id="SVGID_11_" gradientUnits="userSpaceOnUse" x1="-1478.3831" y1="5619.4614" x2="-1473.7241" y2="5619.4614" gradientTransform="matrix(1 0 0 -1 1939.163 5887.3911)">
		<stop  offset="0" style="stop-color:#9AC341"/>
		<stop  offset="0.34" style="stop-color:#36AC47"/>
		<stop  offset="0.67" style="stop-color:#008A40"/>
		<stop  offset="1" style="stop-color:#006537"/>
	</linearGradient>
	<path fill="url(#SVGID_11_)" d="M463.419,176.899h-0.008c-1.105-0.003-1.995-0.901-1.992-2.006l0.02-6.002
		c0.003-1.103,0.898-1.995,2.001-1.995h0.006c1.105,0.003,1.998,0.901,1.995,2.006l-0.02,6.002
		C465.414,176.007,464.521,176.899,463.419,176.899z M463.379,188.903h-0.008c-1.105-0.005-1.998-0.904-1.992-2.009l0.02-6.002
		c0.003-1.103,0.898-1.992,2.001-1.992h0.006c1.105,0.002,1.998,0.9,1.995,2.006l-0.02,6.002
		C465.375,188.01,464.479,188.903,463.379,188.903z M463.337,200.907h-0.005c-1.105-0.006-1.998-0.904-1.995-2.009l0.02-6.002
		c0.005-1.103,0.901-1.993,2.001-1.993h0.008c1.105,0.003,1.998,0.901,1.992,2.006l-0.02,6.002
		C465.335,200.015,464.44,200.907,463.337,200.907z M463.298,212.911h-0.006c-1.105-0.006-1.998-0.904-1.995-2.009l0.02-6.002
		c0.005-1.103,0.898-1.992,2.001-1.992h0.006c1.105,0.003,2.001,0.901,1.995,2.006l-0.02,6.002
		C465.296,212.019,464.401,212.911,463.298,212.911z M463.259,224.915h-0.009c-1.105-0.005-1.998-0.904-1.992-2.009l0.02-6.002
		c0.003-1.102,0.898-1.992,2.001-1.992h0.006c1.105,0.003,1.998,0.901,1.995,2.006l-0.02,6.002
		C465.254,224.023,464.362,224.915,463.259,224.915z M463.22,236.92h-0.008c-1.105-0.006-1.998-0.904-1.992-2.009l0.02-6.002
		c0.003-1.103,0.898-1.993,2.001-1.993h0.005c1.105,0.003,1.998,0.901,1.995,2.006l-0.02,6.002
		C465.215,236.027,464.32,236.92,463.22,236.92z M463.178,248.923h-0.006c-1.105-0.005-1.998-0.904-1.995-2.009l0.02-6.002
		c0.005-1.103,0.901-1.992,2.001-1.992h0.008c1.105,0.002,1.998,0.901,1.992,2.006l-0.02,6.002
		C465.176,248.031,464.28,248.923,463.178,248.923z M463.139,260.927h-0.006c-1.105-0.006-1.998-0.904-1.995-2.009l0.02-6.002
		c0.005-1.102,0.898-1.992,2.001-1.992h0.006c1.105,0.003,2.001,0.901,1.995,2.006l-0.02,6.002
		C465.137,260.035,464.241,260.927,463.139,260.927z M463.1,272.931h-0.008c-1.105-0.005-1.998-0.904-1.992-2.009l0.02-6.001
		c0.003-1.103,0.898-1.993,2.001-1.993h0.006c1.105,0.003,1.998,0.901,1.995,2.006l-0.02,6.002
		C465.095,272.039,464.202,272.931,463.1,272.931z M463.058,284.935h-0.006c-1.105-0.005-1.998-0.904-1.995-2.009l0.02-6.002
		c0.006-1.103,0.901-1.992,2.001-1.992h0.008c1.105,0.002,1.998,0.901,1.992,2.006l-0.02,6.002
		C465.056,284.043,464.16,284.935,463.058,284.935z M463.018,296.94h-0.006c-1.105-0.006-1.998-0.904-1.995-2.009l0.02-6.002
		c0.006-1.103,0.898-1.992,2.001-1.992h0.009c1.105,0.003,1.998,0.901,1.992,2.006l-0.02,6.002
		C465.016,296.047,464.121,296.94,463.018,296.94z M462.979,308.944h-0.005c-1.105-0.005-2.001-0.904-1.995-2.009l0.02-6.002
		c0.003-1.103,0.898-1.992,2.001-1.992h0.006c1.105,0.003,1.998,0.901,1.995,2.006l-0.02,6.002
		C464.974,308.051,464.082,308.944,462.979,308.944z M462.94,320.947h-0.008c-1.105-0.005-1.998-0.904-1.992-2.009l0.02-6.002
		c0.003-1.103,0.898-1.992,2.001-1.992h0.006c1.105,0.002,1.998,0.901,1.995,2.006l-0.02,6.002
		C464.935,320.055,464.04,320.947,462.94,320.947z M462.898,332.952h-0.006c-1.105-0.006-1.998-0.904-1.995-2.009l0.02-6.002
		c0.006-1.103,0.901-1.992,2.001-1.992h0.005c1.108,0.002,2.001,0.901,1.995,2.006l-0.02,6.002
		C464.896,332.059,464,332.952,462.898,332.952z M462.859,344.956h-0.005c-1.105-0.006-1.998-0.904-1.995-2.009l0.02-6.002
		c0.006-1.103,0.898-1.992,2.001-1.992h0.006c1.108,0.003,2.001,0.901,1.995,2.006l-0.02,6.002
		C464.857,344.063,463.961,344.956,462.859,344.956z M462.82,356.96h-0.005c-1.105-0.005-2.001-0.904-1.995-2.009l0.02-6.002
		c0.003-1.102,0.898-1.992,2.001-1.992h0.006c1.105,0.003,1.998,0.901,1.995,2.006l-0.02,6.002
		C464.815,356.067,463.922,356.96,462.82,356.96z M462.781,368.964h-0.009c-1.105-0.005-1.998-0.904-1.992-2.009l0.02-6.001
		c0.003-1.103,0.898-1.993,2.001-1.993h0.006c1.105,0.003,1.998,0.901,1.995,2.006l-0.02,6.002
		C464.776,368.071,463.88,368.964,462.781,368.964z"/>
	<path fill="#24984E" d="M153.282,258.047c0.789-0.327,1.592-0.614,2.41-0.862c0.817-0.248,1.645-0.455,2.482-0.622
		c0.838-0.167,1.682-0.292,2.531-0.375c0.85-0.084,1.702-0.125,2.556-0.125c0.854,0,1.706,0.042,2.556,0.125
		c0.85,0.083,1.694,0.209,2.531,0.375s1.665,0.374,2.482,0.622c0.817,0.248,1.62,0.535,2.409,0.862
		c0.789,0.327,1.56,0.691,2.313,1.094c0.753,0.402,1.485,0.841,2.195,1.315s1.395,0.983,2.056,1.524
		c0.66,0.542,1.292,1.115,1.896,1.719s1.177,1.236,1.719,1.896c0.542,0.66,1.05,1.346,1.524,2.056s0.913,1.442,1.316,2.195
		c0.403,0.753,0.767,1.524,1.094,2.313s0.614,1.592,0.862,2.41s0.455,1.645,0.622,2.482c0.167,0.837,0.292,1.681,0.376,2.531
		c0.084,0.85,0.125,1.702,0.125,2.556s-0.042,1.706-0.125,2.556c-0.084,0.85-0.209,1.694-0.376,2.532
		c-0.167,0.837-0.374,1.665-0.622,2.482s-0.535,1.62-0.862,2.409s-0.692,1.561-1.094,2.313c-0.403,0.753-0.841,1.485-1.316,2.195
		c-0.474,0.71-0.983,1.395-1.524,2.055c-0.542,0.66-1.115,1.292-1.719,1.896c-0.604,0.604-1.236,1.177-1.896,1.718
		c-0.66,0.542-1.345,1.05-2.056,1.524c-0.71,0.475-1.442,0.913-2.195,1.316c-0.753,0.402-1.524,0.767-2.313,1.094
		c-0.789,0.327-1.592,0.614-2.409,0.862c-0.817,0.248-1.645,0.455-2.482,0.622c-0.838,0.167-1.682,0.292-2.531,0.375
		c-0.85,0.083-1.702,0.125-2.556,0.125c-0.854,0-1.706-0.042-2.556-0.125c-0.85-0.084-1.694-0.209-2.531-0.375
		c-0.838-0.167-1.665-0.374-2.482-0.622c-0.817-0.248-1.62-0.535-2.41-0.862c-0.789-0.327-1.56-0.692-2.313-1.094
		c-0.753-0.403-1.485-0.841-2.195-1.316c-0.71-0.474-1.395-0.982-2.056-1.524c-0.66-0.542-1.292-1.115-1.896-1.718
		c-0.604-0.604-1.177-1.236-1.719-1.896c-0.542-0.66-1.05-1.345-1.524-2.055c-0.474-0.71-0.913-1.442-1.316-2.195
		c-0.403-0.753-0.767-1.524-1.094-2.313c-0.327-0.789-0.614-1.592-0.862-2.409c-0.248-0.817-0.455-1.645-0.622-2.482
		c-0.167-0.838-0.292-1.682-0.375-2.532c-0.084-0.85-0.126-1.702-0.126-2.556s0.042-1.706,0.126-2.556
		c0.084-0.85,0.209-1.694,0.375-2.531c0.167-0.838,0.374-1.665,0.622-2.482c0.248-0.817,0.535-1.621,0.862-2.41
		c0.327-0.789,0.692-1.56,1.094-2.313c0.403-0.753,0.841-1.485,1.316-2.195c0.474-0.71,0.983-1.396,1.524-2.056
		c0.542-0.66,1.115-1.292,1.719-1.896s1.236-1.177,1.896-1.719c0.66-0.542,1.345-1.05,2.055-1.524s1.442-0.913,2.195-1.315
		C151.722,258.738,152.493,258.374,153.282,258.047z"/>
	<path fill="#24984E" d="M189.29,280.741h-26.028h-26.079c0,0-2.073,14.475,21.199,54.119c1.016,1.729,2.871,2.764,4.877,2.764
		c2.006,0,3.864-1.016,4.88-2.745C191.408,295.23,189.29,280.741,189.29,280.741z"/>
	<path fill="#FFFFFF" d="M163.346,266.998c0.989,0,1.968,0.096,2.938,0.289s1.911,0.479,2.825,0.857s1.781,0.842,2.603,1.392
		c0.822,0.549,1.583,1.173,2.282,1.873c0.699,0.699,1.323,1.459,1.873,2.282c0.549,0.822,1.013,1.689,1.391,2.603
		c0.378,0.914,0.664,1.855,0.857,2.825c0.193,0.97,0.289,1.949,0.289,2.938s-0.096,1.968-0.289,2.938
		c-0.193,0.97-0.479,1.912-0.857,2.825c-0.378,0.914-0.842,1.781-1.391,2.604c-0.549,0.822-1.173,1.583-1.873,2.282
		s-1.46,1.323-2.282,1.873c-0.822,0.549-1.69,1.013-2.603,1.392s-1.855,0.664-2.825,0.857c-0.97,0.193-1.949,0.289-2.938,0.289
		c-0.989,0-1.968-0.096-2.938-0.289c-0.97-0.193-1.911-0.479-2.825-0.857s-1.781-0.842-2.603-1.392
		c-0.822-0.549-1.583-1.173-2.282-1.873s-1.323-1.46-1.873-2.282c-0.549-0.822-1.013-1.69-1.391-2.604
		c-0.378-0.913-0.664-1.855-0.857-2.825s-0.289-1.949-0.289-2.938s0.096-1.968,0.289-2.938s0.479-1.911,0.857-2.825
		c0.378-0.914,0.842-1.781,1.391-2.603c0.549-0.822,1.173-1.583,1.873-2.282c0.699-0.699,1.46-1.323,2.282-1.873
		c0.822-0.549,1.69-1.013,2.603-1.392s1.855-0.664,2.825-0.857S162.357,266.998,163.346,266.998z"/>
	<path fill="#91B3FA" d="M163.346,267.839c-7.838,0-14.217,6.376-14.217,14.217c0,7.838,6.38,14.214,14.217,14.214
		s14.217-6.376,14.217-14.214C177.563,274.216,171.183,267.839,163.346,267.839z M163.346,297.955
		c-8.767,0-15.899-7.132-15.899-15.899s7.132-15.899,15.899-15.899s15.899,7.132,15.899,15.899S172.112,297.955,163.346,297.955z"/>
	<path fill="#FFFFFF" d="M149.061,266.378c-0.07,0-0.14-0.031-0.19-0.09c-0.092-0.103-0.078-0.263,0.028-0.355
		c4.228-3.632,9.634-5.633,15.216-5.633c0.14,0,0.252,0.112,0.252,0.252c0,0.14-0.112,0.252-0.252,0.252
		c-5.462,0-10.75,1.958-14.889,5.512C149.179,266.358,149.12,266.378,149.061,266.378z"/>
	<path fill="#FFFFFF" d="M141,283.923c-0.14,0-0.252-0.115-0.252-0.255c0-4.359,1.209-8.613,3.495-12.301
		c0.073-0.117,0.229-0.154,0.347-0.081c0.118,0.073,0.154,0.229,0.081,0.347c-2.236,3.609-3.419,7.77-3.419,12.035
		C141.251,283.808,141.14,283.923,141,283.923z"/>
	<path fill="#24984E" d="M336.117,354.186c0.014-0.249,0.031-0.506,0.036-0.713c0-0.034,0.005-0.064,0.005-0.101l-0.005-0.084
		c0.011-0.865-0.042-1.312-0.042-1.312h-0.022c-0.73-13.748-12.077-24.68-26.009-24.68c-13.929,0-25.276,10.932-26.006,24.68h-0.07
		c0,0-0.137,1.11,0.104,3.456c0.106,1.365,0.322,2.697,0.632,3.996c1.589,7.919,6.363,22.651,20.463,46.667
		c1.013,1.729,2.868,2.762,4.874,2.765c2.006,0,3.864-1.016,4.88-2.745c13.725-23.384,18.591-37.959,20.298-46.032
		C335.759,358.191,336.055,356.221,336.117,354.186z"/>
	<path fill="#FFFFFF" d="M309.977,337.629c0.989,0,1.968,0.096,2.938,0.289s1.911,0.479,2.825,0.857s1.781,0.842,2.603,1.392
		c0.822,0.549,1.583,1.173,2.282,1.873c0.699,0.699,1.323,1.459,1.873,2.282c0.549,0.822,1.013,1.689,1.391,2.603
		c0.378,0.914,0.664,1.855,0.857,2.825s0.289,1.949,0.289,2.938s-0.096,1.968-0.289,2.938s-0.479,1.912-0.857,2.825
		c-0.378,0.914-0.842,1.781-1.391,2.604c-0.549,0.822-1.173,1.583-1.873,2.282s-1.46,1.323-2.282,1.873
		c-0.822,0.549-1.69,1.013-2.603,1.392c-0.913,0.378-1.855,0.664-2.825,0.856s-1.949,0.29-2.938,0.29
		c-0.989,0-1.968-0.097-2.938-0.29s-1.911-0.479-2.825-0.856c-0.913-0.378-1.781-0.842-2.603-1.392
		c-0.822-0.549-1.583-1.173-2.282-1.873s-1.323-1.46-1.873-2.282c-0.549-0.822-1.013-1.69-1.391-2.604
		c-0.378-0.913-0.664-1.855-0.857-2.825s-0.289-1.949-0.289-2.938s0.096-1.968,0.289-2.938s0.479-1.911,0.857-2.825
		c0.378-0.914,0.842-1.781,1.391-2.603c0.549-0.822,1.173-1.583,1.873-2.282c0.699-0.699,1.46-1.323,2.282-1.873
		c0.822-0.549,1.69-1.013,2.603-1.392s1.855-0.664,2.825-0.857S308.989,337.629,309.977,337.629z"/>
	<path fill="#91B3FA" d="M309.977,338.469c-7.838,0-14.215,6.376-14.215,14.217c0,7.838,6.377,14.217,14.215,14.217
		c7.84,0,14.217-6.379,14.217-14.217C324.194,344.846,317.817,338.469,309.977,338.469z M309.977,368.586
		c-8.766,0-15.899-7.132-15.899-15.899s7.133-15.899,15.899-15.899c8.767,0,15.899,7.133,15.899,15.899
		S318.743,368.586,309.977,368.586z"/>
	<path fill="#24984E" d="M461.042,353.432c0.854,0,1.706,0.042,2.556,0.125c0.85,0.083,1.694,0.208,2.531,0.375
		c0.838,0.167,1.665,0.374,2.482,0.622c0.817,0.248,1.62,0.535,2.41,0.862c0.789,0.327,1.56,0.691,2.313,1.094
		c0.753,0.402,1.485,0.841,2.195,1.315s1.395,0.983,2.056,1.524c0.66,0.542,1.292,1.115,1.896,1.719s1.177,1.236,1.719,1.896
		c0.542,0.66,1.05,1.345,1.524,2.056c0.474,0.71,0.913,1.442,1.316,2.195c0.403,0.753,0.767,1.524,1.094,2.313
		c0.327,0.789,0.614,1.592,0.862,2.41s0.455,1.645,0.622,2.482c0.167,0.837,0.292,1.681,0.375,2.531s0.125,1.702,0.125,2.556
		s-0.042,1.706-0.125,2.556c-0.084,0.85-0.209,1.694-0.375,2.532c-0.167,0.837-0.374,1.665-0.622,2.482s-0.535,1.62-0.862,2.409
		c-0.327,0.789-0.692,1.561-1.094,2.313c-0.403,0.753-0.841,1.485-1.316,2.195c-0.474,0.71-0.983,1.395-1.524,2.055
		c-0.542,0.66-1.115,1.292-1.719,1.896c-0.604,0.604-1.236,1.177-1.896,1.718c-0.66,0.542-1.345,1.05-2.056,1.524
		c-0.71,0.475-1.442,0.913-2.195,1.316c-0.753,0.402-1.524,0.767-2.313,1.094c-0.789,0.327-1.592,0.614-2.41,0.862
		c-0.817,0.248-1.645,0.456-2.482,0.622s-1.682,0.292-2.531,0.375c-0.85,0.083-1.702,0.125-2.556,0.125
		c-0.854,0-1.706-0.042-2.556-0.125c-0.85-0.084-1.694-0.209-2.531-0.375s-1.665-0.374-2.482-0.622
		c-0.817-0.248-1.62-0.535-2.409-0.862c-0.789-0.327-1.56-0.692-2.313-1.094c-0.753-0.403-1.485-0.841-2.195-1.316
		c-0.71-0.474-1.395-0.982-2.056-1.524c-0.66-0.542-1.292-1.115-1.896-1.718c-0.604-0.604-1.177-1.236-1.719-1.896
		c-0.542-0.66-1.05-1.345-1.524-2.055c-0.474-0.71-0.913-1.442-1.316-2.195c-0.403-0.753-0.767-1.524-1.094-2.313
		c-0.327-0.789-0.614-1.592-0.862-2.409s-0.455-1.645-0.622-2.482c-0.167-0.838-0.292-1.682-0.375-2.532
		c-0.084-0.85-0.125-1.702-0.125-2.556s0.042-1.706,0.125-2.556s0.209-1.694,0.375-2.531c0.167-0.838,0.374-1.665,0.622-2.482
		s0.535-1.621,0.862-2.41c0.327-0.789,0.692-1.56,1.094-2.313c0.403-0.753,0.841-1.485,1.316-2.195
		c0.474-0.71,0.983-1.396,1.524-2.056c0.542-0.66,1.115-1.292,1.719-1.896s1.236-1.177,1.896-1.719
		c0.66-0.542,1.345-1.05,2.056-1.524c0.71-0.475,1.442-0.913,2.195-1.315c0.753-0.403,1.524-0.768,2.313-1.094
		c0.789-0.327,1.592-0.614,2.409-0.862c0.817-0.248,1.645-0.455,2.482-0.622c0.838-0.167,1.682-0.292,2.531-0.375
		C459.336,353.474,460.188,353.432,461.042,353.432z"/>
	<path fill="#24984E" d="M487.071,378.111h-26.028h-26.079c0,0-2.076,14.475,21.199,54.119c1.016,1.729,2.871,2.765,4.877,2.765
		c2.004,0,3.864-1.016,4.877-2.745C489.189,392.602,487.071,378.111,487.071,378.111z"/>
	<path fill="#FFFFFF" d="M461.126,364.368c0.989,0,1.968,0.096,2.938,0.289s1.911,0.479,2.825,0.857s1.781,0.842,2.603,1.392
		c0.822,0.549,1.583,1.173,2.282,1.873c0.699,0.699,1.323,1.459,1.873,2.282c0.549,0.822,1.013,1.689,1.391,2.603
		c0.378,0.914,0.664,1.855,0.857,2.825s0.289,1.949,0.289,2.938s-0.096,1.968-0.289,2.938s-0.479,1.912-0.857,2.825
		c-0.378,0.914-0.842,1.781-1.391,2.604c-0.549,0.822-1.173,1.583-1.873,2.282s-1.46,1.323-2.282,1.873
		c-0.822,0.549-1.69,1.013-2.603,1.392c-0.913,0.378-1.855,0.664-2.825,0.856s-1.949,0.29-2.938,0.29
		c-0.989,0-1.968-0.097-2.938-0.29s-1.911-0.479-2.825-0.856c-0.913-0.378-1.781-0.842-2.603-1.392
		c-0.822-0.549-1.583-1.173-2.282-1.873s-1.323-1.46-1.873-2.282c-0.549-0.822-1.013-1.69-1.391-2.604
		c-0.378-0.913-0.664-1.855-0.857-2.825s-0.289-1.949-0.289-2.938s0.096-1.968,0.289-2.938s0.479-1.911,0.857-2.825
		c0.378-0.914,0.842-1.781,1.391-2.603c0.549-0.822,1.173-1.583,1.873-2.282c0.699-0.699,1.46-1.323,2.282-1.873
		c0.822-0.549,1.69-1.013,2.603-1.392s1.855-0.664,2.825-0.857S460.137,364.368,461.126,364.368z"/>
	<path fill="#91B3FA" d="M461.127,365.209c-7.84,0-14.217,6.377-14.217,14.217c0,7.838,6.377,14.215,14.217,14.215
		c7.838,0,14.214-6.377,14.214-14.215C475.341,371.586,468.965,365.209,461.127,365.209z M461.127,395.325
		c-8.767,0-15.899-7.133-15.899-15.899s7.132-15.899,15.899-15.899s15.899,7.132,15.899,15.899S469.894,395.325,461.127,395.325z"/>
	<path fill="#FFFFFF" d="M295.695,337.009c-0.073,0-0.143-0.031-0.193-0.087c-0.09-0.106-0.078-0.266,0.028-0.355
		c4.231-3.635,9.634-5.635,15.216-5.635c0.14,0,0.255,0.114,0.255,0.251c0,0.14-0.115,0.255-0.255,0.255
		c-5.462,0-10.751,1.956-14.889,5.509C295.81,336.989,295.751,337.009,295.695,337.009z"/>
	<path fill="#FFFFFF" d="M287.631,354.553c-0.14,0-0.252-0.112-0.252-0.252c0-4.362,1.209-8.615,3.495-12.301
		c0.073-0.12,0.229-0.157,0.347-0.083c0.12,0.075,0.157,0.229,0.081,0.35c-2.236,3.606-3.419,7.768-3.419,12.035
		C287.883,354.442,287.771,354.553,287.631,354.553z"/>
	
		<linearGradient id="SVGID_12_" gradientUnits="userSpaceOnUse" x1="-1451.6107" y1="5588.1016" x2="-1396.9258" y2="5832.1831" gradientTransform="matrix(1 0 0 -1 1892.983 5832.4287)">
		<stop  offset="0" style="stop-color:#0D3455"/>
		<stop  offset="0.932" style="stop-color:#010406"/>
		<stop  offset="1" style="stop-color:#000000"/>
	</linearGradient>
	<path fill="url(#SVGID_12_)" d="M388.918,151.307c0,38.628,32.498,69.942,72.587,69.942c40.086,0,74.377-32.682,74.377-71.311
		c0-38.625-34.291-68.571-74.377-68.571C421.416,81.367,388.918,112.681,388.918,151.307z"/>
	<path fill="#91B3FA" d="M530.185,134.303c0.042,0,0.087-0.005,0.129-0.017c0.269-0.067,0.425-0.333,0.355-0.59
		c-0.781-2.826-1.78-5.63-2.966-8.333c-0.106-0.246-0.403-0.358-0.658-0.257c-0.255,0.106-0.372,0.389-0.266,0.635
		c1.17,2.662,2.152,5.42,2.921,8.205C529.76,134.16,529.964,134.303,530.185,134.303z"/>
	<path fill="#91B3FA" d="M519.093,112.446c0.104,0,0.21-0.034,0.302-0.098c0.218-0.16,0.263-0.464,0.098-0.677
		c-13.448-17.184-35.111-27.441-57.947-27.441c-9.752,0-19.187,1.905-28.037,5.664c-0.252,0.106-0.367,0.392-0.255,0.635
		c0.109,0.244,0.406,0.355,0.66,0.249c8.722-3.705,18.02-5.582,27.632-5.582c22.522,0,43.886,10.115,57.146,27.058
		C518.791,112.38,518.939,112.446,519.093,112.446z"/>
	<path fill="#FFFFFF" d="M398.793,151.307c0,33.438,28.132,60.541,62.832,60.541s64.383-28.289,64.383-61.724
		s-29.683-59.357-64.383-59.357S398.793,117.872,398.793,151.307z"/>
	<path opacity="0.7804" fill="#FFFFFF" d="M398.795,151.307c0-33.435,28.13-60.541,62.829-60.541
		c18.79,0,36.104,7.605,48.039,19.884l-48.402,38.804l-9.947,61.579C421.519,206.294,398.795,181.36,398.795,151.307z"/>
	<path opacity="0.7804" fill="#FFFFFF" d="M509.952,148.168c0.154,2.571,2.443,4.533,5.109,4.382
		c2.667-0.148,4.704-2.353,4.55-4.922c-0.157-2.571-2.446-4.533-5.112-4.382C511.832,143.394,509.795,145.599,509.952,148.168z"/>
	<path opacity="0.7804" fill="#FFFFFF" d="M405.447,154.03c0.154,2.568,2.443,4.53,5.109,4.382c2.667-0.148,4.704-2.353,4.547-4.925
		c-0.154-2.568-2.443-4.53-5.109-4.382C407.327,149.256,405.29,151.459,405.447,154.03z"/>
	<path opacity="0.7804" fill="#FFFFFF" d="M471.063,195.856c-2.627,0.462-4.368,2.891-3.889,5.423c0.481,2.532,3,4.211,5.627,3.747
		c2.63-0.461,4.371-2.89,3.889-5.422C476.212,197.07,473.69,195.394,471.063,195.856z"/>
	<path opacity="0.7804" fill="#FFFFFF" d="M452.254,96.629c-2.627,0.465-4.371,2.891-3.889,5.423c0.481,2.532,3,4.211,5.627,3.75
		c2.627-0.464,4.371-2.891,3.889-5.423C457.403,97.846,454.881,96.167,452.254,96.629z"/>
	<path opacity="0.7804" fill="#FFFFFF" d="M436.674,198.52c-0.492,1.195-0.369,2.314,0.274,2.499
		c0.644,0.185,1.561-0.633,2.054-1.828s0.369-2.314-0.274-2.499C438.084,196.506,437.164,197.325,436.674,198.52z"/>
	<path opacity="0.7804" fill="#FFFFFF" d="M478.716,104.404c-0.493,1.195-0.369,2.314,0.274,2.499s1.564-0.632,2.054-1.827
		c0.493-1.198,0.37-2.314-0.274-2.501C480.126,102.39,479.208,103.21,478.716,104.404z"/>
	<path opacity="0.7804" fill="#FFFFFF" d="M414.722,180.629c-1.066,0.775-1.564,1.793-1.114,2.272
		c0.45,0.481,1.676,0.241,2.742-0.535c1.063-0.775,1.561-1.791,1.111-2.272C417.011,179.613,415.786,179.854,414.722,180.629z"/>
	<path opacity="0.7804" fill="#FFFFFF" d="M501.367,121.227c-1.063,0.775-1.561,1.794-1.111,2.275
		c0.451,0.479,1.676,0.241,2.739-0.534c1.066-0.778,1.564-1.793,1.114-2.275C503.659,120.211,502.433,120.452,501.367,121.227z"/>
	<path opacity="0.7804" fill="#FFFFFF" d="M411.964,127.339c-1.203-0.551-2.37-0.509-2.605,0.098
		c-0.235,0.604,0.551,1.545,1.755,2.096c1.206,0.554,2.373,0.509,2.608-0.095C413.956,128.83,413.17,127.892,411.964,127.339z"/>
	<path opacity="0.7804" fill="#FFFFFF" d="M506.605,174.062c-1.206-0.551-2.373-0.509-2.608,0.098
		c-0.235,0.604,0.551,1.544,1.757,2.096c1.203,0.554,2.37,0.509,2.605-0.095C508.595,175.553,507.808,174.616,506.605,174.062z"/>
	<path opacity="0.7804" fill="#FFFFFF" d="M431.962,107.432c-0.733-1.074-1.755-1.62-2.281-1.22c-0.529,0.4-0.361,1.595,0.369,2.669
		c0.733,1.074,1.752,1.623,2.281,1.223C432.857,109.705,432.692,108.507,431.962,107.432z"/>
	<path opacity="0.7804" fill="#FFFFFF" d="M487.667,194.712c-0.733-1.075-1.752-1.621-2.281-1.22
		c-0.526,0.4-0.361,1.595,0.372,2.669c0.73,1.077,1.752,1.623,2.278,1.223C488.566,196.984,488.398,195.789,487.667,194.712z"/>
	<path opacity="0.702" fill="#FFFFFF" d="M529.469,185.181c0.361,0,0.688-0.193,0.854-0.521c0.199-0.392,0.095-0.839-0.252-1.117
		l-6.148-4.896c-0.213-0.171-0.532-0.143-0.705,0.064c-0.176,0.204-0.148,0.509,0.067,0.68l6.147,4.897
		c-8.193-1.802-27.38-5.832-27.777-5.871c-0.269-0.028-0.52,0.165-0.548,0.431c-0.028,0.263,0.165,0.498,0.437,0.529
		c0.573,0.089,15.278,3.167,27.713,5.781C529.329,185.175,529.399,185.181,529.469,185.181z"/>
	<path opacity="0.702" fill="#FFFFFF" d="M467.803,112.119c0.053,0,0.106-0.008,0.16-0.028c0.227-0.083,0.336-0.327,0.255-0.542
		c-0.162-0.467-3.624-12.81-6.542-23.25c-0.104-0.369-0.431-0.613-0.839-0.604c-0.397,0.012-0.722,0.269-0.806,0.644l-1.483,6.623
		c-0.053,0.229,0.098,0.458,0.339,0.506c0.235,0.05,0.473-0.095,0.523-0.325l1.486-6.626c1.858,6.912,6.369,23.018,6.497,23.334
		C467.459,112.019,467.627,112.119,467.803,112.119z"/>
	
		<linearGradient id="SVGID_13_" gradientUnits="userSpaceOnUse" x1="-1388.8711" y1="5853.8496" x2="-1565.4912" y2="5277.1304" gradientTransform="matrix(1 0 0 -1 1933.4718 5834.166)">
		<stop  offset="0" style="stop-color:#9AC341"/>
		<stop  offset="0.34" style="stop-color:#36AC47"/>
		<stop  offset="0.67" style="stop-color:#008A40"/>
		<stop  offset="1" style="stop-color:#006537"/>
	</linearGradient>
	<path fill="url(#SVGID_13_)" d="M533.839,185.294l-28.096-23.834c-0.73-0.622-1.878-0.101-1.85,0.836l0.154,4.818
		c0.025,0.812-0.856,1.354-1.609,0.994l-35.576-17.097c0.148-0.464,0.252-0.946,0.252-1.455c0-2.748-2.314-4.978-5.165-4.978
		c-0.395,0-0.772,0.05-1.142,0.131l2.121-29.187c0.028-0.624,0.666-1.049,1.284-0.856l4.986,1.561
		c0.744,0.235,1.458-0.422,1.251-1.147l-8.627-30.315c-0.269-0.938-1.654-0.921-1.9,0.022l-7.969,30.861
		c-0.207,0.8,0.68,1.455,1.43,1.052l3.853-2.07c0.649-0.347,1.447,0.098,1.458,0.811l-0.064,30.329
		c-1.122,0.912-1.849,2.261-1.849,3.786c0,2.75,2.314,4.978,5.168,4.978c1.444,0,2.745-0.573,3.682-1.494l34.515,19.134
		c0.635,0.353,0.75,1.195,0.224,1.693l-4.236,4.024c-0.63,0.599-0.316,1.634,0.551,1.813l36.186,7.443
		C533.99,187.378,534.698,186.024,533.839,185.294z"/>
	
		<linearGradient id="SVGID_14_" gradientUnits="userSpaceOnUse" x1="-1397.1176" y1="5765.0352" x2="-1200.9734" y2="5974.5225" gradientTransform="matrix(1 0 0 -1 1791.0085 5856.1733)">
		<stop  offset="0" style="stop-color:#0D3455"/>
		<stop  offset="0.932" style="stop-color:#010406"/>
		<stop  offset="1" style="stop-color:#000000"/>
	</linearGradient>
	<path fill="url(#SVGID_14_)" d="M230.232,188.257c0,38.625,32.498,69.939,72.584,69.939c40.089,0,74.38-32.682,74.38-71.308
		c0-38.628-34.291-68.571-74.38-68.571C262.73,118.317,230.232,149.628,230.232,188.257z"/>
	<path fill="#91B3FA" d="M371.5,171.25c0.042,0,0.084-0.005,0.129-0.017c0.269-0.067,0.425-0.333,0.356-0.591
		c-0.781-2.826-1.78-5.629-2.966-8.333c-0.109-0.244-0.403-0.355-0.658-0.255c-0.255,0.104-0.372,0.386-0.266,0.633
		c1.17,2.661,2.152,5.42,2.921,8.204C371.074,171.107,371.279,171.25,371.5,171.25z"/>
	<path fill="#91B3FA" d="M360.408,149.393c0.104,0,0.21-0.034,0.299-0.098c0.221-0.159,0.266-0.464,0.101-0.674
		c-13.451-17.186-35.111-27.444-57.947-27.444c-9.754,0-19.187,1.906-28.037,5.663c-0.252,0.106-0.366,0.392-0.257,0.635
		c0.112,0.246,0.409,0.355,0.663,0.249c8.722-3.705,18.017-5.58,27.632-5.58c22.522,0,43.886,10.113,57.144,27.056
		C360.105,149.326,360.254,149.393,360.408,149.393z"/>
	<path fill="#FFFFFF" d="M240.107,188.257c0,33.435,28.13,60.541,62.832,60.541c34.7,0,64.383-28.289,64.383-61.727
		c0-33.435-29.683-59.354-64.383-59.354C268.237,127.716,240.107,154.819,240.107,188.257z"/>
	<path opacity="0.251" fill="#FFFFFF" d="M248.661,184.046c0,30.175,25.913,54.639,57.88,54.639
		c31.966,0,59.312-25.533,59.312-55.708c0-30.172-27.346-53.567-59.312-53.567C274.574,129.409,248.661,153.873,248.661,184.046z"/>
	<path opacity="0.7804" fill="#FFFFFF" d="M351.266,185.114c0.154,2.571,2.443,4.533,5.109,4.385
		c2.667-0.151,4.704-2.356,4.547-4.925c-0.154-2.571-2.443-4.533-5.109-4.382C353.147,180.34,351.109,182.546,351.266,185.114z"/>
	<path opacity="0.7804" fill="#FFFFFF" d="M246.761,190.977c0.154,2.569,2.443,4.533,5.109,4.382
		c2.667-0.148,4.704-2.354,4.547-4.925c-0.154-2.568-2.443-4.53-5.11-4.382C248.641,186.203,246.604,188.408,246.761,190.977z"/>
	<path opacity="0.7804" fill="#FFFFFF" d="M312.378,232.803c-2.627,0.462-4.371,2.891-3.889,5.423c0.479,2.532,3,4.211,5.627,3.747
		c2.627-0.461,4.371-2.89,3.889-5.423C317.526,234.017,315.005,232.341,312.378,232.803z"/>
	<path opacity="0.7804" fill="#FFFFFF" d="M293.568,133.578c-2.627,0.461-4.371,2.888-3.889,5.42c0.479,2.532,3,4.211,5.627,3.75
		c2.627-0.461,4.371-2.89,3.889-5.423C298.717,134.793,296.196,133.113,293.568,133.578z"/>
	<path opacity="0.7804" fill="#FFFFFF" d="M277.988,235.467c-0.492,1.195-0.369,2.314,0.274,2.499
		c0.644,0.187,1.562-0.633,2.054-1.828c0.492-1.194,0.369-2.314-0.274-2.499S278.478,234.272,277.988,235.467z"/>
	<path opacity="0.7804" fill="#FFFFFF" d="M320.031,141.352c-0.493,1.194-0.369,2.313,0.274,2.499
		c0.644,0.185,1.561-0.632,2.054-1.827c0.493-1.195,0.37-2.314-0.274-2.502C321.441,139.337,320.523,140.156,320.031,141.352z"/>
	<path opacity="0.7804" fill="#FFFFFF" d="M256.037,217.576c-1.066,0.775-1.564,1.793-1.114,2.275
		c0.451,0.478,1.676,0.241,2.742-0.535c1.063-0.778,1.561-1.793,1.111-2.275C258.326,216.563,257.1,216.8,256.037,217.576z"/>
	<path opacity="0.7804" fill="#FFFFFF" d="M342.681,158.174c-1.063,0.775-1.561,1.794-1.111,2.275
		c0.448,0.478,1.676,0.241,2.739-0.535c1.066-0.775,1.564-1.793,1.114-2.275C344.973,157.161,343.748,157.399,342.681,158.174z"/>
	<path opacity="0.7804" fill="#FFFFFF" d="M253.278,164.285c-1.203-0.551-2.37-0.509-2.605,0.098
		c-0.235,0.604,0.551,1.544,1.754,2.099c1.206,0.551,2.373,0.509,2.608-0.098C255.27,165.779,254.484,164.839,253.278,164.285z"/>
	<path opacity="0.7804" fill="#FFFFFF" d="M347.92,211.008c-1.206-0.551-2.373-0.509-2.608,0.098
		c-0.235,0.604,0.551,1.544,1.757,2.096c1.203,0.554,2.37,0.509,2.605-0.095C349.909,212.5,349.123,211.563,347.92,211.008z"/>
	<path opacity="0.7804" fill="#FFFFFF" d="M273.273,144.379c-0.73-1.074-1.752-1.62-2.278-1.22c-0.529,0.4-0.361,1.595,0.369,2.669
		c0.733,1.075,1.752,1.623,2.281,1.223C274.172,146.651,274.007,145.454,273.273,144.379z"/>
	<path opacity="0.7804" fill="#FFFFFF" d="M328.982,231.658c-0.733-1.074-1.752-1.62-2.281-1.22c-0.526,0.4-0.361,1.595,0.369,2.672
		c0.733,1.075,1.754,1.621,2.281,1.22C329.877,233.93,329.712,232.736,328.982,231.658z"/>
	
		<linearGradient id="SVGID_15_" gradientUnits="userSpaceOnUse" x1="-1463.4769" y1="5744.8374" x2="-1600.4548" y2="5496.5654" gradientTransform="matrix(1 0 0 -1 1834.6188 5852.7451)">
		<stop  offset="0" style="stop-color:#9AC341"/>
		<stop  offset="0.34" style="stop-color:#36AC47"/>
		<stop  offset="0.67" style="stop-color:#008A40"/>
		<stop  offset="1" style="stop-color:#006537"/>
	</linearGradient>
	<path fill="url(#SVGID_15_)" d="M346.291,231.586l-16.285-27.4c-0.425-0.713-1.514-0.543-1.754,0.271l-1.248,4.195
		c-0.21,0.705-1.086,0.957-1.603,0.461l-18.854-18.795c1.142-0.915,1.883-2.275,1.883-3.817c0-1.945-1.17-3.612-2.86-4.432
		l12.782-33.39c0.26-0.68,1.077-0.91,1.643-0.462l4.581,3.632c0.68,0.54,1.662,0.084,1.715-0.797l2.303-36.871
		c0.073-1.142-1.368-1.654-1.97-0.7l-19.665,31.158c-0.509,0.811,0.165,1.872,1.089,1.712l4.751-0.826
		c0.797-0.14,1.461,0.658,1.206,1.452l-10.974,34.568c-2.742,0.12-4.933,2.283-4.933,4.956c0,2.75,2.314,4.978,5.168,4.978
		c0.369,0,0.727-0.039,1.074-0.112l18.023,20.695c0.422,0.459,0.277,1.211-0.297,1.514l-4.623,2.44
		c-0.688,0.361-0.725,1.329-0.064,1.696l27.593,15.233C345.824,233.419,346.789,232.423,346.291,231.586z"/>
	
		<linearGradient id="SVGID_16_" gradientUnits="userSpaceOnUse" x1="-1537.3787" y1="5586.9985" x2="-1546.7152" y2="5797.7358" gradientTransform="matrix(1 0 0 -1 1693.0671 5824.9326)">
		<stop  offset="0" style="stop-color:#0D3455"/>
		<stop  offset="0.932" style="stop-color:#010406"/>
		<stop  offset="1" style="stop-color:#000000"/>
	</linearGradient>
	<path fill="url(#SVGID_16_)" d="M77.823,139.642c0,38.625,32.498,69.939,72.584,69.939c40.086,0,74.38-32.682,74.38-71.308
		c0-38.628-34.294-68.571-74.38-68.571C110.321,69.702,77.823,101.013,77.823,139.642z"/>
	<path fill="#91B3FA" d="M219.087,122.634c0.045,0,0.087-0.005,0.129-0.017c0.269-0.067,0.428-0.333,0.358-0.59
		c-0.784-2.826-1.78-5.63-2.966-8.333c-0.109-0.243-0.406-0.355-0.657-0.255c-0.255,0.104-0.375,0.386-0.266,0.633
		c1.167,2.661,2.152,5.42,2.918,8.204C218.665,122.492,218.866,122.634,219.087,122.634z"/>
	<path fill="#91B3FA" d="M207.996,100.778c0.106,0,0.213-0.031,0.302-0.098c0.221-0.159,0.266-0.464,0.098-0.674
		c-13.448-17.183-35.111-27.444-57.947-27.444c-9.752,0-19.184,1.905-28.035,5.664c-0.255,0.106-0.369,0.391-0.257,0.635
		c0.112,0.247,0.409,0.355,0.66,0.249c8.722-3.702,18.02-5.579,27.632-5.579c22.525,0,43.886,10.112,57.146,27.055
		C207.693,100.711,207.844,100.778,207.996,100.778z"/>
	<path fill="#FFFFFF" d="M87.698,139.641c0,33.435,28.13,60.541,62.829,60.541c34.7,0,64.385-28.289,64.385-61.727
		c0-33.435-29.686-59.354-64.385-59.354C115.828,79.101,87.698,106.203,87.698,139.641z"/>
	<path opacity="0.7804" fill="#FFFFFF" d="M198.854,136.499c0.157,2.571,2.443,4.533,5.112,4.385
		c2.667-0.151,4.704-2.356,4.547-4.925c-0.154-2.569-2.443-4.533-5.109-4.382C200.737,131.726,198.7,133.93,198.854,136.499z"/>
	<path opacity="0.7804" fill="#FFFFFF" d="M94.349,142.361c0.157,2.572,2.443,4.533,5.109,4.382c2.67-0.148,4.704-2.354,4.55-4.925
		c-0.157-2.569-2.443-4.53-5.109-4.382C96.229,137.588,94.195,139.793,94.349,142.361z"/>
	<path opacity="0.7804" fill="#FFFFFF" d="M159.968,184.188c-2.63,0.462-4.371,2.891-3.889,5.423c0.478,2.533,3,4.211,5.627,3.747
		c2.627-0.462,4.368-2.891,3.889-5.423C165.114,185.403,162.596,183.726,159.968,184.188z"/>
	<path opacity="0.7804" fill="#FFFFFF" d="M125.576,186.852c-0.49,1.195-0.369,2.314,0.274,2.499
		c0.643,0.188,1.564-0.633,2.057-1.827c0.49-1.195,0.367-2.314-0.274-2.499C126.989,184.84,126.069,185.657,125.576,186.852z"/>
	<path opacity="0.7804" fill="#FFFFFF" d="M167.618,92.736c-0.49,1.195-0.367,2.314,0.274,2.499
		c0.644,0.185,1.564-0.632,2.057-1.827c0.49-1.195,0.369-2.314-0.274-2.499C169.031,90.722,168.111,91.542,167.618,92.736z"/>
	<path opacity="0.7804" fill="#FFFFFF" d="M103.625,168.961c-1.063,0.775-1.561,1.793-1.111,2.274
		c0.448,0.479,1.676,0.241,2.74-0.534c1.063-0.778,1.561-1.793,1.114-2.275C105.916,167.947,104.688,168.185,103.625,168.961z"/>
	<path opacity="0.7804" fill="#FFFFFF" d="M190.272,109.559c-1.063,0.775-1.561,1.793-1.114,2.275
		c0.451,0.479,1.679,0.24,2.742-0.535s1.561-1.793,1.111-2.275C192.564,108.546,191.335,108.783,190.272,109.559z"/>
	<path opacity="0.7804" fill="#FFFFFF" d="M100.869,115.67c-1.206-0.551-2.373-0.509-2.608,0.098
		c-0.235,0.607,0.551,1.545,1.757,2.099c1.203,0.551,2.37,0.509,2.605-0.098C102.858,117.164,102.072,116.224,100.869,115.67z"/>
	<path opacity="0.7804" fill="#FFFFFF" d="M195.507,162.393c-1.203-0.551-2.37-0.509-2.605,0.098
		c-0.235,0.604,0.551,1.544,1.754,2.099c1.206,0.551,2.373,0.509,2.608-0.098C197.5,163.888,196.713,162.947,195.507,162.393z"/>
	<path opacity="0.7804" fill="#FFFFFF" d="M120.864,95.764c-0.73-1.075-1.752-1.621-2.28-1.221c-0.526,0.4-0.361,1.595,0.372,2.67
		c0.73,1.077,1.752,1.623,2.278,1.223C121.762,98.036,121.594,96.841,120.864,95.764z"/>
	<path opacity="0.7804" fill="#FFFFFF" d="M176.57,183.047c-0.73-1.077-1.752-1.623-2.278-1.223c-0.529,0.4-0.361,1.595,0.369,2.672
		c0.73,1.074,1.752,1.62,2.28,1.22C177.468,185.316,177.303,184.121,176.57,183.047z"/>
	<path opacity="0.702" fill="#FFFFFF" d="M204.929,187.336c0.35,0.092,0.716-0.008,0.96-0.283c0.291-0.327,0.311-0.786,0.045-1.144
		l-4.67-6.321c-0.162-0.221-0.476-0.274-0.697-0.12c-0.224,0.151-0.274,0.453-0.112,0.674l4.67,6.321
		c-7.446-3.861-24.937-12.72-25.309-12.86c-0.252-0.101-0.548,0.022-0.644,0.274c-0.095,0.246,0.033,0.521,0.285,0.621
		c0.532,0.235,13.938,7.018,25.273,12.762C204.795,187.291,204.862,187.32,204.929,187.336z"/>
	<path opacity="0.702" fill="#FFFFFF" d="M116.242,150.09c-0.025-0.048-0.059-0.089-0.103-0.126
		c-0.182-0.157-0.448-0.137-0.599,0.042c-0.33,0.367-9.447,9.376-17.164,16.99c-0.271,0.271-0.328,0.674-0.12,1.027
		c0.202,0.341,0.585,0.501,0.951,0.392l6.514-1.911c0.227-0.067,0.353-0.311,0.28-0.543c-0.07-0.229-0.313-0.366-0.54-0.299
		l-6.514,1.911c5.143-4.976,17.043-16.725,17.259-16.993C116.32,150.44,116.328,150.244,116.242,150.09z"/>
	
		<linearGradient id="SVGID_17_" gradientUnits="userSpaceOnUse" x1="-1525.5225" y1="5786.8228" x2="-1628.5632" y2="5394.8179" gradientTransform="matrix(1 0 0 -1 1704.0619 5865.5508)">
		<stop  offset="0" style="stop-color:#9AC341"/>
		<stop  offset="0.34" style="stop-color:#36AC47"/>
		<stop  offset="0.67" style="stop-color:#008A40"/>
		<stop  offset="1" style="stop-color:#006537"/>
	</linearGradient>
	<path fill="url(#SVGID_17_)" d="M209.12,188.576l-20.966-30.298c-0.546-0.789-1.785-0.585-2.001,0.33l-1.1,4.695
		c-0.185,0.789-1.178,1.085-1.81,0.54l-27.735-23.832c0.319-0.646,0.512-1.36,0.512-2.124c0-2.748-2.314-4.978-5.168-4.978
		s-5.165,2.23-5.165,4.978c0,1.189,0.448,2.264,1.167,3.117l-25.273,11.699c-0.559,0.277-1.242-0.073-1.371-0.706l-1.052-5.123
		c-0.154-0.761-1.074-1.066-1.609-0.535l-22.335,22.24c-0.691,0.688-0.006,1.894,0.94,1.651l30.855-7.989
		c0.803-0.207,0.943-1.301,0.229-1.76l-3.68-2.367c-0.618-0.397-0.615-1.312,0.003-1.667l25.317-13.96
		c0.607,0.241,1.273,0.378,1.973,0.378c1.116,0,2.146-0.35,2.991-0.929l26.132,25.239c0.523,0.509,0.414,1.349-0.221,1.696
		l-5.135,2.79c-0.764,0.414-0.728,1.497,0.062,1.892l33.026,16.563C208.729,190.627,209.761,189.502,209.12,188.576z"/>
	
		<linearGradient id="SVGID_18_" gradientUnits="userSpaceOnUse" x1="-1601.5864" y1="5579.4038" x2="-1519.0533" y2="5579.4038" gradientTransform="matrix(1 0 0 -1 1717.6255 6078.0923)">
		<stop  offset="0" style="stop-color:#9AC341"/>
		<stop  offset="0.34" style="stop-color:#36AC47"/>
		<stop  offset="0.67" style="stop-color:#008A40"/>
		<stop  offset="1" style="stop-color:#006537"/>
	</linearGradient>
	<path fill="url(#SVGID_18_)" d="M196.99,514.747c0,0-25.262,27.847-46.357,16.078c-16.954-9.458,7.135-6.987,27.568-11.456
		c1.603-0.35,1.183-2.748-0.445-2.533c-15.986,2.121-40.38,3.854-44.616-4.482c-6.394-12.583-0.193-8.503,19.274-6.685
		c19.467,1.816,23.216-2.989,10.51-5.982c-12.706-2.994-32.92,3.626-37.627-2.53c-4.709-6.159-7.284-18.381-9.161-23.636
		c-1.878-5.258,24.232-13.143,31.289-6.243c7.06,6.9,12.79,22.301,21.168,25.113c8.375,2.812-0.635-10.812-6.189-17.844
		c-5.557-7.032-7.759-12.259,3.341-10.583c11.097,1.679,16.965,15.225,18.135,25.334c1.17,10.113,5.079,15.768,4.902,10.765
		c-0.176-5-1.992-20.342-5.54-24.954C179.695,470.497,205.018,476.127,196.99,514.747z"/>
	<path opacity="0.5294" fill="#FFFFFF" d="M194.934,515.013c-0.112,0.042-0.241,0.025-0.339-0.062
		c-21.68-18.966-58.042-32.752-58.408-32.889c-0.171-0.064-0.257-0.254-0.193-0.428c0.064-0.17,0.255-0.257,0.428-0.193
		c0.367,0.137,36.84,13.962,58.613,33.013c0.137,0.12,0.151,0.33,0.031,0.467C195.029,514.965,194.981,514.993,194.934,515.013z"/>
	
		<linearGradient id="SVGID_19_" gradientUnits="userSpaceOnUse" x1="-1513.7657" y1="5504.0605" x2="-1573.786" y2="5612.0972" gradientTransform="matrix(1 0 0 -1 1744.1166 6053.0566)">
		<stop  offset="0" style="stop-color:#9AC341"/>
		<stop  offset="0.34" style="stop-color:#36AC47"/>
		<stop  offset="0.67" style="stop-color:#008A40"/>
		<stop  offset="1" style="stop-color:#006537"/>
	</linearGradient>
	<path fill="url(#SVGID_19_)" d="M212.24,532.532c0,0-46.13,1.522-53.777-27.128c-6.145-23.029,12.253,0.319,33.65,14.514
		c1.679,1.114,3.433-1.304,1.852-2.555c-15.527-12.284-37.893-32.308-34.163-43.164c5.63-16.389,7.331-7.435,22.357,11.279
		c15.029,18.714,22.469,17.914,14.254,4.155c-8.215-13.759-31.322-25.922-29.915-35.333c1.405-9.413,9.981-22.122,13.011-28.267
		c3.03-6.147,32.288,10.132,32.235,22.251c-0.053,12.116-8.736,30.326-4.06,40.114c4.678,9.788,8.99-9.796,10.445-20.701
		c1.452-10.904,4.18-17.312,12.183-6.094c8.003,11.218,1.072,27.962-6.841,37.632c-7.916,9.67-9.561,17.947-5.302,13.518
		c4.259-4.429,16.232-19.136,17.267-26.204C236.472,479.485,253.146,506.619,212.24,532.532z"/>
	<path opacity="0.5294" fill="#FFFFFF" d="M210.248,530.948c-0.132-0.062-0.227-0.193-0.235-0.35
		c-1.799-35.318-20.709-79.154-20.902-79.59c-0.09-0.208,0.006-0.448,0.213-0.538c0.204-0.09,0.445,0.005,0.535,0.21
		c0.193,0.442,19.162,44.409,20.969,79.878c0.011,0.224-0.159,0.414-0.386,0.426C210.374,530.99,210.307,530.976,210.248,530.948z"
		/>
</g>
</svg>
