<?xml version="1.0" encoding="utf-8"?>
<!-- Generator: Adobe Illustrator 17.0.0, SVG Export Plug-In . SVG Version: 6.00 Build 0)  -->
<!DOCTYPE svg PUBLIC "-//W3C//DTD SVG 1.1//EN" "http://www.w3.org/Graphics/SVG/1.1/DTD/svg11.dtd">
<svg version="1.1" id="Layer_1" xmlns="http://www.w3.org/2000/svg" xmlns:xlink="http://www.w3.org/1999/xlink" x="0px" y="0px"
	 width="300px" height="300px" viewBox="0 0 300 300" enable-background="new 0 0 300 300" xml:space="preserve">
<g>
	<path fill="#EFEFEF" d="M125.597,87.417c-0.076,0-0.151,0.004-0.227,0.004v16.311v2.943v19.937v50.459v3.161v4.156v4.102v49.589
		v19.937v3.396v16.311c0.076,0,0.151,0.004,0.227,0.004c52.552,0,95.154-42.602,95.154-95.154
		C220.751,130.02,178.15,87.417,125.597,87.417z"/>
	<path fill="#EFEFEF" d="M125.597,87.417c-0.076,0-0.151,0.004-0.227,0.004v16.311v2.943v19.937v50.459v3.161v4.156v4.102v49.589
		v19.937v3.396v16.311c0.076,0,0.151,0.004,0.227,0.004c52.552,0,95.154-42.602,95.154-95.154
		C220.751,130.02,178.15,87.417,125.597,87.417z"/>
	<path fill="#09263E" d="M125.597,261.414c-43.543,0-78.842-35.299-78.842-78.842s35.299-78.842,78.842-78.842
		c43.543,0,78.842,35.299,78.842,78.842S169.14,261.414,125.597,261.414z M125.597,87.417c-52.552,0-95.154,42.603-95.154,95.154
		c0,52.553,42.602,95.154,95.154,95.154c52.552,0,95.154-42.602,95.154-95.154C220.751,130.02,178.149,87.417,125.597,87.417z"/>
	<circle fill="#FFFFFF" cx="125.597" cy="182.572" r="78.842"/>
	<rect x="122.878" y="106.675" fill="#124660" width="5.437" height="19.938"/>
	<rect x="122.878" y="238.079" fill="#124660" width="5.437" height="19.937"/>
	<rect x="181.33" y="179.626" fill="#124660" width="19.937" height="5.438"/>
	<rect x="49.927" y="179.626" fill="#124660" width="19.937" height="5.438"/>
	
		<rect x="154.286" y="124.861" transform="matrix(-0.5251 0.851 -0.851 -0.5251 351.7744 56.5982)" fill="#124660" width="11.62" height="3.169"/>
	
		<rect x="85.284" y="236.689" transform="matrix(-0.5251 0.851 -0.851 -0.5251 341.707 285.8741)" fill="#124660" width="11.62" height="3.169"/>
	
		<rect x="179.914" y="211.013" transform="matrix(-0.525 0.8511 -0.8511 -0.525 461.3718 176.225)" fill="#124660" width="3.191" height="11.698"/>
	
		<rect x="68.066" y="141.936" transform="matrix(-0.5251 0.851 -0.851 -0.5251 232.1035 166.2033)" fill="#124660" width="3.23" height="11.845"/>
	
		<rect x="175.646" y="146.213" transform="matrix(-0.8503 0.5263 -0.5263 -0.8503 413.5356 177.9597)" fill="#124660" width="11.62" height="3.17"/>
	
		<rect x="63.914" y="215.371" transform="matrix(-0.8503 0.5263 -0.5263 -0.8503 243.1891 364.741)" fill="#124660" width="11.62" height="3.169"/>
	
		<rect x="158.574" y="232.394" transform="matrix(-0.8503 0.5262 -0.5262 -0.8503 421.7372 356.5447)" fill="#124660" width="3.19" height="11.697"/>
	
		<rect x="89.396" y="120.587" transform="matrix(-0.8503 0.5263 -0.5263 -0.8503 234.9808 186.1806)" fill="#124660" width="3.23" height="11.846"/>
	
		<rect x="129.513" y="148.504" transform="matrix(-0.8538 -0.5206 0.5206 -0.8538 156.5226 386.1798)" fill="#EF4343" width="5.945" height="45.216"/>
	
		<rect x="111.261" y="139.375" transform="matrix(-0.7564 0.6541 -0.6541 -0.7564 307.4154 220.6436)" fill="#EF4343" width="2.719" height="56.385"/>
	
		<rect x="124.002" y="181.647" transform="matrix(-0.707 -0.7072 0.7072 -0.707 84.5721 401.0499)" fill="#FFFFFF" width="2.719" height="2.719"/>
	<path opacity="0.3" fill="#E8E8E8" d="M155.574,92.165l38.52,16.31l17.05,32.93c-4.578,1.712-9.533,2.65-14.709,2.65
		c-23.215,0-42.034-18.82-42.034-42.034C154.4,98.624,154.813,95.327,155.574,92.165z"/>
	<path fill="#FFDD00" d="M200.338,55.017c1.377,0,2.75,0.066,4.12,0.202c1.37,0.135,2.73,0.337,4.08,0.604
		c1.35,0.27,2.684,0.604,4.001,1.003s2.612,0.862,3.884,1.39c1.272,0.526,2.515,1.114,3.729,1.764
		c1.214,0.648,2.393,1.355,3.538,2.12s2.249,1.584,3.313,2.458c1.064,0.873,2.083,1.797,3.056,2.77
		c0.974,0.974,1.897,1.992,2.77,3.057c0.873,1.064,1.693,2.169,2.457,3.313c0.765,1.145,1.472,2.323,2.121,3.538
		c0.649,1.214,1.237,2.457,1.764,3.729c0.527,1.272,0.99,2.566,1.39,3.885c0.4,1.316,0.734,2.65,1.002,4.001s0.47,2.71,0.605,4.08
		c0.135,1.37,0.202,2.743,0.202,4.12s-0.067,2.75-0.202,4.12c-0.135,1.37-0.337,2.729-0.605,4.08s-0.603,2.685-1.002,4.001
		c-0.4,1.318-0.863,2.612-1.39,3.885c-0.527,1.271-1.115,2.515-1.764,3.729s-1.356,2.394-2.121,3.538
		c-0.765,1.145-1.584,2.249-2.457,3.313c-0.873,1.064-1.797,2.083-2.77,3.057c-0.973,0.973-1.992,1.896-3.056,2.77
		c-1.064,0.874-2.169,1.693-3.313,2.457c-1.145,0.766-2.324,1.473-3.538,2.121c-1.214,0.649-2.457,1.237-3.729,1.764
		c-1.272,0.527-2.567,0.99-3.884,1.39s-2.651,0.733-4.001,1.003c-1.35,0.268-2.71,0.47-4.08,0.604
		c-1.37,0.136-2.743,0.202-4.12,0.202c-1.377,0-2.75-0.066-4.12-0.202c-1.37-0.135-2.73-0.337-4.08-0.604
		c-1.35-0.27-2.684-0.604-4.001-1.003c-1.317-0.399-2.612-0.862-3.884-1.39c-1.272-0.526-2.515-1.114-3.729-1.764
		c-1.214-0.648-2.393-1.355-3.538-2.121c-1.145-0.764-2.249-1.583-3.313-2.457c-1.064-0.873-2.083-1.797-3.056-2.77
		c-0.974-0.974-1.897-1.992-2.77-3.057c-0.873-1.064-1.692-2.169-2.457-3.313c-0.765-1.145-1.472-2.324-2.121-3.538
		s-1.237-2.457-1.764-3.729c-0.527-1.272-0.99-2.566-1.39-3.885c-0.4-1.316-0.734-2.65-1.002-4.001s-0.47-2.71-0.605-4.08
		c-0.135-1.37-0.202-2.743-0.202-4.12s0.067-2.75,0.202-4.12c0.135-1.37,0.337-2.729,0.605-4.08s0.603-2.685,1.002-4.001
		c0.4-1.318,0.863-2.612,1.39-3.885c0.527-1.271,1.115-2.515,1.764-3.729c0.649-1.215,1.356-2.394,2.121-3.538
		c0.765-1.145,1.584-2.249,2.457-3.313c0.873-1.064,1.797-2.083,2.77-3.057c0.973-0.973,1.992-1.896,3.056-2.77
		c1.064-0.874,2.169-1.693,3.313-2.458s2.324-1.472,3.538-2.12c1.214-0.649,2.457-1.237,3.729-1.764
		c1.272-0.527,2.567-0.99,3.884-1.39c1.317-0.399,2.651-0.733,4.001-1.003c1.35-0.268,2.71-0.47,4.08-0.604
		C197.588,55.083,198.961,55.017,200.338,55.017z"/>
	<path fill="#F7B208" d="M200.338,63.875c1.086,0,2.17,0.054,3.252,0.16c1.081,0.106,2.155,0.266,3.22,0.478
		c1.066,0.212,2.118,0.476,3.158,0.791c1.04,0.315,2.062,0.681,3.065,1.097s1.985,0.88,2.943,1.392
		c0.958,0.513,1.889,1.07,2.792,1.674s1.775,1.25,2.615,1.939c0.84,0.689,1.644,1.418,2.412,2.187
		c0.768,0.769,1.497,1.572,2.186,2.412c0.689,0.84,1.336,1.712,1.939,2.615s1.161,1.834,1.674,2.792
		c0.512,0.959,0.976,1.939,1.392,2.943s0.781,2.025,1.097,3.065s0.579,2.092,0.791,3.157c0.212,1.066,0.371,2.14,0.478,3.221
		c0.107,1.082,0.16,2.165,0.16,3.252c0,1.086-0.053,2.17-0.16,3.252c-0.106,1.081-0.266,2.154-0.478,3.22
		c-0.212,1.065-0.476,2.118-0.791,3.158s-0.681,2.062-1.097,3.065s-0.88,1.984-1.392,2.943c-0.512,0.958-1.07,1.889-1.674,2.792
		s-1.25,1.775-1.939,2.615c-0.689,0.84-1.418,1.644-2.186,2.412c-0.768,0.769-1.572,1.497-2.412,2.187
		c-0.84,0.689-1.711,1.336-2.615,1.939s-1.834,1.161-2.792,1.674c-0.958,0.512-1.939,0.976-2.943,1.392
		c-1.004,0.415-2.026,0.781-3.065,1.097c-1.04,0.315-2.092,0.579-3.158,0.791c-1.066,0.212-2.139,0.371-3.22,0.478
		c-1.081,0.106-2.165,0.16-3.252,0.16c-1.087,0-2.17-0.054-3.252-0.16s-2.155-0.266-3.22-0.478
		c-1.066-0.212-2.118-0.476-3.158-0.791c-1.04-0.315-2.062-0.682-3.065-1.097c-1.004-0.416-1.985-0.88-2.943-1.392
		c-0.958-0.513-1.889-1.07-2.792-1.674c-0.903-0.604-1.775-1.25-2.615-1.939s-1.644-1.418-2.412-2.187s-1.497-1.572-2.186-2.412
		c-0.689-0.84-1.336-1.712-1.939-2.615s-1.161-1.834-1.674-2.792c-0.512-0.959-0.976-1.939-1.392-2.943
		c-0.416-1.004-0.781-2.025-1.097-3.065c-0.315-1.04-0.579-2.093-0.791-3.158c-0.212-1.065-0.371-2.139-0.478-3.22
		c-0.106-1.082-0.16-2.166-0.16-3.252c0-1.087,0.053-2.17,0.16-3.252c0.107-1.081,0.266-2.154,0.478-3.221
		c0.212-1.065,0.476-2.117,0.791-3.157c0.315-1.04,0.681-2.062,1.097-3.065c0.416-1.004,0.88-1.984,1.392-2.943
		c0.512-0.958,1.07-1.889,1.674-2.792s1.25-1.775,1.939-2.615c0.689-0.84,1.418-1.644,2.186-2.412s1.572-1.497,2.412-2.187
		s1.712-1.336,2.615-1.939c0.903-0.604,1.834-1.161,2.792-1.674c0.958-0.512,1.939-0.976,2.943-1.392s2.026-0.781,3.065-1.097
		c1.04-0.315,2.092-0.579,3.158-0.791c1.066-0.212,2.139-0.371,3.22-0.478S199.251,63.875,200.338,63.875z"/>
	<path fill="#FFD56C" d="M198.47,129.276c-3.651,0-7.173-0.511-10.49-1.455c3.82,1.536,7.989,2.39,12.358,2.39
		c13.429,0,24.986-7.988,30.199-19.468C224.713,121.72,212.544,129.276,198.47,129.276z"/>
	<path fill="#E0C48C" d="M200.338,65.758c18,0,32.641,14.345,33.136,32.226c0.009-0.311,0.024-0.62,0.024-0.934
		c0-18.314-14.846-33.16-33.16-33.16c-18.314,0-33.16,14.846-33.16,33.16c0,0.313,0.015,0.623,0.024,0.934
		C167.697,80.103,182.338,65.758,200.338,65.758z"/>
	<path fill="#E0C48C" d="M211.356,101.071c-1.529-1.695-3.72-3.087-6.895-4.382c-0.552-0.225-1.212-0.454-1.91-0.697
		c-3.582-1.244-8.488-2.95-7.315-6.902c0.426-1.435,1.372-2.348,2.811-2.713c3.247-0.826,8.116,1.336,9.911,3.127l0.303,0.303
		l4.646-4.219l-0.294-0.333c-2.636-2.985-5.921-4.782-9.525-5.217l0.003-4.095h-5.428l-0.003,4.229
		c-2.663,0.502-4.931,1.569-6.578,3.098c-1.934,1.795-2.955,4.205-2.955,6.97c0,7.258,5.615,9.421,11.044,11.513
		c1.867,0.719,3.798,1.463,5.455,2.404c1.637,0.931,2.481,2.458,2.258,4.087c-0.243,1.773-1.684,3.238-3.67,3.733
		c-0.872,0.217-1.723,0.325-2.55,0.325c-3.263,0-6.129-1.677-8.236-4.877l-0.225-0.341l-5.655,2.98l0.208,0.397
		c2.27,4.345,6.23,7.233,10.904,7.976v4.222h5.428v-4.101c2.779-0.316,5.207-1.265,7.042-2.755c2.122-1.724,3.384-4.144,3.651-7
		C214.068,105.727,213.275,103.198,211.356,101.071z"/>
	<path fill="#FFDD00" d="M211.356,99.498c-1.529-1.695-3.72-3.087-6.895-4.381c-0.552-0.226-1.212-0.455-1.91-0.698
		c-3.582-1.244-8.488-2.95-7.315-6.901c0.426-1.436,1.372-2.348,2.811-2.714c3.247-0.825,8.116,1.336,9.911,3.127l0.303,0.303
		l4.646-4.219l-0.294-0.333c-2.636-2.984-5.921-4.782-9.525-5.217l0.003-4.096h-5.428l-0.003,4.23
		c-2.663,0.502-4.931,1.568-6.578,3.098c-1.934,1.795-2.955,4.204-2.955,6.969c0,7.258,5.615,9.421,11.044,11.513
		c1.867,0.719,3.798,1.463,5.455,2.404c1.637,0.931,2.481,2.459,2.258,4.088c-0.243,1.772-1.684,3.237-3.67,3.732
		c-0.872,0.218-1.723,0.325-2.55,0.325c-3.263,0-6.129-1.676-8.236-4.877l-0.225-0.341l-5.655,2.98l0.208,0.397
		c2.27,4.344,6.23,7.233,10.904,7.975v4.223h5.428v-4.1c2.779-0.316,5.207-1.266,7.042-2.756c2.122-1.724,3.384-4.144,3.651-7
		C214.068,104.154,213.275,101.624,211.356,99.498z"/>
	<path fill-rule="evenodd" clip-rule="evenodd" fill="#FFDD00" d="M252.074,47.667c-0.822-0.822-2.156-0.822-2.979,0l-7.447,7.447
		c-0.823,0.822-0.823,2.156,0,2.979c0.822,0.822,2.156,0.822,2.979,0l7.447-7.447C252.897,49.824,252.897,48.49,252.074,47.667z"/>
	<path fill-rule="evenodd" clip-rule="evenodd" fill="#FFDD00" d="M260.944,38.797c-0.822-0.822-2.156-0.822-2.979,0l-3.646,3.646
		c-0.822,0.822-0.822,2.156,0,2.979c0.823,0.822,2.156,0.822,2.979,0l3.646-3.646C261.767,40.955,261.767,39.621,260.944,38.797z"/>
	<path fill-rule="evenodd" clip-rule="evenodd" fill="#FFDD00" d="M268.086,31.656c-0.822-0.822-2.156-0.822-2.979,0l-1.034,1.034
		c-0.823,0.822-0.823,2.156,0,2.979c0.822,0.822,2.156,0.822,2.979,0l1.033-1.034C268.909,33.812,268.909,32.479,268.086,31.656z"/>
	<path fill-rule="evenodd" clip-rule="evenodd" fill="#FFDD00" d="M265.023,74.647c0-0.935-0.757-1.69-1.691-1.69h-8.455
		c-0.934,0-1.691,0.756-1.691,1.69c0,0.934,0.757,1.69,1.691,1.69h8.455C264.266,76.337,265.023,75.581,265.023,74.647z"/>
	<path fill-rule="evenodd" clip-rule="evenodd" fill="#FFDD00" d="M275.094,74.647c0-0.935-0.757-1.69-1.691-1.69h-4.139
		c-0.934,0-1.691,0.756-1.691,1.69c0,0.934,0.757,1.69,1.691,1.69h4.139C274.337,76.337,275.094,75.581,275.094,74.647z"/>
	<path fill-rule="evenodd" clip-rule="evenodd" fill="#FFDD00" d="M283.202,74.647c0-0.935-0.757-1.69-1.691-1.69h-1.174
		c-0.934,0-1.691,0.756-1.691,1.69c0,0.934,0.757,1.69,1.691,1.69h1.174C282.445,76.337,283.202,75.581,283.202,74.647z"/>
	<path fill-rule="evenodd" clip-rule="evenodd" fill="#FFDD00" d="M225.663,35.287c-0.934,0-1.691,0.757-1.691,1.69v8.455
		c0,0.935,0.757,1.69,1.691,1.69s1.691-0.756,1.691-1.69v-8.455C227.354,36.043,226.597,35.287,225.663,35.287z"/>
	<path fill-rule="evenodd" clip-rule="evenodd" fill="#FFDD00" d="M225.663,25.216c-0.934,0-1.691,0.756-1.691,1.69v4.139
		c0,0.935,0.757,1.691,1.691,1.691s1.691-0.757,1.691-1.691v-4.139C227.354,25.972,226.597,25.216,225.663,25.216z"/>
	<path fill-rule="evenodd" clip-rule="evenodd" fill="#FFDD00" d="M225.663,17.107c-0.934,0-1.691,0.758-1.691,1.691v1.174
		c0,0.934,0.757,1.69,1.691,1.69s1.691-0.757,1.691-1.69v-1.174C227.354,17.865,226.597,17.107,225.663,17.107z"/>
</g>
</svg>
