<?xml version="1.0" encoding="utf-8"?>
<!-- Generator: Adobe Illustrator 17.0.0, SVG Export Plug-In . SVG Version: 6.00 Build 0)  -->
<!DOCTYPE svg PUBLIC "-//W3C//DTD SVG 1.1//EN" "http://www.w3.org/Graphics/SVG/1.1/DTD/svg11.dtd">
<svg version="1.1" id="Layer_1" xmlns="http://www.w3.org/2000/svg" xmlns:xlink="http://www.w3.org/1999/xlink" x="0px" y="0px"
	 width="1000px" height="1310px" viewBox="0 0 1000 1310" enable-background="new 0 0 1000 1310" xml:space="preserve">
<g>
	<path fill="#010101" d="M501.664,48.173h-0.105v1200.808l0.105,0.051l115.767-49.632l6.031-2.576l167.535-71.818
		c76.792-107.075,129.054-225.218,161.335-345.593l0.078-0.312c53.775-200.195,52.588-406.757,18.486-579.671
		C748.232,238.312,646.558,178.922,501.664,48.173"/>
	<path fill="#010101" d="M32.203,199.429c-54.608,276.936-24.725,640.238,179.884,925.57L501.459,1249l0.092-0.025V48.192
		l-0.092-0.025C356.553,178.941,254.854,238.318,32.203,199.429"/>
	<path fill="#010101" d="M103.653,657.765c26.183,151.765,79.683,287.749,159.406,404.518l238.438,102.152l0.052-0.025l0.091,0.025
		l0.014-0.013V657.765H103.653z"/>
	<path fill="#010101" d="M501.658,151.101c-0.014,0.019-0.08,0.07-0.105,0.083c-92.293,76.671-194.917,137.727-347.067,137.727
		c-18.654,0-37.855-0.846-57.891-2.563c-15.853,118.683-14.199,241.838,5.042,360.235c0.339,1.8,0.651,3.594,0.964,5.356
		c0.326,1.965,0.716,3.88,1.055,5.833h398.003V151.101z"/>
	<path fill="#010101" d="M501.658,1164.416l238.386-102.139c79.75-116.782,133.224-252.728,159.42-404.512H501.658V1164.416z"/>
	<path fill="#010101" d="M906.507,287.04c-20.023,1.724-39.225,2.57-57.852,2.57c-142.615,0-238.609-48.055-347.004-137.823v506.67
		h397.808c0.339-1.94,0.716-3.855,1.042-5.807c0.313-1.787,0.652-3.587,0.964-5.381C920.706,528.885,922.359,405.705,906.507,287.04
		"/>
	<polyline fill="none" points="8.124,1248.968 994.89,1248.968 994.89,48.173 8.124,48.173 8.124,1248.968 	"/>
	<path fill="#0D3653" d="M501.664,9.093h-0.105v1200.808l0.105,0.051l115.767-49.632l6.031-2.576l167.535-71.818
		C867.79,978.85,920.052,860.707,952.332,740.332l0.078-0.312c53.775-200.195,52.588-406.757,18.486-579.671
		C748.232,199.232,646.558,139.842,501.664,9.093"/>
	<path fill="#16668F" d="M32.203,160.349c-54.608,276.936-24.725,640.238,179.884,925.57l289.372,124.001l0.092-0.025V9.112
		l-0.092-0.025C356.553,139.861,254.854,199.238,32.203,160.349"/>
	<path fill="#F2F2F2" d="M103.653,618.685c26.183,151.765,79.683,287.749,159.406,404.518l238.438,102.152l0.052-0.025l0.091,0.025
		l0.014-0.013V618.685H103.653z"/>
	<path fill="#FFFFFF" d="M501.658,112.021c-0.014,0.019-0.08,0.07-0.105,0.083c-92.293,76.671-194.917,137.727-347.067,137.727
		c-18.654,0-37.855-0.846-57.891-2.563c-15.853,118.683-14.199,241.838,5.042,360.235c0.339,1.8,0.651,3.594,0.964,5.356
		c0.326,1.965,0.716,3.88,1.055,5.833h398.003V112.021z"/>
	<path fill="#FFFFFF" d="M501.658,1125.336l238.386-102.139c79.75-116.781,133.224-252.728,159.42-404.512H501.658V1125.336z"/>
	<path fill="#F2F2F2" d="M906.507,247.961c-20.023,1.724-39.225,2.57-57.852,2.57c-142.615,0-238.609-48.055-347.004-137.823v506.67
		h397.808c0.339-1.94,0.716-3.855,1.042-5.807c0.313-1.787,0.652-3.587,0.964-5.381
		C920.706,489.805,922.359,366.625,906.507,247.961"/>
	<g opacity="0.1">
		<g>
			<defs>
				<rect id="SVGID_1_" x="332.357" y="367.452" width="338.431" height="617.072"/>
			</defs>
			<clipPath id="SVGID_2_">
				<use xlink:href="#SVGID_1_"  overflow="visible"/>
			</clipPath>
			<path clip-path="url(#SVGID_2_)" fill="#010101" d="M667.188,391.088c-2.476-4.592-6.162-8.453-10.605-11.176V379.9
				c-1.132-0.674-2.318-1.304-3.53-1.838h-0.013c-3.608-1.597-23.787-2.462-27.995-2.462H361.883c-4.208,0-8.181,0.865-11.802,2.449
				c-1.239,0.547-2.398,1.177-3.53,1.864c-0.13,0.057-0.223,0.121-0.339,0.197c-4.3,2.71-7.882,6.513-10.292,11.01
				c-0.105,0.204-0.221,0.388-0.326,0.623c-2.045,4.001-3.217,8.555-3.217,13.364V955.01c0,1.565,0.13,3.129,0.377,4.656
				c0.078,0.503,0.17,1.011,0.273,1.508c0.065,0.273,0.13,0.547,0.196,0.82c0.183,0.846,0.431,1.679,0.704,2.5
				c0.103,0.248,0.181,0.534,0.286,0.782c0.103,0.286,0.208,0.547,0.312,0.82c0.157,0.407,0.326,0.782,0.509,1.145
				c0.183,0.407,0.351,0.77,0.56,1.164c0.286,0.572,0.612,1.17,0.964,1.743c1.03,1.724,2.215,3.32,3.557,4.809
				c0.455,0.483,0.898,0.96,1.393,1.406c0.366,0.337,0.717,0.681,1.108,1.005c0.743,0.649,1.523,1.247,2.318,1.806
				c0.013,0.032,0.025,0.045,0.025,0.045c0.417,0.286,0.848,0.56,1.251,0.82c1.224,0.782,2.527,1.444,3.869,2.042
				c3.621,1.59,7.595,2.474,11.802,2.474h279.342c4.208,0,8.207-0.884,11.828-2.487c1.212-0.534,2.398-1.145,3.53-1.838
				c4.456-2.735,8.142-6.602,10.618-11.214c2.253-4.154,3.53-8.924,3.53-13.993V405.107c0-5.069-1.277-9.834-3.53-13.987
				C667.2,391.107,667.188,391.107,667.188,391.088"/>
			<path clip-path="url(#SVGID_2_)" fill="#010101" d="M667.188,384.613c-2.476-4.592-6.162-8.453-10.605-11.163v-0.025
				c-1.132-0.674-2.318-1.285-3.53-1.819h-0.013c-3.608-1.603-23.787-2.481-27.995-2.481H361.883c-4.208,0-8.181,0.878-11.802,2.449
				c-1.239,0.566-2.398,1.177-3.53,1.876c-0.13,0.045-0.223,0.121-0.339,0.184c-4.3,2.722-7.882,6.513-10.292,11.023
				c-0.105,0.191-0.221,0.375-0.326,0.611c-2.045,4.014-3.217,8.555-3.217,13.376v549.891c0,1.565,0.13,3.142,0.377,4.656
				c0.078,0.515,0.17,1.011,0.273,1.508c0.065,0.273,0.13,0.56,0.196,0.82c0.183,0.859,0.431,1.692,0.704,2.5
				c0.103,0.261,0.181,0.534,0.286,0.795c0.103,0.273,0.208,0.547,0.312,0.808c0.157,0.407,0.326,0.782,0.509,1.164
				c0.183,0.388,0.351,0.751,0.56,1.145c0.286,0.585,0.612,1.183,0.964,1.743c1.03,1.724,2.215,3.32,3.557,4.809
				c0.455,0.483,0.898,0.96,1.393,1.418c0.366,0.324,0.717,0.668,1.108,0.992c0.743,0.649,1.523,1.247,2.318,1.826
				c0.013,0.013,0.025,0.038,0.025,0.038c0.417,0.273,0.848,0.547,1.251,0.808c1.224,0.782,2.527,1.457,3.869,2.055
				c3.621,1.577,7.595,2.462,11.802,2.462h279.342c4.208,0,8.207-0.884,11.828-2.487c1.212-0.534,2.398-1.145,3.53-1.838
				c4.456-2.722,8.142-6.59,10.618-11.214c2.253-4.154,3.53-8.924,3.53-13.993V398.644c0-5.063-1.277-9.834-3.53-13.987
				C667.2,384.645,667.188,384.645,667.188,384.613"/>
			<path clip-path="url(#SVGID_2_)" fill="#010101" d="M667.188,382.997c-2.476-4.592-6.162-8.453-10.605-11.176v-0.013
				c-1.132-0.674-2.318-1.304-3.53-1.819h-0.013c-3.608-1.603-23.787-2.481-27.995-2.481H361.883c-4.208,0-8.181,0.878-11.802,2.449
				c-1.239,0.547-2.398,1.177-3.53,1.864c-0.13,0.057-0.223,0.134-0.339,0.197c-4.3,2.71-7.882,6.513-10.292,11.023
				c-0.105,0.191-0.221,0.375-0.326,0.611c-2.045,4.001-3.217,8.555-3.217,13.376V946.92c0,1.565,0.13,3.142,0.377,4.656
				c0.078,0.515,0.17,1.011,0.273,1.508c0.065,0.273,0.13,0.56,0.196,0.82c0.183,0.846,0.431,1.679,0.704,2.5
				c0.103,0.248,0.181,0.534,0.286,0.782c0.103,0.286,0.208,0.56,0.312,0.821c0.157,0.407,0.326,0.782,0.509,1.145
				c0.183,0.407,0.351,0.77,0.56,1.164c0.286,0.585,0.612,1.183,0.964,1.743c1.03,1.724,2.215,3.32,3.557,4.809
				c0.455,0.483,0.898,0.96,1.393,1.406c0.366,0.337,0.717,0.681,1.108,1.005c0.743,0.649,1.523,1.247,2.318,1.826
				c0.013,0.013,0.025,0.025,0.025,0.025c0.417,0.286,0.848,0.56,1.251,0.82c1.224,0.782,2.527,1.457,3.869,2.055
				c3.621,1.577,7.595,2.462,11.802,2.462h279.342c4.208,0,8.207-0.884,11.828-2.487c1.212-0.534,2.398-1.145,3.53-1.838
				c4.456-2.735,8.142-6.602,10.618-11.214c2.253-4.154,3.53-8.924,3.53-13.993V397.029c0-5.063-1.277-9.846-3.53-13.987
				C667.2,383.016,667.188,383.016,667.188,382.997"/>
			<rect x="343.572" y="419.431" clip-path="url(#SVGID_2_)" fill="#010101" width="315.948" height="485.699"/>
			<g opacity="0.28" clip-path="url(#SVGID_2_)">
				<g>
					<defs>
						<rect id="SVGID_3_" x="653.072" y="419.431" width="17.716" height="485.763"/>
					</defs>
					<clipPath id="SVGID_4_">
						<use xlink:href="#SVGID_3_"  overflow="visible"/>
					</clipPath>
					<rect x="653.032" y="419.431" clip-path="url(#SVGID_4_)" fill="#010101" width="17.703" height="485.737"/>
				</g>
			</g>
			<g opacity="0.28" clip-path="url(#SVGID_2_)">
				<g>
					<defs>
						<rect id="SVGID_5_" x="656.589" y="419.431" width="10.551" height="485.763"/>
					</defs>
					<clipPath id="SVGID_6_">
						<use xlink:href="#SVGID_5_"  overflow="visible"/>
					</clipPath>
					<rect x="656.575" y="419.431" clip-path="url(#SVGID_6_)" fill="#010101" width="10.616" height="485.737"/>
				</g>
			</g>
			<g opacity="0.14" clip-path="url(#SVGID_2_)">
				<g>
					<defs>
						<rect id="SVGID_7_" x="653.072" y="905.06" width="17.716" height="68.911"/>
					</defs>
					<clipPath id="SVGID_8_">
						<use xlink:href="#SVGID_7_"  overflow="visible"/>
					</clipPath>
					<path clip-path="url(#SVGID_8_)" fill="#010101" d="M653.035,974.016c1.224-0.528,2.409-1.145,3.543-1.845
						c1.927-1.177,3.699-2.595,5.302-4.173l0.183-0.191c0.716-0.706,1.38-1.45,2.018-2.22c0.092-0.127,0.196-0.242,0.288-0.363
						c0.246-0.312,0.52-0.611,0.755-0.922c0.755-1.056,1.471-2.175,2.083-3.327c1.407-2.602,2.436-5.47,3.01-8.491
						c0.339-1.781,0.52-3.632,0.52-5.496v-41.853h-17.702V974.016z"/>
				</g>
			</g>
			<g opacity="0.14" clip-path="url(#SVGID_2_)">
				<g>
					<defs>
						<rect id="SVGID_9_" x="653.072" y="369.926" width="17.716" height="49.505"/>
					</defs>
					<clipPath id="SVGID_10_">
						<use xlink:href="#SVGID_9_"  overflow="visible"/>
					</clipPath>
					<path clip-path="url(#SVGID_10_)" fill="#010101" d="M667.207,383.035c0-0.025-0.014-0.025-0.014-0.038
						c-2.474-4.586-6.162-8.453-10.616-11.176c0,0-0.013,0-0.013-0.013c-1.134-0.674-2.306-1.304-3.53-1.826v49.454h17.703v-22.409
						c0-3.282-0.549-6.437-1.538-9.382C668.665,386.038,668,384.498,667.207,383.035"/>
				</g>
			</g>
			<g opacity="0.14" clip-path="url(#SVGID_2_)">
				<g>
					<defs>
						<rect id="SVGID_11_" x="656.589" y="371.752" width="10.551" height="47.679"/>
					</defs>
					<clipPath id="SVGID_12_">
						<use xlink:href="#SVGID_11_"  overflow="visible"/>
					</clipPath>
					<path clip-path="url(#SVGID_12_)" fill="#010101" d="M656.584,371.815c0,0-0.014,0-0.014-0.013v47.629h10.617v-36.434
						C664.712,378.411,661.026,374.544,656.584,371.815"/>
				</g>
			</g>
			<g opacity="0.14" clip-path="url(#SVGID_2_)">
				<g>
					<defs>
						<rect id="SVGID_13_" x="656.589" y="905.06" width="10.551" height="67.092"/>
					</defs>
					<clipPath id="SVGID_14_">
						<use xlink:href="#SVGID_13_"  overflow="visible"/>
					</clipPath>
					<path clip-path="url(#SVGID_14_)" fill="#010101" d="M656.572,972.172c4.467-2.722,8.142-6.59,10.616-11.188v-55.846h-10.616
						V972.172z"/>
				</g>
			</g>
			<g opacity="0.28" clip-path="url(#SVGID_2_)">
				<g>
					<defs>
						<rect id="SVGID_15_" x="332.357" y="419.431" width="17.716" height="485.629"/>
					</defs>
					<clipPath id="SVGID_16_">
						<use xlink:href="#SVGID_15_"  overflow="visible"/>
					</clipPath>
					<rect x="332.382" y="419.431" clip-path="url(#SVGID_16_)" fill="#010101" width="17.691" height="485.699"/>
				</g>
			</g>
			<g opacity="0.28" clip-path="url(#SVGID_2_)">
				<g>
					<defs>
						<rect id="SVGID_17_" x="335.874" y="419.431" width="10.681" height="485.629"/>
					</defs>
					<clipPath id="SVGID_18_">
						<use xlink:href="#SVGID_17_"  overflow="visible"/>
					</clipPath>
					<rect x="335.925" y="419.431" clip-path="url(#SVGID_18_)" fill="#010101" width="10.616" height="485.686"/>
				</g>
			</g>
			<g opacity="0.14" clip-path="url(#SVGID_2_)">
				<g>
					<defs>
						<rect id="SVGID_19_" x="332.357" y="905.06" width="17.716" height="68.911"/>
					</defs>
					<clipPath id="SVGID_20_">
						<use xlink:href="#SVGID_19_"  overflow="visible"/>
					</clipPath>
					<path clip-path="url(#SVGID_20_)" fill="#010101" d="M332.382,946.92c0,1.565,0.129,3.142,0.364,4.656
						c0.091,0.509,0.169,1.011,0.286,1.508c0.065,0.273,0.105,0.56,0.183,0.82c0.208,0.846,0.442,1.679,0.716,2.5
						c0.092,0.248,0.183,0.534,0.301,0.782c0.091,0.286,0.196,0.56,0.299,0.821c0.143,0.407,0.313,0.782,0.509,1.151
						c0.169,0.401,0.351,0.763,0.547,1.158c0.091,0.21,0.208,0.426,0.326,0.623c0,0.025,0.013,0.025,0.013,0.038
						s0.013,0.013,0.013,0.025c0.183,0.343,0.391,0.706,0.599,1.03c-0.013,0.013,0.013,0.025,0.013,0.025
						c0.261,0.42,0.522,0.871,0.795,1.266c0.273,0.413,0.572,0.82,0.859,1.234c0.288,0.407,0.599,0.782,0.925,1.177
						c0.313,0.388,0.638,0.77,0.991,1.132c0.221,0.248,0.442,0.483,0.677,0.719c0.221,0.248,0.468,0.477,0.703,0.687
						c0.364,0.337,0.73,0.681,1.107,1.005c0.366,0.324,0.755,0.649,1.147,0.948c0.391,0.299,0.795,0.592,1.186,0.865
						c0.013,0.025,0.025,0.038,0.025,0.038c0.429,0.286,0.821,0.56,1.25,0.82c0.092,0.076,0.208,0.165,0.313,0.223
						c1.134,0.7,2.318,1.323,3.543,1.845v-68.879h-17.689V946.92z"/>
				</g>
			</g>
			<g opacity="0.14" clip-path="url(#SVGID_2_)">
				<g>
					<defs>
						<rect id="SVGID_21_" x="332.357" y="369.926" width="17.716" height="49.505"/>
					</defs>
					<clipPath id="SVGID_22_">
						<use xlink:href="#SVGID_21_"  overflow="visible"/>
					</clipPath>
					<path clip-path="url(#SVGID_22_)" fill="#010101" d="M346.21,372.019c-4.3,2.71-7.868,6.513-10.292,11.023
						c-0.118,0.184-0.221,0.375-0.339,0.611c-0.639,1.266-1.212,2.608-1.668,3.988c-1.003,2.958-1.536,6.113-1.536,9.395v22.402
						h17.703v-49.473c-1.226,0.547-2.411,1.17-3.544,1.851C346.418,371.866,346.313,371.955,346.21,372.019"/>
				</g>
			</g>
			<g opacity="0.14" clip-path="url(#SVGID_2_)">
				<g>
					<defs>
						<rect id="SVGID_23_" x="335.874" y="371.752" width="10.681" height="47.679"/>
					</defs>
					<clipPath id="SVGID_24_">
						<use xlink:href="#SVGID_23_"  overflow="visible"/>
					</clipPath>
					<path clip-path="url(#SVGID_24_)" fill="#010101" d="M335.919,383.023v36.415h10.616v-47.616
						c-0.105,0.064-0.221,0.121-0.326,0.197C341.898,374.728,338.328,378.532,335.919,383.023"/>
				</g>
			</g>
			<g opacity="0.14" clip-path="url(#SVGID_2_)">
				<g>
					<defs>
						<rect id="SVGID_25_" x="335.874" y="905.06" width="10.681" height="67.092"/>
					</defs>
					<clipPath id="SVGID_26_">
						<use xlink:href="#SVGID_25_"  overflow="visible"/>
					</clipPath>
					<path clip-path="url(#SVGID_26_)" fill="#010101" d="M335.925,960.977c2.474,4.611,6.16,8.472,10.616,11.195v-67.035h-10.616
						V960.977z"/>
				</g>
			</g>
			<g opacity="0.25" clip-path="url(#SVGID_2_)">
				<g>
					<defs>
						<rect id="SVGID_27_" x="476.039" y="921.344" width="48.46" height="38.819"/>
					</defs>
					<clipPath id="SVGID_28_">
						<use xlink:href="#SVGID_27_"  overflow="visible"/>
					</clipPath>
					<path clip-path="url(#SVGID_28_)" fill="#010101" d="M510.819,921.299h-21.103c-7.555,0-13.717,6.163-13.717,13.733v11.379
						c0,7.556,6.162,13.72,13.717,13.72h21.103c7.555,0,13.717-6.164,13.717-13.72v-11.379
						C524.536,927.462,518.374,921.299,510.819,921.299 M519.678,946.411c0,4.885-3.974,8.873-8.859,8.873h-21.103
						c-4.885,0-8.859-3.988-8.859-8.873v-11.379c0-4.904,3.974-8.873,8.859-8.873h21.103c4.885,0,8.859,3.969,8.859,8.873V946.411z"
						/>
				</g>
			</g>
			<g opacity="0.25" clip-path="url(#SVGID_2_)">
				<g>
					<defs>
						<rect id="SVGID_29_" x="461.449" y="388.168" width="79.072" height="10.552"/>
					</defs>
					<clipPath id="SVGID_30_">
						<use xlink:href="#SVGID_29_"  overflow="visible"/>
					</clipPath>
					<path clip-path="url(#SVGID_30_)" fill="#010101" d="M536.96,388.149h-71.985c-1.954,0-3.544,1.59-3.544,3.549v3.543
						c0,1.953,1.59,3.53,3.544,3.53h71.985c1.953,0,3.543-1.577,3.543-3.53v-3.543C540.503,389.74,538.912,388.149,536.96,388.149"
						/>
				</g>
			</g>
			<path clip-path="url(#SVGID_2_)" fill="#010101" d="M603.95,389.161c2.462,0,4.467,2.004,4.467,4.465
				c0,2.449-2.005,4.459-4.467,4.459c-2.463,0-4.468-2.01-4.468-4.459C599.482,391.164,601.487,389.161,603.95,389.161
				 M603.95,385.771c-4.338,0-7.855,3.517-7.855,7.855c0,4.338,3.517,7.843,7.855,7.843c4.336,0,7.854-3.505,7.854-7.843
				C611.804,389.288,608.286,385.771,603.95,385.771"/>
			<path clip-path="url(#SVGID_2_)" fill="#010101" d="M592.526,486.765c0,1.018,0.82,1.851,1.837,1.851
				c0.533,0,1.002-0.235,1.341-0.585h3.153c0.69,0,1.25-0.572,1.25-1.266c0-0.687-0.56-1.247-1.25-1.247h-3.153
				c-0.339-0.35-0.808-0.585-1.341-0.585c-0.183,0-0.353,0.025-0.522,0.076l-2.722-3.606c-0.221-0.286-0.612-0.324-0.886-0.134
				c-0.273,0.21-0.326,0.598-0.13,0.891l2.722,3.594C592.642,486.04,592.526,486.39,592.526,486.765"/>
			<path clip-path="url(#SVGID_2_)" fill="#010101" d="M594.295,474.909c-3.492,0-6.709,1.577-8.846,4.357l1.277,0.973
				c1.824-2.36,4.586-3.727,7.569-3.727c5.262,0,9.547,4.287,9.547,9.554c0,5.273-4.285,9.56-9.547,9.56
				c-1.003,0-1.981-0.159-2.92-0.458l-0.495,1.539c1.108,0.35,2.253,0.534,3.414,0.534c6.16,0,11.163-5.019,11.163-11.176
				C605.457,479.914,600.455,474.909,594.295,474.909"/>
			<path clip-path="url(#SVGID_2_)" fill="#010101" d="M436.606,481.759l-17.926-10.342l-1.433-0.833l-1.42,0.833l-17.924,10.342
				l-1.42,0.821v1.66v20.685v1.654l1.42,0.808l17.924,10.355l1.42,0.833l1.433-0.833l17.926-10.355l1.418-0.808v-1.654V484.24v-1.66
				L436.606,481.759z M436.945,484.755v19.623v1.565l-1.355,0.776l-16.988,9.802l-1.355,0.776l-1.342-0.776l-16.986-9.802
				l-1.355-0.776v-1.565v-19.623v-1.558l1.355-0.782l16.986-9.808l1.342-0.77l1.355,0.77l16.988,9.808l1.355,0.782V484.755z"/>
			<polygon clip-path="url(#SVGID_2_)" fill="#010101" points="400.269,486.523 400.269,503.748 409.491,498.418 			"/>
			<polygon clip-path="url(#SVGID_2_)" fill="#010101" points="434.235,503.748 434.235,486.53 425.012,498.424 			"/>
			<polygon clip-path="url(#SVGID_2_)" fill="#010101" points="418.111,507.335 417.798,507.742 417.798,513.868 433.69,504.683 
				424.349,499.289 			"/>
			<path clip-path="url(#SVGID_2_)" fill="#010101" d="M400.269,484.755"/>
			<polygon clip-path="url(#SVGID_2_)" fill="#010101" points="411.044,498.659 411.108,498.742 417.257,506.674 413.428,501.738 
							"/>
			<polygon clip-path="url(#SVGID_2_)" fill="#010101" points="410.16,499.283 400.819,504.676 416.712,513.861 416.712,507.742 
				416.398,507.335 			"/>
			<path clip-path="url(#SVGID_2_)" fill="#010101" d="M418.609,472.606l-1.355-0.77l-1.355,0.77l-16.973,9.808l-1.355,0.782v1.558
				v19.623v1.565l1.355,0.776l16.973,9.802l1.355,0.776l1.355-0.776l16.988-9.802l1.355-0.776v-1.565v-19.623v-1.558l-1.355-0.782
				L418.609,472.606z M435.323,484.755v19.623v0.623l-0.549,0.299l-16.986,9.808l-0.534,0.312l-0.547-0.312l-16.973-9.808
				l-0.547-0.299v-0.623v-19.623v-0.623l0.547-0.299l16.973-9.808l0.547-0.324l0.534,0.324l16.986,9.808l0.549,0.299V484.755z"/>
			<polygon clip-path="url(#SVGID_2_)" fill="#010101" points="424.071,497.871 434.23,484.755 423.68,498.392 			"/>
			<polygon clip-path="url(#SVGID_2_)" fill="#010101" points="433.122,484.119 417.255,474.966 401.389,484.119 417.255,492.197 
							"/>
			<path clip-path="url(#SVGID_2_)" fill="#010101" d="M417.791,474.025l-0.534-0.318l-0.547,0.318l-16.986,9.808l-0.534,0.299
				v0.623v19.616v0.63l0.534,0.299l16.986,9.808l0.547,0.324l0.534-0.324l16.986-9.808l0.547-0.299v-0.63v-19.616v-0.623
				l-0.547-0.299L417.791,474.025z M417.257,474.96l15.867,9.159l-15.867,8.078l-15.867-8.078L417.257,474.96z M416.71,513.868
				l-15.892-9.191l9.339-5.394l6.24,8.059l0.313,0.407V513.868z M400.271,503.748V486.53l9.223,11.894L400.271,503.748z
				 M417.791,513.868v-6.119l0.313-0.407l6.24-8.059l9.352,5.394L417.791,513.868z M434.23,503.748l-9.209-5.324l9.209-11.894
				V503.748z M424.071,497.871l-0.391,0.522l-6.423,8.288l-6.149-7.944l-0.064-0.07l-10.773-13.911l14.55,7.429l2.436,1.234
				l16.973-8.663L424.071,497.871z"/>
			<path clip-path="url(#SVGID_2_)" fill="#010101" d="M414.816,492.171l-14.552-7.41L414.816,492.171z"/>
			<path clip-path="url(#SVGID_2_)" fill="#010101" d="M414.816,492.171l-14.552-7.41L414.816,492.171z"/>
			<polygon clip-path="url(#SVGID_2_)" fill="#010101" points="417.252,493.418 417.252,506.68 423.4,498.736 423.673,498.399 
				434.238,484.761 			"/>
			<polygon clip-path="url(#SVGID_2_)" fill="#010101" points="417.252,493.418 417.252,506.68 423.4,498.736 423.673,498.399 
				434.238,484.761 			"/>
			<path clip-path="url(#SVGID_2_)" fill="#010101" d="M413.429,501.738l3.816,4.942L413.429,501.738z"/>
			<path clip-path="url(#SVGID_2_)" fill="#010101" d="M413.429,501.738l3.816,4.942L413.429,501.738z"/>
			<path clip-path="url(#SVGID_2_)" fill="#010101" d="M417.252,506.674"/>
			<path clip-path="url(#SVGID_2_)" fill="#010101" d="M417.252,506.674"/>
			<polygon clip-path="url(#SVGID_2_)" fill="#010101" points="417.252,506.674 417.252,506.674 423.673,498.392 423.4,498.742 			
				"/>
			<polygon clip-path="url(#SVGID_2_)" fill="#010101" points="417.252,506.674 417.252,506.674 423.673,498.392 423.4,498.742 			
				"/>
			<polygon clip-path="url(#SVGID_2_)" fill="#010101" points="400.269,484.755 400.269,484.755 410.429,497.877 411.041,498.659 
				413.425,501.744 			"/>
			<polygon clip-path="url(#SVGID_2_)" fill="#010101" points="400.269,484.755 400.269,484.755 410.429,497.877 411.041,498.659 
				413.425,501.744 			"/>
			<path clip-path="url(#SVGID_2_)" fill="#010101" d="M417.252,493.418l-2.436-1.247L417.252,493.418z"/>
			<path clip-path="url(#SVGID_2_)" fill="#010101" d="M417.252,493.418l-2.436-1.247L417.252,493.418z"/>
			<polygon clip-path="url(#SVGID_2_)" fill="#010101" points="400.269,484.755 400.269,484.755 411.041,498.659 410.429,497.877 
							"/>
			<polygon clip-path="url(#SVGID_2_)" fill="#010101" points="400.269,484.755 400.269,484.755 411.041,498.659 410.429,497.877 
							"/>
			<path clip-path="url(#SVGID_2_)" fill="#010101" d="M417.252,506.674"/>
			<path clip-path="url(#SVGID_2_)" fill="#010101" d="M417.252,506.674"/>
			<polygon clip-path="url(#SVGID_2_)" fill="#010101" points="413.429,501.738 417.246,506.68 417.246,493.418 414.81,492.178 
				400.272,484.755 			"/>
			<polygon clip-path="url(#SVGID_2_)" fill="#010101" points="413.429,501.738 417.246,506.68 417.246,493.418 414.81,492.178 
				400.272,484.755 			"/>
			<polygon clip-path="url(#SVGID_2_)" fill="#010101" points="413.429,501.738 417.246,506.68 417.246,493.418 414.81,492.178 
				400.272,484.755 			"/>
			<path clip-path="url(#SVGID_2_)" fill="#010101" d="M417.252,506.674"/>
			<path clip-path="url(#SVGID_2_)" fill="#010101" d="M417.252,506.674"/>
			<path clip-path="url(#SVGID_2_)" fill="#010101" d="M417.252,506.674"/>
			<polygon clip-path="url(#SVGID_2_)" fill="#010101" points="463.889,496.471 470.362,496.471 470.362,492.801 463.889,492.801 
				463.889,490.079 470.726,490.079 470.726,486.237 459.159,486.237 459.159,503.264 471.143,503.264 471.143,499.378 
				463.889,499.378 			"/>
			<path clip-path="url(#SVGID_2_)" fill="#010101" d="M486.09,494.512c0.534-0.827,0.808-1.826,0.808-3.028
				c0-0.96-0.17-1.781-0.509-2.449c-0.351-0.674-0.808-1.221-1.393-1.641c-0.599-0.413-1.29-0.7-2.085-0.897
				c-0.795-0.172-1.641-0.261-2.567-0.261h-6.825v17.015h4.793v-6.049h1.108l3.139,6.049h5.341l-3.974-6.959
				C484.839,495.918,485.556,495.314,486.09,494.512 M481.857,492.604c-0.13,0.248-0.288,0.433-0.496,0.579
				c-0.196,0.14-0.429,0.248-0.677,0.299c-0.246,0.064-0.507,0.089-0.781,0.089h-1.59v-3.492h1.616c0.574,0,1.081,0.095,1.498,0.312
				c0.417,0.21,0.625,0.642,0.625,1.278C482.051,492.057,481.986,492.362,481.857,492.604"/>
			<rect x="488.845" y="486.231" clip-path="url(#SVGID_2_)" fill="#010101" width="4.845" height="17.027"/>
			<path clip-path="url(#SVGID_2_)" fill="#010101" d="M508.777,488.062c-0.886-0.662-1.889-1.132-3.034-1.406
				c-1.147-0.286-2.333-0.413-3.57-0.413h-6.318v17.008h6.461c1.199,0,2.371-0.165,3.505-0.496c1.132-0.337,2.123-0.846,2.996-1.546
				c0.873-0.693,1.563-1.577,2.085-2.659c0.533-1.081,0.781-2.36,0.781-3.855c0-1.616-0.261-2.958-0.795-4.039
				C510.355,489.576,509.65,488.718,508.777,488.062 M506.212,496.815c-0.248,0.592-0.587,1.056-1.016,1.412
				c-0.418,0.375-0.913,0.623-1.485,0.782c-0.561,0.153-1.174,0.229-1.798,0.229h-1.212v-9.051h1.29
				c0.639,0,1.239,0.076,1.786,0.235c0.56,0.159,1.054,0.388,1.471,0.731c0.417,0.35,0.73,0.808,0.978,1.368
				c0.246,0.56,0.364,1.272,0.364,2.118C506.589,495.504,506.459,496.23,506.212,496.815"/>
			<polygon clip-path="url(#SVGID_2_)" fill="#010101" points="449.533,496.611 445.767,486.205 440.907,486.205 447.096,503.258 
				451.942,503.258 458.221,486.205 453.362,486.205 			"/>
			<path clip-path="url(#SVGID_2_)" fill="#010101" d="M522.088,485.792c-4.937,0-8.937,4.001-8.937,8.937
				c0,4.942,3.999,8.949,8.937,8.949c4.936,0,8.949-4.007,8.949-8.949C531.038,489.793,527.024,485.792,522.088,485.792
				 M522.076,499.105c-2.423,0-4.378-1.953-4.378-4.376c0-2.411,1.954-4.376,4.378-4.376c2.422,0,4.376,1.965,4.376,4.376
				C526.452,497.152,524.498,499.105,522.076,499.105"/>
			<path clip-path="url(#SVGID_2_)" fill="#010101" d="M541.31,499.105c-2.423,0-4.365-1.953-4.365-4.376
				c0-2.411,1.967-4.376,4.39-4.376c1.784,0,3.335,1.056,4.025,2.582l4.403-1.145c-1.224-3.492-4.534-5.998-8.441-5.998
				c-4.937,0-8.949,4.001-8.949,8.937c0,4.942,4.012,8.949,8.949,8.949c3.869,0,7.151-2.462,8.402-5.896l-4.403-1.151
				C544.605,498.093,543.055,499.105,541.31,499.105"/>
			<g clip-path="url(#SVGID_2_)">
				<text transform="matrix(1 0 0 1 552.9657 503.0916)" fill="#010101" font-family="'Roboto-BlackItalic'" font-size="25.0254">HR</text>
			</g>
			<g clip-path="url(#SVGID_2_)">
				<defs>
					<rect id="SVGID_31_" x="390.677" y="562.972" width="220.592" height="249.108"/>
				</defs>
				<clipPath id="SVGID_32_">
					<use xlink:href="#SVGID_31_"  overflow="visible"/>
				</clipPath>
				<rect x="390.677" y="562.972" clip-path="url(#SVGID_32_)" fill="#010101" width="220.592" height="313.408"/>
				<path clip-path="url(#SVGID_32_)" fill="#010101" d="M527.495,717.44h-52.941c0.509,2.646,0.704,5.216,0.625,7.754
					c-0.312,8.402-3.804,16.258-9.143,24.011h69.953c-5.367-9.019-8.598-16.169-8.976-24.151
					C526.896,722.618,527.051,720.112,527.495,717.44"/>
				<path clip-path="url(#SVGID_32_)" fill="#010101" d="M553.192,747.781l-52.264,128.587h110.335l-6.787-82.975
					C604.476,773.56,584.806,756.813,553.192,747.781"/>
				<path clip-path="url(#SVGID_32_)" fill="#010101" d="M519.563,740.313h-0.014c-5.731,4.497-13.17,9.369-18.64,9.433v126.373
					l0.417-0.98l44.851-108.207l7.841-18.878c-6.617-1.915-25.765-15.348-25.765-15.348S524.552,736.382,519.563,740.313"/>
				<path clip-path="url(#SVGID_32_)" fill="#010101" d="M500.927,749.714v126.412l53.096-128.078
					c-6.631-1.889-25.767-15.342-25.767-15.342S511.126,749.625,500.927,749.714"/>
				<path clip-path="url(#SVGID_32_)" fill="#010101" d="M397.471,793.386l-6.788,82.981h110.337l-52.264-128.587
					C417.139,756.813,397.471,773.573,397.471,793.386"/>
				<path clip-path="url(#SVGID_32_)" fill="#010101" d="M447.93,748.048l53.096,128.078V749.721
					c-10.212-0.095-27.343-17.015-27.343-17.015S454.546,746.146,447.93,748.048"/>
				<g opacity="0.1" clip-path="url(#SVGID_32_)">
					<g>
						<defs>
							<rect id="SVGID_33_" x="500.92" y="740.275" width="45.202" height="134.827"/>
						</defs>
						<clipPath id="SVGID_34_">
							<use xlink:href="#SVGID_33_"  overflow="visible"/>
						</clipPath>
						<polygon clip-path="url(#SVGID_34_)" fill="#010101" points="519.544,740.313 500.915,747.036 500.915,874.987 
							501.071,875.14 501.332,875.14 546.183,766.932 519.557,740.313 						"/>
					</g>
				</g>
				<polygon clip-path="url(#SVGID_32_)" fill="#010101" points="500.927,747.043 500.927,874.981 519.644,821.965 504.743,759.98 
					528.255,732.706 				"/>
				<polygon clip-path="url(#SVGID_32_)" fill="#010101" points="497.104,759.98 482.201,821.965 500.92,874.981 500.92,747.049 
					473.681,732.706 				"/>
				<g opacity="0.07" clip-path="url(#SVGID_32_)">
					<g>
						<defs>
							<rect id="SVGID_35_" x="474.606" y="717.478" width="52.889" height="21.626"/>
						</defs>
						<clipPath id="SVGID_36_">
							<use xlink:href="#SVGID_35_"  overflow="visible"/>
						</clipPath>
						<path clip-path="url(#SVGID_36_)" fill="#010101" d="M475.179,725.188c7.464,6.819,16.334,13.943,25.843,13.943
							c9.576,0,18.473-7.232,25.988-14.082c-0.116-2.423,0.04-4.936,0.483-7.607h-52.941
							C475.061,720.086,475.257,722.662,475.179,725.188"/>
					</g>
				</g>
				<path clip-path="url(#SVGID_32_)" fill="#010101" d="M504.431,618.494c-12.389,0-24.57-1.107-36.423-3.225
					c-9.536,12.435-15.502,30.181-15.502,49.899c0,37.649,21.715,68.148,48.511,68.148c26.783,0,48.498-30.499,48.498-68.148
					c0-19.196-5.653-36.536-14.76-48.926C524.83,617.718,514.721,618.494,504.431,618.494"/>
				<path clip-path="url(#SVGID_32_)" fill="#010101" d="M552.988,602.541c-4.117,0.471-8.142-0.401-9.353,4.109
					c-0.417-9.134-28.151-15.227-48.368-7.156c-14.878,5.954-26.262-14.795-43.834-9.783c-16.232,4.612-26.966,31.186-8.846,51.858
					c5.394,6.163,1.407,4.72,10.513,33.972l7.412-30.035c15.685,1.069,33.454-2.532,44.617-3.937
					c8.39-1.056,33.296-2.538,36.044-15.577l7.855,49.549C553.483,635.674,571.628,604.316,552.988,602.541"/>
			</g>
		</g>
	</g>
	<path fill="#0F2138" d="M667.188,352.008c-2.476-4.592-6.162-8.453-10.605-11.176v-0.013c-1.132-0.674-2.318-1.304-3.53-1.838
		h-0.013c-3.608-1.597-23.787-2.462-27.995-2.462H361.883c-4.208,0-8.181,0.865-11.802,2.449c-1.239,0.547-2.398,1.177-3.53,1.864
		c-0.13,0.057-0.223,0.121-0.339,0.197c-4.3,2.71-7.882,6.513-10.292,11.01c-0.105,0.204-0.221,0.388-0.326,0.623
		c-2.045,4.001-3.217,8.555-3.217,13.364v549.904c0,1.565,0.13,3.129,0.377,4.656c0.078,0.503,0.17,1.011,0.273,1.508
		c0.065,0.273,0.13,0.547,0.196,0.82c0.183,0.846,0.431,1.679,0.704,2.5c0.103,0.248,0.181,0.534,0.286,0.782
		c0.103,0.286,0.208,0.547,0.312,0.82c0.157,0.407,0.326,0.782,0.509,1.145c0.183,0.407,0.351,0.77,0.56,1.164
		c0.286,0.572,0.612,1.17,0.964,1.743c1.03,1.724,2.215,3.32,3.557,4.809c0.455,0.483,0.898,0.96,1.393,1.406
		c0.366,0.337,0.717,0.681,1.108,1.005c0.743,0.649,1.523,1.247,2.318,1.806c0.013,0.032,0.025,0.045,0.025,0.045
		c0.417,0.286,0.848,0.56,1.251,0.82c1.224,0.782,2.527,1.444,3.869,2.042c3.621,1.59,7.595,2.474,11.802,2.474h279.342
		c4.208,0,8.207-0.884,11.828-2.487c1.212-0.534,2.398-1.145,3.53-1.838c4.456-2.735,8.142-6.602,10.618-11.214
		c2.253-4.154,3.53-8.924,3.53-13.993V366.027c0-5.069-1.277-9.834-3.53-13.987C667.2,352.027,667.188,352.027,667.188,352.008"/>
	<path fill="#11323F" d="M667.188,345.533c-2.476-4.592-6.162-8.453-10.605-11.163v-0.025c-1.132-0.674-2.318-1.285-3.53-1.819
		h-0.013c-3.608-1.603-23.787-2.481-27.995-2.481H361.883c-4.208,0-8.181,0.878-11.802,2.449c-1.239,0.566-2.398,1.177-3.53,1.876
		c-0.13,0.045-0.223,0.121-0.339,0.184c-4.3,2.722-7.882,6.513-10.292,11.023c-0.105,0.191-0.221,0.375-0.326,0.611
		c-2.045,4.014-3.217,8.555-3.217,13.376v549.891c0,1.565,0.13,3.142,0.377,4.656c0.078,0.515,0.17,1.011,0.273,1.508
		c0.065,0.273,0.13,0.56,0.196,0.82c0.183,0.859,0.431,1.692,0.704,2.5c0.103,0.261,0.181,0.534,0.286,0.795
		c0.103,0.273,0.208,0.547,0.312,0.808c0.157,0.407,0.326,0.782,0.509,1.164c0.183,0.388,0.351,0.751,0.56,1.145
		c0.286,0.585,0.612,1.183,0.964,1.743c1.03,1.724,2.215,3.32,3.557,4.809c0.455,0.483,0.898,0.96,1.393,1.418
		c0.366,0.324,0.717,0.668,1.108,0.992c0.743,0.649,1.523,1.247,2.318,1.826c0.013,0.013,0.025,0.038,0.025,0.038
		c0.417,0.273,0.848,0.547,1.251,0.808c1.224,0.782,2.527,1.457,3.869,2.055c3.621,1.577,7.595,2.462,11.802,2.462h279.342
		c4.208,0,8.207-0.884,11.828-2.487c1.212-0.534,2.398-1.145,3.53-1.838c4.456-2.722,8.142-6.59,10.618-11.214
		c2.253-4.154,3.53-8.924,3.53-13.993V359.565c0-5.063-1.277-9.834-3.53-13.987C667.2,345.565,667.188,345.565,667.188,345.533"/>
	<path fill="#193B4C" d="M667.188,343.917c-2.476-4.592-6.162-8.453-10.605-11.176v-0.013c-1.132-0.674-2.318-1.304-3.53-1.819
		h-0.013c-3.608-1.603-23.787-2.481-27.995-2.481H361.883c-4.208,0-8.181,0.878-11.802,2.449c-1.239,0.547-2.398,1.177-3.53,1.864
		c-0.13,0.057-0.223,0.134-0.339,0.197c-4.3,2.71-7.882,6.513-10.292,11.023c-0.105,0.191-0.221,0.375-0.326,0.611
		c-2.045,4.001-3.217,8.555-3.217,13.376V907.84c0,1.565,0.13,3.142,0.377,4.656c0.078,0.515,0.17,1.011,0.273,1.508
		c0.065,0.273,0.13,0.56,0.196,0.82c0.183,0.846,0.431,1.679,0.704,2.5c0.103,0.248,0.181,0.534,0.286,0.782
		c0.103,0.286,0.208,0.56,0.312,0.821c0.157,0.407,0.326,0.782,0.509,1.145c0.183,0.407,0.351,0.77,0.56,1.164
		c0.286,0.585,0.612,1.183,0.964,1.743c1.03,1.724,2.215,3.32,3.557,4.809c0.455,0.483,0.898,0.96,1.393,1.406
		c0.366,0.337,0.717,0.681,1.108,1.005c0.743,0.649,1.523,1.247,2.318,1.826c0.013,0.013,0.025,0.025,0.025,0.025
		c0.417,0.286,0.848,0.56,1.251,0.82c1.224,0.782,2.527,1.457,3.869,2.055c3.621,1.577,7.595,2.462,11.802,2.462h279.342
		c4.208,0,8.207-0.884,11.828-2.487c1.212-0.534,2.398-1.145,3.53-1.838c4.456-2.735,8.142-6.602,10.618-11.214
		c2.253-4.154,3.53-8.924,3.53-13.993V357.949c0-5.063-1.277-9.846-3.53-13.987C667.2,343.936,667.188,343.936,667.188,343.917"/>
	<rect x="343.572" y="380.351" fill="#FFFFFF" width="315.948" height="485.699"/>
	<g opacity="0.28">
		<g>
			<defs>
				<rect id="SVGID_37_" x="653.072" y="380.351" width="17.716" height="485.763"/>
			</defs>
			<clipPath id="SVGID_38_">
				<use xlink:href="#SVGID_37_"  overflow="visible"/>
			</clipPath>
			<rect x="653.032" y="380.351" clip-path="url(#SVGID_38_)" fill="#F7FCFE" width="17.703" height="485.737"/>
		</g>
	</g>
	<g opacity="0.28">
		<g>
			<defs>
				<rect id="SVGID_39_" x="656.589" y="380.351" width="10.551" height="485.763"/>
			</defs>
			<clipPath id="SVGID_40_">
				<use xlink:href="#SVGID_39_"  overflow="visible"/>
			</clipPath>
			<rect x="656.575" y="380.351" clip-path="url(#SVGID_40_)" fill="#F7FCFE" width="10.616" height="485.737"/>
		</g>
	</g>
	<g opacity="0.14">
		<g>
			<defs>
				<rect id="SVGID_41_" x="653.072" y="865.98" width="17.716" height="68.911"/>
			</defs>
			<clipPath id="SVGID_42_">
				<use xlink:href="#SVGID_41_"  overflow="visible"/>
			</clipPath>
			<path clip-path="url(#SVGID_42_)" fill="#F7FCFE" d="M653.035,934.936c1.224-0.528,2.409-1.145,3.543-1.845
				c1.927-1.177,3.699-2.595,5.302-4.173l0.183-0.191c0.716-0.706,1.38-1.45,2.018-2.22c0.092-0.127,0.196-0.242,0.288-0.363
				c0.246-0.312,0.52-0.611,0.755-0.922c0.755-1.056,1.471-2.175,2.083-3.327c1.407-2.602,2.436-5.47,3.01-8.491
				c0.339-1.781,0.52-3.632,0.52-5.496v-41.853h-17.702V934.936z"/>
		</g>
	</g>
	<g opacity="0.14">
		<g>
			<defs>
				<rect id="SVGID_43_" x="653.072" y="330.846" width="17.716" height="49.505"/>
			</defs>
			<clipPath id="SVGID_44_">
				<use xlink:href="#SVGID_43_"  overflow="visible"/>
			</clipPath>
			<path clip-path="url(#SVGID_44_)" fill="#F7FCFE" d="M667.207,343.956c0-0.025-0.014-0.025-0.014-0.038
				c-2.474-4.586-6.162-8.453-10.616-11.176c0,0-0.013,0-0.013-0.013c-1.134-0.674-2.306-1.304-3.53-1.826v49.454h17.703v-22.409
				c0-3.282-0.549-6.437-1.538-9.382C668.665,346.958,668,345.419,667.207,343.956"/>
		</g>
	</g>
	<g opacity="0.14">
		<g>
			<defs>
				<rect id="SVGID_45_" x="656.589" y="332.672" width="10.551" height="47.679"/>
			</defs>
			<clipPath id="SVGID_46_">
				<use xlink:href="#SVGID_45_"  overflow="visible"/>
			</clipPath>
			<path clip-path="url(#SVGID_46_)" fill="#F7FCFE" d="M656.584,332.735c0,0-0.014,0-0.014-0.013v47.629h10.617v-36.434
				C664.712,339.331,661.026,335.464,656.584,332.735"/>
		</g>
	</g>
	<g opacity="0.14">
		<g>
			<defs>
				<rect id="SVGID_47_" x="656.589" y="865.98" width="10.551" height="67.092"/>
			</defs>
			<clipPath id="SVGID_48_">
				<use xlink:href="#SVGID_47_"  overflow="visible"/>
			</clipPath>
			<path clip-path="url(#SVGID_48_)" fill="#F7FCFE" d="M656.572,933.092c4.467-2.722,8.142-6.59,10.616-11.188v-55.846h-10.616
				V933.092z"/>
		</g>
	</g>
	<g opacity="0.28">
		<g>
			<defs>
				<rect id="SVGID_49_" x="332.357" y="380.351" width="17.716" height="485.629"/>
			</defs>
			<clipPath id="SVGID_50_">
				<use xlink:href="#SVGID_49_"  overflow="visible"/>
			</clipPath>
			<rect x="332.382" y="380.351" clip-path="url(#SVGID_50_)" fill="#F7FCFE" width="17.691" height="485.699"/>
		</g>
	</g>
	<g opacity="0.28">
		<g>
			<defs>
				<rect id="SVGID_51_" x="335.874" y="380.351" width="10.681" height="485.629"/>
			</defs>
			<clipPath id="SVGID_52_">
				<use xlink:href="#SVGID_51_"  overflow="visible"/>
			</clipPath>
			<rect x="335.925" y="380.351" clip-path="url(#SVGID_52_)" fill="#F7FCFE" width="10.616" height="485.686"/>
		</g>
	</g>
	<g opacity="0.14">
		<g>
			<defs>
				<rect id="SVGID_53_" x="332.357" y="865.98" width="17.716" height="68.911"/>
			</defs>
			<clipPath id="SVGID_54_">
				<use xlink:href="#SVGID_53_"  overflow="visible"/>
			</clipPath>
			<path clip-path="url(#SVGID_54_)" fill="#F7FCFE" d="M332.382,907.84c0,1.565,0.129,3.142,0.364,4.656
				c0.091,0.509,0.169,1.011,0.286,1.508c0.065,0.273,0.105,0.56,0.183,0.82c0.208,0.846,0.442,1.679,0.716,2.5
				c0.092,0.248,0.183,0.534,0.301,0.782c0.091,0.286,0.196,0.56,0.299,0.821c0.143,0.407,0.313,0.782,0.509,1.151
				c0.169,0.401,0.351,0.763,0.547,1.158c0.091,0.21,0.208,0.426,0.326,0.623c0,0.025,0.013,0.025,0.013,0.038
				s0.013,0.013,0.013,0.025c0.183,0.343,0.391,0.706,0.599,1.03c-0.013,0.013,0.013,0.025,0.013,0.025
				c0.261,0.42,0.522,0.871,0.795,1.266c0.273,0.413,0.572,0.82,0.859,1.234c0.288,0.407,0.599,0.782,0.925,1.177
				c0.313,0.388,0.638,0.77,0.991,1.132c0.221,0.248,0.442,0.483,0.677,0.719c0.221,0.248,0.468,0.477,0.703,0.687
				c0.364,0.337,0.73,0.681,1.107,1.005c0.366,0.324,0.755,0.649,1.147,0.948s0.795,0.591,1.186,0.865
				c0.013,0.025,0.025,0.038,0.025,0.038c0.429,0.286,0.821,0.56,1.25,0.82c0.092,0.076,0.208,0.165,0.313,0.223
				c1.134,0.7,2.318,1.323,3.543,1.845v-68.879h-17.689V907.84z"/>
		</g>
	</g>
	<g opacity="0.14">
		<g>
			<defs>
				<rect id="SVGID_55_" x="332.357" y="330.846" width="17.716" height="49.505"/>
			</defs>
			<clipPath id="SVGID_56_">
				<use xlink:href="#SVGID_55_"  overflow="visible"/>
			</clipPath>
			<path clip-path="url(#SVGID_56_)" fill="#F7FCFE" d="M346.21,332.939c-4.3,2.71-7.868,6.513-10.292,11.023
				c-0.118,0.184-0.221,0.375-0.339,0.611c-0.639,1.266-1.212,2.608-1.668,3.988c-1.003,2.958-1.536,6.113-1.536,9.395v22.402
				h17.703v-49.473c-1.226,0.547-2.411,1.17-3.544,1.851C346.418,332.786,346.313,332.875,346.21,332.939"/>
		</g>
	</g>
	<g opacity="0.14">
		<g>
			<defs>
				<rect id="SVGID_57_" x="335.874" y="332.672" width="10.681" height="47.679"/>
			</defs>
			<clipPath id="SVGID_58_">
				<use xlink:href="#SVGID_57_"  overflow="visible"/>
			</clipPath>
			<path clip-path="url(#SVGID_58_)" fill="#F7FCFE" d="M335.919,343.943v36.415h10.616v-47.616
				c-0.105,0.064-0.221,0.121-0.326,0.197C341.898,335.649,338.328,339.452,335.919,343.943"/>
		</g>
	</g>
	<g opacity="0.14">
		<g>
			<defs>
				<rect id="SVGID_59_" x="335.874" y="865.98" width="10.681" height="67.092"/>
			</defs>
			<clipPath id="SVGID_60_">
				<use xlink:href="#SVGID_59_"  overflow="visible"/>
			</clipPath>
			<path clip-path="url(#SVGID_60_)" fill="#F7FCFE" d="M335.925,921.897c2.474,4.611,6.16,8.472,10.616,11.195v-67.035h-10.616
				V921.897z"/>
		</g>
	</g>
	<g opacity="0.25">
		<g>
			<defs>
				<rect id="SVGID_61_" x="476.039" y="882.264" width="48.46" height="38.819"/>
			</defs>
			<clipPath id="SVGID_62_">
				<use xlink:href="#SVGID_61_"  overflow="visible"/>
			</clipPath>
			<path clip-path="url(#SVGID_62_)" fill="#F7FCFE" d="M510.819,882.219h-21.103c-7.555,0-13.717,6.163-13.717,13.733v11.379
				c0,7.556,6.162,13.72,13.717,13.72h21.103c7.555,0,13.717-6.164,13.717-13.72v-11.379
				C524.536,888.383,518.374,882.219,510.819,882.219 M519.678,907.331c0,4.885-3.974,8.873-8.859,8.873h-21.103
				c-4.885,0-8.859-3.988-8.859-8.873v-11.379c0-4.904,3.974-8.873,8.859-8.873h21.103c4.885,0,8.859,3.969,8.859,8.873V907.331z"/>
		</g>
	</g>
	<g opacity="0.25">
		<g>
			<defs>
				<rect id="SVGID_63_" x="461.449" y="349.089" width="79.072" height="10.552"/>
			</defs>
			<clipPath id="SVGID_64_">
				<use xlink:href="#SVGID_63_"  overflow="visible"/>
			</clipPath>
			<path clip-path="url(#SVGID_64_)" fill="#F7FCFE" d="M536.96,349.07h-71.985c-1.954,0-3.544,1.59-3.544,3.549v3.543
				c0,1.953,1.59,3.53,3.544,3.53h71.985c1.953,0,3.543-1.577,3.543-3.53v-3.543C540.503,350.66,538.912,349.07,536.96,349.07"/>
		</g>
	</g>
	<g opacity="0.25">
		<g>
			<defs>
				<rect id="SVGID_65_" x="596.145" y="346.742" width="15.631" height="15.634"/>
			</defs>
			<clipPath id="SVGID_66_">
				<use xlink:href="#SVGID_65_"  overflow="visible"/>
			</clipPath>
			<path clip-path="url(#SVGID_66_)" fill="#F7FCFE" d="M603.95,350.081c2.462,0,4.467,2.004,4.467,4.465
				c0,2.449-2.005,4.459-4.467,4.459c-2.463,0-4.468-2.01-4.468-4.459C599.482,352.085,601.487,350.081,603.95,350.081
				 M603.95,346.691c-4.338,0-7.855,3.517-7.855,7.855c0,4.338,3.517,7.843,7.855,7.843c4.336,0,7.854-3.505,7.854-7.843
				C611.804,350.208,608.286,346.691,603.95,346.691"/>
		</g>
	</g>
	<g>
		<defs>
			<path id="SVGID_67_" d="M590.244,442.202c-0.273,0.197-0.351,0.585-0.118,0.859l2.71,3.607c-0.196,0.299-0.313,0.655-0.313,1.018
				c0,1.018,0.808,1.864,1.851,1.864c0.52,0,0.989-0.248,1.341-0.598h3.141c0.69,0,1.263-0.572,1.263-1.266s-0.573-1.24-1.263-1.24
				h-3.141c-0.351-0.363-0.82-0.598-1.341-0.598c-0.196,0-0.366,0.025-0.547,0.083l-2.724-3.613
				c-0.116-0.153-0.299-0.248-0.482-0.248C590.491,442.069,590.348,442.107,590.244,442.202"/>
		</defs>
		<clipPath id="SVGID_68_">
			<use xlink:href="#SVGID_67_"  overflow="visible"/>
		</clipPath>
		
			<linearGradient id="SVGID_69_" gradientUnits="userSpaceOnUse" x1="-837.2053" y1="3967.9043" x2="-824.1787" y2="3967.9043" gradientTransform="matrix(1.6019 -1.6019 -1.6019 -1.6019 8281.5508 5471.7852)">
			<stop  offset="0" style="stop-color:#056637"/>
			<stop  offset="0.33" style="stop-color:#0A8B44"/>
			<stop  offset="0.66" style="stop-color:#36AC4A"/>
			<stop  offset="1" style="stop-color:#9AC341"/>
		</linearGradient>
		<polygon clip-path="url(#SVGID_68_)" fill="url(#SVGID_69_)" points="586.156,445.809 595.005,436.961 603.856,445.809 
			595.005,454.663 		"/>
	</g>
	<g>
		<defs>
			<path id="SVGID_70_" d="M585.45,440.192l1.277,0.967c1.837-2.36,4.584-3.715,7.568-3.715c5.276,0,9.549,4.274,9.549,9.547
				c0,5.279-4.273,9.554-9.549,9.554c-1.002,0-1.98-0.159-2.918-0.471l-0.495,1.565c1.094,0.337,2.253,0.522,3.412,0.522
				c6.162,0,11.164-5.006,11.164-11.169c0-6.157-5.003-11.163-11.164-11.163C590.817,435.829,587.573,437.419,585.45,440.192"/>
		</defs>
		<clipPath id="SVGID_71_">
			<use xlink:href="#SVGID_70_"  overflow="visible"/>
		</clipPath>
		
			<linearGradient id="SVGID_72_" gradientUnits="userSpaceOnUse" x1="-824.96" y1="3976.5532" x2="-811.9333" y2="3976.5532" gradientTransform="matrix(1.6336 -1.6336 -1.6336 -1.6336 8428.3926 5606.061)">
			<stop  offset="0" style="stop-color:#056637"/>
			<stop  offset="0.33" style="stop-color:#0A8B44"/>
			<stop  offset="0.66" style="stop-color:#36AC4A"/>
			<stop  offset="1" style="stop-color:#9AC341"/>
		</linearGradient>
		<polygon clip-path="url(#SVGID_71_)" fill="url(#SVGID_72_)" points="574.284,447.004 595.454,425.83 616.624,447.004 
			595.454,468.173 		"/>
	</g>
	<path fill="#FFFFFF" d="M436.606,442.679l-17.926-10.342l-1.433-0.833l-1.42,0.833l-17.924,10.342l-1.42,0.821v1.66v20.685v1.654
		l1.42,0.808l17.924,10.355l1.42,0.833l1.433-0.833l17.926-10.355l1.418-0.808v-1.654V445.16v-1.66L436.606,442.679z
		 M436.945,445.675v19.623v1.565l-1.355,0.776l-16.988,9.802l-1.355,0.776l-1.342-0.776l-16.986-9.802l-1.355-0.776v-1.565v-19.623
		v-1.558l1.355-0.782l16.986-9.808l1.342-0.77l1.355,0.77l16.988,9.808l1.355,0.782V445.675z"/>
	<polygon fill="#010101" points="400.269,447.443 400.269,464.668 409.491,459.338 	"/>
	<polygon fill="#010101" points="434.235,464.668 434.235,447.45 425.012,459.344 	"/>
	<polygon fill="#010101" points="418.111,468.255 417.798,468.662 417.798,474.788 433.69,465.603 424.349,460.209 	"/>
	<path fill="#010101" d="M400.269,445.675"/>
	<polygon fill="#010101" points="411.044,459.579 411.108,459.662 417.257,467.594 413.428,462.658 	"/>
	<polygon fill="#010101" points="410.16,460.203 400.819,465.597 416.712,474.781 416.712,468.662 416.398,468.255 	"/>
	<path fill="#010101" d="M418.609,433.526l-1.355-0.77l-1.355,0.77l-16.973,9.808l-1.355,0.782v1.558v19.623v1.565l1.355,0.776
		l16.973,9.802l1.355,0.776l1.355-0.776l16.988-9.802l1.355-0.776v-1.565v-19.623v-1.558l-1.355-0.782L418.609,433.526z
		 M435.323,445.675v19.623v0.623l-0.549,0.299l-16.986,9.808l-0.534,0.312l-0.547-0.312l-16.973-9.808l-0.547-0.299v-0.623v-19.623
		v-0.623l0.547-0.299l16.973-9.808l0.547-0.324l0.534,0.324l16.986,9.808l0.549,0.299V445.675z"/>
	<polygon fill="#010101" points="424.071,458.791 434.23,445.675 423.68,459.312 	"/>
	<polygon fill="#010101" points="433.122,445.039 417.255,435.886 401.389,445.039 417.255,453.117 	"/>
	<path fill="#FFFFFF" d="M417.791,434.945l-0.534-0.318l-0.547,0.318l-16.986,9.808l-0.534,0.299v0.623v19.616v0.63l0.534,0.299
		l16.986,9.808l0.547,0.324l0.534-0.324l16.986-9.808l0.547-0.299v-0.63v-19.616v-0.623l-0.547-0.299L417.791,434.945z
		 M417.257,435.88l15.867,9.159l-15.867,8.078l-15.867-8.078L417.257,435.88z M416.71,474.788l-15.892-9.191l9.339-5.394l6.24,8.059
		l0.313,0.407V474.788z M400.271,464.668V447.45l9.223,11.894L400.271,464.668z M417.791,474.788v-6.119l0.313-0.407l6.24-8.059
		l9.352,5.394L417.791,474.788z M434.23,464.668l-9.209-5.324l9.209-11.894V464.668z M424.071,458.791l-0.391,0.522l-6.423,8.288
		l-6.149-7.944l-0.064-0.07l-10.773-13.911l14.55,7.429l2.436,1.234l16.973-8.663L424.071,458.791z"/>
	<path fill="#010101" d="M414.816,453.092l-14.552-7.41L414.816,453.092z"/>
	<g>
		<defs>
			<path id="SVGID_73_" d="M414.815,453.104l-14.55-7.423L414.815,453.104z"/>
		</defs>
		<clipPath id="SVGID_74_">
			<use xlink:href="#SVGID_73_"  overflow="visible"/>
		</clipPath>
		
			<linearGradient id="SVGID_75_" gradientUnits="userSpaceOnUse" x1="-366.7885" y1="3760.0488" x2="-353.7619" y2="3760.0488" gradientTransform="matrix(2.6074 0 0 -2.6074 1356.6232 10253.2881)">
			<stop  offset="0" style="stop-color:#34994B"/>
			<stop  offset="0.3397" style="stop-color:#6FB64C"/>
			<stop  offset="1" style="stop-color:#A2C851"/>
		</linearGradient>
		<rect x="400.265" y="445.681" clip-path="url(#SVGID_74_)" fill="url(#SVGID_75_)" width="14.548" height="7.429"/>
	</g>
	<polygon fill="#010101" points="417.252,454.338 417.252,467.6 423.4,459.656 423.673,459.319 434.238,445.681 	"/>
	<g>
		<defs>
			<polygon id="SVGID_76_" points="417.263,454.345 417.263,467.6 423.4,459.656 423.673,459.319 434.237,445.681 			"/>
		</defs>
		<clipPath id="SVGID_77_">
			<use xlink:href="#SVGID_76_"  overflow="visible"/>
		</clipPath>
		
			<linearGradient id="SVGID_78_" gradientUnits="userSpaceOnUse" x1="-366.7852" y1="3757.4836" x2="-353.7585" y2="3757.4836" gradientTransform="matrix(2.6074 0 0 -2.6074 1356.624 10253.8652)">
			<stop  offset="0" style="stop-color:#34994B"/>
			<stop  offset="0.3397" style="stop-color:#6FB64C"/>
			<stop  offset="1" style="stop-color:#A2C851"/>
		</linearGradient>
		<rect x="417.263" y="445.681" clip-path="url(#SVGID_77_)" fill="url(#SVGID_78_)" width="16.973" height="21.925"/>
	</g>
	<path fill="#010101" d="M413.429,462.658l3.816,4.942L413.429,462.658z"/>
	<g>
		<defs>
			<path id="SVGID_79_" d="M417.263,467.6l-3.843-4.949L417.263,467.6z"/>
		</defs>
		<clipPath id="SVGID_80_">
			<use xlink:href="#SVGID_79_"  overflow="visible"/>
		</clipPath>
		
			<linearGradient id="SVGID_81_" gradientUnits="userSpaceOnUse" x1="-366.7855" y1="3754.4783" x2="-353.7589" y2="3754.4783" gradientTransform="matrix(2.6074 0 0 -2.6074 1356.6232 10254.4961)">
			<stop  offset="0" style="stop-color:#34994B"/>
			<stop  offset="0.3397" style="stop-color:#6FB64C"/>
			<stop  offset="1" style="stop-color:#A2C851"/>
		</linearGradient>
		<rect x="413.42" y="462.658" clip-path="url(#SVGID_80_)" fill="url(#SVGID_81_)" width="3.843" height="4.942"/>
	</g>
	<path fill="#FFFFFF" d="M417.252,467.594"/>
	<g>
		<defs>
			<path id="SVGID_82_" d="M417.251,467.588"/>
		</defs>
		<clipPath id="SVGID_83_">
			<use xlink:href="#SVGID_82_"  overflow="visible"/>
		</clipPath>
		
			<linearGradient id="SVGID_84_" gradientUnits="userSpaceOnUse" x1="417.2506" y1="467.5939" x2="417.2506" y2="467.5939" gradientTransform="matrix(0.0049 0 0 -0.0049 840.0204 -1297.9559)">
			<stop  offset="0" style="stop-color:#34994B"/>
			<stop  offset="0.3397" style="stop-color:#6FB64C"/>
			<stop  offset="1" style="stop-color:#A2C851"/>
		</linearGradient>
		<path clip-path="url(#SVGID_83_)" fill="url(#SVGID_84_)" d="M417.251,467.594L417.251,467.594z"/>
	</g>
	<polygon fill="#FFFFFF" points="417.252,467.594 417.252,467.594 423.673,459.312 423.4,459.662 	"/>
	<g>
		<defs>
			<polygon id="SVGID_85_" points="423.4,459.656 417.263,467.6 423.673,459.319 			"/>
		</defs>
		<clipPath id="SVGID_86_">
			<use xlink:href="#SVGID_85_"  overflow="visible"/>
		</clipPath>
		
			<linearGradient id="SVGID_87_" gradientUnits="userSpaceOnUse" x1="-366.7855" y1="3755.0681" x2="-353.7589" y2="3755.0681" gradientTransform="matrix(2.6074 0 0 -2.6074 1356.6232 10254.3682)">
			<stop  offset="0" style="stop-color:#34994B"/>
			<stop  offset="0.3397" style="stop-color:#6FB64C"/>
			<stop  offset="1" style="stop-color:#A2C851"/>
		</linearGradient>
		<rect x="417.263" y="459.325" clip-path="url(#SVGID_86_)" fill="url(#SVGID_87_)" width="6.408" height="8.275"/>
	</g>
	<polygon fill="#010101" points="400.269,445.675 400.269,445.675 410.429,458.797 411.041,459.579 413.425,462.664 	"/>
	<g>
		<defs>
			<path id="SVGID_88_" d="M413.42,462.652l-2.369-3.059l-0.549-0.706L413.42,462.652z M410.438,458.797l0.064,0.089l-10.237-13.205
				L410.438,458.797z"/>
		</defs>
		<clipPath id="SVGID_89_">
			<use xlink:href="#SVGID_88_"  overflow="visible"/>
		</clipPath>
		
			<linearGradient id="SVGID_90_" gradientUnits="userSpaceOnUse" x1="-1261.2472" y1="4182.5654" x2="-1248.2206" y2="4182.5654" gradientTransform="matrix(0 -1.6824 1.6824 0 -6629.7554 -1654.2831)">
			<stop  offset="0" style="stop-color:#096939"/>
			<stop  offset="0.3795" style="stop-color:#34994B"/>
			<stop  offset="1" style="stop-color:#6FB64C"/>
		</linearGradient>
		<rect x="400.265" y="445.694" clip-path="url(#SVGID_89_)" fill="url(#SVGID_90_)" width="13.155" height="16.964"/>
	</g>
	<path fill="#FFFFFF" d="M417.252,454.338l-2.436-1.247L417.252,454.338z"/>
	<g>
		<defs>
			<path id="SVGID_91_" d="M417.263,454.345l-2.449-1.24L417.263,454.345z"/>
		</defs>
		<clipPath id="SVGID_92_">
			<use xlink:href="#SVGID_91_"  overflow="visible"/>
		</clipPath>
		
			<linearGradient id="SVGID_93_" gradientUnits="userSpaceOnUse" x1="-1261.2472" y1="4187.6128" x2="-1248.2206" y2="4187.6128" gradientTransform="matrix(0 -1.6824 1.6824 0 -6629.0503 -1654.2831)">
			<stop  offset="0" style="stop-color:#096939"/>
			<stop  offset="0.3795" style="stop-color:#34994B"/>
			<stop  offset="1" style="stop-color:#6FB64C"/>
		</linearGradient>
		<rect x="414.815" y="453.111" clip-path="url(#SVGID_92_)" fill="url(#SVGID_93_)" width="2.449" height="1.24"/>
	</g>
	<polygon fill="#FFFFFF" points="400.269,445.675 400.269,445.675 411.041,459.579 410.429,458.797 	"/>
	<g>
		<defs>
			<polygon id="SVGID_94_" points="410.438,458.797 411.051,459.592 400.265,445.681 			"/>
		</defs>
		<clipPath id="SVGID_95_">
			<use xlink:href="#SVGID_94_"  overflow="visible"/>
		</clipPath>
		
			<linearGradient id="SVGID_96_" gradientUnits="userSpaceOnUse" x1="-1261.2472" y1="4181.9155" x2="-1248.2206" y2="4181.9155" gradientTransform="matrix(0 -1.6824 1.6824 0 -6629.8472 -1654.2831)">
			<stop  offset="0" style="stop-color:#096939"/>
			<stop  offset="0.3795" style="stop-color:#34994B"/>
			<stop  offset="1" style="stop-color:#6FB64C"/>
		</linearGradient>
		<rect x="400.265" y="445.694" clip-path="url(#SVGID_95_)" fill="url(#SVGID_96_)" width="10.786" height="13.904"/>
	</g>
	<path fill="#FFFFFF" d="M417.252,467.594"/>
	<g>
		<defs>
			<path id="SVGID_97_" d="M417.251,467.588"/>
		</defs>
		<clipPath id="SVGID_98_">
			<use xlink:href="#SVGID_97_"  overflow="visible"/>
		</clipPath>
		
			<linearGradient id="SVGID_99_" gradientUnits="userSpaceOnUse" x1="417.2506" y1="467.5939" x2="417.2506" y2="467.5939" gradientTransform="matrix(0 -0.0097 0.0097 0 795.984 -1321.4237)">
			<stop  offset="0" style="stop-color:#096939"/>
			<stop  offset="0.3795" style="stop-color:#34994B"/>
			<stop  offset="1" style="stop-color:#6FB64C"/>
		</linearGradient>
		<path clip-path="url(#SVGID_98_)" fill="url(#SVGID_99_)" d="M417.251,467.594L417.251,467.594z"/>
	</g>
	<polygon fill="#010101" points="413.429,462.658 417.246,467.6 417.246,454.338 414.81,453.098 400.272,445.675 	"/>
	<g>
		<defs>
			<polygon id="SVGID_100_" points="413.42,462.652 417.263,467.6 417.263,454.345 414.815,453.104 400.265,445.681 			"/>
		</defs>
		<clipPath id="SVGID_101_">
			<use xlink:href="#SVGID_100_"  overflow="visible"/>
		</clipPath>
		
			<linearGradient id="SVGID_102_" gradientUnits="userSpaceOnUse" x1="-366.7894" y1="3757.479" x2="-353.7628" y2="3757.479" gradientTransform="matrix(2.6074 0 0 -2.6074 1356.6205 10253.7852)">
			<stop  offset="0" style="stop-color:#34994B"/>
			<stop  offset="0.3397" style="stop-color:#6FB64C"/>
			<stop  offset="1" style="stop-color:#A2C851"/>
		</linearGradient>
		<rect x="400.265" y="445.681" clip-path="url(#SVGID_101_)" fill="url(#SVGID_102_)" width="16.999" height="21.925"/>
	</g>
	<g>
		<defs>
			<polygon id="SVGID_103_" points="413.42,462.652 417.263,467.6 417.263,454.345 414.815,453.104 400.265,445.681 			"/>
		</defs>
		<clipPath id="SVGID_104_">
			<use xlink:href="#SVGID_103_"  overflow="visible"/>
		</clipPath>
		
			<linearGradient id="SVGID_105_" gradientUnits="userSpaceOnUse" x1="-1261.2584" y1="4183.6191" x2="-1248.2261" y2="4183.6191" gradientTransform="matrix(0 -1.6824 1.6824 0 -6629.583 -1654.282)">
			<stop  offset="0" style="stop-color:#096939"/>
			<stop  offset="0.3795" style="stop-color:#34994B"/>
			<stop  offset="1" style="stop-color:#6FB64C"/>
		</linearGradient>
		<rect x="400.265" y="445.681" clip-path="url(#SVGID_104_)" fill="url(#SVGID_105_)" width="16.997" height="21.925"/>
	</g>
	<path fill="#FFFFFF" d="M417.252,467.594"/>
	<g>
		<defs>
			<path id="SVGID_106_" d="M417.251,467.588"/>
		</defs>
		<clipPath id="SVGID_107_">
			<use xlink:href="#SVGID_106_"  overflow="visible"/>
		</clipPath>
		
			<linearGradient id="SVGID_108_" gradientUnits="userSpaceOnUse" x1="417.2506" y1="467.5939" x2="417.2506" y2="467.5939" gradientTransform="matrix(0.0049 0 0 -0.0049 840.0204 -1297.9556)">
			<stop  offset="0" style="stop-color:#34994B"/>
			<stop  offset="0.3397" style="stop-color:#6FB64C"/>
			<stop  offset="1" style="stop-color:#A2C851"/>
		</linearGradient>
		<path clip-path="url(#SVGID_107_)" fill="url(#SVGID_108_)" d="M417.251,467.594L417.251,467.594z"/>
	</g>
	<g>
		<defs>
			<path id="SVGID_109_" d="M417.251,467.588"/>
		</defs>
		<clipPath id="SVGID_110_">
			<use xlink:href="#SVGID_109_"  overflow="visible"/>
		</clipPath>
		
			<linearGradient id="SVGID_111_" gradientUnits="userSpaceOnUse" x1="417.2506" y1="467.5939" x2="417.2506" y2="467.5939" gradientTransform="matrix(0 -0.0049 0.0049 0 817.5207 -1320.4581)">
			<stop  offset="0" style="stop-color:#096939"/>
			<stop  offset="0.3795" style="stop-color:#34994B"/>
			<stop  offset="1" style="stop-color:#6FB64C"/>
		</linearGradient>
		<path clip-path="url(#SVGID_110_)" fill="url(#SVGID_111_)" d="M417.251,467.594L417.251,467.594z"/>
	</g>
	<polygon fill="#010101" points="463.889,457.391 470.362,457.391 470.362,453.721 463.889,453.721 463.889,450.999 
		470.726,450.999 470.726,447.157 459.159,447.157 459.159,464.185 471.143,464.185 471.143,460.298 463.889,460.298 	"/>
	<path fill="#010101" d="M486.09,455.432c0.534-0.827,0.808-1.826,0.808-3.028c0-0.96-0.17-1.781-0.509-2.449
		c-0.351-0.674-0.808-1.221-1.393-1.641c-0.599-0.413-1.29-0.7-2.085-0.897c-0.795-0.172-1.641-0.261-2.567-0.261h-6.825v17.015
		h4.793v-6.049h1.108l3.139,6.049h5.341l-3.974-6.959C484.839,456.838,485.556,456.234,486.09,455.432 M481.857,453.524
		c-0.13,0.248-0.288,0.433-0.496,0.579c-0.196,0.14-0.429,0.248-0.677,0.299c-0.246,0.064-0.507,0.089-0.781,0.089h-1.59v-3.492
		h1.616c0.574,0,1.081,0.095,1.498,0.312c0.417,0.21,0.625,0.642,0.625,1.278C482.051,452.977,481.986,453.282,481.857,453.524"/>
	<rect x="488.845" y="447.151" fill="#010101" width="4.845" height="17.027"/>
	<path fill="#010101" d="M508.777,448.983c-0.886-0.661-1.889-1.132-3.034-1.406c-1.147-0.286-2.333-0.413-3.57-0.413h-6.318v17.008
		h6.461c1.199,0,2.371-0.165,3.505-0.496c1.132-0.337,2.123-0.846,2.996-1.546c0.873-0.693,1.563-1.577,2.085-2.659
		c0.533-1.081,0.781-2.36,0.781-3.855c0-1.616-0.261-2.958-0.795-4.039C510.355,450.496,509.65,449.638,508.777,448.983
		 M506.212,457.735c-0.248,0.592-0.587,1.056-1.016,1.412c-0.418,0.375-0.913,0.623-1.485,0.782
		c-0.561,0.153-1.174,0.229-1.798,0.229h-1.212v-9.051h1.29c0.639,0,1.239,0.076,1.786,0.235c0.56,0.159,1.054,0.388,1.471,0.731
		c0.417,0.35,0.73,0.808,0.978,1.368c0.246,0.56,0.364,1.272,0.364,2.118C506.589,456.425,506.459,457.15,506.212,457.735"/>
	<polygon fill="#010101" points="449.533,457.531 445.767,447.125 440.907,447.125 447.096,464.178 451.942,464.178 
		458.221,447.125 453.362,447.125 	"/>
	<path fill="#010101" d="M522.088,446.712c-4.937,0-8.937,4.001-8.937,8.937c0,4.942,3.999,8.949,8.937,8.949
		c4.936,0,8.949-4.007,8.949-8.949C531.038,450.713,527.024,446.712,522.088,446.712 M522.076,460.025
		c-2.423,0-4.378-1.953-4.378-4.376c0-2.411,1.954-4.376,4.378-4.376c2.422,0,4.376,1.965,4.376,4.376
		C526.452,458.072,524.498,460.025,522.076,460.025"/>
	<path fill="#010101" d="M541.31,460.025c-2.423,0-4.365-1.953-4.365-4.376c0-2.411,1.967-4.376,4.39-4.376
		c1.784,0,3.335,1.056,4.025,2.582l4.403-1.145c-1.224-3.492-4.534-5.998-8.441-5.998c-4.937,0-8.949,4.001-8.949,8.937
		c0,4.942,4.012,8.949,8.949,8.949c3.869,0,7.151-2.462,8.402-5.896l-4.403-1.151C544.605,459.013,543.055,460.025,541.31,460.025"
		/>
	<text transform="matrix(1 0 0 1 552.9657 464.0135)" fill="#26984D" font-family="'Roboto-BlackItalic'" font-size="25.0254">HR</text>
	<g>
		<defs>
			<rect id="SVGID_112_" x="390.663" y="523.892" width="220.606" height="249.108"/>
		</defs>
		<clipPath id="SVGID_113_">
			<use xlink:href="#SVGID_112_"  overflow="visible"/>
		</clipPath>
		<rect x="390.677" y="523.892" clip-path="url(#SVGID_113_)" fill="#F2F2F2" width="220.592" height="313.408"/>
		<path clip-path="url(#SVGID_113_)" fill="#EFC54C" d="M527.495,678.36h-52.941c0.509,2.646,0.704,5.216,0.625,7.754
			c-0.312,8.402-3.804,16.258-9.143,24.011h69.953c-5.367-9.019-8.598-16.169-8.976-24.151
			C526.896,683.538,527.051,681.032,527.495,678.36"/>
		<path clip-path="url(#SVGID_113_)" fill="#102947" d="M553.192,708.701l-52.264,128.587h110.335l-6.787-82.975
			C604.476,734.48,584.806,717.733,553.192,708.701"/>
		<path clip-path="url(#SVGID_113_)" fill="#FFFFFF" d="M519.563,701.233h-0.014c-5.731,4.497-13.17,9.369-18.64,9.433v126.373
			l0.417-0.98l44.851-108.207l7.841-18.878c-6.617-1.915-25.765-15.348-25.765-15.348S524.552,697.302,519.563,701.233"/>
		<path clip-path="url(#SVGID_113_)" fill="#FFFFFF" d="M500.927,710.634v126.412l53.096-128.078
			c-6.631-1.889-25.767-15.342-25.767-15.342S511.126,710.545,500.927,710.634"/>
		<path clip-path="url(#SVGID_113_)" fill="#102947" d="M397.471,754.307l-6.788,82.981h110.337l-52.264-128.587
			C417.139,717.733,397.471,734.493,397.471,754.307"/>
		<path clip-path="url(#SVGID_113_)" fill="#FFFFFF" d="M447.93,708.968l53.096,128.078V710.641
			c-10.212-0.095-27.343-17.015-27.343-17.015S454.546,707.066,447.93,708.968"/>
		<g opacity="0.1" clip-path="url(#SVGID_113_)">
			<g>
				<defs>
					<rect id="SVGID_114_" x="500.92" y="701.195" width="45.202" height="134.827"/>
				</defs>
				<clipPath id="SVGID_115_">
					<use xlink:href="#SVGID_114_"  overflow="visible"/>
				</clipPath>
				<polygon clip-path="url(#SVGID_115_)" fill="#231F20" points="519.544,701.233 500.915,707.956 500.915,835.907 501.071,836.06 
					501.332,836.06 546.183,727.853 519.557,701.233 				"/>
			</g>
		</g>
		<polygon clip-path="url(#SVGID_113_)" fill="#C44927" points="500.927,707.963 500.927,835.901 519.644,782.885 504.743,720.9 
			528.255,693.626 		"/>
		<polygon clip-path="url(#SVGID_113_)" fill="#E65425" points="497.104,720.9 482.201,782.885 500.92,835.901 500.92,707.969 
			473.681,693.626 		"/>
		<g opacity="0.07" clip-path="url(#SVGID_113_)">
			<g>
				<defs>
					<rect id="SVGID_116_" x="474.606" y="678.398" width="52.889" height="21.626"/>
				</defs>
				<clipPath id="SVGID_117_">
					<use xlink:href="#SVGID_116_"  overflow="visible"/>
				</clipPath>
				<path clip-path="url(#SVGID_117_)" fill="#010101" d="M475.179,686.108c7.464,6.819,16.334,13.943,25.843,13.943
					c9.576,0,18.473-7.232,25.988-14.082c-0.116-2.423,0.04-4.936,0.483-7.607h-52.941
					C475.061,681.006,475.257,683.582,475.179,686.108"/>
			</g>
		</g>
		<path clip-path="url(#SVGID_113_)" fill="#EFC54C" d="M504.431,579.414c-12.389,0-24.57-1.107-36.423-3.225
			c-9.536,12.435-15.502,30.181-15.502,49.899c0,37.649,21.715,68.148,48.511,68.148c26.783,0,48.498-30.499,48.498-68.148
			c0-19.196-5.653-36.536-14.76-48.926C524.83,578.638,514.721,579.414,504.431,579.414"/>
		<path clip-path="url(#SVGID_113_)" fill="#742D15" d="M552.988,563.462c-4.117,0.471-8.142-0.401-9.353,4.109
			c-0.417-9.134-28.151-15.227-48.368-7.156c-14.878,5.954-26.262-14.795-43.834-9.783c-16.232,4.612-26.966,31.186-8.846,51.858
			c5.394,6.163,1.407,4.72,10.513,33.972l7.412-30.035c15.685,1.069,33.454-2.532,44.617-3.937
			c8.39-1.056,33.296-2.538,36.044-15.577l7.855,49.549C553.483,596.594,571.628,565.236,552.988,563.462"/>
	</g>
	<g opacity="0.05">
		<g>
			<defs>
				<rect id="SVGID_118_" x="433.313" y="641.011" width="213.635" height="213.641"/>
			</defs>
			<clipPath id="SVGID_119_">
				<use xlink:href="#SVGID_118_"  overflow="visible"/>
			</clipPath>
			<path clip-path="url(#SVGID_119_)" fill="#26984E" d="M540.089,640.985c-58.895,0-106.806,47.921-106.806,106.821
				c0,58.893,47.912,106.814,106.806,106.814c58.893,0,106.818-47.921,106.818-106.814
				C646.907,688.906,598.982,640.985,540.089,640.985 M540.089,837.084c-49.228,0-89.284-40.04-89.284-89.278
				c0-49.244,40.056-89.284,89.284-89.284c49.239,0,89.297,40.04,89.297,89.284C629.386,797.044,589.328,837.084,540.089,837.084"/>
		</g>
	</g>
	<g opacity="0.2">
		<g>
			<defs>
				<rect id="SVGID_120_" x="468.354" y="676.051" width="143.553" height="143.553"/>
			</defs>
			<clipPath id="SVGID_121_">
				<use xlink:href="#SVGID_120_"  overflow="visible"/>
			</clipPath>
			<path clip-path="url(#SVGID_121_)" fill="#26984E" d="M540.089,676.032c-39.576,0-71.764,32.204-71.764,71.767
				c0,39.582,32.188,71.774,71.764,71.774c39.574,0,71.775-32.191,71.775-71.774C611.864,708.236,579.663,676.032,540.089,676.032
				 M540.089,802.05c-29.924,0-54.256-24.329-54.256-54.25c0-29.914,24.333-54.244,54.256-54.244
				c29.908,0,54.267,24.329,54.267,54.244C594.357,777.72,569.997,802.05,540.089,802.05"/>
		</g>
	</g>
	<g opacity="0.5">
		<g>
			<defs>
				<rect id="SVGID_122_" x="502.744" y="710.443" width="74.642" height="74.642"/>
			</defs>
			<clipPath id="SVGID_123_">
				<use xlink:href="#SVGID_122_"  overflow="visible"/>
			</clipPath>
			<path clip-path="url(#SVGID_123_)" fill="#26984E" d="M540.089,710.482c-20.609,0-37.308,16.703-37.308,37.312
				s16.7,37.318,37.308,37.318c20.607,0,37.321-16.709,37.321-37.318S560.696,710.482,540.089,710.482"/>
		</g>
	</g>
	<g opacity="0.1">
		<g>
			<defs>
				<rect id="SVGID_124_" x="492.063" y="758.25" width="493.577" height="543.473"/>
			</defs>
			<clipPath id="SVGID_125_">
				<use xlink:href="#SVGID_124_"  overflow="visible"/>
			</clipPath>
			<path clip-path="url(#SVGID_125_)" fill="#010101" d="M883.373,1074.514c-10.891-21.906-24.452-49.161-24.816-76.595
				c-0.665-50.306-29.571-104.696-48.121-139.419c-2.527-4.77-4.949-9.28-7.126-13.51c-7.125-13.784-24.137-19.203-37.919-12.066
				l-20.505,10.616c-2.474,1.278-3.452,4.338-2.175,6.799l22.42,43.341l-6.084-5.496l-29.493-57.03
				c-3.595-6.971-20.621-12.378-34.403-5.254l-20.504,10.603c-2.474,1.291-3.44,4.338-2.15,6.831l29.493,57.017l-2.567,1.317
				c-6.604-12.74-25.479-49.206-32.827-63.428c-4.612-8.937-19.149-13.65-34.584-5.655l-20.505,10.59
				c-2.487,1.291-3.451,4.338-2.175,6.812l40.11,77.536l-2.566,1.329l-77.56-149.978c-7.009-13.548-27.721-19.693-41.829-12.416
				c-13.613,7.048-19.708,26.747-12.583,40.555l98.794,190.998l-17.951,9.274c-1.328,0.687-2.657,0.757-4.273,0.235
				c-11.436-3.689-25.622-31.644-30.976-42.197c-0.925-1.813-1.721-3.358-2.346-4.535c-12.402-23.274-38.402-23.643-52.081-16.57
				c-9.366,4.834-10.069,11.595-7.841,15.921l57.577,111.35c0.065,0.121,0.157,0.261,0.235,0.382
				c14.043,22.04,36.734,29.571,60.77,37.541c32.918,10.915,70.226,23.293,100.591,74.878c1.355,2.322,4.285,3.168,6.683,1.927
				l166.14-85.926c2.333-1.208,3.349-4.02,2.32-6.469C890.055,1087.974,886.811,1081.435,883.373,1074.514"/>
			<path clip-path="url(#SVGID_125_)" fill="#010101" d="M887.907,1072.263c-10.683-21.442-23.943-48.125-24.294-74.401
				c-0.677-51.547-29.936-106.554-48.707-141.741c-2.541-4.764-4.95-9.261-7.1-13.453c-8.415-16.258-28.477-22.644-44.747-14.229
				l-20.504,10.591c-0.886,0.471-1.679,1.043-2.357,1.692l-2.632-5.076c-8.402-16.245-28.477-22.631-44.734-14.216l-20.504,10.603
				c-0.938,0.471-1.771,1.094-2.487,1.8c-6.749-9.745-23.123-14.553-40.148-5.744l-20.504,10.616c-0.9,0.445-1.693,1.03-2.385,1.679
				l-6.135-11.894l-26.874-51.935c-8.325-16.112-31.967-23.191-48.629-14.579c-16.191,8.39-23.226,30.951-14.733,47.368
				l96.435,186.501l-13.431,6.946c0,0-0.013,0-0.025,0.025c-0.507-0.083-4.807-1.081-13.157-13.039
				c-6.24-8.975-11.672-19.661-15.254-26.734c-0.938-1.826-1.732-3.384-2.396-4.637c-14.003-26.263-43.405-26.677-58.853-18.681
				c-11.855,6.125-13.575,15.832-10.005,22.733l57.578,111.35c0.143,0.261,0.286,0.534,0.442,0.77
				c15.006,23.566,38.533,31.371,63.44,39.627c32.072,10.641,68.429,22.682,97.843,72.651c2.724,4.637,8.573,6.316,13.353,3.855
				l19.098-9.897l147.044-76.029c4.689-2.436,6.722-8.059,4.651-12.931C894.654,1085.862,891.372,1079.278,887.907,1072.263
				 M740.876,1171.845l-19.111,9.891c-53.996-91.721-130.319-63.664-161.478-112.577l-57.578-111.337
				c-1.641-3.193,0.898-6.647,5.68-9.121c11.098-5.731,34.298-6.17,45.307,14.464c6.004,11.265,27.03,57.577,44.381,48.602h0.013
				l22.393-11.595L519.396,804.696c-5.861-11.322-0.898-27.879,10.409-33.743c11.319-5.845,29.165-1.069,35.028,10.253
				l26.848,51.922l53.03,102.534l11.529-5.966l-42.427-82.027l20.516-10.603c13.014-6.736,24.568-2.735,27.786,3.492
				c8.988,17.365,35.131,67.932,35.131,67.932l11.543-5.966l-31.824-61.514l20.504-10.616c11.333-5.845,25.258-1.406,31.119,9.904
				l31.826,61.527l11.527-5.966l-24.737-47.839l20.504-10.616c11.308-5.833,25.258-1.406,31.108,9.916
				c17.872,34.557,53.956,94.704,54.686,150.677c0.52,37.452,24.164,73.733,34.403,97.801L740.876,1171.845z"/>
			<path clip-path="url(#SVGID_125_)" fill="#010101" d="M591.68,833.128l-21.195-41.007c-13.3-29.558-27.147-27.872-38.181-23.547
				c-3.387,1.329-5.836,4.052-7.868,6.787c8.533-0.172,23.905,17.95,28.085,26.028l21.221,41.02l53.019,102.546l17.99-9.21
				l-42.467-82.11L591.68,833.128z"/>
			<path clip-path="url(#SVGID_125_)" fill="#010101" d="M728.593,840.29c-5.863-11.303-19.801-15.749-31.121-9.897l-17.939,9.274
				c11.308-5.833,25.26-1.393,31.108,9.916l31.811,61.52l17.846-9.414l-21.116-40.893L728.593,840.29z"/>
			<path clip-path="url(#SVGID_125_)" fill="#010101" d="M662.112,840.557c-3.218-6.233-14.773-10.222-27.774-3.498l-17.964,9.286
				c13.027-6.723,24.582-2.748,27.799,3.492c8.989,17.39,35.133,67.932,35.133,67.932l18.042-9.325l-31.851-61.724
				C664.169,844.545,663.048,842.37,662.112,840.557"/>
			<path clip-path="url(#SVGID_125_)" fill="#010101" d="M798.815,847.312c-5.85-11.316-19.801-15.749-31.108-9.91l-17.951,9.299
				c11.333-5.858,25.26-1.418,31.121,9.891c17.873,34.57,53.943,94.716,54.673,150.677c0.507,37.464,24.177,73.745,34.39,97.814
				l17.964-9.286c-10.239-24.062-33.883-60.35-34.403-97.801C852.783,942.035,816.699,881.876,798.815,847.312"/>
			<path clip-path="url(#SVGID_125_)" fill="#010101" d="M553.701,963.165c-16.31-29.711-53.293-16.474-51.248-6.431
				c12.05-0.693,26.783,3.136,33.296,15.724c5.861,11.316,30.235,55.91,30.235,55.91l32.11-16.608
				C579.037,1020.964,559.836,974.347,553.701,963.165"/>
			<g opacity="0.5" clip-path="url(#SVGID_125_)">
				<g>
					<defs>
						<rect id="SVGID_126_" x="523.195" y="774.012" width="41.165" height="36.218"/>
					</defs>
					<clipPath id="SVGID_127_">
						<use xlink:href="#SVGID_126_"  overflow="visible"/>
					</clipPath>
					<path clip-path="url(#SVGID_127_)" fill="#010101" d="M534.11,776.314c-9.576,4.942-13.575,16.258-8.924,25.233l4.494,8.689
						l34.691-17.937l-4.495-8.689C555.226,774.61,543.684,771.34,534.11,776.314"/>
				</g>
			</g>
			<g opacity="0.5" clip-path="url(#SVGID_125_)">
				<g>
					<defs>
						<rect id="SVGID_128_" x="502.223" y="955.608" width="30.353" height="34.258"/>
					</defs>
					<clipPath id="SVGID_129_">
						<use xlink:href="#SVGID_128_"  overflow="visible"/>
					</clipPath>
					<path clip-path="url(#SVGID_129_)" fill="#010101" d="M502.262,956.257l17.363,33.572l12.911-6.679l-9.145-17.67
						C519.339,957.656,510.429,953.98,502.262,956.257"/>
				</g>
			</g>
			<polygon clip-path="url(#SVGID_125_)" fill="#010101" points="672.95,1157.508 698.091,1206.103 923.438,1089.564 
				898.297,1040.962 			"/>
			<polygon clip-path="url(#SVGID_125_)" fill="#010101" points="674.572,1188.612 733.035,1301.698 985.633,1171.031 
				927.171,1057.983 			"/>
			<polygon clip-path="url(#SVGID_125_)" fill="#010101" points="878.03,1104.651 896.306,1140.01 936.076,1119.427 917.8,1084.087 
							"/>
			<polygon clip-path="url(#SVGID_125_)" fill="#010101" points="896.311,1140.004 936.081,1119.427 917.804,1084.081 			"/>
		</g>
	</g>
	<path fill="#FECD8D" d="M883.373,1035.434c-10.891-21.906-24.452-49.161-24.816-76.595
		c-0.665-50.306-29.571-104.696-48.121-139.419c-2.527-4.77-4.949-9.28-7.126-13.51c-7.125-13.784-24.137-19.203-37.919-12.066
		l-20.505,10.616c-2.474,1.278-3.452,4.338-2.175,6.799l22.42,43.341l-6.084-5.496l-29.493-57.03
		c-3.595-6.971-20.621-12.378-34.403-5.254l-20.504,10.603c-2.474,1.291-3.44,4.338-2.15,6.831l29.493,57.017l-2.567,1.317
		c-6.604-12.74-25.479-49.206-32.827-63.428c-4.612-8.937-19.149-13.65-34.584-5.655l-20.505,10.59
		c-2.487,1.291-3.451,4.338-2.175,6.812l40.11,77.536l-2.566,1.329l-77.56-149.978c-7.009-13.548-27.721-19.693-41.829-12.416
		c-13.613,7.048-19.708,26.747-12.583,40.555l98.794,190.998l-17.951,9.274c-1.328,0.687-2.657,0.757-4.273,0.235
		c-11.436-3.689-25.622-31.644-30.976-42.197c-0.925-1.813-1.721-3.358-2.346-4.535c-12.402-23.274-38.402-23.643-52.081-16.57
		c-9.366,4.834-10.069,11.595-7.841,15.921l57.577,111.35c0.065,0.121,0.157,0.261,0.235,0.382
		c14.043,22.04,36.734,29.571,60.77,37.541c32.918,10.915,70.226,23.293,100.591,74.878c1.355,2.322,4.285,3.168,6.683,1.927
		l166.14-85.926c2.333-1.208,3.349-4.02,2.32-6.469C890.055,1048.894,886.811,1042.355,883.373,1035.434"/>
	<path fill="#C7985A" d="M887.907,1033.183c-10.683-21.442-23.943-48.125-24.294-74.401
		c-0.677-51.547-29.936-106.554-48.707-141.741c-2.541-4.764-4.95-9.261-7.1-13.453c-8.415-16.258-28.477-22.644-44.747-14.229
		l-20.504,10.591c-0.886,0.471-1.679,1.043-2.357,1.692l-2.632-5.076c-8.402-16.245-28.477-22.631-44.734-14.216l-20.504,10.603
		c-0.938,0.471-1.771,1.094-2.487,1.8c-6.749-9.745-23.123-14.553-40.148-5.744l-20.504,10.616c-0.9,0.445-1.693,1.03-2.385,1.679
		l-6.135-11.894l-26.874-51.935c-8.325-16.112-31.967-23.191-48.629-14.579c-16.191,8.39-23.226,30.951-14.733,47.368
		l96.435,186.501l-13.431,6.946c0,0-0.013,0-0.025,0.025c-0.507-0.083-4.807-1.081-13.157-13.039
		c-6.24-8.975-11.672-19.661-15.254-26.734c-0.938-1.826-1.732-3.384-2.396-4.637c-14.003-26.263-43.405-26.677-58.853-18.681
		c-11.855,6.125-13.575,15.832-10.005,22.733l57.578,111.35c0.143,0.261,0.286,0.534,0.442,0.77
		c15.006,23.566,38.533,31.371,63.44,39.627c32.072,10.641,68.429,22.682,97.843,72.651c2.724,4.637,8.573,6.316,13.353,3.855
		l19.098-9.897l147.044-76.029c4.689-2.436,6.722-8.059,4.651-12.931C894.654,1046.782,891.372,1040.199,887.907,1033.183
		 M740.876,1132.765l-19.111,9.891c-53.996-91.721-130.319-63.664-161.478-112.577l-57.578-111.337
		c-1.641-3.193,0.898-6.647,5.68-9.121c11.098-5.731,34.298-6.17,45.307,14.464c6.004,11.265,27.03,57.577,44.381,48.602h0.013
		l22.393-11.595L519.396,765.616c-5.861-11.322-0.898-27.879,10.409-33.743c11.319-5.845,29.165-1.069,35.028,10.253l26.848,51.922
		l53.03,102.534l11.529-5.966l-42.427-82.027l20.516-10.603c13.014-6.736,24.568-2.735,27.786,3.492
		c8.988,17.365,35.131,67.932,35.131,67.932l11.543-5.966l-31.824-61.514l20.504-10.616c11.333-5.845,25.258-1.406,31.119,9.904
		l31.826,61.527l11.527-5.966l-24.737-47.839l20.504-10.616c11.308-5.833,25.258-1.406,31.108,9.916
		c17.872,34.557,53.956,94.704,54.686,150.677c0.52,37.451,24.164,73.733,34.403,97.801L740.876,1132.765z"/>
	<path fill="#FDBF78" d="M591.68,794.048l-21.195-41.007c-13.3-29.558-27.147-27.872-38.181-23.547
		c-3.387,1.329-5.836,4.052-7.868,6.787c8.533-0.172,23.905,17.95,28.085,26.028l21.221,41.02l53.019,102.546l17.99-9.21
		l-42.467-82.11L591.68,794.048z"/>
	<path fill="#FDBF78" d="M728.593,801.21c-5.863-11.303-19.801-15.749-31.121-9.897l-17.939,9.274
		c11.308-5.833,25.26-1.393,31.108,9.916l31.811,61.52l17.846-9.414l-21.116-40.893L728.593,801.21z"/>
	<path fill="#FDBF78" d="M662.112,801.477c-3.218-6.233-14.773-10.222-27.774-3.498l-17.964,9.287
		c13.027-6.723,24.582-2.748,27.799,3.492c8.989,17.39,35.133,67.932,35.133,67.932l18.042-9.325l-31.851-61.724
		C664.169,805.465,663.048,803.29,662.112,801.477"/>
	<path fill="#FDBF78" d="M798.815,808.232c-5.85-11.316-19.801-15.749-31.108-9.91l-17.951,9.299
		c11.333-5.858,25.26-1.418,31.121,9.891c17.873,34.57,53.943,94.716,54.673,150.677c0.507,37.464,24.177,73.745,34.39,97.814
		l17.964-9.286c-10.239-24.062-33.883-60.35-34.403-97.801C852.783,902.955,816.699,842.796,798.815,808.232"/>
	<path fill="#FDBF78" d="M553.701,924.085c-16.31-29.711-53.293-16.474-51.248-6.431c12.05-0.693,26.783,3.136,33.296,15.724
		c5.861,11.316,30.235,55.91,30.235,55.91l32.11-16.608C579.037,981.884,559.836,935.267,553.701,924.085"/>
	<g opacity="0.5">
		<g>
			<defs>
				<rect id="SVGID_130_" x="523.195" y="734.932" width="41.165" height="36.218"/>
			</defs>
			<clipPath id="SVGID_131_">
				<use xlink:href="#SVGID_130_"  overflow="visible"/>
			</clipPath>
			<path clip-path="url(#SVGID_131_)" fill="#FFFFFF" d="M534.11,737.235c-9.576,4.942-13.575,16.258-8.924,25.233l4.494,8.689
				l34.691-17.937l-4.495-8.689C555.226,735.53,543.684,732.26,534.11,737.235"/>
		</g>
	</g>
	<g opacity="0.5">
		<g>
			<defs>
				<rect id="SVGID_132_" x="502.223" y="916.529" width="30.353" height="34.258"/>
			</defs>
			<clipPath id="SVGID_133_">
				<use xlink:href="#SVGID_132_"  overflow="visible"/>
			</clipPath>
			<path clip-path="url(#SVGID_133_)" fill="#FFFFFF" d="M502.262,917.177l17.363,33.572l12.911-6.679l-9.145-17.67
				C519.339,918.577,510.429,914.9,502.262,917.177"/>
		</g>
	</g>
	<polygon fill="#FFFFFF" points="672.95,1118.428 698.091,1167.024 923.438,1050.484 898.297,1001.882 	"/>
	<polygon fill="#0F2138" points="674.572,1149.532 733.035,1262.618 985.633,1131.951 927.171,1018.903 	"/>
	<polygon fill="#FFCC5A" points="878.03,1065.571 896.306,1100.93 936.076,1080.347 917.8,1045.007 	"/>
	<polygon fill="#F19C22" points="896.311,1100.924 936.081,1080.347 917.804,1045.001 	"/>
</g>
</svg>
