<?xml version="1.0" encoding="utf-8"?>
<!-- Generator: Adobe Illustrator 17.0.0, SVG Export Plug-In . SVG Version: 6.00 Build 0)  -->
<!DOCTYPE svg PUBLIC "-//W3C//DTD SVG 1.1//EN" "http://www.w3.org/Graphics/SVG/1.1/DTD/svg11.dtd">
<svg version="1.1" id="Layer_1" xmlns="http://www.w3.org/2000/svg" xmlns:xlink="http://www.w3.org/1999/xlink" x="0px" y="0px"
	 width="1000px" height="866px" viewBox="0 0 1000 866" enable-background="new 0 0 1000 866" xml:space="preserve">
<g>
	<g opacity="0.1">
		<g>
			<defs>
				<rect id="SVGID_1_" x="72.438" y="405.827" width="855.121" height="451.335"/>
			</defs>
			<clipPath id="SVGID_2_">
				<use xlink:href="#SVGID_1_"  overflow="visible"/>
			</clipPath>
			<polygon clip-path="url(#SVGID_2_)" fill="#010101" points="927.553,857.185 720.179,435.116 572.577,405.84 423.761,438.782 
				276.158,413.155 72.442,791.315 353.01,857.185 616.497,769.354 			"/>
		</g>
	</g>
	<polygon fill="#FFFFFF" points="990.201,809.158 752.442,325.247 583.212,291.686 412.585,329.447 243.355,300.081 9.799,733.642 
		331.464,809.158 633.567,708.457 	"/>
	<polygon fill="#C4E3F4" points="257.345,324.551 80.44,701.102 339.788,759.956 628.236,664.373 915.378,743.411 739.852,343.782 
		585.741,312.612 409.03,350.477 	"/>
	<g>
		<defs>
			<polygon id="SVGID_3_" points="409.028,350.463 257.342,324.551 80.437,701.107 339.786,759.951 628.233,664.382 
				915.385,743.411 739.85,343.791 585.738,312.608 			"/>
		</defs>
		<clipPath id="SVGID_4_">
			<use xlink:href="#SVGID_3_"  overflow="visible"/>
		</clipPath>
		<path clip-path="url(#SVGID_4_)" fill="#ADCDEC" d="M313.326,837.999c1.323,1.853,2.685,3.698,4.073,5.529
			c1.398,1.826,2.824,3.639,4.287,5.443v-23.023l-15.877,0.75c1.175,1.908,2.398,3.806,3.648,5.691
			C310.714,834.279,312.002,836.141,313.326,837.999"/>
		<path clip-path="url(#SVGID_4_)" fill="#ADCDEC" d="M324.087,850.711l86.351-11.645l-18.933-7.943
			c-2.667-1.148-5.277-2.378-7.814-3.693c-2.546-1.306-5.036-2.712-7.444-4.186c-2.426-1.483-4.777-3.038-7.055-4.674
			c-2.286-1.623-5.268-3.937-7.397-5.723l-0.352-0.407l-42.467,13.48v19.47c0,0,1.713,2.649,2.389,3.377
			C322.439,849.907,323.818,850.508,324.087,850.711"/>
		<path clip-path="url(#SVGID_4_)" fill="#ADCDEC" d="M340.25,787.893c-2.018-3.246-3.861-6.6-5.5-10.054
			c-1.639-3.44-3.082-6.989-4.314-10.61c-1.24-3.626-2.268-7.332-3.082-11.107c-0.815-3.779-1.408-7.613-1.778-11.509
			c-0.259-2.676-0.583-5.343-0.991-7.979c-0.398-2.64-0.88-5.248-1.435-7.852c-0.546-2.599-0.74-5.804-1.435-8.349
			s-1.778-15.352-3.564-18.435l0.833,91.664L340.25,787.893z"/>
		<polygon clip-path="url(#SVGID_4_)" fill="#FFFFFF" points="316.723,592.333 385.242,769.797 392.788,773.21 427.376,763.835 
			406.333,754.02 342.905,588.169 338.665,594.064 318.612,584.245 		"/>
		<polygon clip-path="url(#SVGID_4_)" fill="#FFFFFF" points="462.586,780.262 459.383,785.294 434.839,792.319 508.618,825.825 
			548.668,820.419 512.293,803.448 511.691,804.411 492.49,796.252 493.471,794.679 		"/>
		<polygon clip-path="url(#SVGID_4_)" fill="#FFFFFF" points="375.755,361.05 429.711,290.791 401.085,286.949 349.989,352.47 
			318.604,348.682 318.604,370.837 356.868,374.919 350.489,371.032 364.089,353.831 		"/>
		<polygon clip-path="url(#SVGID_4_)" fill="#FFFFFF" points="492.49,796.247 511.692,804.416 512.293,803.444 597.996,664.504 
			597.996,627.326 493.471,794.674 		"/>
		<polygon clip-path="url(#SVGID_4_)" fill="#FFFFFF" points="318.608,570.905 318.608,579.164 318.608,584.241 338.67,594.064 
			342.91,588.165 453.925,433.913 453.925,433.904 433.658,421.599 		"/>
		<polygon clip-path="url(#SVGID_4_)" fill="#FFFFFF" points="597.998,374.63 597.998,352.005 529.617,304.204 487.15,298.494 		"/>
		<polygon clip-path="url(#SVGID_4_)" fill="#FFFFFF" points="364.095,353.826 350.485,371.032 356.873,374.919 433.66,421.599 
			453.926,433.904 594.826,519.56 598.002,514.669 612.463,507.829 375.759,361.05 		"/>
		<path clip-path="url(#SVGID_4_)" fill="#ADCDEC" d="M323.976,287.265c1.768-0.913,3.509-1.849,5.23-2.794
			c1.722-0.945,3.416-1.908,5.092-2.871c1.675-0.972,3.324-1.953,4.953-2.943l-20.442-2.993l-0.426,15.704
			C320.198,290.479,322.207,288.192,323.976,287.265"/>
		<path clip-path="url(#SVGID_4_)" fill="#C7DF92" d="M382.59,424.863l-35.098-20.022c-0.259-0.149-0.528-0.28-0.806-0.398
			c-0.277-0.131-0.565-0.226-0.852-0.316c-0.287-0.095-0.583-0.167-0.889-0.221c-0.296-0.054-0.602-0.095-0.907-0.113l-25.071-2.703
			l-0.361,123.394l66.214-91.768c0.481-0.637,0.778-1.334,0.898-2.043c0.13-0.714,0.084-1.447-0.12-2.152
			c-0.203-0.719-0.555-1.406-1.065-2.025C384.034,425.867,383.377,425.32,382.59,424.863"/>
		<path clip-path="url(#SVGID_4_)" fill="#F2F2F2" d="M486.177,484.517c-1.056-0.461-2.13-0.859-3.222-1.175
			c-1.092-0.321-2.194-0.574-3.305-0.759c-1.111-0.181-2.231-0.294-3.342-0.339c-2.074-0.086-4.138,0.063-6.138,0.443
			c-2.009,0.38-3.953,0.981-5.786,1.804c-1.843,0.827-3.564,1.872-5.12,3.133c-1.565,1.266-2.963,2.73-4.129,4.403l-62.372,89.092
			c-1.611,2.315-2.925,4.742-3.926,7.251c-0.991,2.509-1.675,5.099-2.037,7.712c-0.361,2.608-0.398,5.248-0.102,7.87
			c0.287,2.626,0.908,5.23,1.861,7.757l28.811,76.687c0.592,1.582,1.453,2.961,2.509,4.118c1.065,1.166,2.324,2.12,3.713,2.862
			c1.388,0.741,2.907,1.266,4.49,1.582c1.583,0.316,3.231,0.425,4.888,0.316c1.314-0.086,2.638-0.316,3.925-0.678
			c1.287-0.362,2.537-0.859,3.722-1.501c1.185-0.628,2.305-1.406,3.324-2.333c1.018-0.909,1.944-1.971,2.731-3.164l96.6-146.372
			c1.601-2.437,2.592-5.045,3.027-7.694c0.435-2.658,0.296-5.352-0.361-7.943c-0.657-2.595-1.842-5.077-3.518-7.323
			c-1.685-2.251-3.861-4.24-6.499-5.841l-46.661-28.303C488.26,485.511,487.232,484.982,486.177,484.517"/>
		<path clip-path="url(#SVGID_4_)" fill="#F2F2F2" d="M457.609,305.393c-0.232-0.118-0.463-0.212-0.694-0.303
			c-0.232-0.095-0.472-0.167-0.704-0.222c-0.241-0.059-0.481-0.104-0.722-0.131c-0.454-0.063-0.898-0.063-1.343-0.027
			c-0.435,0.045-0.861,0.131-1.259,0.276c-0.398,0.149-0.778,0.335-1.111,0.574c-0.343,0.244-0.639,0.529-0.898,0.863
			l-35.903,47.371c-0.407,0.52-0.657,1.112-0.759,1.722c-0.102,0.615-0.065,1.252,0.102,1.862c0.167,0.619,0.472,1.221,0.898,1.777
			c0.426,0.547,0.972,1.049,1.63,1.465l96.85,60.454c0.213,0.131,0.416,0.244,0.63,0.335c0.222,0.104,0.435,0.194,0.657,0.267
			c0.222,0.068,0.445,0.122,0.667,0.167c0.222,0.045,0.454,0.077,0.676,0.095c0.426,0.027,0.852,0.009,1.259-0.059
			c0.407-0.072,0.805-0.172,1.185-0.339c0.371-0.158,0.722-0.362,1.037-0.615c0.315-0.258,0.593-0.542,0.833-0.877l32.32-46.069
			c0.343-0.502,0.565-1.044,0.658-1.618c0.083-0.565,0.055-1.166-0.093-1.731c-0.148-0.583-0.407-1.139-0.778-1.659
			c-0.37-0.511-0.852-0.972-1.426-1.352l-93.044-61.833C458.062,305.637,457.831,305.506,457.609,305.393"/>
		<path clip-path="url(#SVGID_4_)" fill="#E5E4E3" d="M597.998,400.967L577.694,387.5l-0.018,0.027
			c-0.185-0.122-0.38-0.231-0.565-0.326c-0.194-0.09-0.389-0.185-0.592-0.249c-0.194-0.068-0.398-0.122-0.602-0.167
			c-0.194-0.045-0.398-0.081-0.602-0.104c-0.389-0.036-0.768-0.027-1.139,0.032c-0.379,0.054-0.731,0.154-1.074,0.294
			c-0.342,0.149-0.657,0.335-0.944,0.565c-0.287,0.221-0.537,0.493-0.759,0.814l-31.894,46.155
			c-0.342,0.488-0.546,1.026-0.639,1.582c-0.093,0.547-0.055,1.121,0.083,1.673c0.148,0.547,0.398,1.085,0.759,1.56
			c0.361,0.488,0.824,0.913,1.388,1.266l20.359,12.685c0.194,0.118,0.38,0.222,0.583,0.312c0.194,0.086,0.389,0.167,0.593,0.235
			c0.203,0.063,0.407,0.108,0.611,0.145c0.203,0.041,0.407,0.059,0.611,0.077c0.389,0.018,0.778-0.009,1.157-0.068
			c0.371-0.072,0.741-0.181,1.074-0.339c0.342-0.158,0.667-0.353,0.953-0.592c0.287-0.235,0.546-0.52,0.759-0.845l7.628-11.274
			c0.213-0.316,0.472-0.592,0.759-0.836c0.287-0.231,0.602-0.416,0.935-0.57c0.342-0.158,0.704-0.262,1.065-0.325
			c0.37-0.077,0.759-0.095,1.139-0.068c0.203,0.014,0.407,0.041,0.602,0.086c0.203,0.036,0.398,0.081,0.602,0.149
			c0.194,0.063,0.389,0.136,0.583,0.231c0.194,0.09,0.38,0.194,0.565,0.316l15.359,9.783c0.092,0.05,0.185,0.113,0.268,0.176
			c0.083,0.068,0.167,0.131,0.25,0.194c0.074,0.068,0.158,0.131,0.232,0.203c0.074,0.077,0.148,0.149,0.213,0.221V400.967z"/>
		<polygon clip-path="url(#SVGID_4_)" fill="#E5E4E3" points="597.998,313.367 570.149,309.638 597.998,329.18 		"/>
		<polygon clip-path="url(#SVGID_4_)" fill="#F7CB6D" points="427.373,763.835 392.784,773.215 339.874,787.568 318.608,793.585 
			318.608,826.097 362.195,813.118 434.844,792.314 459.378,785.289 462.582,780.262 598.001,567.786 598.001,514.673 
			594.825,519.56 438.159,760.919 		"/>
		<path clip-path="url(#SVGID_4_)" fill="#ADCDEC" d="M321.686,713.132c-3.935-14.014-9.601-27.467-16.748-40.048
			c-7.092-12.499-15.628-24.108-25.367-34.569c-9.638-10.352-20.433-19.538-32.154-27.331c-11.573-7.694-24.016-14-37.116-18.711
			L91.825,549.857v44.261l103.95,40.147c11.091,4.285,21.479,10.153,30.895,17.327c9.517,7.251,18.035,15.822,25.284,25.397
			c7.305,9.656,13.295,20.311,17.72,31.644c4.453,11.378,7.296,23.408,8.286,35.726c0.342,4.29,0.861,8.585,1.537,12.879
			c0.685,4.304,1.536,8.594,2.555,12.879c1.018,4.286,2.203,8.562,3.546,12.811c1.342,4.258,2.851,8.49,4.518,12.685l31.571-2.034
			V713.132z"/>
		<polygon clip-path="url(#SVGID_4_)" fill="#FFFFFF" points="321.686,570.426 91.825,489.087 91.825,509.936 320.427,593.693 
			321.686,597.423 321.686,583.816 319.279,582.428 321.686,578.726 		"/>
		<polygon clip-path="url(#SVGID_4_)" fill="#FFFFFF" points="91.826,393.834 318.882,370.855 318.882,348.628 91.826,374.309 		"/>
		<path clip-path="url(#SVGID_4_)" fill="#ADCDEC" d="M91.826,349.478c4.045-0.009,9.063-0.072,14.859-0.212
			c5.842-0.154,12.498-0.398,19.784-0.778c7.351-0.389,15.359-0.913,23.831-1.636c8.555-0.723,17.6-1.659,26.923-2.825
			c6.036-0.759,12.202-1.618,18.424-2.59c6.277-0.99,12.61-2.102,18.969-3.332c6.398-1.243,12.805-2.631,19.174-4.159
			c6.406-1.537,12.767-3.223,19.016-5.081c5.999-1.781,11.952-4.046,17.84-6.713c5.925-2.694,11.768-5.795,17.526-9.24
			c5.796-3.454,11.49-7.26,17.072-11.324c5.611-4.091,11.092-8.444,16.443-12.979l-2.805-12.942L91.826,309.561V349.478z"/>
		<path clip-path="url(#SVGID_4_)" fill="#C7DF92" d="M125.416,418.127c-0.593,0.307-1.121,0.732-1.565,1.243
			c-0.445,0.502-0.806,1.085-1.056,1.722c-0.25,0.637-0.38,1.325-0.38,2.034v44.211c0,0.542,0.074,1.071,0.232,1.555
			c0.148,0.488,0.37,0.954,0.657,1.361c0.287,0.407,0.639,0.768,1.037,1.062c0.398,0.298,0.843,0.538,1.333,0.687l183.201,58.659
			c0.167,0.054,0.333,0.099,0.5,0.14c0.176,0.045,0.342,0.072,0.509,0.099c0.176,0.018,0.342,0.036,0.509,0.054
			c0.176,0.014,0.342,0.014,0.518,0.014c0.509-0.014,1.019-0.086,1.518-0.217c0.491-0.127,0.963-0.312,1.417-0.565
			c0.444-0.231,0.87-0.524,1.241-0.868c0.379-0.344,0.722-0.741,1-1.175l5.601-8.666l-2.722-118.394l-191.634,16.473
			C126.656,417.612,126.008,417.815,125.416,418.127"/>
		<path clip-path="url(#SVGID_4_)" fill="#C7DF92" d="M162.064,661.163c-9.268-7.138-20.201-13.119-32.209-17.553
			c-11.832-4.367-24.692-7.228-38.033-8.227v142.082c13.341,1.288,26.201,0.642,38.033-1.691
			c12.008-2.382,22.941-6.473,32.209-12.029c9.369-5.61,17.007-12.68,22.321-20.894c5.342-8.259,8.305-17.635,8.305-27.765
			c0-10.126-2.963-20.017-8.305-29.189C179.071,676.773,171.433,668.387,162.064,661.163"/>
		<polygon clip-path="url(#SVGID_4_)" fill="#F7CB6D" points="91.826,816.888 191.851,832.118 305.8,826.702 321.687,825.952 
			321.687,793.58 290.117,795.614 91.826,808.439 		"/>
		<polygon clip-path="url(#SVGID_4_)" fill="#FFFFFF" points="677.255,560.309 656.1,549.952 597.996,627.331 597.996,664.522 		"/>
		<polygon clip-path="url(#SVGID_4_)" fill="#FFFFFF" points="890.903,305.917 833.743,286.244 780.296,292.383 890.903,331.612 		
			"/>
		<polygon clip-path="url(#SVGID_4_)" fill="#FFFFFF" points="782.682,428.036 597.999,351.964 597.999,374.608 754.277,440.604 		
			"/>
		<polygon clip-path="url(#SVGID_4_)" fill="#FFFFFF" points="890.903,472.609 822.532,444.446 793.165,457.022 890.903,498.295 		
			"/>
		<polygon clip-path="url(#SVGID_4_)" fill="#FFFFFF" points="677.255,560.309 890.906,664.992 890.906,639.301 643.981,520.889 
			627.215,528.072 623.039,533.759 656.1,549.952 		"/>
		<path clip-path="url(#SVGID_4_)" fill="#C7DF92" d="M620.85,789.195c0.212,1.668,0.453,3.327,0.731,5l3.759,22.58
			c0,0.014,0,0.023,0.009,0.041c0,0.018,0,0.036,0.01,0.045v0.054c0.009,0.009,0.009,0.027,0.009,0.045l265.533,30.686V709.669
			l-123.393-62.696c-1.296-0.655-2.629-1.239-3.999-1.749c-1.361-0.502-2.759-0.936-4.176-1.288
			c-1.416-0.357-2.86-0.637-4.305-0.841s-2.907-0.335-4.37-0.38c-0.963-0.036-1.926-0.036-2.889,0
			c-0.954,0.036-1.917,0.104-2.861,0.203c-0.953,0.104-1.898,0.24-2.833,0.407c-0.935,0.176-1.861,0.38-2.778,0.628
			c-6.545,1.713-12.887,3.689-18.998,5.899c-6.073,2.201-11.924,4.638-17.544,7.296c-5.592,2.649-10.943,5.515-16.045,8.589
			c-5.083,3.065-9.915,6.324-14.489,9.778c-4.555,3.436-8.841,7.066-12.868,10.867c-4,3.788-7.74,7.753-11.184,11.88
			c-3.435,4.109-6.592,8.39-9.443,12.811c-2.842,4.408-5.398,8.973-7.628,13.675c-1.861,3.928-3.49,7.916-4.888,11.952
			c-1.398,4.046-2.565,8.142-3.5,12.278c-0.926,4.136-1.63,8.322-2.092,12.545c-0.472,4.222-0.704,8.481-0.704,12.766
			c0,1.641,0.037,3.286,0.102,4.945c0.074,1.655,0.176,3.305,0.315,4.973C620.471,785.872,620.646,787.522,620.85,789.195"/>
		<path clip-path="url(#SVGID_4_)" fill="#F2F2F2" d="M598.616,455.531l-0.62,0.872v19.515l16.303,7.518
			c0.213,0.086,0.426,0.176,0.648,0.24c0.222,0.077,0.444,0.131,0.667,0.176c0.231,0.041,0.453,0.068,0.685,0.086
			c0.232,0.018,0.463,0.018,0.694,0.009c0.444-0.009,0.879-0.068,1.305-0.176c0.426-0.104,0.833-0.249,1.222-0.434
			c0.389-0.194,0.75-0.42,1.074-0.687c0.333-0.267,0.62-0.574,0.87-0.909l36.44-50.278c0.389-0.529,0.62-1.103,0.731-1.659
			c0.102-0.574,0.065-1.13-0.102-1.668c-0.167-0.524-0.454-1.017-0.87-1.451c-0.407-0.434-0.935-0.796-1.574-1.067l-27.774-11.848
			l-0.055,0.072l-30.265-12.897v49.55c0.38,0.326,0.685,0.687,0.907,1.085c0.223,0.398,0.371,0.832,0.426,1.27
			c0.065,0.443,0.037,0.904-0.083,1.352C599.125,454.654,598.921,455.106,598.616,455.531"/>
		<path clip-path="url(#SVGID_4_)" fill="#E5E4E3" d="M623.646,339.18c0.231,0.068,0.472,0.113,0.703,0.14
			c0.241,0.027,0.481,0.045,0.722,0.045s0.49-0.009,0.731-0.036c0.463-0.045,0.917-0.136,1.361-0.285
			c0.454-0.131,0.88-0.316,1.287-0.538c0.407-0.231,0.787-0.493,1.139-0.787c0.342-0.307,0.648-0.646,0.908-1.017l14.285-20.573
			c0.398-0.574,0.648-1.175,0.75-1.768c0.111-0.583,0.074-1.166-0.093-1.704c-0.176-0.547-0.472-1.044-0.898-1.465
			c-0.425-0.425-0.963-0.778-1.62-1.035l-4.046-1.519l-40.875,4.692v15.827l24.969,9.81
			C623.183,339.053,623.415,339.126,623.646,339.18"/>
		<path clip-path="url(#SVGID_4_)" fill="#F2F2F2" d="M658.526,352.94l121.902,47.941c0.25,0.095,0.518,0.185,0.778,0.249
			c0.268,0.077,0.537,0.131,0.815,0.167c0.268,0.036,0.546,0.054,0.824,0.068c0.277,0.009,0.555,0,0.833-0.014
			c0.537-0.036,1.065-0.118,1.574-0.258c0.518-0.131,1.009-0.325,1.481-0.547c0.463-0.231,0.907-0.497,1.296-0.805
			c0.398-0.312,0.75-0.674,1.046-1.062l42.005-55.3c0.463-0.628,0.759-1.27,0.879-1.908c0.129-0.637,0.083-1.27-0.12-1.853
			c-0.194-0.592-0.546-1.135-1.046-1.6c-0.5-0.47-1.139-0.859-1.917-1.13L723.138,298.96l-35.579,4.082l-30.922,43.872
			c-0.407,0.565-0.657,1.166-0.759,1.758c-0.111,0.592-0.074,1.175,0.102,1.722c0.167,0.538,0.472,1.058,0.898,1.492
			C657.313,352.321,657.859,352.683,658.526,352.94"/>
		<path clip-path="url(#SVGID_4_)" fill="#F2F2F2" d="M745.453,541.82l140.066,64.418c0.278,0.131,0.555,0.235,0.852,0.335
			c0.287,0.104,0.584,0.185,0.88,0.253c0.296,0.054,0.602,0.109,0.907,0.136c0.297,0.036,0.602,0.059,0.907,0.068h0.463
			c0.158-0.009,0.306-0.023,0.463-0.032c0.157-0.018,0.305-0.027,0.463-0.054c0.148-0.018,0.296-0.036,0.444-0.063v-83.36
			l-98.433-41.865c-0.259-0.113-0.518-0.208-0.787-0.28c-0.268-0.081-0.537-0.149-0.815-0.194c-0.277-0.054-0.555-0.081-0.833-0.099
			c-0.286-0.009-0.565-0.023-0.842-0.009c-0.537,0.009-1.065,0.081-1.583,0.203c-0.509,0.118-1.009,0.276-1.472,0.497
			c-0.472,0.203-0.908,0.457-1.305,0.759c-0.389,0.298-0.741,0.637-1.037,1.017l-40.375,51.838
			c-0.435,0.556-0.704,1.157-0.824,1.758c-0.111,0.61-0.074,1.225,0.111,1.799c0.185,0.583,0.519,1.148,0.972,1.627
			C744.138,541.065,744.74,541.49,745.453,541.82"/>
		<polygon clip-path="url(#SVGID_4_)" fill="#F7CB6D" points="627.215,528.068 643.982,520.894 793.168,457.022 822.534,444.451 
			890.906,415.184 890.906,380.163 782.678,428.036 754.274,440.608 609.8,504.507 603.236,507.413 597.996,514.664 
			597.996,567.786 623.039,533.755 		"/>
	</g>
	<g opacity="0.1">
		<g>
			<defs>
				<rect id="SVGID_5_" x="331.472" y="291.677" width="302.094" height="517.435"/>
			</defs>
			<clipPath id="SVGID_6_">
				<use xlink:href="#SVGID_5_"  overflow="visible"/>
			</clipPath>
			<polygon clip-path="url(#SVGID_6_)" fill="#585857" points="412.586,329.442 331.465,809.158 633.559,708.457 583.214,291.691 
							"/>
		</g>
	</g>
	<g opacity="0.4">
		<g>
			<defs>
				<rect id="SVGID_7_" x="455.578" y="512.666" width="88.878" height="36.481"/>
			</defs>
			<clipPath id="SVGID_8_">
				<use xlink:href="#SVGID_7_"  overflow="visible"/>
			</clipPath>
			<path clip-path="url(#SVGID_8_)" fill="#808184" d="M544.461,530.934c0,10.085-19.896,18.259-44.44,18.259
				c-24.552,0-44.448-8.173-44.448-18.259c0-10.081,19.896-18.254,44.448-18.254C524.565,512.68,544.461,520.853,544.461,530.934"/>
		</g>
	</g>
	<path fill="#FFFFFF" d="M601.1,190.452c0,55.838-45.263,101.112-101.1,101.112s-101.108-45.274-101.108-101.112
		c0-55.834,45.272-101.098,101.108-101.098S601.1,134.619,601.1,190.452"/>
	<path fill="#DD3D32" d="M499.999,8.851c-100.137,0-181.599,81.475-181.599,181.601c0,47.588,29.617,118.968,88.045,212.142
		c43.134,68.817,86.869,124.746,87.304,125.302c1.5,1.926,3.805,3.042,6.25,3.042h0.018c2.445-0.009,4.759-1.139,6.259-3.074
		c0.435-0.565,44.162-57.054,87.286-126.124c58.419-93.563,88.036-164.644,88.036-211.288
		C681.597,90.326,600.135,8.851,499.999,8.851"/>
	<g opacity="0.75">
		<g>
			<defs>
				<rect id="SVGID_9_" x="499.999" y="8.838" width="181.599" height="522.069"/>
			</defs>
			<clipPath id="SVGID_10_">
				<use xlink:href="#SVGID_9_"  overflow="visible"/>
			</clipPath>
			<path clip-path="url(#SVGID_10_)" fill="#010101" d="M499.999,278.025v252.909h0.018c2.445-0.009,4.759-1.139,6.259-3.074
				c0.435-0.556,44.162-57.05,87.286-126.124c58.419-93.554,88.036-164.64,88.036-211.283c0-100.126-81.463-181.596-181.599-181.596
				v94.024V278.025z"/>
		</g>
	</g>
	<g>
		<g>
			<defs>
				<rect id="SVGID_11_" x="395.724" y="107.346" width="208.596" height="208.584"/>
			</defs>
			<clipPath id="SVGID_12_">
				<use xlink:href="#SVGID_11_"  overflow="visible"/>
			</clipPath>
			<polygon clip-path="url(#SVGID_12_)" fill="#E7E7E7" points="395.72,265.711 445.963,315.967 604.315,315.967 604.315,107.364 
				395.72,107.364 			"/>
			<rect x="525.829" y="237.467" clip-path="url(#SVGID_12_)" fill="#E7E7E7" width="51.623" height="51.625"/>
			<polygon clip-path="url(#SVGID_12_)" fill="#E7E7E7" points="538.885,244.844 533.2,244.844 533.2,250.522 533.2,276.036 
				533.2,281.723 538.885,281.723 564.4,281.723 570.085,281.723 570.085,276.045 570.085,250.522 570.085,244.844 564.4,244.844 
							"/>
			<rect x="540.586" y="252.217" clip-path="url(#SVGID_12_)" fill="#E7E7E7" width="22.118" height="22.128"/>
			<rect x="422.582" y="237.467" clip-path="url(#SVGID_12_)" fill="#E7E7E7" width="51.623" height="51.625"/>
			<polygon clip-path="url(#SVGID_12_)" fill="#E7E7E7" points="435.637,244.844 429.952,244.844 429.952,250.522 429.952,276.036 
				429.952,281.723 435.637,281.723 461.152,281.723 466.837,281.723 466.837,276.045 466.837,250.522 466.837,244.844 
				461.152,244.844 			"/>
			<rect x="437.33" y="252.217" clip-path="url(#SVGID_12_)" fill="#E7E7E7" width="22.127" height="22.128"/>
			<rect x="422.582" y="134.23" clip-path="url(#SVGID_12_)" fill="#E7E7E7" width="51.623" height="51.616"/>
			<polygon clip-path="url(#SVGID_12_)" fill="#E7E7E7" points="435.637,141.594 429.952,141.594 429.952,147.272 429.952,172.786 
				429.952,178.473 435.637,178.473 461.152,178.473 466.837,178.473 466.837,172.795 466.837,147.272 466.837,141.594 
				461.152,141.594 			"/>
			<rect x="437.33" y="148.967" clip-path="url(#SVGID_12_)" fill="#E7E7E7" width="22.127" height="22.128"/>
			<rect x="525.829" y="134.23" clip-path="url(#SVGID_12_)" fill="#E7E7E7" width="51.623" height="51.616"/>
			<polygon clip-path="url(#SVGID_12_)" fill="#E7E7E7" points="538.885,141.594 533.2,141.594 533.2,147.272 533.2,172.786 
				533.2,178.473 538.885,178.473 564.4,178.473 570.085,178.473 570.085,172.795 570.085,147.272 570.085,141.594 564.4,141.594 
							"/>
			<rect x="540.586" y="148.967" clip-path="url(#SVGID_12_)" fill="#E7E7E7" width="22.118" height="22.128"/>
			<rect x="496.332" y="134.225" clip-path="url(#SVGID_12_)" fill="#E7E7E7" width="7.379" height="7.369"/>
			<polygon clip-path="url(#SVGID_12_)" fill="#E7E7E7" points="511.081,141.594 511.081,148.976 518.46,148.976 518.46,141.594 
				518.46,134.225 511.081,134.225 			"/>
			<rect x="481.575" y="148.972" clip-path="url(#SVGID_12_)" fill="#E7E7E7" width="7.379" height="7.378"/>
			<rect x="496.332" y="148.972" clip-path="url(#SVGID_12_)" fill="#E7E7E7" width="7.379" height="7.378"/>
			<polygon clip-path="url(#SVGID_12_)" fill="#E7E7E7" points="511.081,163.718 511.081,171.1 518.46,171.1 518.46,163.718 
				518.46,156.349 511.081,156.349 			"/>
			<rect x="511.081" y="178.477" clip-path="url(#SVGID_12_)" fill="#E7E7E7" width="7.379" height="7.369"/>
			<polygon clip-path="url(#SVGID_12_)" fill="#E7E7E7" points="459.455,193.219 452.085,193.219 452.085,200.601 459.455,200.601 
				459.455,207.97 466.834,207.97 466.834,200.601 474.203,200.601 474.203,193.219 466.834,193.219 			"/>
			<polygon clip-path="url(#SVGID_12_)" fill="#E7E7E7" points="496.331,163.718 488.961,163.718 488.961,171.1 488.961,178.477 
				496.331,178.477 496.331,185.846 496.331,193.224 496.331,200.597 496.331,207.965 503.709,207.965 503.709,200.597 
				503.709,193.224 503.709,185.846 503.709,178.477 503.709,171.1 496.331,171.1 			"/>
			<rect x="555.335" y="193.215" clip-path="url(#SVGID_12_)" fill="#E7E7E7" width="7.37" height="7.378"/>
			<polygon clip-path="url(#SVGID_12_)" fill="#E7E7E7" points="481.578,193.219 481.578,200.601 481.578,207.97 488.956,207.97 
				488.956,200.601 488.956,193.219 488.956,185.841 481.578,185.841 			"/>
			<polygon clip-path="url(#SVGID_12_)" fill="#E7E7E7" points="429.957,193.219 422.577,193.219 422.577,200.601 422.577,207.97 
				429.957,207.97 429.957,200.601 437.335,200.601 437.335,207.97 437.335,215.347 444.704,215.347 444.704,207.97 
				444.704,200.601 444.704,193.219 437.335,193.219 			"/>
			<rect x="466.836" y="207.965" clip-path="url(#SVGID_12_)" fill="#E7E7E7" width="7.37" height="7.378"/>
			<rect x="503.711" y="207.965" clip-path="url(#SVGID_12_)" fill="#E7E7E7" width="7.37" height="7.378"/>
			<polygon clip-path="url(#SVGID_12_)" fill="#E7E7E7" points="429.957,222.72 422.577,222.72 422.577,230.103 429.957,230.103 
				437.335,230.103 437.335,222.72 437.335,215.343 429.957,215.343 			"/>
			<polygon clip-path="url(#SVGID_12_)" fill="#E7E7E7" points="459.455,215.343 452.085,215.343 452.085,222.725 444.707,222.725 
				444.707,230.103 452.085,230.103 459.455,230.103 466.834,230.103 466.834,222.725 459.455,222.725 			"/>
			<polygon clip-path="url(#SVGID_12_)" fill="#E7E7E7" points="518.458,193.219 511.079,193.219 511.079,200.601 518.458,200.601 
				518.458,207.97 518.458,215.347 511.079,215.347 511.079,222.725 518.458,222.725 518.458,230.098 525.828,230.098 
				533.206,230.098 533.206,222.725 525.828,222.725 525.828,215.347 525.828,207.97 525.828,200.601 533.206,200.601 
				533.206,193.219 525.828,193.219 			"/>
			<polygon clip-path="url(#SVGID_12_)" fill="#E7E7E7" points="555.333,215.343 555.333,207.965 555.333,200.597 547.954,200.597 
				547.954,207.965 547.954,215.343 540.584,215.343 540.584,207.965 540.584,200.597 533.206,200.597 533.206,207.965 
				533.206,215.343 533.206,222.725 540.584,222.725 547.954,222.725 547.954,230.103 555.333,230.103 562.702,230.103 
				562.702,222.725 555.333,222.725 			"/>
			<polygon clip-path="url(#SVGID_12_)" fill="#E7E7E7" points="570.081,207.965 570.081,200.597 562.702,200.597 562.702,207.965 
				562.702,215.347 562.702,222.725 570.081,222.725 577.46,222.725 577.46,215.347 570.081,215.347 			"/>
			<polygon clip-path="url(#SVGID_12_)" fill="#E7E7E7" points="474.206,222.72 474.206,230.103 481.576,230.103 481.576,222.72 
				481.576,215.343 474.206,215.343 			"/>
			<polygon clip-path="url(#SVGID_12_)" fill="#E7E7E7" points="496.331,222.72 496.331,215.343 488.961,215.343 488.961,222.72 
				488.961,230.103 481.573,230.103 481.573,237.471 488.961,237.471 496.331,237.471 503.709,237.471 503.709,230.103 
				496.331,230.103 			"/>
			<rect x="511.081" y="237.471" clip-path="url(#SVGID_12_)" fill="#E7E7E7" width="7.379" height="7.378"/>
			<polygon clip-path="url(#SVGID_12_)" fill="#E7E7E7" points="488.957,244.844 481.578,244.844 481.578,252.226 481.578,259.595 
				488.957,259.595 488.957,252.226 496.326,252.226 503.705,252.226 503.705,244.844 496.326,244.844 			"/>
			<rect x="511.081" y="252.217" clip-path="url(#SVGID_12_)" fill="#E7E7E7" width="7.379" height="7.369"/>
			<rect x="488.954" y="259.59" clip-path="url(#SVGID_12_)" fill="#E7E7E7" width="7.37" height="7.378"/>
			<polygon clip-path="url(#SVGID_12_)" fill="#E7E7E7" points="481.578,274.346 481.578,281.728 488.956,281.728 488.956,274.346 
				488.956,266.968 481.578,266.968 			"/>
			<polygon clip-path="url(#SVGID_12_)" fill="#E7E7E7" points="511.081,266.968 503.711,266.968 496.332,266.968 496.332,274.35 
				503.711,274.35 503.711,281.728 503.711,289.096 511.081,289.096 511.081,281.728 518.46,281.728 518.46,274.35 511.081,274.35 
							"/>
			<rect x="488.954" y="281.723" clip-path="url(#SVGID_12_)" fill="#E7E7E7" width="7.37" height="7.369"/>
			<polygon clip-path="url(#SVGID_12_)" fill="#E7E7E7" points="445.964,315.953 445.964,265.711 395.72,265.711 			"/>
			<g opacity="0.15" clip-path="url(#SVGID_12_)">
				<g>
					<defs>
						<rect id="SVGID_13_" x="445.968" y="265.752" width="50.244" height="50.179"/>
					</defs>
					<clipPath id="SVGID_14_">
						<use xlink:href="#SVGID_13_"  overflow="visible"/>
					</clipPath>
					<polygon clip-path="url(#SVGID_14_)" fill="#E7E7E7" points="445.964,315.953 496.208,315.953 445.964,265.711 					"/>
				</g>
			</g>
		</g>
	</g>
	<polygon fill="#F7F8F8" points="395.72,257.276 445.963,307.531 604.315,307.531 604.315,98.929 395.72,98.929 	"/>
	<rect x="525.829" y="229.036" fill="#0D3653" width="51.623" height="51.625"/>
	<polygon fill="#F7F8F8" points="538.885,236.409 533.2,236.409 533.2,242.087 533.2,267.601 533.2,273.288 538.885,273.288 
		564.4,273.288 570.085,273.288 570.085,267.61 570.085,242.087 570.085,236.409 564.4,236.409 	"/>
	<rect x="540.586" y="243.782" fill="#0D3653" width="22.118" height="22.128"/>
	<rect x="422.582" y="229.036" fill="#0D3653" width="51.623" height="51.625"/>
	<polygon fill="#F7F8F8" points="435.637,236.409 429.952,236.409 429.952,242.087 429.952,267.601 429.952,273.288 
		435.637,273.288 461.152,273.288 466.837,273.288 466.837,267.61 466.837,242.087 466.837,236.409 461.152,236.409 	"/>
	<rect x="437.33" y="243.782" fill="#0D3653" width="22.127" height="22.128"/>
	<rect x="422.582" y="125.785" fill="#0D3653" width="51.623" height="51.616"/>
	<polygon fill="#F7F8F8" points="435.637,133.159 429.952,133.159 429.952,138.836 429.952,164.351 429.952,170.038 
		435.637,170.038 461.152,170.038 466.837,170.038 466.837,164.36 466.837,138.836 466.837,133.159 461.152,133.159 	"/>
	<rect x="437.33" y="140.536" fill="#0D3653" width="22.127" height="22.128"/>
	<rect x="525.829" y="125.785" fill="#0D3653" width="51.623" height="51.616"/>
	<polygon fill="#F7F8F8" points="538.885,133.159 533.2,133.159 533.2,138.836 533.2,164.351 533.2,170.038 538.885,170.038 
		564.4,170.038 570.085,170.038 570.085,164.36 570.085,138.836 570.085,133.159 564.4,133.159 	"/>
	<rect x="540.586" y="140.536" fill="#0D3653" width="22.118" height="22.128"/>
	<rect x="496.332" y="125.79" fill="#0D3653" width="7.379" height="7.369"/>
	<polygon fill="#0D3653" points="511.081,133.159 511.081,140.541 518.46,140.541 518.46,133.159 518.46,125.79 511.081,125.79 	"/>
	<rect x="481.575" y="140.536" fill="#0D3653" width="7.379" height="7.378"/>
	<rect x="496.332" y="140.536" fill="#0D3653" width="7.379" height="7.378"/>
	<polygon fill="#0D3653" points="511.081,155.282 511.081,162.664 518.46,162.664 518.46,155.282 518.46,147.914 511.081,147.914 	
		"/>
	<rect x="511.081" y="170.033" fill="#0D3653" width="7.379" height="7.369"/>
	<polygon fill="#0D3653" points="459.455,184.784 452.085,184.784 452.085,192.166 459.455,192.166 459.455,199.534 
		466.834,199.534 466.834,192.166 474.203,192.166 474.203,184.784 466.834,184.784 	"/>
	<polygon fill="#0D3653" points="496.331,155.282 488.961,155.282 488.961,162.664 488.961,170.042 496.331,170.042 
		496.331,177.411 496.331,184.788 496.331,192.161 496.331,199.53 503.709,199.53 503.709,192.161 503.709,184.788 503.709,177.411 
		503.709,170.042 503.709,162.664 496.331,162.664 	"/>
	<rect x="555.335" y="184.784" fill="#0D3653" width="7.37" height="7.378"/>
	<polygon fill="#0D3653" points="481.578,184.784 481.578,192.166 481.578,199.534 488.956,199.534 488.956,192.166 
		488.956,184.784 488.956,177.406 481.578,177.406 	"/>
	<polygon fill="#0D3653" points="429.957,184.784 422.577,184.784 422.577,192.166 422.577,199.534 429.957,199.534 
		429.957,192.166 437.335,192.166 437.335,199.534 437.335,206.912 444.704,206.912 444.704,199.534 444.704,192.166 
		444.704,184.784 437.335,184.784 	"/>
	<rect x="466.836" y="199.53" fill="#0D3653" width="7.37" height="7.378"/>
	<rect x="503.711" y="199.53" fill="#0D3653" width="7.37" height="7.378"/>
	<polygon fill="#0D3653" points="429.957,214.285 422.577,214.285 422.577,221.667 429.957,221.667 437.335,221.667 
		437.335,214.285 437.335,206.907 429.957,206.907 	"/>
	<polygon fill="#0D3653" points="459.455,206.907 452.085,206.907 452.085,214.29 444.707,214.29 444.707,221.667 452.085,221.667 
		459.455,221.667 466.834,221.667 466.834,214.29 459.455,214.29 	"/>
	<polygon fill="#0D3653" points="518.458,184.784 511.079,184.784 511.079,192.166 518.458,192.166 518.458,199.534 
		518.458,206.912 511.079,206.912 511.079,214.29 518.458,214.29 518.458,221.663 525.828,221.663 533.206,221.663 533.206,214.29 
		525.828,214.29 525.828,206.912 525.828,199.534 525.828,192.166 533.206,192.166 533.206,184.784 525.828,184.784 	"/>
	<polygon fill="#0D3653" points="555.333,206.907 555.333,199.53 555.333,192.161 547.954,192.161 547.954,199.53 547.954,206.907 
		540.584,206.907 540.584,199.53 540.584,192.161 533.206,192.161 533.206,199.53 533.206,206.907 533.206,214.29 540.584,214.29 
		547.954,214.29 547.954,221.667 555.333,221.667 562.702,221.667 562.702,214.29 555.333,214.29 	"/>
	<polygon fill="#0D3653" points="570.081,199.53 570.081,192.161 562.702,192.161 562.702,199.53 562.702,206.912 562.702,214.29 
		570.081,214.29 577.46,214.29 577.46,206.912 570.081,206.912 	"/>
	<polygon fill="#0D3653" points="474.206,214.285 474.206,221.667 481.576,221.667 481.576,214.285 481.576,206.907 
		474.206,206.907 	"/>
	<polygon fill="#0D3653" points="496.331,214.285 496.331,206.907 488.961,206.907 488.961,214.285 488.961,221.667 
		481.573,221.667 481.573,229.036 488.961,229.036 496.331,229.036 503.709,229.036 503.709,221.667 496.331,221.667 	"/>
	<rect x="511.081" y="229.027" fill="#0D3653" width="7.379" height="7.378"/>
	<polygon fill="#0D3653" points="488.957,236.409 481.578,236.409 481.578,243.791 481.578,251.159 488.957,251.159 
		488.957,243.791 496.326,243.791 503.705,243.791 503.705,236.409 496.326,236.409 	"/>
	<rect x="511.081" y="243.786" fill="#0D3653" width="7.379" height="7.369"/>
	<rect x="488.954" y="251.155" fill="#0D3653" width="7.37" height="7.378"/>
	<polygon fill="#0D3653" points="481.578,265.91 481.578,273.292 488.956,273.292 488.956,265.91 488.956,258.533 481.578,258.533 	
		"/>
	<polygon fill="#0D3653" points="511.081,258.533 503.711,258.533 496.332,258.533 496.332,265.915 503.711,265.915 
		503.711,273.292 503.711,280.661 511.081,280.661 511.081,273.292 518.46,273.292 518.46,265.915 511.081,265.915 	"/>
	<rect x="488.954" y="273.292" fill="#0D3653" width="7.37" height="7.369"/>
	<polygon fill="#FFFFFF" points="445.964,307.518 445.964,257.276 395.72,257.276 	"/>
	<g opacity="0.15">
		<g>
			<defs>
				<rect id="SVGID_15_" x="445.968" y="257.235" width="50.244" height="50.273"/>
			</defs>
			<clipPath id="SVGID_16_">
				<use xlink:href="#SVGID_15_"  overflow="visible"/>
			</clipPath>
			<polygon clip-path="url(#SVGID_16_)" fill="#6E6F71" points="445.964,307.518 496.208,307.518 445.964,257.276 			"/>
		</g>
	</g>
</g>
</svg>
