<?xml version="1.0" encoding="utf-8"?>
<!-- Generator: Adobe Illustrator 17.0.0, SVG Export Plug-In . SVG Version: 6.00 Build 0)  -->
<!DOCTYPE svg PUBLIC "-//W3C//DTD SVG 1.1//EN" "http://www.w3.org/Graphics/SVG/1.1/DTD/svg11.dtd">
<svg version="1.1" id="Layer_1" xmlns="http://www.w3.org/2000/svg" xmlns:xlink="http://www.w3.org/1999/xlink" x="0px" y="0px"
	 width="1000px" height="1209px" viewBox="0 0 1000 1209" enable-background="new 0 0 1000 1209" xml:space="preserve">
<g>
	<g opacity="0.1">
		<g>
			<defs>
				<rect id="SVGID_1_" x="10.427" y="47.471" width="979.146" height="1148.688"/>
			</defs>
			<clipPath id="SVGID_2_">
				<use xlink:href="#SVGID_1_"  overflow="visible"/>
			</clipPath>
			<polygon clip-path="url(#SVGID_2_)" fill="#010101" points="10.431,469.363 191.027,642.884 191.027,204.148 10.431,204.148 			
				"/>
			<path clip-path="url(#SVGID_2_)" fill="#010101" d="M117.775,47.488c-19.161,0-34.833,15.677-34.833,34.845v980.164
				c0,19.162,15.684,34.823,34.833,34.823h738.112c19.15,0,34.821-15.66,34.821-34.823V262.666c0-9.243-3.673-18.108-10.197-24.638
				L700.192,57.701c-6.537-6.536-15.395-10.213-24.635-10.213H117.775z"/>
			<g opacity="0.15" clip-path="url(#SVGID_2_)">
				<g>
					<defs>
						<rect id="SVGID_3_" x="709.388" y="248.196" width="181.323" height="191.025"/>
					</defs>
					<clipPath id="SVGID_4_">
						<use xlink:href="#SVGID_3_"  overflow="visible"/>
					</clipPath>
					<polygon clip-path="url(#SVGID_4_)" fill="#010101" points="890.712,439.238 890.712,248.241 709.33,248.241 					"/>
				</g>
			</g>
			<path clip-path="url(#SVGID_2_)" fill="#010101" d="M689.987,223.547c0,13.585,11.087,24.694,24.68,24.694h176.044
				L689.987,47.494V223.547z"/>
			<rect x="212.054" y="893.155" clip-path="url(#SVGID_2_)" fill="#010101" width="576.966" height="34.834"/>
			<rect x="212.054" y="809.006" clip-path="url(#SVGID_2_)" fill="#010101" width="576.966" height="34.834"/>
			<rect x="212.054" y="723.486" clip-path="url(#SVGID_2_)" fill="#010101" width="576.966" height="34.834"/>
			<rect x="212.054" y="642.884" clip-path="url(#SVGID_2_)" fill="#010101" width="576.966" height="34.834"/>
			<rect x="10.427" y="204.153" clip-path="url(#SVGID_2_)" fill="#010101" width="598.552" height="265.215"/>
			<g clip-path="url(#SVGID_2_)">
				<text transform="matrix(1 0 0 1 111.6968 411.7441)"><tspan x="0" y="0" fill="#010101" font-family="'Roboto-Bold'" font-size="203.0554" letter-spacing="20">XL</tspan><tspan x="279.152" y="0" fill="#010101" font-family="'Roboto-Bold'" font-size="203.0554">S</tspan></text>
			</g>
			<path clip-path="url(#SVGID_2_)" fill="#010101" d="M787.259,1181.841c-103.632,0-187.93-84.166-187.93-187.625
				s84.299-187.63,187.93-187.63c49.476,0,96.181,19.021,131.522,53.579c35.284,34.518,55.321,80.647,56.396,129.901l0.034,4.151
				c0,45.227-16.354,88.914-46.059,123.032c-29.369,33.745-69.85,55.97-113.945,62.528
				C806.072,1181.153,796.66,1181.841,787.259,1181.841"/>
			<path clip-path="url(#SVGID_2_)" fill="#010101" d="M787.265,820.899c45.711,0,88.86,17.583,121.497,49.513
				c32.604,31.868,51.106,74.484,52.087,119.964c0.035,1.291,0.058,2.56,0.058,3.835c0,41.781-15.106,82.136-42.547,113.632
				c-27.152,31.197-64.526,51.718-105.26,57.78c-8.442,1.269-17.139,1.906-25.835,1.906c-95.744,0-173.632-77.749-173.632-173.318
				C613.633,898.653,691.521,820.899,787.265,820.899 M787.265,792.268c-111.532,0-202.263,90.595-202.263,201.943
				c0,111.359,90.73,201.948,202.263,201.948c10.106,0,20.222-0.75,30.073-2.228c47.445-7.055,90.997-30.954,122.619-67.299
				c31.968-36.7,49.581-83.732,49.581-132.422c0-1.477-0.023-2.961-0.058-4.461c-1.155-53.021-22.716-102.669-60.703-139.815
				C890.757,812.75,840.494,792.268,787.265,792.268"/>
			<path clip-path="url(#SVGID_2_)" fill-rule="evenodd" clip-rule="evenodd" fill="#010101" d="M805.418,978.962
				c0.888,0,1.686,0.395,2.251,1.122c0.543,0.705,0.716,1.562,0.496,2.459l-6.236,27.892c-0.266,1.179,0.161,2.357,1.177,3.073
				c1.016,0.682,2.311,0.682,3.303-0.034c28.308-20.025,56.58-40.039,85.002-59.929c0.809-0.541,1.236-1.399,1.236-2.357
				c0-0.97-0.427-1.827-1.236-2.357l-85.06-59.94c-1.005-0.716-2.275-0.716-3.292-0.034c-1.016,0.716-1.455,1.895-1.188,3.107
				l6.26,27.892c0.219,0.863,0.058,1.72-0.498,2.436c-0.554,0.705-1.339,1.1-2.252,1.133c-10.141,0.18-19.9,1.004-29.854,1.004
				c-51.729,0-93.642,41.911-93.642,93.629c0,51.729,46.647,89.958,93.642,93.64C711.534,1098.543,693.24,975.291,805.418,978.962"
				/>
		</g>
	</g>
	<polygon fill="#0D3F20" points="10.431,434.715 191.027,608.236 191.027,169.5 10.431,169.5 	"/>
	<path fill="#FFFFFF" d="M117.775,12.841c-19.161,0-34.833,15.677-34.833,34.845v980.164c0,19.162,15.684,34.823,34.833,34.823
		h738.112c19.15,0,34.821-15.66,34.821-34.823V228.019c0-9.243-3.673-18.108-10.197-24.638L700.192,23.053
		c-6.537-6.536-15.395-10.213-24.635-10.213H117.775z"/>
	<g opacity="0.15">
		<g>
			<defs>
				<rect id="SVGID_5_" x="709.388" y="213.548" width="181.323" height="191.025"/>
			</defs>
			<clipPath id="SVGID_6_">
				<use xlink:href="#SVGID_5_"  overflow="visible"/>
			</clipPath>
			<polygon clip-path="url(#SVGID_6_)" fill="#A6A8AC" points="890.712,404.59 890.712,213.593 709.33,213.593 			"/>
		</g>
	</g>
	<path fill="#DDDDDC" d="M689.987,188.899c0,13.585,11.087,24.694,24.68,24.694h176.044L689.987,12.846V188.899z"/>
	<rect x="212.054" y="858.507" fill="#E7E7E7" width="576.966" height="34.834"/>
	<rect x="212.054" y="774.358" fill="#E7E7E7" width="576.966" height="34.834"/>
	<rect x="212.054" y="688.838" fill="#E7E7E7" width="576.966" height="34.834"/>
	<rect x="212.054" y="608.236" fill="#E7E7E7" width="576.966" height="34.834"/>
	<rect x="10.427" y="169.505" fill="#196A39" width="598.552" height="265.215"/>
	<path fill="#FFFFFF" d="M787.259,1147.193c-103.632,0-187.93-84.166-187.93-187.625s84.299-187.63,187.93-187.63
		c49.476,0,96.181,19.021,131.522,53.579c35.284,34.518,55.321,80.647,56.396,129.901l0.034,4.151
		c0,45.227-16.354,88.915-46.059,123.032c-29.369,33.745-69.85,55.97-113.945,62.528
		C806.072,1146.505,796.66,1147.193,787.259,1147.193"/>
	<path fill="#DD3D32" d="M787.265,786.251c45.711,0,88.86,17.583,121.497,49.513c32.604,31.868,51.106,74.484,52.087,119.964
		c0.035,1.291,0.058,2.56,0.058,3.835c0,41.781-15.106,82.136-42.547,113.631c-27.152,31.197-64.526,51.718-105.26,57.78
		c-8.442,1.269-17.139,1.906-25.835,1.906c-95.744,0-173.632-77.749-173.632-173.318
		C613.633,864.006,691.521,786.251,787.265,786.251 M787.265,757.621c-111.532,0-202.263,90.595-202.263,201.943
		c0,111.359,90.73,201.948,202.263,201.948c10.106,0,20.222-0.75,30.073-2.228c47.445-7.055,90.997-30.954,122.619-67.299
		c31.968-36.7,49.581-83.732,49.581-132.422c0-1.478-0.023-2.961-0.058-4.461c-1.155-53.021-22.716-102.669-60.703-139.815
		C890.757,778.102,840.494,757.621,787.265,757.621"/>
	<path fill-rule="evenodd" clip-rule="evenodd" fill="#DD3D32" d="M805.418,944.315c0.888,0,1.686,0.395,2.251,1.122
		c0.543,0.705,0.716,1.562,0.496,2.459l-6.236,27.892c-0.266,1.179,0.161,2.357,1.177,3.073c1.016,0.682,2.311,0.682,3.303-0.034
		c28.308-20.025,56.58-40.039,85.002-59.929c0.809-0.541,1.236-1.398,1.236-2.357c0-0.97-0.427-1.827-1.236-2.357l-85.06-59.94
		c-1.005-0.716-2.275-0.716-3.292-0.034c-1.016,0.716-1.455,1.895-1.188,3.107l6.26,27.892c0.219,0.863,0.058,1.72-0.498,2.436
		c-0.554,0.705-1.339,1.1-2.252,1.133c-10.141,0.18-19.9,1.004-29.854,1.004c-51.729,0-93.642,41.911-93.642,93.629
		c0,51.729,46.647,89.958,93.642,93.64C711.534,1063.896,693.24,940.644,805.418,944.315"/>
	<text transform="matrix(1 0 0 1 111.6968 377.0967)"><tspan x="0" y="0" fill="#FFFFFF" font-family="'Roboto-Bold'" font-size="203.0554" letter-spacing="20">XL</tspan><tspan x="279.152" y="0" fill="#FFFFFF" font-family="'Roboto-Bold'" font-size="203.0554">S</tspan></text>
</g>
</svg>
