<?xml version="1.0" encoding="utf-8"?>
<!-- Generator: Adobe Illustrator 17.0.0, SVG Export Plug-In . SVG Version: 6.00 Build 0)  -->
<!DOCTYPE svg PUBLIC "-//W3C//DTD SVG 1.1//EN" "http://www.w3.org/Graphics/SVG/1.1/DTD/svg11.dtd">
<svg version="1.1" id="Layer_1" xmlns="http://www.w3.org/2000/svg" xmlns:xlink="http://www.w3.org/1999/xlink" x="0px" y="0px"
	 width="1000px" height="928px" viewBox="0 0 1000 928" enable-background="new 0 0 1000 928" xml:space="preserve">
<g opacity="0.1">
	<g>
		<defs>
			<rect id="SVGID_1_" x="3.184" y="32.271" width="993.63" height="892.38"/>
		</defs>
		<clipPath id="SVGID_2_">
			<use xlink:href="#SVGID_1_"  overflow="visible"/>
		</clipPath>
		<path clip-path="url(#SVGID_2_)" fill="#010101" d="M749.497,757.066c0,10.74-8.79,19.527-19.526,19.527H22.718
			c-10.746,0-19.536-8.787-19.536-19.527V149.415c0-10.74,8.79-19.527,19.536-19.527H729.97c10.736,0,19.526,8.787,19.526,19.527
			V757.066z"/>
		<path clip-path="url(#SVGID_2_)" fill="#010101" d="M749.497,105.86v143.61H3.182V105.86c0-10.773,8.742-19.522,19.536-19.522
			H729.97C740.755,86.338,749.497,95.088,749.497,105.86"/>
		<rect x="3.184" y="248.577" clip-path="url(#SVGID_2_)" fill="#010101" width="746.314" height="14.696"/>
		<rect x="3.184" y="248.591" clip-path="url(#SVGID_2_)" fill="#010101" width="746.314" height="7.54"/>
		<g opacity="0.7" clip-path="url(#SVGID_2_)">
			<g>
				<defs>
					<rect id="SVGID_3_" x="69.324" y="110.393" width="54.068" height="54.02"/>
				</defs>
				<clipPath id="SVGID_4_">
					<use xlink:href="#SVGID_3_"  overflow="visible"/>
				</clipPath>
				<path clip-path="url(#SVGID_4_)" fill="#010101" d="M123.393,137.408c0,14.932-12.101,27.034-27.039,27.034
					c-14.928,0-27.029-12.101-27.029-27.034c0-14.937,12.101-27.038,27.029-27.038C111.292,110.37,123.393,122.471,123.393,137.408"
					/>
			</g>
		</g>
		<path clip-path="url(#SVGID_2_)" fill="#010101" d="M116.163,133.74c0,10.891-8.916,19.811-19.807,19.811
			s-19.807-8.92-19.807-19.811V52.067c0-10.891,8.916-19.801,19.807-19.801s19.807,8.91,19.807,19.801V133.74z"/>
		<g opacity="0.7" clip-path="url(#SVGID_2_)">
			<g>
				<defs>
					<rect id="SVGID_5_" x="182.105" y="110.393" width="54.077" height="54.02"/>
				</defs>
				<clipPath id="SVGID_6_">
					<use xlink:href="#SVGID_5_"  overflow="visible"/>
				</clipPath>
				<path clip-path="url(#SVGID_6_)" fill="#010101" d="M236.18,137.408c0,14.932-12.101,27.034-27.039,27.034
					c-14.928,0-27.029-12.101-27.029-27.034c0-14.937,12.101-27.038,27.029-27.038C224.079,110.37,236.18,122.471,236.18,137.408"/>
			</g>
		</g>
		<path clip-path="url(#SVGID_2_)" fill="#010101" d="M228.949,133.74c0,10.891-8.906,19.811-19.807,19.811
			c-10.891,0-19.807-8.92-19.807-19.811V52.067c0-10.891,8.916-19.801,19.807-19.801c10.901,0,19.807,8.91,19.807,19.801V133.74z"/>
		<g opacity="0.7" clip-path="url(#SVGID_2_)">
			<g>
				<defs>
					<rect id="SVGID_7_" x="294.897" y="110.393" width="54.067" height="54.02"/>
				</defs>
				<clipPath id="SVGID_8_">
					<use xlink:href="#SVGID_7_"  overflow="visible"/>
				</clipPath>
				<path clip-path="url(#SVGID_8_)" fill="#010101" d="M348.966,137.408c0,14.932-12.101,27.034-27.039,27.034
					c-14.928,0-27.029-12.101-27.029-27.034c0-14.937,12.101-27.038,27.029-27.038C336.865,110.37,348.966,122.471,348.966,137.408"
					/>
			</g>
		</g>
		<path clip-path="url(#SVGID_2_)" fill="#010101" d="M341.736,133.74c0,10.891-8.916,19.811-19.807,19.811
			c-10.891,0-19.807-8.92-19.807-19.811V52.067c0-10.891,8.916-19.801,19.807-19.801c10.891,0,19.807,8.91,19.807,19.801V133.74z"/>
		<g opacity="0.7" clip-path="url(#SVGID_2_)">
			<g>
				<defs>
					<rect id="SVGID_9_" x="407.678" y="110.393" width="54.077" height="54.02"/>
				</defs>
				<clipPath id="SVGID_10_">
					<use xlink:href="#SVGID_9_"  overflow="visible"/>
				</clipPath>
				<path clip-path="url(#SVGID_10_)" fill="#010101" d="M461.751,137.408c0,14.932-12.101,27.034-27.029,27.034
					c-14.938,0-27.039-12.101-27.039-27.034c0-14.937,12.101-27.038,27.039-27.038C449.65,110.37,461.751,122.471,461.751,137.408"
					/>
			</g>
		</g>
		<path clip-path="url(#SVGID_2_)" fill="#010101" d="M454.522,133.74c0,10.891-8.916,19.811-19.807,19.811
			c-10.891,0-19.807-8.92-19.807-19.811V52.067c0-10.891,8.916-19.801,19.807-19.801c10.891,0,19.807,8.91,19.807,19.801V133.74z"/>
		<g opacity="0.7" clip-path="url(#SVGID_2_)">
			<g>
				<defs>
					<rect id="SVGID_11_" x="520.47" y="110.393" width="54.067" height="54.02"/>
				</defs>
				<clipPath id="SVGID_12_">
					<use xlink:href="#SVGID_11_"  overflow="visible"/>
				</clipPath>
				<path clip-path="url(#SVGID_12_)" fill="#010101" d="M574.539,137.408c0,14.932-12.101,27.034-27.039,27.034
					c-14.928,0-27.029-12.101-27.029-27.034c0-14.937,12.101-27.038,27.029-27.038C562.438,110.37,574.539,122.471,574.539,137.408"
					/>
			</g>
		</g>
		<path clip-path="url(#SVGID_2_)" fill="#010101" d="M567.309,133.74c0,10.891-8.916,19.811-19.807,19.811
			s-19.807-8.92-19.807-19.811V52.067c0-10.891,8.916-19.801,19.807-19.801s19.807,8.91,19.807,19.801V133.74z"/>
		<g opacity="0.7" clip-path="url(#SVGID_2_)">
			<g>
				<defs>
					<rect id="SVGID_13_" x="633.251" y="110.393" width="54.077" height="54.02"/>
				</defs>
				<clipPath id="SVGID_14_">
					<use xlink:href="#SVGID_13_"  overflow="visible"/>
				</clipPath>
				<path clip-path="url(#SVGID_14_)" fill="#010101" d="M687.324,137.408c0,14.932-12.101,27.034-27.039,27.034
					c-14.928,0-27.029-12.101-27.029-27.034c0-14.937,12.101-27.038,27.029-27.038C675.223,110.37,687.324,122.471,687.324,137.408"
					/>
			</g>
		</g>
		<path clip-path="url(#SVGID_2_)" fill="#010101" d="M680.095,133.74c0,10.891-8.916,19.811-19.807,19.811
			s-19.807-8.92-19.807-19.811V52.067c0-10.891,8.916-19.801,19.807-19.801s19.807,8.91,19.807,19.801V133.74z"/>
		<path clip-path="url(#SVGID_2_)" fill="#010101" d="M213.04,377.547c0,5.89-4.821,10.711-10.717,10.711h-33.97
			c-5.895,0-10.717-4.822-10.717-10.711V343.57c0-5.885,4.821-10.707,10.717-10.707h33.97c5.896,0,10.717,4.822,10.717,10.707
			V377.547z"/>
		<path clip-path="url(#SVGID_2_)" fill="#010101" d="M308.553,377.547c0,5.89-4.821,10.711-10.707,10.711h-33.98
			c-5.895,0-10.717-4.822-10.717-10.711V343.57c0-5.885,4.821-10.707,10.717-10.707h33.98c5.886,0,10.707,4.822,10.707,10.707
			V377.547z"/>
		<path clip-path="url(#SVGID_2_)" fill="#010101" d="M404.05,377.547c0,5.89-4.821,10.711-10.717,10.711h-33.97
			c-5.895,0-10.717-4.822-10.717-10.711V343.57c0-5.885,4.821-10.707,10.717-10.707h33.97c5.896,0,10.717,4.822,10.717,10.707
			V377.547z"/>
		<path clip-path="url(#SVGID_2_)" fill="#010101" d="M499.546,377.547c0,5.89-4.821,10.711-10.717,10.711h-33.97
			c-5.895,0-10.717-4.822-10.717-10.711V343.57c0-5.885,4.821-10.707,10.717-10.707h33.97c5.896,0,10.717,4.822,10.717,10.707
			V377.547z"/>
		<path clip-path="url(#SVGID_2_)" fill="#010101" d="M595.043,377.547c0,5.89-4.821,10.711-10.717,10.711h-33.97
			c-5.895,0-10.717-4.822-10.717-10.711V343.57c0-5.885,4.821-10.707,10.717-10.707h33.97c5.896,0,10.717,4.822,10.717,10.707
			V377.547z"/>
		<path clip-path="url(#SVGID_2_)" fill="#010101" d="M690.539,377.547c0,5.89-4.821,10.711-10.717,10.711h-33.97
			c-5.895,0-10.717-4.822-10.717-10.711V343.57c0-5.885,4.821-10.707,10.717-10.707h33.97c5.896,0,10.717,4.822,10.717,10.707
			V377.547z"/>
		<path clip-path="url(#SVGID_2_)" fill="#010101" d="M117.543,459.73c0,5.899-4.821,10.721-10.717,10.721h-33.97
			c-5.895,0-10.717-4.822-10.717-10.721v-33.977c0-5.885,4.821-10.707,10.717-10.707h33.97c5.896,0,10.717,4.822,10.717,10.707
			V459.73z"/>
		<path clip-path="url(#SVGID_2_)" fill="#010101" d="M213.04,459.73c0,5.899-4.821,10.721-10.717,10.721h-33.97
			c-5.895,0-10.717-4.822-10.717-10.721v-33.977c0-5.885,4.821-10.707,10.717-10.707h33.97c5.896,0,10.717,4.822,10.717,10.707
			V459.73z"/>
		<path clip-path="url(#SVGID_2_)" fill="#010101" d="M308.553,459.73c0,5.899-4.821,10.721-10.707,10.721h-33.98
			c-5.895,0-10.717-4.822-10.717-10.721v-33.977c0-5.885,4.821-10.707,10.717-10.707h33.98c5.886,0,10.707,4.822,10.707,10.707
			V459.73z"/>
		<path clip-path="url(#SVGID_2_)" fill="#010101" d="M404.05,459.73c0,5.899-4.821,10.721-10.717,10.721h-33.97
			c-5.895,0-10.717-4.822-10.717-10.721v-33.977c0-5.885,4.821-10.707,10.717-10.707h33.97c5.896,0,10.717,4.822,10.717,10.707
			V459.73z"/>
		<path clip-path="url(#SVGID_2_)" fill="#010101" d="M499.546,459.73c0,5.899-4.821,10.721-10.717,10.721h-33.97
			c-5.895,0-10.717-4.822-10.717-10.721v-33.977c0-5.885,4.821-10.707,10.717-10.707h33.97c5.896,0,10.717,4.822,10.717,10.707
			V459.73z"/>
		<path clip-path="url(#SVGID_2_)" fill="#010101" d="M595.043,459.73c0,5.899-4.821,10.721-10.717,10.721h-33.97
			c-5.895,0-10.717-4.822-10.717-10.721v-33.977c0-5.885,4.821-10.707,10.717-10.707h33.97c5.896,0,10.717,4.822,10.717,10.707
			V459.73z"/>
		<path clip-path="url(#SVGID_2_)" fill="#010101" d="M690.539,459.73c0,5.899-4.821,10.721-10.717,10.721h-33.97
			c-5.895,0-10.717-4.822-10.717-10.721v-33.977c0-5.885,4.821-10.707,10.717-10.707h33.97c5.896,0,10.717,4.822,10.717,10.707
			V459.73z"/>
		<path clip-path="url(#SVGID_2_)" fill="#010101" d="M117.543,541.923c0,5.89-4.821,10.711-10.717,10.711h-33.97
			c-5.895,0-10.717-4.821-10.717-10.711v-33.977c0-5.885,4.821-10.707,10.717-10.707h33.97c5.896,0,10.717,4.822,10.717,10.707
			V541.923z"/>
		<path clip-path="url(#SVGID_2_)" fill="#010101" d="M213.04,541.923c0,5.89-4.821,10.711-10.717,10.711h-33.97
			c-5.895,0-10.717-4.821-10.717-10.711v-33.977c0-5.885,4.821-10.707,10.717-10.707h33.97c5.896,0,10.717,4.822,10.717,10.707
			V541.923z"/>
		<path clip-path="url(#SVGID_2_)" fill="#010101" d="M308.553,541.923c0,5.89-4.821,10.711-10.707,10.711h-33.98
			c-5.895,0-10.717-4.821-10.717-10.711v-33.977c0-5.885,4.821-10.707,10.717-10.707h33.98c5.886,0,10.707,4.822,10.707,10.707
			V541.923z"/>
		<path clip-path="url(#SVGID_2_)" fill="#010101" d="M404.05,541.923c0,5.89-4.821,10.711-10.717,10.711h-33.97
			c-5.895,0-10.717-4.821-10.717-10.711v-33.977c0-5.885,4.821-10.707,10.717-10.707h33.97c5.896,0,10.717,4.822,10.717,10.707
			V541.923z"/>
		<path clip-path="url(#SVGID_2_)" fill="#010101" d="M499.546,541.923c0,5.89-4.821,10.711-10.717,10.711h-33.97
			c-5.895,0-10.717-4.821-10.717-10.711v-33.977c0-5.885,4.821-10.707,10.717-10.707h33.97c5.896,0,10.717,4.822,10.717,10.707
			V541.923z"/>
		<path clip-path="url(#SVGID_2_)" fill="#010101" d="M595.043,541.923c0,5.89-4.821,10.711-10.717,10.711h-33.97
			c-5.895,0-10.717-4.821-10.717-10.711v-33.977c0-5.885,4.821-10.707,10.717-10.707h33.97c5.896,0,10.717,4.822,10.717,10.707
			V541.923z"/>
		<path clip-path="url(#SVGID_2_)" fill="#010101" d="M690.539,541.923c0,5.89-4.821,10.711-10.717,10.711h-33.97
			c-5.895,0-10.717-4.821-10.717-10.711v-33.977c0-5.885,4.821-10.707,10.717-10.707h33.97c5.896,0,10.717,4.822,10.717,10.707
			V541.923z"/>
		<path clip-path="url(#SVGID_2_)" fill="#010101" d="M117.543,624.106c0,5.89-4.821,10.711-10.717,10.711h-33.97
			c-5.895,0-10.717-4.822-10.717-10.711v-33.977c0-5.885,4.821-10.707,10.717-10.707h33.97c5.896,0,10.717,4.822,10.717,10.707
			V624.106z"/>
		<path clip-path="url(#SVGID_2_)" fill="#010101" d="M213.04,624.106c0,5.89-4.821,10.711-10.717,10.711h-33.97
			c-5.895,0-10.717-4.822-10.717-10.711v-33.977c0-5.885,4.821-10.707,10.717-10.707h33.97c5.896,0,10.717,4.822,10.717,10.707
			V624.106z"/>
		<path clip-path="url(#SVGID_2_)" fill="#010101" d="M308.553,624.106c0,5.89-4.821,10.711-10.707,10.711h-33.98
			c-5.895,0-10.717-4.822-10.717-10.711v-33.977c0-5.885,4.821-10.707,10.717-10.707h33.98c5.886,0,10.707,4.822,10.707,10.707
			V624.106z"/>
		<path clip-path="url(#SVGID_2_)" fill="#010101" d="M404.05,624.106c0,5.89-4.821,10.711-10.717,10.711h-33.97
			c-5.895,0-10.717-4.822-10.717-10.711v-33.977c0-5.885,4.821-10.707,10.717-10.707h33.97c5.896,0,10.717,4.822,10.717,10.707
			V624.106z"/>
		<path clip-path="url(#SVGID_2_)" fill="#010101" d="M499.546,624.106c0,5.89-4.821,10.711-10.717,10.711h-33.97
			c-5.895,0-10.717-4.822-10.717-10.711v-33.977c0-5.885,4.821-10.707,10.717-10.707h33.97c5.896,0,10.717,4.822,10.717,10.707
			V624.106z"/>
		<path clip-path="url(#SVGID_2_)" fill="#010101" d="M595.043,624.106c0,5.89-4.821,10.711-10.717,10.711h-33.97
			c-5.895,0-10.717-4.822-10.717-10.711v-33.977c0-5.885,4.821-10.707,10.717-10.707h33.97c5.896,0,10.717,4.822,10.717,10.707
			V624.106z"/>
		<path clip-path="url(#SVGID_2_)" fill="#010101" d="M690.539,624.106c0,5.89-4.821,10.711-10.717,10.711h-33.97
			c-5.895,0-10.717-4.822-10.717-10.711v-33.977c0-5.885,4.821-10.707,10.717-10.707h33.97c5.896,0,10.717,4.822,10.717,10.707
			V624.106z"/>
		<path clip-path="url(#SVGID_2_)" fill="#010101" d="M117.553,706.289c0,5.899-4.821,10.721-10.717,10.721h-33.97
			c-5.895,0-10.717-4.822-10.717-10.721v-33.977c0-5.885,4.821-10.707,10.717-10.707h33.97c5.896,0,10.717,4.821,10.717,10.707
			V706.289z"/>
		<path clip-path="url(#SVGID_2_)" fill="#010101" d="M213.049,706.289c0,5.899-4.821,10.721-10.717,10.721h-33.97
			c-5.895,0-10.717-4.822-10.717-10.721v-33.977c0-5.885,4.821-10.707,10.717-10.707h33.97c5.896,0,10.717,4.821,10.717,10.707
			V706.289z"/>
		<path clip-path="url(#SVGID_2_)" fill="#010101" d="M308.562,706.289c0,5.899-4.821,10.721-10.717,10.721h-33.97
			c-5.895,0-10.717-4.822-10.717-10.721v-33.977c0-5.885,4.821-10.707,10.717-10.707h33.97c5.896,0,10.717,4.821,10.717,10.707
			V706.289z"/>
		<path clip-path="url(#SVGID_2_)" fill="#010101" d="M404.059,706.289c0,5.899-4.821,10.721-10.717,10.721h-33.97
			c-5.895,0-10.717-4.822-10.717-10.721v-33.977c0-5.885,4.821-10.707,10.717-10.707h33.97c5.896,0,10.717,4.821,10.717,10.707
			V706.289z"/>
		<path clip-path="url(#SVGID_2_)" fill="#010101" d="M996.81,677.379c0,136.609-110.729,247.32-247.316,247.32
			c-136.577,0-247.316-110.71-247.316-247.32c0-136.576,110.739-247.315,247.316-247.315
			C886.081,430.064,996.81,540.803,996.81,677.379"/>
		<path clip-path="url(#SVGID_2_)" fill="#010101" d="M967.87,677.379c0,120.627-97.776,218.381-218.37,218.381
			c-120.604,0-218.38-97.754-218.38-218.381c0-120.59,97.776-218.376,218.38-218.376C870.093,459.002,967.87,556.789,967.87,677.379
			"/>
		<path clip-path="url(#SVGID_2_)" fill="#010101" d="M938.945,677.379c0,104.622-84.833,189.447-189.454,189.447
			c-104.611,0-189.415-84.825-189.415-189.447c0-104.608,84.804-189.414,189.415-189.414
			C854.112,487.965,938.945,572.771,938.945,677.379"/>
		<rect x="744.232" y="504.533" clip-path="url(#SVGID_2_)" fill="#010101" width="10.523" height="33.127"/>
		<rect x="576.638" y="672.127" clip-path="url(#SVGID_2_)" fill="#010101" width="33.166" height="10.522"/>
		<rect x="744.232" y="817.094" clip-path="url(#SVGID_2_)" fill="#010101" width="10.523" height="33.136"/>
		<rect x="889.212" y="672.122" clip-path="url(#SVGID_2_)" fill="#010101" width="33.137" height="10.522"/>
		<path clip-path="url(#SVGID_2_)" fill="#010101" d="M753.227,696.164c-1.665,0.922-1.085,5.19,1.297,9.492l65.82,119.148
			c2.381,4.302,5.683,7.076,7.348,6.159c1.675-0.931,1.084-5.2-1.288-9.506l-65.83-119.134
			C758.203,698.017,754.892,695.247,753.227,696.164"/>
		<path clip-path="url(#SVGID_2_)" fill="#010101" d="M749.884,674.599c-8.548,0-15.46,6.925-15.46,15.471
			c0,8.527,6.912,15.462,15.46,15.462c8.538,0,15.47-6.935,15.47-15.462C765.354,681.524,758.422,674.599,749.884,674.599"/>
		<path clip-path="url(#SVGID_2_)" fill="#010101" d="M734.674,700.777c-3.534,3.418-5.354,7.322-4.037,8.688
			c1.317,1.371,5.286-0.293,8.829-3.701l111.92-107.832c3.533-3.408,5.353-7.322,4.027-8.688c-1.316-1.371-5.295,0.303-8.839,3.701
			L734.674,700.777z"/>
		<path clip-path="url(#SVGID_2_)" fill="#010101" d="M647.058,689.574c-0.01,3.777,4.017,6.868,8.935,6.878l112.646,0.17
			c4.918,0,8.955-3.077,8.955-6.84c0-3.767-4.017-6.854-8.935-6.868l-112.646-0.17C651.095,682.734,647.058,685.812,647.058,689.574
			"/>
		<path clip-path="url(#SVGID_2_)" fill="#010101" d="M753.227,683.996c-1.665,0.922-1.085,5.181,1.297,9.492l65.82,119.148
			c2.381,4.302,5.683,7.076,7.348,6.15c1.675-0.922,1.084-5.19-1.288-9.496l-65.83-119.134
			C758.203,685.849,754.892,683.079,753.227,683.996"/>
		<path clip-path="url(#SVGID_2_)" fill="#010101" d="M749.884,662.432c-8.548,0-15.46,6.925-15.46,15.471
			c0,8.527,6.912,15.462,15.46,15.462c8.538,0,15.47-6.934,15.47-15.462C765.354,669.357,758.422,662.432,749.884,662.432"/>
		<path clip-path="url(#SVGID_2_)" fill="#010101" d="M734.674,688.61c-3.534,3.408-5.354,7.322-4.037,8.688
			c1.317,1.371,5.286-0.293,8.829-3.701l111.92-107.832c3.533-3.418,5.353-7.322,4.027-8.688c-1.316-1.371-5.295,0.293-8.839,3.701
			L734.674,688.61z"/>
		<path clip-path="url(#SVGID_2_)" fill="#010101" d="M647.058,677.407c-0.01,3.777,4.017,6.868,8.935,6.878l112.646,0.161
			c4.918,0.009,8.955-3.068,8.955-6.83c0-3.777-4.017-6.854-8.935-6.868l-112.646-0.17
			C651.095,670.567,647.058,673.635,647.058,677.407"/>
	</g>
</g>
<path fill="#FFFFFF" d="M749.497,728.023c0,10.74-8.79,19.527-19.526,19.527H22.718c-10.746,0-19.536-8.787-19.536-19.527V120.372
	c0-10.74,8.79-19.527,19.536-19.527H729.97c10.736,0,19.526,8.787,19.526,19.527V728.023z"/>
<path fill="#DD3D32" d="M749.497,76.818v143.61H3.182V76.818c0-10.773,8.742-19.522,19.536-19.522H729.97
	C740.755,57.296,749.497,66.045,749.497,76.818"/>
<g opacity="0.3">
	<g>
		<defs>
			<rect id="SVGID_15_" x="3.184" y="219.596" width="746.314" height="14.616"/>
		</defs>
		<clipPath id="SVGID_16_">
			<use xlink:href="#SVGID_15_"  overflow="visible"/>
		</clipPath>
		<rect x="3.184" y="219.534" clip-path="url(#SVGID_16_)" fill="#222222" width="746.314" height="14.696"/>
	</g>
</g>
<rect x="3.184" y="219.549" fill="#9E1D21" width="746.314" height="7.54"/>
<g opacity="0.7">
	<g>
		<defs>
			<rect id="SVGID_17_" x="69.324" y="81.351" width="54.068" height="54.02"/>
		</defs>
		<clipPath id="SVGID_18_">
			<use xlink:href="#SVGID_17_"  overflow="visible"/>
		</clipPath>
		<path clip-path="url(#SVGID_18_)" fill="#231A0E" d="M123.393,108.366c0,14.932-12.101,27.034-27.039,27.034
			c-14.928,0-27.029-12.101-27.029-27.034c0-14.937,12.101-27.038,27.029-27.038C111.292,81.327,123.393,93.428,123.393,108.366"/>
	</g>
</g>
<path fill="#0D3653" d="M116.163,104.698c0,10.891-8.916,19.811-19.807,19.811s-19.807-8.92-19.807-19.811V23.025
	c0-10.891,8.916-19.801,19.807-19.801s19.807,8.91,19.807,19.801V104.698z"/>
<g opacity="0.7">
	<g>
		<defs>
			<rect id="SVGID_19_" x="182.105" y="81.351" width="54.077" height="54.02"/>
		</defs>
		<clipPath id="SVGID_20_">
			<use xlink:href="#SVGID_19_"  overflow="visible"/>
		</clipPath>
		<path clip-path="url(#SVGID_20_)" fill="#231A0E" d="M236.18,108.366c0,14.932-12.101,27.034-27.039,27.034
			c-14.928,0-27.029-12.101-27.029-27.034c0-14.937,12.101-27.038,27.029-27.038C224.079,81.327,236.18,93.428,236.18,108.366"/>
	</g>
</g>
<path fill="#0D3653" d="M228.949,104.698c0,10.891-8.906,19.811-19.807,19.811c-10.891,0-19.807-8.92-19.807-19.811V23.025
	c0-10.891,8.916-19.801,19.807-19.801c10.901,0,19.807,8.91,19.807,19.801V104.698z"/>
<g opacity="0.7">
	<g>
		<defs>
			<rect id="SVGID_21_" x="294.897" y="81.351" width="54.067" height="54.02"/>
		</defs>
		<clipPath id="SVGID_22_">
			<use xlink:href="#SVGID_21_"  overflow="visible"/>
		</clipPath>
		<path clip-path="url(#SVGID_22_)" fill="#231A0E" d="M348.966,108.366c0,14.932-12.101,27.034-27.039,27.034
			c-14.928,0-27.029-12.101-27.029-27.034c0-14.937,12.101-27.038,27.029-27.038C336.865,81.327,348.966,93.428,348.966,108.366"/>
	</g>
</g>
<path fill="#0D3653" d="M341.736,104.698c0,10.891-8.916,19.811-19.807,19.811c-10.891,0-19.807-8.92-19.807-19.811V23.025
	c0-10.891,8.916-19.801,19.807-19.801c10.891,0,19.807,8.91,19.807,19.801V104.698z"/>
<g opacity="0.7">
	<g>
		<defs>
			<rect id="SVGID_23_" x="407.678" y="81.351" width="54.077" height="54.02"/>
		</defs>
		<clipPath id="SVGID_24_">
			<use xlink:href="#SVGID_23_"  overflow="visible"/>
		</clipPath>
		<path clip-path="url(#SVGID_24_)" fill="#231A0E" d="M461.751,108.366c0,14.932-12.101,27.034-27.029,27.034
			c-14.938,0-27.039-12.101-27.039-27.034c0-14.937,12.101-27.038,27.039-27.038C449.65,81.327,461.751,93.428,461.751,108.366"/>
	</g>
</g>
<path fill="#0D3653" d="M454.522,104.698c0,10.891-8.916,19.811-19.807,19.811c-10.891,0-19.807-8.92-19.807-19.811V23.025
	c0-10.891,8.916-19.801,19.807-19.801c10.891,0,19.807,8.91,19.807,19.801V104.698z"/>
<g opacity="0.7">
	<g>
		<defs>
			<rect id="SVGID_25_" x="520.47" y="81.351" width="54.067" height="54.02"/>
		</defs>
		<clipPath id="SVGID_26_">
			<use xlink:href="#SVGID_25_"  overflow="visible"/>
		</clipPath>
		<path clip-path="url(#SVGID_26_)" fill="#231A0E" d="M574.539,108.366c0,14.932-12.101,27.034-27.039,27.034
			c-14.928,0-27.029-12.101-27.029-27.034c0-14.937,12.101-27.038,27.029-27.038C562.438,81.327,574.539,93.428,574.539,108.366"/>
	</g>
</g>
<path fill="#0D3653" d="M567.309,104.698c0,10.891-8.916,19.811-19.807,19.811s-19.807-8.92-19.807-19.811V23.025
	c0-10.891,8.916-19.801,19.807-19.801s19.807,8.91,19.807,19.801V104.698z"/>
<g opacity="0.7">
	<g>
		<defs>
			<rect id="SVGID_27_" x="633.251" y="81.351" width="54.077" height="54.02"/>
		</defs>
		<clipPath id="SVGID_28_">
			<use xlink:href="#SVGID_27_"  overflow="visible"/>
		</clipPath>
		<path clip-path="url(#SVGID_28_)" fill="#231A0E" d="M687.324,108.366c0,14.932-12.101,27.034-27.039,27.034
			c-14.928,0-27.029-12.101-27.029-27.034c0-14.937,12.101-27.038,27.029-27.038C675.223,81.327,687.324,93.428,687.324,108.366"/>
	</g>
</g>
<path fill="#0D3653" d="M680.095,104.698c0,10.891-8.916,19.811-19.807,19.811s-19.807-8.92-19.807-19.811V23.025
	c0-10.891,8.916-19.801,19.807-19.801s19.807,8.91,19.807,19.801V104.698z"/>
<g opacity="0.2">
	<g>
		<defs>
			<rect id="SVGID_29_" x="157.642" y="303.816" width="55.394" height="55.376"/>
		</defs>
		<clipPath id="SVGID_30_">
			<use xlink:href="#SVGID_29_"  overflow="visible"/>
		</clipPath>
		<path clip-path="url(#SVGID_30_)" fill="#222222" d="M213.04,348.505c0,5.89-4.821,10.711-10.717,10.711h-33.97
			c-5.895,0-10.717-4.822-10.717-10.711v-33.977c0-5.885,4.821-10.707,10.717-10.707h33.97c5.896,0,10.717,4.822,10.717,10.707
			V348.505z"/>
	</g>
</g>
<g opacity="0.2">
	<g>
		<defs>
			<rect id="SVGID_31_" x="253.153" y="303.816" width="55.403" height="55.376"/>
		</defs>
		<clipPath id="SVGID_32_">
			<use xlink:href="#SVGID_31_"  overflow="visible"/>
		</clipPath>
		<path clip-path="url(#SVGID_32_)" fill="#222222" d="M308.553,348.505c0,5.89-4.821,10.711-10.707,10.711h-33.98
			c-5.895,0-10.717-4.822-10.717-10.711v-33.977c0-5.885,4.821-10.707,10.717-10.707h33.98c5.886,0,10.707,4.822,10.707,10.707
			V348.505z"/>
	</g>
</g>
<g opacity="0.2">
	<g>
		<defs>
			<rect id="SVGID_33_" x="348.645" y="303.816" width="55.403" height="55.376"/>
		</defs>
		<clipPath id="SVGID_34_">
			<use xlink:href="#SVGID_33_"  overflow="visible"/>
		</clipPath>
		<path clip-path="url(#SVGID_34_)" fill="#222222" d="M404.05,348.505c0,5.89-4.821,10.711-10.717,10.711h-33.97
			c-5.895,0-10.717-4.822-10.717-10.711v-33.977c0-5.885,4.821-10.707,10.717-10.707h33.97c5.896,0,10.717,4.822,10.717,10.707
			V348.505z"/>
	</g>
</g>
<g opacity="0.2">
	<g>
		<defs>
			<rect id="SVGID_35_" x="444.146" y="303.816" width="55.403" height="55.376"/>
		</defs>
		<clipPath id="SVGID_36_">
			<use xlink:href="#SVGID_35_"  overflow="visible"/>
		</clipPath>
		<path clip-path="url(#SVGID_36_)" fill="#222222" d="M499.546,348.505c0,5.89-4.821,10.711-10.717,10.711h-33.97
			c-5.895,0-10.717-4.822-10.717-10.711v-33.977c0-5.885,4.821-10.707,10.717-10.707h33.97c5.896,0,10.717,4.822,10.717,10.707
			V348.505z"/>
	</g>
</g>
<g opacity="0.3">
	<g>
		<defs>
			<rect id="SVGID_37_" x="539.637" y="303.816" width="55.404" height="55.376"/>
		</defs>
		<clipPath id="SVGID_38_">
			<use xlink:href="#SVGID_37_"  overflow="visible"/>
		</clipPath>
		<path clip-path="url(#SVGID_38_)" fill="#222222" d="M595.043,348.505c0,5.89-4.821,10.711-10.717,10.711h-33.97
			c-5.895,0-10.717-4.822-10.717-10.711v-33.977c0-5.885,4.821-10.707,10.717-10.707h33.97c5.896,0,10.717,4.822,10.717,10.707
			V348.505z"/>
	</g>
</g>
<path fill="#DD3D32" d="M690.539,348.505c0,5.89-4.821,10.711-10.717,10.711h-33.97c-5.895,0-10.717-4.822-10.717-10.711v-33.977
	c0-5.885,4.821-10.707,10.717-10.707h33.97c5.896,0,10.717,4.822,10.717,10.707V348.505z"/>
<g opacity="0.2">
	<g>
		<defs>
			<rect id="SVGID_39_" x="62.141" y="386.009" width="55.403" height="55.372"/>
		</defs>
		<clipPath id="SVGID_40_">
			<use xlink:href="#SVGID_39_"  overflow="visible"/>
		</clipPath>
		<path clip-path="url(#SVGID_40_)" fill="#222222" d="M117.543,430.688c0,5.899-4.821,10.721-10.717,10.721h-33.97
			c-5.895,0-10.717-4.822-10.717-10.721V396.71c0-5.885,4.821-10.707,10.717-10.707h33.97c5.896,0,10.717,4.822,10.717,10.707
			V430.688z"/>
	</g>
</g>
<g opacity="0.2">
	<g>
		<defs>
			<rect id="SVGID_41_" x="157.642" y="386.009" width="55.394" height="55.372"/>
		</defs>
		<clipPath id="SVGID_42_">
			<use xlink:href="#SVGID_41_"  overflow="visible"/>
		</clipPath>
		<path clip-path="url(#SVGID_42_)" fill="#222222" d="M213.04,430.688c0,5.899-4.821,10.721-10.717,10.721h-33.97
			c-5.895,0-10.717-4.822-10.717-10.721V396.71c0-5.885,4.821-10.707,10.717-10.707h33.97c5.896,0,10.717,4.822,10.717,10.707
			V430.688z"/>
	</g>
</g>
<g opacity="0.2">
	<g>
		<defs>
			<rect id="SVGID_43_" x="253.153" y="386.009" width="55.403" height="55.372"/>
		</defs>
		<clipPath id="SVGID_44_">
			<use xlink:href="#SVGID_43_"  overflow="visible"/>
		</clipPath>
		<path clip-path="url(#SVGID_44_)" fill="#222222" d="M308.553,430.688c0,5.899-4.821,10.721-10.707,10.721h-33.98
			c-5.895,0-10.717-4.822-10.717-10.721V396.71c0-5.885,4.821-10.707,10.717-10.707h33.98c5.886,0,10.707,4.822,10.707,10.707
			V430.688z"/>
	</g>
</g>
<g opacity="0.2">
	<g>
		<defs>
			<rect id="SVGID_45_" x="348.645" y="386.009" width="55.403" height="55.372"/>
		</defs>
		<clipPath id="SVGID_46_">
			<use xlink:href="#SVGID_45_"  overflow="visible"/>
		</clipPath>
		<path clip-path="url(#SVGID_46_)" fill="#222222" d="M404.05,430.688c0,5.899-4.821,10.721-10.717,10.721h-33.97
			c-5.895,0-10.717-4.822-10.717-10.721V396.71c0-5.885,4.821-10.707,10.717-10.707h33.97c5.896,0,10.717,4.822,10.717,10.707
			V430.688z"/>
	</g>
</g>
<g opacity="0.2">
	<g>
		<defs>
			<rect id="SVGID_47_" x="444.146" y="386.009" width="55.403" height="55.372"/>
		</defs>
		<clipPath id="SVGID_48_">
			<use xlink:href="#SVGID_47_"  overflow="visible"/>
		</clipPath>
		<path clip-path="url(#SVGID_48_)" fill="#222222" d="M499.546,430.688c0,5.899-4.821,10.721-10.717,10.721h-33.97
			c-5.895,0-10.717-4.822-10.717-10.721V396.71c0-5.885,4.821-10.707,10.717-10.707h33.97c5.896,0,10.717,4.822,10.717,10.707
			V430.688z"/>
	</g>
</g>
<g opacity="0.3">
	<g>
		<defs>
			<rect id="SVGID_49_" x="539.637" y="386.009" width="55.404" height="55.372"/>
		</defs>
		<clipPath id="SVGID_50_">
			<use xlink:href="#SVGID_49_"  overflow="visible"/>
		</clipPath>
		<path clip-path="url(#SVGID_50_)" fill="#222222" d="M595.043,430.688c0,5.899-4.821,10.721-10.717,10.721h-33.97
			c-5.895,0-10.717-4.822-10.717-10.721V396.71c0-5.885,4.821-10.707,10.717-10.707h33.97c5.896,0,10.717,4.822,10.717,10.707
			V430.688z"/>
	</g>
</g>
<path fill="#DD3D32" d="M690.539,430.688c0,5.899-4.821,10.721-10.717,10.721h-33.97c-5.895,0-10.717-4.822-10.717-10.721V396.71
	c0-5.885,4.821-10.707,10.717-10.707h33.97c5.896,0,10.717,4.822,10.717,10.707V430.688z"/>
<g opacity="0.2">
	<g>
		<defs>
			<rect id="SVGID_51_" x="62.141" y="468.196" width="55.403" height="55.376"/>
		</defs>
		<clipPath id="SVGID_52_">
			<use xlink:href="#SVGID_51_"  overflow="visible"/>
		</clipPath>
		<path clip-path="url(#SVGID_52_)" fill="#222222" d="M117.543,512.88c0,5.89-4.821,10.711-10.717,10.711h-33.97
			c-5.895,0-10.717-4.822-10.717-10.711v-33.977c0-5.885,4.821-10.707,10.717-10.707h33.97c5.896,0,10.717,4.822,10.717,10.707
			V512.88z"/>
	</g>
</g>
<g opacity="0.2">
	<g>
		<defs>
			<rect id="SVGID_53_" x="157.642" y="468.196" width="55.394" height="55.376"/>
		</defs>
		<clipPath id="SVGID_54_">
			<use xlink:href="#SVGID_53_"  overflow="visible"/>
		</clipPath>
		<path clip-path="url(#SVGID_54_)" fill="#222222" d="M213.04,512.88c0,5.89-4.821,10.711-10.717,10.711h-33.97
			c-5.895,0-10.717-4.822-10.717-10.711v-33.977c0-5.885,4.821-10.707,10.717-10.707h33.97c5.896,0,10.717,4.822,10.717,10.707
			V512.88z"/>
	</g>
</g>
<g opacity="0.2">
	<g>
		<defs>
			<rect id="SVGID_55_" x="253.153" y="468.196" width="55.403" height="55.376"/>
		</defs>
		<clipPath id="SVGID_56_">
			<use xlink:href="#SVGID_55_"  overflow="visible"/>
		</clipPath>
		<path clip-path="url(#SVGID_56_)" fill="#222222" d="M308.553,512.88c0,5.89-4.821,10.711-10.707,10.711h-33.98
			c-5.895,0-10.717-4.822-10.717-10.711v-33.977c0-5.885,4.821-10.707,10.717-10.707h33.98c5.886,0,10.707,4.822,10.707,10.707
			V512.88z"/>
	</g>
</g>
<g opacity="0.2">
	<g>
		<defs>
			<rect id="SVGID_57_" x="348.645" y="468.196" width="55.403" height="55.376"/>
		</defs>
		<clipPath id="SVGID_58_">
			<use xlink:href="#SVGID_57_"  overflow="visible"/>
		</clipPath>
		<path clip-path="url(#SVGID_58_)" fill="#222222" d="M404.05,512.88c0,5.89-4.821,10.711-10.717,10.711h-33.97
			c-5.895,0-10.717-4.822-10.717-10.711v-33.977c0-5.885,4.821-10.707,10.717-10.707h33.97c5.896,0,10.717,4.822,10.717,10.707
			V512.88z"/>
	</g>
</g>
<g opacity="0.2">
	<g>
		<defs>
			<rect id="SVGID_59_" x="444.146" y="468.196" width="55.403" height="55.376"/>
		</defs>
		<clipPath id="SVGID_60_">
			<use xlink:href="#SVGID_59_"  overflow="visible"/>
		</clipPath>
		<path clip-path="url(#SVGID_60_)" fill="#222222" d="M499.546,512.88c0,5.89-4.821,10.711-10.717,10.711h-33.97
			c-5.895,0-10.717-4.822-10.717-10.711v-33.977c0-5.885,4.821-10.707,10.717-10.707h33.97c5.896,0,10.717,4.822,10.717,10.707
			V512.88z"/>
	</g>
</g>
<g opacity="0.3">
	<g>
		<defs>
			<rect id="SVGID_61_" x="539.637" y="468.196" width="55.404" height="55.376"/>
		</defs>
		<clipPath id="SVGID_62_">
			<use xlink:href="#SVGID_61_"  overflow="visible"/>
		</clipPath>
		<path clip-path="url(#SVGID_62_)" fill="#222222" d="M595.043,512.88c0,5.89-4.821,10.711-10.717,10.711h-33.97
			c-5.895,0-10.717-4.822-10.717-10.711v-33.977c0-5.885,4.821-10.707,10.717-10.707h33.97c5.896,0,10.717,4.822,10.717,10.707
			V512.88z"/>
	</g>
</g>
<path fill="#DD3D32" d="M690.539,512.88c0,5.89-4.821,10.711-10.717,10.711h-33.97c-5.895,0-10.717-4.822-10.717-10.711v-33.977
	c0-5.885,4.821-10.707,10.717-10.707h33.97c5.896,0,10.717,4.822,10.717,10.707V512.88z"/>
<g opacity="0.2">
	<g>
		<defs>
			<rect id="SVGID_63_" x="62.141" y="550.389" width="55.403" height="55.372"/>
		</defs>
		<clipPath id="SVGID_64_">
			<use xlink:href="#SVGID_63_"  overflow="visible"/>
		</clipPath>
		<path clip-path="url(#SVGID_64_)" fill="#222222" d="M117.543,595.063c0,5.89-4.821,10.711-10.717,10.711h-33.97
			c-5.895,0-10.717-4.822-10.717-10.711v-33.977c0-5.885,4.821-10.707,10.717-10.707h33.97c5.896,0,10.717,4.822,10.717,10.707
			V595.063z"/>
	</g>
</g>
<g opacity="0.2">
	<g>
		<defs>
			<rect id="SVGID_65_" x="157.642" y="550.389" width="55.394" height="55.372"/>
		</defs>
		<clipPath id="SVGID_66_">
			<use xlink:href="#SVGID_65_"  overflow="visible"/>
		</clipPath>
		<path clip-path="url(#SVGID_66_)" fill="#222222" d="M213.04,595.063c0,5.89-4.821,10.711-10.717,10.711h-33.97
			c-5.895,0-10.717-4.822-10.717-10.711v-33.977c0-5.885,4.821-10.707,10.717-10.707h33.97c5.896,0,10.717,4.822,10.717,10.707
			V595.063z"/>
	</g>
</g>
<g opacity="0.2">
	<g>
		<defs>
			<rect id="SVGID_67_" x="253.153" y="550.389" width="55.403" height="55.372"/>
		</defs>
		<clipPath id="SVGID_68_">
			<use xlink:href="#SVGID_67_"  overflow="visible"/>
		</clipPath>
		<path clip-path="url(#SVGID_68_)" fill="#222222" d="M308.553,595.063c0,5.89-4.821,10.711-10.707,10.711h-33.98
			c-5.895,0-10.717-4.822-10.717-10.711v-33.977c0-5.885,4.821-10.707,10.717-10.707h33.98c5.886,0,10.707,4.822,10.707,10.707
			V595.063z"/>
	</g>
</g>
<g opacity="0.2">
	<g>
		<defs>
			<rect id="SVGID_69_" x="348.645" y="550.389" width="55.403" height="55.372"/>
		</defs>
		<clipPath id="SVGID_70_">
			<use xlink:href="#SVGID_69_"  overflow="visible"/>
		</clipPath>
		<path clip-path="url(#SVGID_70_)" fill="#222222" d="M404.05,595.063c0,5.89-4.821,10.711-10.717,10.711h-33.97
			c-5.895,0-10.717-4.822-10.717-10.711v-33.977c0-5.885,4.821-10.707,10.717-10.707h33.97c5.896,0,10.717,4.822,10.717,10.707
			V595.063z"/>
	</g>
</g>
<g opacity="0.2">
	<g>
		<defs>
			<rect id="SVGID_71_" x="444.146" y="550.389" width="55.403" height="55.372"/>
		</defs>
		<clipPath id="SVGID_72_">
			<use xlink:href="#SVGID_71_"  overflow="visible"/>
		</clipPath>
		<path clip-path="url(#SVGID_72_)" fill="#222222" d="M499.546,595.063c0,5.89-4.821,10.711-10.717,10.711h-33.97
			c-5.895,0-10.717-4.822-10.717-10.711v-33.977c0-5.885,4.821-10.707,10.717-10.707h33.97c5.896,0,10.717,4.822,10.717,10.707
			V595.063z"/>
	</g>
</g>
<g opacity="0.3">
	<g>
		<defs>
			<rect id="SVGID_73_" x="539.637" y="550.389" width="55.404" height="55.372"/>
		</defs>
		<clipPath id="SVGID_74_">
			<use xlink:href="#SVGID_73_"  overflow="visible"/>
		</clipPath>
		<path clip-path="url(#SVGID_74_)" fill="#222222" d="M595.043,595.063c0,5.89-4.821,10.711-10.717,10.711h-33.97
			c-5.895,0-10.717-4.822-10.717-10.711v-33.977c0-5.885,4.821-10.707,10.717-10.707h33.97c5.896,0,10.717,4.822,10.717,10.707
			V595.063z"/>
	</g>
</g>
<path fill="#DD3D32" d="M690.539,595.063c0,5.89-4.821,10.711-10.717,10.711h-33.97c-5.895,0-10.717-4.822-10.717-10.711v-33.977
	c0-5.885,4.821-10.707,10.717-10.707h33.97c5.896,0,10.717,4.822,10.717,10.707V595.063z"/>
<g opacity="0.2">
	<g>
		<defs>
			<rect id="SVGID_75_" x="62.15" y="632.577" width="55.404" height="55.376"/>
		</defs>
		<clipPath id="SVGID_76_">
			<use xlink:href="#SVGID_75_"  overflow="visible"/>
		</clipPath>
		<path clip-path="url(#SVGID_76_)" fill="#222222" d="M117.553,677.246c0,5.899-4.821,10.721-10.717,10.721h-33.97
			c-5.895,0-10.717-4.821-10.717-10.721v-33.977c0-5.885,4.821-10.707,10.717-10.707h33.97c5.896,0,10.717,4.821,10.717,10.707
			V677.246z"/>
	</g>
</g>
<g opacity="0.2">
	<g>
		<defs>
			<rect id="SVGID_77_" x="157.642" y="632.577" width="55.403" height="55.376"/>
		</defs>
		<clipPath id="SVGID_78_">
			<use xlink:href="#SVGID_77_"  overflow="visible"/>
		</clipPath>
		<path clip-path="url(#SVGID_78_)" fill="#222222" d="M213.049,677.246c0,5.899-4.821,10.721-10.717,10.721h-33.97
			c-5.895,0-10.717-4.821-10.717-10.721v-33.977c0-5.885,4.821-10.707,10.717-10.707h33.97c5.896,0,10.717,4.821,10.717,10.707
			V677.246z"/>
	</g>
</g>
<g opacity="0.2">
	<g>
		<defs>
			<rect id="SVGID_79_" x="253.163" y="632.577" width="55.403" height="55.376"/>
		</defs>
		<clipPath id="SVGID_80_">
			<use xlink:href="#SVGID_79_"  overflow="visible"/>
		</clipPath>
		<path clip-path="url(#SVGID_80_)" fill="#222222" d="M308.562,677.246c0,5.899-4.821,10.721-10.717,10.721h-33.97
			c-5.895,0-10.717-4.821-10.717-10.721v-33.977c0-5.885,4.821-10.707,10.717-10.707h33.97c5.896,0,10.717,4.821,10.717,10.707
			V677.246z"/>
	</g>
</g>
<g opacity="0.2">
	<g>
		<defs>
			<rect id="SVGID_81_" x="348.654" y="632.577" width="55.404" height="55.376"/>
		</defs>
		<clipPath id="SVGID_82_">
			<use xlink:href="#SVGID_81_"  overflow="visible"/>
		</clipPath>
		<path clip-path="url(#SVGID_82_)" fill="#222222" d="M404.059,677.246c0,5.899-4.821,10.721-10.717,10.721h-33.97
			c-5.895,0-10.717-4.821-10.717-10.721v-33.977c0-5.885,4.821-10.707,10.717-10.707h33.97c5.896,0,10.717,4.821,10.717,10.707
			V677.246z"/>
	</g>
</g>
<path fill="#185071" d="M996.81,648.336c0,136.609-110.729,247.32-247.316,247.32c-136.577,0-247.316-110.71-247.316-247.32
	c0-136.576,110.739-247.315,247.316-247.315C886.081,401.021,996.81,511.76,996.81,648.336"/>
<path fill="#0D3653" d="M967.87,648.336c0,120.627-97.776,218.381-218.37,218.381c-120.604,0-218.38-97.754-218.38-218.381
	c0-120.59,97.776-218.376,218.38-218.376C870.093,429.96,967.87,527.747,967.87,648.336"/>
<path fill="#FFFFFF" d="M938.945,648.336c0,104.622-84.833,189.447-189.454,189.447c-104.611,0-189.415-84.825-189.415-189.447
	c0-104.608,84.804-189.414,189.415-189.414C854.112,458.922,938.945,543.729,938.945,648.336"/>
<rect x="744.232" y="475.49" fill="#343C44" width="10.523" height="33.127"/>
<rect x="576.638" y="643.085" fill="#343C44" width="33.166" height="10.522"/>
<rect x="744.232" y="788.051" fill="#343C44" width="10.523" height="33.136"/>
<rect x="889.212" y="643.08" fill="#343C44" width="33.137" height="10.522"/>
<g>
	<g>
		<defs>
			<rect id="SVGID_83_" x="647.056" y="559.682" width="208.796" height="242.408"/>
		</defs>
		<clipPath id="SVGID_84_">
			<use xlink:href="#SVGID_83_"  overflow="visible"/>
		</clipPath>
		<path clip-path="url(#SVGID_84_)" fill="#E7E7E7" d="M753.227,667.121c-1.665,0.922-1.085,5.19,1.297,9.492l65.82,119.148
			c2.381,4.302,5.683,7.076,7.348,6.159c1.675-0.931,1.084-5.2-1.288-9.506l-65.83-119.134
			C758.203,668.974,754.892,666.204,753.227,667.121"/>
		<path clip-path="url(#SVGID_84_)" fill="#E7E7E7" d="M749.884,645.557c-8.548,0-15.46,6.925-15.46,15.471
			c0,8.527,6.912,15.462,15.46,15.462c8.538,0,15.47-6.934,15.47-15.462C765.354,652.482,758.422,645.557,749.884,645.557"/>
		<path clip-path="url(#SVGID_84_)" fill="#E7E7E7" d="M734.674,671.735c-3.534,3.418-5.354,7.322-4.037,8.688
			c1.317,1.371,5.286-0.293,8.829-3.701l111.92-107.832c3.533-3.408,5.353-7.322,4.027-8.688c-1.316-1.371-5.295,0.303-8.839,3.701
			L734.674,671.735z"/>
		<path clip-path="url(#SVGID_84_)" fill="#E7E7E7" d="M647.058,660.532c-0.01,3.777,4.017,6.868,8.935,6.878l112.646,0.17
			c4.918,0,8.955-3.077,8.955-6.84c0-3.767-4.017-6.854-8.935-6.868l-112.646-0.17C651.095,653.692,647.058,656.769,647.058,660.532
			"/>
	</g>
</g>
<path fill="#DD3D32" d="M753.227,654.954c-1.665,0.922-1.085,5.181,1.297,9.492l65.82,119.148c2.381,4.302,5.683,7.076,7.348,6.15
	c1.675-0.922,1.084-5.19-1.288-9.497l-65.83-119.134C758.203,656.807,754.892,654.037,753.227,654.954"/>
<path fill="#344F5E" d="M749.884,633.39c-8.548,0-15.46,6.925-15.46,15.471c0,8.527,6.912,15.462,15.46,15.462
	c8.538,0,15.47-6.934,15.47-15.462C765.354,640.315,758.422,633.39,749.884,633.39"/>
<path fill="#344F5E" d="M734.674,659.568c-3.534,3.408-5.354,7.322-4.037,8.688c1.317,1.371,5.286-0.293,8.829-3.701l111.92-107.831
	c3.533-3.418,5.353-7.322,4.027-8.688c-1.316-1.371-5.295,0.293-8.839,3.701L734.674,659.568z"/>
<path fill="#364E5D" d="M647.058,648.365c-0.01,3.777,4.017,6.868,8.935,6.878l112.646,0.161c4.918,0.009,8.955-3.068,8.955-6.831
	c0-3.777-4.017-6.854-8.935-6.868l-112.646-0.17C651.095,641.525,647.058,644.592,647.058,648.365"/>
</svg>
