<?xml version="1.0" encoding="utf-8"?>
<!-- Generator: Adobe Illustrator 17.0.0, SVG Export Plug-In . SVG Version: 6.00 Build 0)  -->
<!DOCTYPE svg PUBLIC "-//W3C//DTD SVG 1.1//EN" "http://www.w3.org/Graphics/SVG/1.1/DTD/svg11.dtd">
<svg version="1.1" id="Layer_1" xmlns="http://www.w3.org/2000/svg" xmlns:xlink="http://www.w3.org/1999/xlink" x="0px" y="0px"
	 width="1000px" height="1300px" viewBox="0 0 1000 1300" enable-background="new 0 0 1000 1300" xml:space="preserve">
<g>
	<g opacity="0.1">
		<g>
			<defs>
				<rect id="SVGID_1_" x="180.243" y="51.221" width="643.674" height="1173.901"/>
			</defs>
			<clipPath id="SVGID_2_">
				<use xlink:href="#SVGID_1_"  overflow="visible"/>
			</clipPath>
			<path clip-path="url(#SVGID_2_)" fill="#010101" d="M817.175,96.085c-4.709-8.739-11.72-16.088-20.187-21.264v-0.038
				c-2.159-1.289-4.397-2.458-6.712-3.474h-0.025c-6.868-3.055-45.239-4.706-53.239-4.706H236.364
				c-7.999,0-15.57,1.651-22.463,4.681c-2.342,1.042-4.553,2.21-6.712,3.538c-0.247,0.089-0.429,0.248-0.65,0.375
				c-8.181,5.164-14.984,12.397-19.562,20.946c-0.221,0.375-0.43,0.749-0.611,1.181c-3.915,7.621-6.126,16.272-6.126,25.443
				v1046.115c0,2.979,0.247,5.97,0.703,8.86c0.156,0.953,0.338,1.912,0.533,2.864c0.117,0.533,0.234,1.054,0.364,1.569
				c0.364,1.6,0.833,3.201,1.353,4.738c0.182,0.495,0.338,1.016,0.559,1.505c0.183,0.533,0.364,1.054,0.572,1.55
				c0.287,0.768,0.625,1.512,0.963,2.21c0.338,0.743,0.676,1.448,1.08,2.185c0.546,1.111,1.17,2.242,1.808,3.322
				c1.977,3.265,4.214,6.319,6.777,9.152c0.858,0.915,1.717,1.81,2.641,2.667c0.715,0.641,1.392,1.289,2.133,1.912
				c1.405,1.239,2.887,2.369,4.397,3.449c0.026,0.063,0.052,0.089,0.052,0.089c0.807,0.521,1.6,1.054,2.367,1.537
				c2.355,1.486,4.813,2.769,7.363,3.919c6.893,3.004,14.464,4.668,22.463,4.668h531.422c8,0,15.596-1.664,22.49-4.7
				c2.316-1.023,4.553-2.185,6.712-3.525c8.493-5.189,15.504-12.55,20.213-21.327c4.28-7.895,6.712-16.977,6.712-26.618V122.767
				c0-9.628-2.432-18.717-6.712-26.624C817.2,96.117,817.175,96.117,817.175,96.085"/>
			<path clip-path="url(#SVGID_2_)" fill="#010101" d="M817.175,83.777c-4.709-8.752-11.72-16.1-20.187-21.276v-0.025
				c-2.159-1.289-4.397-2.458-6.712-3.474h-0.025c-6.868-3.055-45.239-4.706-53.239-4.706H236.364
				c-7.999,0-15.57,1.651-22.463,4.681c-2.342,1.042-4.553,2.21-6.712,3.525c-0.247,0.102-0.429,0.26-0.65,0.387
				c-8.181,5.164-14.984,12.397-19.562,20.946c-0.221,0.362-0.43,0.737-0.611,1.169c-3.915,7.634-6.126,16.284-6.126,25.456
				v1046.115c0,2.979,0.247,5.97,0.703,8.86c0.156,0.953,0.338,1.912,0.533,2.864c0.117,0.533,0.234,1.054,0.364,1.569
				c0.364,1.6,0.833,3.201,1.353,4.738c0.182,0.495,0.338,1.016,0.559,1.505c0.183,0.534,0.364,1.054,0.572,1.55
				c0.287,0.756,0.625,1.512,0.963,2.21c0.338,0.73,0.676,1.448,1.08,2.185c0.546,1.111,1.17,2.242,1.808,3.322
				c1.977,3.265,4.214,6.319,6.777,9.152c0.858,0.915,1.717,1.797,2.641,2.667c0.715,0.641,1.392,1.289,2.133,1.899
				c1.405,1.239,2.887,2.382,4.397,3.461c0.026,0.063,0.052,0.089,0.052,0.089c0.807,0.521,1.6,1.042,2.367,1.537
				c2.355,1.486,4.813,2.769,7.363,3.919c6.893,3.004,14.464,4.668,22.463,4.668h531.422c8,0,15.596-1.664,22.49-4.7
				c2.316-1.022,4.553-2.198,6.712-3.525c8.493-5.189,15.504-12.55,20.213-21.327c4.28-7.894,6.712-16.977,6.712-26.618V110.458
				c0-9.628-2.432-18.717-6.712-26.624C817.2,83.809,817.175,83.809,817.175,83.777"/>
			<path clip-path="url(#SVGID_2_)" fill="#010101" d="M817.175,80.69c-4.709-8.739-11.72-16.088-20.187-21.264v-0.025
				c-2.159-1.289-4.397-2.458-6.712-3.474h-0.025c-6.868-3.055-45.239-4.719-53.239-4.719H236.364
				c-7.999,0-15.57,1.664-22.463,4.694c-2.342,1.042-4.553,2.21-6.712,3.525c-0.247,0.089-0.429,0.26-0.65,0.375
				c-8.181,5.164-14.984,12.41-19.562,20.959c-0.221,0.362-0.43,0.737-0.611,1.169c-3.915,7.634-6.126,16.284-6.126,25.456v1046.115
				c0,2.979,0.247,5.97,0.703,8.86c0.156,0.953,0.338,1.912,0.533,2.864c0.117,0.521,0.234,1.054,0.364,1.569
				c0.364,1.6,0.833,3.201,1.353,4.738c0.182,0.495,0.338,1.016,0.559,1.512c0.183,0.534,0.364,1.048,0.572,1.543
				c0.287,0.756,0.625,1.499,0.963,2.21c0.338,0.73,0.676,1.448,1.08,2.185c0.546,1.099,1.17,2.242,1.808,3.322
				c1.977,3.265,4.214,6.307,6.777,9.139c0.858,0.927,1.717,1.81,2.641,2.68c0.715,0.641,1.392,1.289,2.133,1.899
				c1.405,1.239,2.887,2.382,4.397,3.461c0.026,0.051,0.052,0.089,0.052,0.089c0.807,0.521,1.6,1.042,2.367,1.537
				c2.355,1.473,4.813,2.769,7.363,3.906c6.893,3.017,14.464,4.681,22.463,4.681h531.422c8,0,15.596-1.664,22.49-4.713
				c2.316-1.022,4.553-2.185,6.712-3.512c8.493-5.189,15.504-12.55,20.213-21.327c4.28-7.907,6.712-16.977,6.712-26.63V107.384
				c0-9.628-2.432-18.717-6.712-26.624C817.2,80.735,817.175,80.735,817.175,80.69"/>
			<rect x="199.09" y="150.216" clip-path="url(#SVGID_2_)" fill="#010101" width="601.063" height="923.994"/>
			<g opacity="0.28" clip-path="url(#SVGID_2_)">
				<g>
					<defs>
						<rect id="SVGID_3_" x="790.255" y="149.943" width="33.662" height="924.166"/>
					</defs>
					<clipPath id="SVGID_4_">
						<use xlink:href="#SVGID_3_"  overflow="visible"/>
					</clipPath>
					<rect x="790.255" y="149.994" clip-path="url(#SVGID_4_)" fill="#010101" width="33.663" height="924.071"/>
				</g>
			</g>
			<g opacity="0.28" clip-path="url(#SVGID_2_)">
				<g>
					<defs>
						<rect id="SVGID_5_" x="796.98" y="149.943" width="20.213" height="924.166"/>
					</defs>
					<clipPath id="SVGID_6_">
						<use xlink:href="#SVGID_5_"  overflow="visible"/>
					</clipPath>
					<rect x="796.98" y="149.994" clip-path="url(#SVGID_6_)" fill="#010101" width="20.2" height="924.071"/>
				</g>
			</g>
			<g opacity="0.14" clip-path="url(#SVGID_2_)">
				<g>
					<defs>
						<rect id="SVGID_7_" x="790.255" y="1073.976" width="33.662" height="131.114"/>
					</defs>
					<clipPath id="SVGID_8_">
						<use xlink:href="#SVGID_7_"  overflow="visible"/>
					</clipPath>
					<path clip-path="url(#SVGID_8_)" fill="#010101" d="M790.252,1205.039c2.341-1.01,4.591-2.185,6.737-3.506
						c3.669-2.242,7.024-4.935,10.081-7.939c0.13-0.114,0.247-0.235,0.364-0.362c1.353-1.353,2.627-2.756,3.837-4.23
						c0.182-0.235,0.364-0.451,0.534-0.673c0.481-0.597,0.988-1.156,1.431-1.785c1.457-1.988,2.81-4.122,3.981-6.307
						c2.679-4.954,4.643-10.391,5.722-16.157c0.638-3.379,0.976-6.891,0.976-10.454v-79.631h-33.662V1205.039z"/>
				</g>
			</g>
			<g opacity="0.14" clip-path="url(#SVGID_2_)">
				<g>
					<defs>
						<rect id="SVGID_9_" x="790.255" y="55.902" width="33.662" height="94.042"/>
					</defs>
					<clipPath id="SVGID_10_">
						<use xlink:href="#SVGID_9_"  overflow="visible"/>
					</clipPath>
					<path clip-path="url(#SVGID_10_)" fill="#010101" d="M817.21,80.754c0-0.025-0.026-0.025-0.026-0.064
						c-4.709-8.739-11.733-16.088-20.187-21.264c0,0-0.039,0-0.039-0.025c-2.147-1.289-4.37-2.458-6.712-3.474v94.067h33.676v-42.61
						c0-6.256-1.015-12.27-2.927-17.847C819.98,86.482,818.718,83.567,817.21,80.754"/>
				</g>
			</g>
			<g opacity="0.14" clip-path="url(#SVGID_2_)">
				<g>
					<defs>
						<rect id="SVGID_11_" x="796.98" y="59.414" width="20.2" height="90.53"/>
					</defs>
					<clipPath id="SVGID_12_">
						<use xlink:href="#SVGID_11_"  overflow="visible"/>
					</clipPath>
					<path clip-path="url(#SVGID_12_)" fill="#010101" d="M797,59.414c0,0-0.026,0-0.026-0.025v90.625h20.213V80.709
						C812.465,71.945,805.467,64.596,797,59.414"/>
				</g>
			</g>
			<g opacity="0.14" clip-path="url(#SVGID_2_)">
				<g>
					<defs>
						<rect id="SVGID_13_" x="796.98" y="1073.976" width="20.213" height="127.601"/>
					</defs>
					<clipPath id="SVGID_14_">
						<use xlink:href="#SVGID_13_"  overflow="visible"/>
					</clipPath>
					<path clip-path="url(#SVGID_14_)" fill="#010101" d="M796.981,1201.546c8.493-5.176,15.491-12.55,20.2-21.302v-106.255h-20.2
						V1201.546z"/>
				</g>
			</g>
			<g opacity="0.28" clip-path="url(#SVGID_2_)">
				<g>
					<defs>
						<rect id="SVGID_15_" x="180.243" y="149.943" width="33.662" height="924.033"/>
					</defs>
					<clipPath id="SVGID_16_">
						<use xlink:href="#SVGID_15_"  overflow="visible"/>
					</clipPath>
					<rect x="180.243" y="149.994" clip-path="url(#SVGID_16_)" fill="#010101" width="33.663" height="923.994"/>
				</g>
			</g>
			<g opacity="0.28" clip-path="url(#SVGID_2_)">
				<g>
					<defs>
						<rect id="SVGID_17_" x="186.981" y="149.943" width="20.2" height="924.033"/>
					</defs>
					<clipPath id="SVGID_18_">
						<use xlink:href="#SVGID_17_"  overflow="visible"/>
					</clipPath>
					<rect x="186.981" y="149.994" clip-path="url(#SVGID_18_)" fill="#010101" width="20.2" height="923.982"/>
				</g>
			</g>
			<g opacity="0.14" clip-path="url(#SVGID_2_)">
				<g>
					<defs>
						<rect id="SVGID_19_" x="180.243" y="1073.976" width="33.662" height="131.114"/>
					</defs>
					<clipPath id="SVGID_20_">
						<use xlink:href="#SVGID_19_"  overflow="visible"/>
					</clipPath>
					<path clip-path="url(#SVGID_20_)" fill="#010101" d="M180.24,1153.493c0,2.979,0.247,5.977,0.702,8.873
						c0.156,0.953,0.312,1.899,0.521,2.852c0.129,0.521,0.221,1.054,0.377,1.575c0.364,1.613,0.832,3.207,1.353,4.744
						c0.182,0.495,0.338,1.016,0.559,1.512c0.183,0.521,0.364,1.035,0.585,1.531c0.274,0.769,0.586,1.499,0.949,2.21
						c0.338,0.743,0.676,1.448,1.041,2.191c0.195,0.4,0.403,0.807,0.625,1.207c0,0.025,0.025,0.025,0.025,0.051
						c0,0.038,0.04,0.038,0.04,0.063c0.338,0.641,0.728,1.315,1.131,1.943c-0.026,0.025,0.026,0.063,0.026,0.063
						c0.494,0.794,0.988,1.626,1.508,2.394c0.533,0.807,1.08,1.569,1.639,2.337c0.546,0.768,1.131,1.499,1.756,2.255
						c0.611,0.737,1.223,1.442,1.873,2.147c0.429,0.464,0.858,0.921,1.288,1.353c0.429,0.502,0.897,0.934,1.353,1.321
						c0.676,0.654,1.392,1.302,2.094,1.912c0.715,0.616,1.443,1.226,2.185,1.81c0.742,0.559,1.509,1.105,2.251,1.639
						c0.025,0.051,0.064,0.095,0.064,0.095c0.794,0.514,1.562,1.035,2.367,1.531c0.183,0.159,0.391,0.311,0.611,0.432
						c2.159,1.327,4.397,2.534,6.738,3.512v-131.05H180.24V1153.493z"/>
				</g>
			</g>
			<g opacity="0.14" clip-path="url(#SVGID_2_)">
				<g>
					<defs>
						<rect id="SVGID_21_" x="180.243" y="55.902" width="33.662" height="94.042"/>
					</defs>
					<clipPath id="SVGID_22_">
						<use xlink:href="#SVGID_21_"  overflow="visible"/>
					</clipPath>
					<path clip-path="url(#SVGID_22_)" fill="#010101" d="M206.55,59.795c-8.182,5.17-14.985,12.41-19.576,20.959
						c-0.234,0.375-0.43,0.743-0.638,1.169c-1.236,2.445-2.316,4.954-3.174,7.609c-1.912,5.595-2.926,11.604-2.926,17.847v42.623
						h33.676V55.895c-2.341,1.042-4.592,2.21-6.751,3.538C206.952,59.522,206.732,59.68,206.55,59.795"/>
				</g>
			</g>
			<g opacity="0.14" clip-path="url(#SVGID_2_)">
				<g>
					<defs>
						<rect id="SVGID_23_" x="186.968" y="59.414" width="20.213" height="90.53"/>
					</defs>
					<clipPath id="SVGID_24_">
						<use xlink:href="#SVGID_23_"  overflow="visible"/>
					</clipPath>
					<path clip-path="url(#SVGID_24_)" fill="#010101" d="M186.973,80.741v69.253h20.2v-90.58c-0.221,0.114-0.416,0.26-0.625,0.387
						C198.354,64.965,191.552,72.199,186.973,80.741"/>
				</g>
			</g>
			<g opacity="0.14" clip-path="url(#SVGID_2_)">
				<g>
					<defs>
						<rect id="SVGID_25_" x="186.981" y="1073.976" width="20.2" height="127.601"/>
					</defs>
					<clipPath id="SVGID_26_">
						<use xlink:href="#SVGID_25_"  overflow="visible"/>
					</clipPath>
					<path clip-path="url(#SVGID_26_)" fill="#010101" d="M186.977,1180.244c4.721,8.758,11.719,16.119,20.2,21.308v-127.563h-20.2
						V1180.244z"/>
				</g>
			</g>
			<g opacity="0.25" clip-path="url(#SVGID_2_)">
				<g>
					<defs>
						<rect id="SVGID_27_" x="453.46" y="1104.805" width="92.325" height="73.75"/>
					</defs>
					<clipPath id="SVGID_28_">
						<use xlink:href="#SVGID_27_"  overflow="visible"/>
					</clipPath>
					<path clip-path="url(#SVGID_28_)" fill="#010101" d="M519.697,1104.754h-40.14c-14.386,0-26.092,11.718-26.092,26.11v21.651
						c0,14.392,11.706,26.11,26.092,26.11h40.14c14.386,0,26.092-11.718,26.092-26.11v-21.651
						C545.789,1116.472,534.083,1104.754,519.697,1104.754 M536.555,1152.515c0,9.317-7.571,16.875-16.858,16.875h-40.14
						c-9.287,0-16.858-7.558-16.858-16.875v-21.651c0-9.305,7.571-16.875,16.858-16.875h40.14c9.287,0,16.858,7.571,16.858,16.875
						V1152.515z"/>
				</g>
			</g>
			<g opacity="0.25" clip-path="url(#SVGID_2_)">
				<g>
					<defs>
						<rect id="SVGID_29_" x="425.754" y="90.503" width="150.415" height="20.159"/>
					</defs>
					<clipPath id="SVGID_30_">
						<use xlink:href="#SVGID_29_"  overflow="visible"/>
					</clipPath>
					<path clip-path="url(#SVGID_30_)" fill="#010101" d="M569.435,90.509H432.481c-3.719,0-6.738,3.01-6.738,6.739v6.726
						c0,3.722,3.018,6.739,6.738,6.739h136.954c3.719,0,6.737-3.017,6.737-6.739v-6.726
						C576.172,93.52,573.154,90.509,569.435,90.509"/>
				</g>
			</g>
			<path clip-path="url(#SVGID_2_)" fill="#010101" d="M689.907,85.441c4.682,0,8.493,3.811,8.493,8.498
				c0,4.694-3.811,8.504-8.493,8.504c-4.683,0-8.494-3.811-8.494-8.504C681.413,89.252,685.224,85.441,689.907,85.441
				 M689.907,79.013c-8.247,0-14.932,6.688-14.932,14.925c0,8.244,6.685,14.932,14.932,14.932c8.246,0,14.932-6.688,14.932-14.932
				C704.838,85.701,698.153,79.013,689.907,79.013"/>
			<polygon clip-path="url(#SVGID_2_)" fill="#010101" points="312.06,808.294 402.42,898.658 687.187,898.658 687.187,523.52 
				312.06,523.52 			"/>
			<rect x="546.045" y="757.51" clip-path="url(#SVGID_2_)" fill="#010101" width="92.845" height="92.848"/>
			<polygon clip-path="url(#SVGID_2_)" fill="#010101" points="569.52,770.758 559.309,770.758 559.309,780.971 559.309,826.864 
				559.309,837.096 569.52,837.096 615.409,837.096 625.62,837.096 625.62,826.877 625.62,780.983 625.62,770.758 615.409,770.758 
							"/>
			<rect x="572.566" y="784.032" clip-path="url(#SVGID_2_)" fill="#010101" width="39.789" height="39.79"/>
			<rect x="360.367" y="757.51" clip-path="url(#SVGID_2_)" fill="#010101" width="92.845" height="92.848"/>
			<polygon clip-path="url(#SVGID_2_)" fill="#010101" points="383.848,770.758 373.637,770.758 373.637,780.971 373.637,826.864 
				373.637,837.096 383.848,837.096 429.736,837.096 439.948,837.096 439.948,826.877 439.948,780.983 439.948,770.758 
				429.736,770.758 			"/>
			<rect x="386.902" y="784.032" clip-path="url(#SVGID_2_)" fill="#010101" width="39.789" height="39.79"/>
			<rect x="360.367" y="571.833" clip-path="url(#SVGID_2_)" fill="#010101" width="92.845" height="92.835"/>
			<polygon clip-path="url(#SVGID_2_)" fill="#010101" points="383.848,585.101 373.637,585.101 373.637,595.3 373.637,641.188 
				373.637,651.413 383.848,651.413 429.736,651.413 439.948,651.413 439.948,641.188 439.948,595.313 439.948,585.101 
				429.736,585.101 			"/>
			<polygon clip-path="url(#SVGID_2_)" fill="#010101" points="386.895,638.146 426.683,638.146 426.683,598.362 426.683,598.349 
				386.895,598.349 			"/>
			<rect x="546.045" y="571.833" clip-path="url(#SVGID_2_)" fill="#010101" width="92.845" height="92.835"/>
			<polygon clip-path="url(#SVGID_2_)" fill="#010101" points="569.52,585.101 559.309,585.101 559.309,595.3 559.309,641.188 
				559.309,651.413 569.52,651.413 615.409,651.413 625.62,651.413 625.62,641.188 625.62,595.313 625.62,585.101 615.409,585.101 
							"/>
			<polygon clip-path="url(#SVGID_2_)" fill="#010101" points="572.571,638.146 612.36,638.146 612.36,598.362 612.36,598.349 
				572.571,598.349 			"/>
			<rect x="492.989" y="571.833" clip-path="url(#SVGID_2_)" fill="#010101" width="13.268" height="13.268"/>
			<polygon clip-path="url(#SVGID_2_)" fill="#010101" points="519.517,585.101 519.517,598.355 532.784,598.355 532.784,585.101 
				532.784,571.839 519.517,571.839 			"/>
			<rect x="466.467" y="598.343" clip-path="url(#SVGID_2_)" fill="#010101" width="13.268" height="13.28"/>
			<rect x="492.989" y="598.343" clip-path="url(#SVGID_2_)" fill="#010101" width="13.268" height="13.28"/>
			<polygon clip-path="url(#SVGID_2_)" fill="#010101" points="519.517,624.884 519.517,638.152 532.784,638.152 532.784,624.884 
				532.784,611.623 519.517,611.623 			"/>
			<rect x="519.523" y="651.4" clip-path="url(#SVGID_2_)" fill="#010101" width="13.268" height="13.268"/>
			<polygon clip-path="url(#SVGID_2_)" fill="#010101" points="426.679,677.929 413.424,677.929 413.424,691.197 426.679,691.197 
				426.679,704.452 439.946,704.452 439.946,691.197 453.214,691.197 453.214,677.929 439.946,677.929 			"/>
			<polygon clip-path="url(#SVGID_2_)" fill="#010101" points="492.992,624.884 479.737,624.884 479.737,638.152 479.737,651.407 
				492.992,651.407 492.992,664.674 492.992,677.929 492.992,691.197 492.992,704.452 506.259,704.452 506.259,691.197 
				506.259,677.929 506.259,664.674 506.259,651.407 506.259,638.152 492.992,638.152 			"/>
			<rect x="599.101" y="677.923" clip-path="url(#SVGID_2_)" fill="#010101" width="13.254" height="13.268"/>
			<polygon clip-path="url(#SVGID_2_)" fill="#010101" points="466.463,677.929 466.463,691.197 466.463,704.452 479.73,704.452 
				479.73,691.197 479.73,677.929 479.73,664.668 466.463,664.668 			"/>
			<polygon clip-path="url(#SVGID_2_)" fill="#010101" points="373.632,677.929 360.364,677.929 360.364,691.197 360.364,704.452 
				373.632,704.452 373.632,691.197 386.899,691.197 386.899,704.452 386.899,717.732 400.153,717.732 400.153,704.452 
				400.153,691.197 400.153,677.929 386.899,677.929 			"/>
			<rect x="439.945" y="704.439" clip-path="url(#SVGID_2_)" fill="#010101" width="13.268" height="13.28"/>
			<rect x="506.255" y="704.439" clip-path="url(#SVGID_2_)" fill="#010101" width="13.254" height="13.28"/>
			<polygon clip-path="url(#SVGID_2_)" fill="#010101" points="373.632,730.974 360.364,730.974 360.364,744.261 373.632,744.261 
				386.899,744.261 386.899,730.974 386.899,717.726 373.632,717.726 			"/>
			<polygon clip-path="url(#SVGID_2_)" fill="#010101" points="426.679,717.726 413.424,717.726 413.424,730.981 400.157,730.981 
				400.157,744.248 413.424,744.248 426.679,744.248 439.946,744.248 439.946,730.981 426.679,730.981 			"/>
			<polygon clip-path="url(#SVGID_2_)" fill="#010101" points="532.787,677.929 519.52,677.929 519.52,691.197 532.787,691.197 
				532.787,704.452 532.787,717.732 519.52,717.732 519.52,730.974 532.787,730.974 532.787,744.255 546.042,744.255 
				559.308,744.255 559.308,730.974 546.042,730.974 546.042,717.732 546.042,704.452 546.042,691.197 559.308,691.197 
				559.308,677.929 546.042,677.929 			"/>
			<polygon clip-path="url(#SVGID_2_)" fill="#010101" points="599.101,717.726 599.101,704.445 599.101,691.197 585.833,691.197 
				585.833,704.445 585.833,717.726 572.566,717.726 572.566,704.445 572.566,691.197 559.298,691.197 559.298,704.445 
				559.298,717.726 559.298,730.981 572.566,730.981 585.833,730.981 585.833,744.248 599.101,744.248 612.355,744.248 
				612.355,730.981 599.101,730.981 			"/>
			<polygon clip-path="url(#SVGID_2_)" fill="#010101" points="625.623,704.452 625.623,691.191 612.355,691.191 612.355,704.452 
				612.355,717.738 612.355,730.974 625.623,730.974 638.889,730.974 638.889,717.738 625.623,717.738 			"/>
			<polygon clip-path="url(#SVGID_2_)" fill="#010101" points="453.208,730.974 453.208,744.261 466.462,744.261 466.462,730.974 
				466.462,717.726 453.208,717.726 			"/>
			<polygon clip-path="url(#SVGID_2_)" fill="#010101" points="492.992,730.974 492.992,717.726 479.737,717.726 479.737,730.974 
				479.737,744.261 466.457,744.261 466.457,757.51 479.737,757.51 492.992,757.51 506.259,757.51 506.259,744.261 492.992,744.261 
							"/>
			<rect x="519.523" y="757.497" clip-path="url(#SVGID_2_)" fill="#010101" width="13.268" height="13.255"/>
			<polygon clip-path="url(#SVGID_2_)" fill="#010101" points="479.734,770.758 466.466,770.758 466.466,784.045 466.466,797.293 
				479.734,797.293 479.734,784.045 492.988,784.045 506.255,784.045 506.255,770.758 492.988,770.758 			"/>
			<rect x="519.523" y="784.019" clip-path="url(#SVGID_2_)" fill="#010101" width="13.268" height="13.268"/>
			<rect x="479.734" y="797.287" clip-path="url(#SVGID_2_)" fill="#010101" width="13.254" height="13.268"/>
			<polygon clip-path="url(#SVGID_2_)" fill="#010101" points="466.463,823.816 466.463,837.102 479.73,837.102 479.73,823.816 
				479.73,810.555 466.463,810.555 			"/>
			<polygon clip-path="url(#SVGID_2_)" fill="#010101" points="519.517,810.555 506.263,810.555 492.996,810.555 492.996,823.822 
				506.263,823.822 506.263,837.09 506.263,850.357 519.517,850.357 519.517,837.09 532.784,837.09 532.784,823.822 
				519.517,823.822 			"/>
			<rect x="479.734" y="837.09" clip-path="url(#SVGID_2_)" fill="#010101" width="13.254" height="13.268"/>
			<polygon clip-path="url(#SVGID_2_)" fill="#010101" points="402.418,898.645 402.418,808.3 312.069,808.3 			"/>
			<g opacity="0.15" clip-path="url(#SVGID_2_)">
				<g>
					<defs>
						<rect id="SVGID_31_" x="402.419" y="808.236" width="90.361" height="90.403"/>
					</defs>
					<clipPath id="SVGID_32_">
						<use xlink:href="#SVGID_31_"  overflow="visible"/>
					</clipPath>
					<polygon clip-path="url(#SVGID_32_)" fill="#010101" points="402.418,898.645 492.778,898.645 402.418,808.3 					"/>
				</g>
			</g>
			<polygon clip-path="url(#SVGID_2_)" fill="#010101" points="312.06,795.617 402.42,885.981 687.187,885.981 687.187,510.843 
				312.06,510.843 			"/>
			<rect x="546.045" y="744.826" clip-path="url(#SVGID_2_)" fill="#010101" width="92.845" height="92.848"/>
			<polygon clip-path="url(#SVGID_2_)" fill="#010101" points="569.52,758.081 559.309,758.081 559.309,768.294 559.309,814.187 
				559.309,824.419 569.52,824.419 615.409,824.419 625.62,824.419 625.62,814.2 625.62,768.307 625.62,758.081 615.409,758.081 			
				"/>
			<rect x="572.566" y="771.349" clip-path="url(#SVGID_2_)" fill="#010101" width="39.789" height="39.79"/>
			<rect x="360.367" y="744.826" clip-path="url(#SVGID_2_)" fill="#010101" width="92.845" height="92.848"/>
			<polygon clip-path="url(#SVGID_2_)" fill="#010101" points="383.848,758.081 373.637,758.081 373.637,768.294 373.637,814.187 
				373.637,824.419 383.848,824.419 429.736,824.419 439.948,824.419 439.948,814.2 439.948,768.307 439.948,758.081 
				429.736,758.081 			"/>
			<rect x="386.902" y="771.349" clip-path="url(#SVGID_2_)" fill="#010101" width="39.789" height="39.79"/>
			<rect x="360.367" y="559.162" clip-path="url(#SVGID_2_)" fill="#010101" width="92.845" height="92.835"/>
			<polygon clip-path="url(#SVGID_2_)" fill="#010101" points="383.848,572.424 373.637,572.424 373.637,582.624 373.637,628.511 
				373.637,638.736 383.848,638.736 429.736,638.736 439.948,638.736 439.948,628.511 439.948,582.636 439.948,572.424 
				429.736,572.424 			"/>
			<polygon clip-path="url(#SVGID_2_)" fill="#010101" points="386.895,625.469 426.683,625.469 426.683,585.685 426.683,585.672 
				386.895,585.672 			"/>
			<rect x="546.045" y="559.162" clip-path="url(#SVGID_2_)" fill="#010101" width="92.845" height="92.835"/>
			<polygon clip-path="url(#SVGID_2_)" fill="#010101" points="569.52,572.424 559.309,572.424 559.309,582.624 559.309,628.511 
				559.309,638.736 569.52,638.736 615.409,638.736 625.62,638.736 625.62,628.511 625.62,582.636 625.62,572.424 615.409,572.424 
							"/>
			<polygon clip-path="url(#SVGID_2_)" fill="#010101" points="572.571,625.469 612.36,625.469 612.36,585.685 612.36,585.672 
				572.571,585.672 			"/>
			<rect x="492.989" y="559.15" clip-path="url(#SVGID_2_)" fill="#010101" width="13.268" height="13.268"/>
			<polygon clip-path="url(#SVGID_2_)" fill="#010101" points="519.517,572.424 519.517,585.678 532.784,585.678 532.784,572.424 
				532.784,559.162 519.517,559.162 			"/>
			<rect x="466.467" y="585.659" clip-path="url(#SVGID_2_)" fill="#010101" width="13.268" height="13.28"/>
			<rect x="492.989" y="585.659" clip-path="url(#SVGID_2_)" fill="#010101" width="13.268" height="13.28"/>
			<polygon clip-path="url(#SVGID_2_)" fill="#010101" points="519.517,612.207 519.517,625.475 532.784,625.475 532.784,612.207 
				532.784,598.946 519.517,598.946 			"/>
			<rect x="519.523" y="638.73" clip-path="url(#SVGID_2_)" fill="#010101" width="13.268" height="13.268"/>
			<polygon clip-path="url(#SVGID_2_)" fill="#010101" points="426.679,665.252 413.424,665.252 413.424,678.52 426.679,678.52 
				426.679,691.775 439.946,691.775 439.946,678.52 453.214,678.52 453.214,665.252 439.946,665.252 			"/>
			<polygon clip-path="url(#SVGID_2_)" fill="#010101" points="492.992,612.207 479.737,612.207 479.737,625.475 479.737,638.73 
				492.992,638.73 492.992,651.997 492.992,665.252 492.992,678.52 492.992,691.775 506.259,691.775 506.259,678.52 
				506.259,665.252 506.259,651.997 506.259,638.73 506.259,625.475 492.992,625.475 			"/>
			<rect x="599.101" y="665.252" clip-path="url(#SVGID_2_)" fill="#010101" width="13.254" height="13.268"/>
			<polygon clip-path="url(#SVGID_2_)" fill="#010101" points="466.463,665.252 466.463,678.52 466.463,691.775 479.73,691.775 
				479.73,678.52 479.73,665.252 479.73,651.991 466.463,651.991 			"/>
			<polygon clip-path="url(#SVGID_2_)" fill="#010101" points="373.632,665.252 360.364,665.252 360.364,678.52 360.364,691.775 
				373.632,691.775 373.632,678.52 386.899,678.52 386.899,691.775 386.899,705.055 400.153,705.055 400.153,691.775 
				400.153,678.52 400.153,665.252 386.899,665.252 			"/>
			<rect x="439.945" y="691.775" clip-path="url(#SVGID_2_)" fill="#010101" width="13.268" height="13.28"/>
			<rect x="506.255" y="691.775" clip-path="url(#SVGID_2_)" fill="#010101" width="13.254" height="13.28"/>
			<polygon clip-path="url(#SVGID_2_)" fill="#010101" points="373.632,718.297 360.364,718.297 360.364,731.584 373.632,731.584 
				386.899,731.584 386.899,718.297 386.899,705.049 373.632,705.049 			"/>
			<polygon clip-path="url(#SVGID_2_)" fill="#010101" points="426.679,705.049 413.424,705.049 413.424,718.304 400.157,718.304 
				400.157,731.571 413.424,731.571 426.679,731.571 439.946,731.571 439.946,718.304 426.679,718.304 			"/>
			<polygon clip-path="url(#SVGID_2_)" fill="#010101" points="532.787,665.252 519.52,665.252 519.52,678.52 532.787,678.52 
				532.787,691.775 532.787,705.055 519.52,705.055 519.52,718.297 532.787,718.297 532.787,731.578 546.042,731.578 
				559.308,731.578 559.308,718.297 546.042,718.297 546.042,705.055 546.042,691.775 546.042,678.52 559.308,678.52 
				559.308,665.252 546.042,665.252 			"/>
			<polygon clip-path="url(#SVGID_2_)" fill="#010101" points="599.101,705.049 599.101,691.768 599.101,678.52 585.833,678.52 
				585.833,691.768 585.833,705.049 572.566,705.049 572.566,691.768 572.566,678.52 559.298,678.52 559.298,691.768 
				559.298,705.049 559.298,718.304 572.566,718.304 585.833,718.304 585.833,731.571 599.101,731.571 612.355,731.571 
				612.355,718.304 599.101,718.304 			"/>
			<polygon clip-path="url(#SVGID_2_)" fill="#010101" points="625.623,691.775 625.623,678.514 612.355,678.514 612.355,691.775 
				612.355,705.062 612.355,718.297 625.623,718.297 638.889,718.297 638.889,705.062 625.623,705.062 			"/>
			<polygon clip-path="url(#SVGID_2_)" fill="#010101" points="453.208,718.297 453.208,731.584 466.462,731.584 466.462,718.297 
				466.462,705.049 453.208,705.049 			"/>
			<polygon clip-path="url(#SVGID_2_)" fill="#010101" points="492.992,718.297 492.992,705.049 479.737,705.049 479.737,718.297 
				479.737,731.584 466.457,731.584 466.457,744.833 479.737,744.833 492.992,744.833 506.259,744.833 506.259,731.584 
				492.992,731.584 			"/>
			<rect x="519.523" y="744.826" clip-path="url(#SVGID_2_)" fill="#010101" width="13.268" height="13.255"/>
			<polygon clip-path="url(#SVGID_2_)" fill="#010101" points="479.734,758.081 466.466,758.081 466.466,771.368 466.466,784.616 
				479.734,784.616 479.734,771.368 492.988,771.368 506.255,771.368 506.255,758.081 492.988,758.081 			"/>
			<rect x="519.523" y="771.349" clip-path="url(#SVGID_2_)" fill="#010101" width="13.268" height="13.268"/>
			<rect x="479.734" y="784.604" clip-path="url(#SVGID_2_)" fill="#010101" width="13.254" height="13.268"/>
			<polygon clip-path="url(#SVGID_2_)" fill="#010101" points="466.463,811.139 466.463,824.425 479.73,824.425 479.73,811.139 
				479.73,797.878 466.463,797.878 			"/>
			<polygon clip-path="url(#SVGID_2_)" fill="#010101" points="519.517,797.878 506.263,797.878 492.996,797.878 492.996,811.145 
				506.263,811.145 506.263,824.413 506.263,837.68 519.517,837.68 519.517,824.413 532.784,824.413 532.784,811.145 
				519.517,811.145 			"/>
			<rect x="479.734" y="824.406" clip-path="url(#SVGID_2_)" fill="#010101" width="13.254" height="13.268"/>
			<polygon clip-path="url(#SVGID_2_)" fill="#010101" points="402.418,885.968 402.418,795.623 312.069,795.623 			"/>
			<g opacity="0.15" clip-path="url(#SVGID_2_)">
				<g>
					<defs>
						<rect id="SVGID_33_" x="402.419" y="795.623" width="90.361" height="90.403"/>
					</defs>
					<clipPath id="SVGID_34_">
						<use xlink:href="#SVGID_33_"  overflow="visible"/>
					</clipPath>
					<polygon clip-path="url(#SVGID_34_)" fill="#010101" points="402.418,885.968 492.778,885.968 402.418,795.623 					"/>
				</g>
			</g>
			<path clip-path="url(#SVGID_2_)" fill="#010101" d="M675.137,320.333c0,1.931,1.561,3.5,3.499,3.5
				c1.001,0,1.912-0.438,2.549-1.118h5.996c1.3,0,2.38-1.067,2.38-2.382c0-1.308-1.08-2.375-2.38-2.375h-5.996
				c-0.638-0.68-1.548-1.13-2.549-1.13c-0.352,0-0.676,0.076-0.988,0.165l-5.203-6.878c-0.403-0.534-1.145-0.641-1.665-0.248
				c-0.52,0.4-0.625,1.143-0.234,1.664l5.177,6.866C675.358,318.954,675.137,319.609,675.137,320.333"/>
			<path clip-path="url(#SVGID_2_)" fill="#010101" d="M678.506,297.761c-6.634,0-12.774,3.023-16.819,8.288l2.419,1.861
				c3.473-4.49,8.715-7.075,14.4-7.075c10.015,0,18.171,8.142,18.171,18.171c0,10.016-8.156,18.158-18.171,18.158
				c-1.9,0-3.773-0.273-5.554-0.857l-0.937,2.928c2.094,0.661,4.279,1.01,6.491,1.01c11.706,0,21.227-9.533,21.227-21.238
				C699.734,307.287,690.212,297.761,678.506,297.761"/>
			<path clip-path="url(#SVGID_2_)" fill="#010101" d="M378.509,310.8l-34.092-19.676l-2.718-1.575l-2.719,1.575L304.901,310.8
				l-2.718,1.575v3.125v39.358v3.137l2.718,1.581l34.079,19.67l2.719,1.575l2.718-1.575l34.092-19.67l2.719-1.581v-3.137v-39.358
				v-3.125L378.509,310.8z M379.16,316.509v37.307v2.979l-2.576,1.486l-32.309,18.647l-2.575,1.486l-2.575-1.486l-32.31-18.647
				l-2.563-1.486v-2.979v-37.307v-2.972l2.563-1.486l32.31-18.641l2.575-1.493l2.575,1.493l32.309,18.641l2.576,1.486V316.509z"/>
			<polygon clip-path="url(#SVGID_2_)" fill="#010101" points="309.395,319.875 309.395,352.628 326.928,342.498 			"/>
			<polygon clip-path="url(#SVGID_2_)" fill="#010101" points="374.013,352.622 374.013,319.875 356.479,342.505 			"/>
			<polygon clip-path="url(#SVGID_2_)" fill="#010101" points="343.33,359.456 342.732,360.237 342.732,371.879 372.986,354.413 
				355.205,344.15 			"/>
			<path clip-path="url(#SVGID_2_)" fill="#010101" d="M309.395,316.509"/>
			<polygon clip-path="url(#SVGID_2_)" fill="#010101" points="329.891,342.956 330.008,343.114 341.701,358.205 334.431,348.811 
							"/>
			<polygon clip-path="url(#SVGID_2_)" fill="#010101" points="328.204,344.15 310.423,354.413 340.678,371.885 340.678,360.231 
				340.079,359.462 			"/>
			<path clip-path="url(#SVGID_2_)" fill="#010101" d="M344.281,293.41l-2.575-1.493l-2.575,1.493l-32.31,18.641l-2.575,1.486v2.972
				v37.307v2.979l2.575,1.486l32.31,18.647l2.575,1.486l2.575-1.486l32.31-18.647l2.575-1.486v-2.979v-37.307v-2.972l-2.575-1.486
				L344.281,293.41z M376.071,316.509v37.307v1.188l-1.028,0.597l-32.31,18.653l-1.027,0.584l-1.027-0.584l-32.31-18.653
				l-1.028-0.597v-1.188v-37.307v-1.194l1.028-0.584l32.31-18.653l1.027-0.597l1.027,0.597l32.31,18.653l1.028,0.584V316.509z"/>
			<polygon clip-path="url(#SVGID_2_)" fill="#010101" points="354.672,341.457 374.014,316.509 353.917,342.448 			"/>
			<polygon clip-path="url(#SVGID_2_)" fill="#010101" points="371.884,315.277 341.708,297.862 311.517,315.277 341.708,330.679 
							"/>
			<path clip-path="url(#SVGID_2_)" fill="#010101" d="M342.731,296.078l-1.027-0.597l-1.028,0.597l-32.31,18.653l-1.027,0.584
				v1.194v37.307v1.181l1.027,0.603l32.31,18.653l1.028,0.584l1.027-0.584l32.31-18.653l1.027-0.603v-1.181v-37.307v-1.194
				l-1.027-0.584L342.731,296.078z M341.704,297.862l30.177,17.415l-30.177,15.402l-30.19-15.402L341.704,297.862z M340.676,371.885
				l-30.255-17.472l17.781-10.263l11.876,15.313l0.598,0.768V371.885z M309.394,352.622v-32.74l17.533,22.617L309.394,352.622z
				 M342.731,371.885v-11.654l0.599-0.768l11.875-15.313l17.768,10.263L342.731,371.885z M374.014,352.622l-17.548-10.124
				l17.548-22.617V352.622z M354.672,341.457l-0.755,0.991l-12.213,15.751l-11.694-15.084l-0.117-0.159l-20.499-26.446l27.667,14.1
				l4.643,2.369l32.31-16.469L354.672,341.457z"/>
			<path clip-path="url(#SVGID_2_)" fill="#010101" d="M337.06,330.609l-27.667-14.1L337.06,330.609z"/>
			<path clip-path="url(#SVGID_2_)" fill="#010101" d="M337.06,330.609l-27.667-14.1L337.06,330.609z"/>
			<polygon clip-path="url(#SVGID_2_)" fill="#010101" points="341.704,332.972 341.704,358.198 353.398,343.108 353.918,342.454 
				374.014,316.509 			"/>
			<polygon clip-path="url(#SVGID_2_)" fill="#010101" points="341.704,332.972 341.704,358.198 353.398,343.108 353.918,342.454 
				374.014,316.509 			"/>
			<path clip-path="url(#SVGID_2_)" fill="#010101" d="M334.428,348.811l7.271,9.393L334.428,348.811z"/>
			<path clip-path="url(#SVGID_2_)" fill="#010101" d="M334.428,348.811l7.271,9.393L334.428,348.811z"/>
			<path clip-path="url(#SVGID_2_)" fill="#010101" d="M341.704,358.198"/>
			<path clip-path="url(#SVGID_2_)" fill="#010101" d="M341.704,358.198"/>
			<polygon clip-path="url(#SVGID_2_)" fill="#010101" points="341.704,358.198 341.704,358.198 353.918,342.448 353.398,343.114 
							"/>
			<polygon clip-path="url(#SVGID_2_)" fill="#010101" points="341.704,358.198 341.704,358.198 353.918,342.448 353.398,343.114 
							"/>
			<polygon clip-path="url(#SVGID_2_)" fill="#010101" points="309.395,316.509 309.395,316.509 328.737,341.463 329.894,342.956 
				334.434,348.811 			"/>
			<polygon clip-path="url(#SVGID_2_)" fill="#010101" points="309.395,316.509 309.395,316.509 328.737,341.463 329.894,342.956 
				334.434,348.811 			"/>
			<path clip-path="url(#SVGID_2_)" fill="#010101" d="M341.704,332.972l-4.644-2.363L341.704,332.972z"/>
			<path clip-path="url(#SVGID_2_)" fill="#010101" d="M341.704,332.972l-4.644-2.363L341.704,332.972z"/>
			<polygon clip-path="url(#SVGID_2_)" fill="#010101" points="309.395,316.509 309.395,316.509 329.894,342.956 328.737,341.463 
							"/>
			<polygon clip-path="url(#SVGID_2_)" fill="#010101" points="309.395,316.509 309.395,316.509 329.894,342.956 328.737,341.463 
							"/>
			<path clip-path="url(#SVGID_2_)" fill="#010101" d="M341.704,358.198"/>
			<path clip-path="url(#SVGID_2_)" fill="#010101" d="M341.704,358.198"/>
			<polygon clip-path="url(#SVGID_2_)" fill="#010101" points="334.428,348.811 341.698,358.205 341.698,332.972 337.055,330.615 
				309.388,316.516 			"/>
			<polygon clip-path="url(#SVGID_2_)" fill="#010101" points="334.428,348.811 341.698,358.205 341.698,332.972 337.055,330.615 
				309.388,316.516 			"/>
			<polygon clip-path="url(#SVGID_2_)" fill="#010101" points="334.428,348.811 341.698,358.205 341.698,332.972 337.055,330.615 
				309.388,316.516 			"/>
			<path clip-path="url(#SVGID_2_)" fill="#010101" d="M341.704,358.198"/>
			<path clip-path="url(#SVGID_2_)" fill="#010101" d="M341.704,358.198"/>
			<path clip-path="url(#SVGID_2_)" fill="#010101" d="M341.704,358.198"/>
			<polygon clip-path="url(#SVGID_2_)" fill="#010101" points="430.413,338.802 442.717,338.802 442.717,331.797 430.413,331.797 
				430.413,326.62 443.433,326.62 443.433,319.31 421.412,319.31 421.412,351.682 444.213,351.682 444.213,344.321 430.413,344.321 
							"/>
			<path clip-path="url(#SVGID_2_)" fill="#010101" d="M472.659,335.042c1.015-1.562,1.522-3.461,1.522-5.722
				c0-1.848-0.325-3.411-0.962-4.687c-0.65-1.283-1.535-2.312-2.654-3.106c-1.131-0.781-2.445-1.353-3.954-1.702
				c-1.522-0.343-3.135-0.521-4.878-0.521h-12.995v32.385h9.105V340.18h2.107l5.984,11.508h10.184l-7.583-13.23
				C470.266,337.735,471.644,336.592,472.659,335.042 M464.608,331.435c-0.248,0.47-0.56,0.826-0.937,1.111
				c-0.391,0.241-0.819,0.451-1.301,0.572c-0.481,0.114-0.975,0.165-1.496,0.165h-3.03v-6.669h3.095c1.092,0,2.043,0.203,2.836,0.61
				c0.793,0.387,1.196,1.219,1.196,2.433C464.971,330.387,464.841,330.984,464.608,331.435"/>
			<rect x="477.887" y="319.317" clip-path="url(#SVGID_2_)" fill="#010101" width="9.222" height="32.372"/>
			<path clip-path="url(#SVGID_2_)" fill="#010101" d="M515.812,322.803c-1.666-1.264-3.59-2.147-5.763-2.68
				c-2.172-0.534-4.448-0.819-6.789-0.819h-12.045v32.378h12.318c2.276,0,4.501-0.311,6.647-0.953
				c2.159-0.635,4.058-1.6,5.723-2.928c1.652-1.327,2.979-3.004,3.967-5.056c1.002-2.045,1.496-4.503,1.496-7.336
				c0-3.074-0.507-5.621-1.521-7.679C518.83,325.68,517.49,324.029,515.812,322.803 M510.935,339.437
				c-0.468,1.111-1.119,2.007-1.925,2.693c-0.807,0.705-1.743,1.188-2.823,1.473c-1.08,0.286-2.224,0.438-3.434,0.438h-2.315
				v-17.205h2.484c1.196,0,2.341,0.159,3.395,0.432c1.067,0.299,1.99,0.762,2.771,1.416c0.793,0.648,1.418,1.518,1.873,2.585
				c0.456,1.067,0.69,2.42,0.69,4.033C511.65,336.954,511.402,338.319,510.935,339.437"/>
			<polygon clip-path="url(#SVGID_2_)" fill="#010101" points="403.114,339.056 395.947,319.272 386.711,319.272 398.457,351.701 
				407.692,351.701 419.633,319.272 410.398,319.272 			"/>
			<path clip-path="url(#SVGID_2_)" fill="#010101" d="M541.154,318.472c-9.405,0-17.014,7.609-17.014,17.002
				c0,9.4,7.609,17.015,17.014,17.015c9.391,0,17.013-7.615,17.013-17.015C558.167,326.081,550.545,318.472,541.154,318.472
				 M541.115,343.807c-4.605,0-8.338-3.715-8.338-8.333c0-4.592,3.734-8.326,8.338-8.326c4.604,0,8.338,3.734,8.338,8.326
				C549.452,340.091,545.718,343.807,541.115,343.807"/>
			<path clip-path="url(#SVGID_2_)" fill="#010101" d="M577.711,343.807c-4.605,0-8.325-3.728-8.325-8.333
				c0-4.592,3.772-8.326,8.364-8.326c3.395,0,6.36,2.013,7.661,4.929l8.376-2.21c-2.329-6.631-8.637-11.394-16.051-11.394
				c-9.404,0-17.013,7.609-17.013,17.002c0,9.4,7.61,17.015,17.013,17.015c7.349,0,13.606-4.662,15.986-11.191l-8.389-2.21
				C583.98,341.882,581.014,343.807,577.711,343.807"/>
			<g clip-path="url(#SVGID_2_)">
				<text transform="matrix(1 0 0 1 601.3721 352.4126)" fill="#010101" font-family="'Roboto-BlackItalic'" font-size="47.6103">HR</text>
			</g>
		</g>
	</g>
	<path fill="#0F2138" d="M817.175,57.064c-4.709-8.739-11.72-16.088-20.187-21.264v-0.038c-2.159-1.289-4.397-2.458-6.712-3.474
		h-0.025c-6.868-3.055-45.239-4.706-53.239-4.706H236.364c-7.999,0-15.57,1.651-22.463,4.681c-2.342,1.042-4.553,2.21-6.712,3.538
		c-0.247,0.089-0.429,0.248-0.65,0.375c-8.181,5.164-14.984,12.397-19.562,20.946c-0.221,0.375-0.43,0.749-0.611,1.181
		c-3.915,7.621-6.126,16.272-6.126,25.443V1129.86c0,2.979,0.247,5.97,0.703,8.86c0.156,0.953,0.338,1.912,0.533,2.864
		c0.117,0.534,0.234,1.054,0.364,1.569c0.364,1.6,0.833,3.201,1.353,4.738c0.182,0.495,0.338,1.016,0.559,1.505
		c0.183,0.533,0.364,1.054,0.572,1.55c0.287,0.768,0.625,1.512,0.963,2.21c0.338,0.743,0.676,1.448,1.08,2.185
		c0.546,1.111,1.17,2.242,1.808,3.322c1.977,3.265,4.214,6.319,6.777,9.152c0.858,0.915,1.717,1.81,2.641,2.668
		c0.715,0.641,1.392,1.289,2.133,1.912c1.405,1.239,2.887,2.369,4.397,3.449c0.026,0.063,0.052,0.089,0.052,0.089
		c0.807,0.521,1.6,1.054,2.367,1.537c2.355,1.486,4.813,2.769,7.363,3.919c6.893,3.004,14.464,4.668,22.463,4.668h531.422
		c8,0,15.596-1.664,22.49-4.7c2.316-1.023,4.553-2.185,6.712-3.525c8.493-5.189,15.504-12.55,20.213-21.327
		c4.28-7.895,6.712-16.977,6.712-26.618V83.745c0-9.628-2.432-18.717-6.712-26.624C817.2,57.096,817.175,57.096,817.175,57.064"/>
	<path fill="#11323F" d="M817.175,44.755c-4.709-8.752-11.72-16.1-20.187-21.276v-0.025c-2.159-1.289-4.397-2.458-6.712-3.474
		h-0.025c-6.868-3.055-45.239-4.706-53.239-4.706H236.364c-7.999,0-15.57,1.651-22.463,4.681c-2.342,1.042-4.553,2.21-6.712,3.525
		c-0.247,0.102-0.429,0.26-0.65,0.387c-8.181,5.164-14.984,12.397-19.562,20.946c-0.221,0.362-0.43,0.737-0.611,1.169
		c-3.915,7.634-6.126,16.284-6.126,25.456v1046.115c0,2.979,0.247,5.97,0.703,8.86c0.156,0.953,0.338,1.912,0.533,2.864
		c0.117,0.533,0.234,1.054,0.364,1.569c0.364,1.6,0.833,3.201,1.353,4.738c0.182,0.495,0.338,1.016,0.559,1.505
		c0.183,0.533,0.364,1.054,0.572,1.55c0.287,0.756,0.625,1.512,0.963,2.21c0.338,0.73,0.676,1.448,1.08,2.185
		c0.546,1.111,1.17,2.242,1.808,3.322c1.977,3.265,4.214,6.319,6.777,9.152c0.858,0.915,1.717,1.797,2.641,2.667
		c0.715,0.641,1.392,1.289,2.133,1.899c1.405,1.239,2.887,2.382,4.397,3.461c0.026,0.063,0.052,0.089,0.052,0.089
		c0.807,0.521,1.6,1.042,2.367,1.537c2.355,1.486,4.813,2.769,7.363,3.919c6.893,3.004,14.464,4.668,22.463,4.668h531.422
		c8,0,15.596-1.664,22.49-4.7c2.316-1.023,4.553-2.198,6.712-3.525c8.493-5.189,15.504-12.55,20.213-21.327
		c4.28-7.895,6.712-16.977,6.712-26.618V71.437c0-9.628-2.432-18.717-6.712-26.624C817.2,44.787,817.175,44.787,817.175,44.755"/>
	<path fill="#193B4C" d="M817.175,41.669c-4.709-8.739-11.72-16.088-20.187-21.264v-0.025c-2.159-1.289-4.397-2.458-6.712-3.474
		h-0.025c-6.868-3.055-45.239-4.719-53.239-4.719H236.364c-7.999,0-15.57,1.664-22.463,4.694c-2.342,1.042-4.553,2.21-6.712,3.525
		c-0.247,0.089-0.429,0.26-0.65,0.375c-8.181,5.164-14.984,12.41-19.562,20.959c-0.221,0.362-0.43,0.737-0.611,1.169
		c-3.915,7.634-6.126,16.284-6.126,25.456v1046.115c0,2.979,0.247,5.97,0.703,8.86c0.156,0.953,0.338,1.912,0.533,2.864
		c0.117,0.521,0.234,1.054,0.364,1.569c0.364,1.6,0.833,3.201,1.353,4.738c0.182,0.495,0.338,1.016,0.559,1.512
		c0.183,0.533,0.364,1.048,0.572,1.543c0.287,0.756,0.625,1.499,0.963,2.21c0.338,0.73,0.676,1.448,1.08,2.185
		c0.546,1.099,1.17,2.242,1.808,3.322c1.977,3.265,4.214,6.307,6.777,9.139c0.858,0.927,1.717,1.81,2.641,2.68
		c0.715,0.641,1.392,1.289,2.133,1.899c1.405,1.239,2.887,2.382,4.397,3.461c0.026,0.051,0.052,0.089,0.052,0.089
		c0.807,0.521,1.6,1.042,2.367,1.537c2.355,1.474,4.813,2.769,7.363,3.906c6.893,3.017,14.464,4.681,22.463,4.681h531.422
		c8,0,15.596-1.664,22.49-4.713c2.316-1.023,4.553-2.185,6.712-3.512c8.493-5.189,15.504-12.55,20.213-21.327
		c4.28-7.907,6.712-16.977,6.712-26.63V68.363c0-9.628-2.432-18.717-6.712-26.624C817.2,41.713,817.175,41.713,817.175,41.669"/>
	<rect x="199.09" y="111.195" fill="#FFFFFF" width="601.063" height="923.994"/>
	<g opacity="0.28">
		<g>
			<defs>
				<rect id="SVGID_35_" x="790.255" y="110.922" width="33.662" height="924.166"/>
			</defs>
			<clipPath id="SVGID_36_">
				<use xlink:href="#SVGID_35_"  overflow="visible"/>
			</clipPath>
			<rect x="790.255" y="110.973" clip-path="url(#SVGID_36_)" fill="#F7FCFE" width="33.663" height="924.071"/>
		</g>
	</g>
	<g opacity="0.28">
		<g>
			<defs>
				<rect id="SVGID_37_" x="796.98" y="110.922" width="20.213" height="924.166"/>
			</defs>
			<clipPath id="SVGID_38_">
				<use xlink:href="#SVGID_37_"  overflow="visible"/>
			</clipPath>
			<rect x="796.98" y="110.973" clip-path="url(#SVGID_38_)" fill="#F7FCFE" width="20.2" height="924.071"/>
		</g>
	</g>
	<g opacity="0.14">
		<g>
			<defs>
				<rect id="SVGID_39_" x="790.255" y="1034.954" width="33.662" height="131.114"/>
			</defs>
			<clipPath id="SVGID_40_">
				<use xlink:href="#SVGID_39_"  overflow="visible"/>
			</clipPath>
			<path clip-path="url(#SVGID_40_)" fill="#F7FCFE" d="M790.252,1166.017c2.341-1.01,4.591-2.185,6.737-3.506
				c3.669-2.242,7.024-4.935,10.081-7.939c0.13-0.114,0.247-0.235,0.364-0.362c1.353-1.353,2.627-2.756,3.837-4.23
				c0.182-0.235,0.364-0.451,0.534-0.673c0.481-0.597,0.988-1.156,1.431-1.785c1.457-1.988,2.81-4.122,3.981-6.307
				c2.679-4.954,4.643-10.391,5.722-16.157c0.638-3.379,0.976-6.891,0.976-10.454v-79.631h-33.662V1166.017z"/>
		</g>
	</g>
	<g opacity="0.14">
		<g>
			<defs>
				<rect id="SVGID_41_" x="790.255" y="16.88" width="33.662" height="94.042"/>
			</defs>
			<clipPath id="SVGID_42_">
				<use xlink:href="#SVGID_41_"  overflow="visible"/>
			</clipPath>
			<path clip-path="url(#SVGID_42_)" fill="#F7FCFE" d="M817.21,41.732c0-0.025-0.026-0.025-0.026-0.064
				c-4.709-8.739-11.733-16.088-20.187-21.264c0,0-0.039,0-0.039-0.025c-2.147-1.289-4.37-2.458-6.712-3.474v94.067h33.676v-42.61
				c0-6.256-1.015-12.27-2.927-17.847C819.98,47.461,818.718,44.546,817.21,41.732"/>
		</g>
	</g>
	<g opacity="0.14">
		<g>
			<defs>
				<rect id="SVGID_43_" x="796.98" y="20.392" width="20.2" height="90.53"/>
			</defs>
			<clipPath id="SVGID_44_">
				<use xlink:href="#SVGID_43_"  overflow="visible"/>
			</clipPath>
			<path clip-path="url(#SVGID_44_)" fill="#F7FCFE" d="M797,20.392c0,0-0.026,0-0.026-0.025v90.625h20.213V41.688
				C812.465,32.923,805.467,25.575,797,20.392"/>
		</g>
	</g>
	<g opacity="0.14">
		<g>
			<defs>
				<rect id="SVGID_45_" x="796.98" y="1034.954" width="20.213" height="127.601"/>
			</defs>
			<clipPath id="SVGID_46_">
				<use xlink:href="#SVGID_45_"  overflow="visible"/>
			</clipPath>
			<path clip-path="url(#SVGID_46_)" fill="#F7FCFE" d="M796.981,1162.524c8.493-5.176,15.491-12.55,20.2-21.302v-106.255h-20.2
				V1162.524z"/>
		</g>
	</g>
	<g opacity="0.28">
		<g>
			<defs>
				<rect id="SVGID_47_" x="180.243" y="110.922" width="33.662" height="924.033"/>
			</defs>
			<clipPath id="SVGID_48_">
				<use xlink:href="#SVGID_47_"  overflow="visible"/>
			</clipPath>
			<rect x="180.243" y="110.973" clip-path="url(#SVGID_48_)" fill="#F7FCFE" width="33.663" height="923.994"/>
		</g>
	</g>
	<g opacity="0.28">
		<g>
			<defs>
				<rect id="SVGID_49_" x="186.981" y="110.922" width="20.2" height="924.033"/>
			</defs>
			<clipPath id="SVGID_50_">
				<use xlink:href="#SVGID_49_"  overflow="visible"/>
			</clipPath>
			<rect x="186.981" y="110.973" clip-path="url(#SVGID_50_)" fill="#F7FCFE" width="20.2" height="923.982"/>
		</g>
	</g>
	<g opacity="0.14">
		<g>
			<defs>
				<rect id="SVGID_51_" x="180.243" y="1034.954" width="33.662" height="131.114"/>
			</defs>
			<clipPath id="SVGID_52_">
				<use xlink:href="#SVGID_51_"  overflow="visible"/>
			</clipPath>
			<path clip-path="url(#SVGID_52_)" fill="#F7FCFE" d="M180.24,1114.471c0,2.979,0.247,5.976,0.702,8.873
				c0.156,0.953,0.312,1.899,0.521,2.852c0.129,0.521,0.221,1.054,0.377,1.575c0.364,1.613,0.832,3.207,1.353,4.744
				c0.182,0.495,0.338,1.016,0.559,1.512c0.183,0.521,0.364,1.035,0.585,1.531c0.274,0.769,0.586,1.499,0.949,2.21
				c0.338,0.743,0.676,1.448,1.041,2.191c0.195,0.4,0.403,0.807,0.625,1.207c0,0.026,0.025,0.026,0.025,0.051
				c0,0.038,0.04,0.038,0.04,0.063c0.338,0.641,0.728,1.315,1.131,1.943c-0.026,0.025,0.026,0.063,0.026,0.063
				c0.494,0.794,0.988,1.626,1.508,2.394c0.533,0.807,1.08,1.569,1.639,2.337c0.546,0.768,1.131,1.499,1.756,2.255
				c0.611,0.737,1.223,1.442,1.873,2.147c0.429,0.464,0.858,0.921,1.288,1.353c0.429,0.502,0.897,0.934,1.353,1.321
				c0.676,0.654,1.392,1.302,2.094,1.912c0.715,0.616,1.443,1.226,2.185,1.81c0.742,0.559,1.509,1.105,2.251,1.639
				c0.025,0.051,0.064,0.095,0.064,0.095c0.794,0.515,1.562,1.035,2.367,1.531c0.183,0.159,0.391,0.311,0.611,0.432
				c2.159,1.327,4.397,2.534,6.738,3.512v-131.05H180.24V1114.471z"/>
		</g>
	</g>
	<g opacity="0.14">
		<g>
			<defs>
				<rect id="SVGID_53_" x="180.243" y="16.88" width="33.662" height="94.042"/>
			</defs>
			<clipPath id="SVGID_54_">
				<use xlink:href="#SVGID_53_"  overflow="visible"/>
			</clipPath>
			<path clip-path="url(#SVGID_54_)" fill="#F7FCFE" d="M206.55,20.773c-8.182,5.17-14.985,12.41-19.576,20.959
				c-0.234,0.375-0.43,0.743-0.638,1.169c-1.236,2.445-2.316,4.954-3.174,7.609c-1.912,5.595-2.926,11.604-2.926,17.847v42.623
				h33.676V16.874c-2.341,1.042-4.592,2.21-6.751,3.538C206.952,20.5,206.732,20.659,206.55,20.773"/>
		</g>
	</g>
	<g opacity="0.14">
		<g>
			<defs>
				<rect id="SVGID_55_" x="186.968" y="20.392" width="20.213" height="90.53"/>
			</defs>
			<clipPath id="SVGID_56_">
				<use xlink:href="#SVGID_55_"  overflow="visible"/>
			</clipPath>
			<path clip-path="url(#SVGID_56_)" fill="#F7FCFE" d="M186.973,41.719v69.253h20.2v-90.58c-0.221,0.114-0.416,0.26-0.625,0.387
				C198.354,25.943,191.552,33.177,186.973,41.719"/>
		</g>
	</g>
	<g opacity="0.14">
		<g>
			<defs>
				<rect id="SVGID_57_" x="186.981" y="1034.954" width="20.2" height="127.601"/>
			</defs>
			<clipPath id="SVGID_58_">
				<use xlink:href="#SVGID_57_"  overflow="visible"/>
			</clipPath>
			<path clip-path="url(#SVGID_58_)" fill="#F7FCFE" d="M186.977,1141.222c4.721,8.758,11.719,16.119,20.2,21.308v-127.563h-20.2
				V1141.222z"/>
		</g>
	</g>
	<g opacity="0.25">
		<g>
			<defs>
				<rect id="SVGID_59_" x="453.46" y="1065.783" width="92.325" height="73.75"/>
			</defs>
			<clipPath id="SVGID_60_">
				<use xlink:href="#SVGID_59_"  overflow="visible"/>
			</clipPath>
			<path clip-path="url(#SVGID_60_)" fill="#F7FCFE" d="M519.697,1065.732h-40.14c-14.386,0-26.092,11.718-26.092,26.11v21.651
				c0,14.392,11.706,26.11,26.092,26.11h40.14c14.386,0,26.092-11.718,26.092-26.11v-21.651
				C545.789,1077.45,534.083,1065.732,519.697,1065.732 M536.555,1113.493c0,9.317-7.571,16.875-16.858,16.875h-40.14
				c-9.287,0-16.858-7.558-16.858-16.875v-21.651c0-9.305,7.571-16.875,16.858-16.875h40.14c9.287,0,16.858,7.571,16.858,16.875
				V1113.493z"/>
		</g>
	</g>
	<g opacity="0.25">
		<g>
			<defs>
				<rect id="SVGID_61_" x="425.754" y="51.481" width="150.415" height="20.159"/>
			</defs>
			<clipPath id="SVGID_62_">
				<use xlink:href="#SVGID_61_"  overflow="visible"/>
			</clipPath>
			<path clip-path="url(#SVGID_62_)" fill="#F7FCFE" d="M569.435,51.487H432.481c-3.719,0-6.738,3.01-6.738,6.739v6.726
				c0,3.722,3.018,6.739,6.738,6.739h136.954c3.719,0,6.737-3.017,6.737-6.739v-6.726C576.172,54.498,573.154,51.487,569.435,51.487
				"/>
		</g>
	</g>
	<g opacity="0.25">
		<g>
			<defs>
				<rect id="SVGID_63_" x="674.972" y="40.036" width="29.865" height="29.787"/>
			</defs>
			<clipPath id="SVGID_64_">
				<use xlink:href="#SVGID_63_"  overflow="visible"/>
			</clipPath>
			<path clip-path="url(#SVGID_64_)" fill="#F7FCFE" d="M689.907,46.419c4.682,0,8.493,3.811,8.493,8.498
				c0,4.694-3.811,8.504-8.493,8.504c-4.683,0-8.494-3.811-8.494-8.504C681.413,50.23,685.224,46.419,689.907,46.419
				 M689.907,39.992c-8.247,0-14.932,6.688-14.932,14.925c0,8.244,6.685,14.932,14.932,14.932c8.246,0,14.932-6.688,14.932-14.932
				C704.838,46.68,698.153,39.992,689.907,39.992"/>
		</g>
	</g>
	<g>
		<g>
			<defs>
				<rect id="SVGID_65_" x="312.058" y="484.492" width="375.128" height="375.126"/>
			</defs>
			<clipPath id="SVGID_66_">
				<use xlink:href="#SVGID_65_"  overflow="visible"/>
			</clipPath>
			<polygon clip-path="url(#SVGID_66_)" fill="#E7E7E7" points="312.06,769.272 402.42,859.636 687.187,859.636 687.187,484.498 
				312.06,484.498 			"/>
			<rect x="546.045" y="718.488" clip-path="url(#SVGID_66_)" fill="#E7E7E7" width="92.845" height="92.848"/>
			<polygon clip-path="url(#SVGID_66_)" fill="#E7E7E7" points="569.52,731.736 559.309,731.736 559.309,741.949 559.309,787.843 
				559.309,798.074 569.52,798.074 615.409,798.074 625.62,798.074 625.62,787.855 625.62,741.962 625.62,731.736 615.409,731.736 
							"/>
			<rect x="572.566" y="745.01" clip-path="url(#SVGID_66_)" fill="#E7E7E7" width="39.789" height="39.79"/>
			<rect x="360.367" y="718.488" clip-path="url(#SVGID_66_)" fill="#E7E7E7" width="92.845" height="92.848"/>
			<polygon clip-path="url(#SVGID_66_)" fill="#E7E7E7" points="383.848,731.736 373.637,731.736 373.637,741.949 373.637,787.843 
				373.637,798.074 383.848,798.074 429.736,798.074 439.948,798.074 439.948,787.855 439.948,741.962 439.948,731.736 
				429.736,731.736 			"/>
			<rect x="386.902" y="745.01" clip-path="url(#SVGID_66_)" fill="#E7E7E7" width="39.789" height="39.79"/>
			<rect x="360.367" y="532.811" clip-path="url(#SVGID_66_)" fill="#E7E7E7" width="92.845" height="92.835"/>
			<polygon clip-path="url(#SVGID_66_)" fill="#E7E7E7" points="383.848,546.079 373.637,546.079 373.637,556.279 373.637,602.166 
				373.637,612.392 383.848,612.392 429.736,612.392 439.948,612.392 439.948,602.166 439.948,556.292 439.948,546.079 
				429.736,546.079 			"/>
			<polygon clip-path="url(#SVGID_66_)" fill="#E7E7E7" points="386.895,599.124 426.683,599.124 426.683,559.34 426.683,559.327 
				386.895,559.327 			"/>
			<rect x="546.045" y="532.811" clip-path="url(#SVGID_66_)" fill="#E7E7E7" width="92.845" height="92.835"/>
			<polygon clip-path="url(#SVGID_66_)" fill="#E7E7E7" points="569.52,546.079 559.309,546.079 559.309,556.279 559.309,602.166 
				559.309,612.392 569.52,612.392 615.409,612.392 625.62,612.392 625.62,602.166 625.62,556.292 625.62,546.079 615.409,546.079 
							"/>
			<polygon clip-path="url(#SVGID_66_)" fill="#E7E7E7" points="572.571,599.124 612.36,599.124 612.36,559.34 612.36,559.327 
				572.571,559.327 			"/>
			<rect x="492.989" y="532.811" clip-path="url(#SVGID_66_)" fill="#E7E7E7" width="13.268" height="13.268"/>
			<polygon clip-path="url(#SVGID_66_)" fill="#E7E7E7" points="519.517,546.079 519.517,559.334 532.784,559.334 532.784,546.079 
				532.784,532.818 519.517,532.818 			"/>
			<rect x="466.467" y="559.321" clip-path="url(#SVGID_66_)" fill="#E7E7E7" width="13.268" height="13.28"/>
			<rect x="492.989" y="559.321" clip-path="url(#SVGID_66_)" fill="#E7E7E7" width="13.268" height="13.28"/>
			<polygon clip-path="url(#SVGID_66_)" fill="#E7E7E7" points="519.517,585.863 519.517,599.13 532.784,599.13 532.784,585.863 
				532.784,572.601 519.517,572.601 			"/>
			<rect x="519.523" y="612.379" clip-path="url(#SVGID_66_)" fill="#E7E7E7" width="13.268" height="13.268"/>
			<polygon clip-path="url(#SVGID_66_)" fill="#E7E7E7" points="426.679,638.908 413.424,638.908 413.424,652.175 426.679,652.175 
				426.679,665.43 439.946,665.43 439.946,652.175 453.214,652.175 453.214,638.908 439.946,638.908 			"/>
			<polygon clip-path="url(#SVGID_66_)" fill="#E7E7E7" points="492.992,585.863 479.737,585.863 479.737,599.13 479.737,612.385 
				492.992,612.385 492.992,625.653 492.992,638.908 492.992,652.175 492.992,665.43 506.259,665.43 506.259,652.175 
				506.259,638.908 506.259,625.653 506.259,612.385 506.259,599.13 492.992,599.13 			"/>
			<rect x="599.101" y="638.901" clip-path="url(#SVGID_66_)" fill="#E7E7E7" width="13.254" height="13.268"/>
			<polygon clip-path="url(#SVGID_66_)" fill="#E7E7E7" points="466.463,638.908 466.463,652.175 466.463,665.43 479.73,665.43 
				479.73,652.175 479.73,638.908 479.73,625.646 466.463,625.646 			"/>
			<polygon clip-path="url(#SVGID_66_)" fill="#E7E7E7" points="373.632,638.908 360.364,638.908 360.364,652.175 360.364,665.43 
				373.632,665.43 373.632,652.175 386.899,652.175 386.899,665.43 386.899,678.711 400.153,678.711 400.153,665.43 
				400.153,652.175 400.153,638.908 386.899,638.908 			"/>
			<rect x="439.945" y="665.417" clip-path="url(#SVGID_66_)" fill="#E7E7E7" width="13.268" height="13.28"/>
			<rect x="506.255" y="665.417" clip-path="url(#SVGID_66_)" fill="#E7E7E7" width="13.254" height="13.28"/>
			<polygon clip-path="url(#SVGID_66_)" fill="#E7E7E7" points="373.632,691.953 360.364,691.953 360.364,705.239 373.632,705.239 
				386.899,705.239 386.899,691.953 386.899,678.704 373.632,678.704 			"/>
			<polygon clip-path="url(#SVGID_66_)" fill="#E7E7E7" points="426.679,678.704 413.424,678.704 413.424,691.959 400.157,691.959 
				400.157,705.227 413.424,705.227 426.679,705.227 439.946,705.227 439.946,691.959 426.679,691.959 			"/>
			<polygon clip-path="url(#SVGID_66_)" fill="#E7E7E7" points="532.787,638.908 519.52,638.908 519.52,652.175 532.787,652.175 
				532.787,665.43 532.787,678.711 519.52,678.711 519.52,691.953 532.787,691.953 532.787,705.233 546.042,705.233 
				559.308,705.233 559.308,691.953 546.042,691.953 546.042,678.711 546.042,665.43 546.042,652.175 559.308,652.175 
				559.308,638.908 546.042,638.908 			"/>
			<polygon clip-path="url(#SVGID_66_)" fill="#E7E7E7" points="599.101,678.704 599.101,665.424 599.101,652.175 585.833,652.175 
				585.833,665.424 585.833,678.704 572.566,678.704 572.566,665.424 572.566,652.175 559.298,652.175 559.298,665.424 
				559.298,678.704 559.298,691.959 572.566,691.959 585.833,691.959 585.833,705.227 599.101,705.227 612.355,705.227 
				612.355,691.959 599.101,691.959 			"/>
			<polygon clip-path="url(#SVGID_66_)" fill="#E7E7E7" points="625.623,665.43 625.623,652.169 612.355,652.169 612.355,665.43 
				612.355,678.717 612.355,691.953 625.623,691.953 638.889,691.953 638.889,678.717 625.623,678.717 			"/>
			<polygon clip-path="url(#SVGID_66_)" fill="#E7E7E7" points="453.208,691.953 453.208,705.239 466.462,705.239 466.462,691.953 
				466.462,678.704 453.208,678.704 			"/>
			<polygon clip-path="url(#SVGID_66_)" fill="#E7E7E7" points="492.992,691.953 492.992,678.704 479.737,678.704 479.737,691.953 
				479.737,705.239 466.457,705.239 466.457,718.488 479.737,718.488 492.992,718.488 506.259,718.488 506.259,705.239 
				492.992,705.239 			"/>
			<rect x="519.523" y="718.475" clip-path="url(#SVGID_66_)" fill="#E7E7E7" width="13.268" height="13.255"/>
			<polygon clip-path="url(#SVGID_66_)" fill="#E7E7E7" points="479.734,731.736 466.466,731.736 466.466,745.023 466.466,758.272 
				479.734,758.272 479.734,745.023 492.988,745.023 506.255,745.023 506.255,731.736 492.988,731.736 			"/>
			<rect x="519.523" y="744.998" clip-path="url(#SVGID_66_)" fill="#E7E7E7" width="13.268" height="13.268"/>
			<rect x="479.734" y="758.265" clip-path="url(#SVGID_66_)" fill="#E7E7E7" width="13.254" height="13.268"/>
			<polygon clip-path="url(#SVGID_66_)" fill="#E7E7E7" points="466.463,784.794 466.463,798.081 479.73,798.081 479.73,784.794 
				479.73,771.533 466.463,771.533 			"/>
			<polygon clip-path="url(#SVGID_66_)" fill="#E7E7E7" points="519.517,771.533 506.263,771.533 492.996,771.533 492.996,784.801 
				506.263,784.801 506.263,798.068 506.263,811.336 519.517,811.336 519.517,798.068 532.784,798.068 532.784,784.801 
				519.517,784.801 			"/>
			<rect x="479.734" y="798.068" clip-path="url(#SVGID_66_)" fill="#E7E7E7" width="13.254" height="13.268"/>
			<polygon clip-path="url(#SVGID_66_)" fill="#E7E7E7" points="402.418,859.624 402.418,769.278 312.069,769.278 			"/>
			<g opacity="0.15" clip-path="url(#SVGID_66_)">
				<g>
					<defs>
						<rect id="SVGID_67_" x="402.419" y="769.215" width="90.361" height="90.403"/>
					</defs>
					<clipPath id="SVGID_68_">
						<use xlink:href="#SVGID_67_"  overflow="visible"/>
					</clipPath>
					<polygon clip-path="url(#SVGID_68_)" fill="#E7E7E7" points="402.418,859.624 492.778,859.624 402.418,769.278 					"/>
				</g>
			</g>
		</g>
	</g>
	<polygon fill="#F7F8F8" points="312.06,756.595 402.42,846.959 687.187,846.959 687.187,471.821 312.06,471.821 	"/>
	<rect x="546.045" y="705.805" fill="#0D3653" width="92.845" height="92.848"/>
	<polygon fill="#F7F8F8" points="569.52,719.06 559.309,719.06 559.309,729.272 559.309,775.166 559.309,785.398 569.52,785.398 
		615.409,785.398 625.62,785.398 625.62,775.178 625.62,729.285 625.62,719.06 615.409,719.06 	"/>
	<rect x="572.566" y="732.327" fill="#0D3653" width="39.789" height="39.79"/>
	<rect x="360.367" y="705.805" fill="#0D3653" width="92.845" height="92.848"/>
	<polygon fill="#F7F8F8" points="383.848,719.06 373.637,719.06 373.637,729.272 373.637,775.166 373.637,785.398 383.848,785.398 
		429.736,785.398 439.948,785.398 439.948,775.178 439.948,729.285 439.948,719.06 429.736,719.06 	"/>
	<rect x="386.902" y="732.327" fill="#0D3653" width="39.789" height="39.79"/>
	<rect x="360.367" y="520.141" fill="#0D3653" width="92.845" height="92.835"/>
	<polygon fill="#F7F8F8" points="383.848,533.402 373.637,533.402 373.637,543.602 373.637,589.489 373.637,599.715 
		383.848,599.715 429.736,599.715 439.948,599.715 439.948,589.489 439.948,543.615 439.948,533.402 429.736,533.402 	"/>
	<polygon fill="#0D3653" points="386.895,586.447 426.683,586.447 426.683,546.663 426.683,546.651 386.895,546.651 	"/>
	<rect x="546.045" y="520.141" fill="#0D3653" width="92.845" height="92.835"/>
	<polygon fill="#F7F8F8" points="569.52,533.402 559.309,533.402 559.309,543.602 559.309,589.489 559.309,599.715 569.52,599.715 
		615.409,599.715 625.62,599.715 625.62,589.489 625.62,543.615 625.62,533.402 615.409,533.402 	"/>
	<polygon fill="#0D3653" points="572.571,586.447 612.36,586.447 612.36,546.663 612.36,546.651 572.571,546.651 	"/>
	<rect x="492.989" y="520.128" fill="#0D3653" width="13.268" height="13.268"/>
	<polygon fill="#0D3653" points="519.517,533.402 519.517,546.657 532.784,546.657 532.784,533.402 532.784,520.141 
		519.517,520.141 	"/>
	<rect x="466.467" y="546.638" fill="#0D3653" width="13.268" height="13.28"/>
	<rect x="492.989" y="546.638" fill="#0D3653" width="13.268" height="13.28"/>
	<polygon fill="#0D3653" points="519.517,573.186 519.517,586.453 532.784,586.453 532.784,573.186 532.784,559.924 
		519.517,559.924 	"/>
	<rect x="519.523" y="599.708" fill="#0D3653" width="13.268" height="13.268"/>
	<polygon fill="#0D3653" points="426.679,626.231 413.424,626.231 413.424,639.498 426.679,639.498 426.679,652.753 
		439.946,652.753 439.946,639.498 453.214,639.498 453.214,626.231 439.946,626.231 	"/>
	<polygon fill="#0D3653" points="492.992,573.186 479.737,573.186 479.737,586.453 479.737,599.708 492.992,599.708 
		492.992,612.976 492.992,626.231 492.992,639.498 492.992,652.753 506.259,652.753 506.259,639.498 506.259,626.231 
		506.259,612.976 506.259,599.708 506.259,586.453 492.992,586.453 	"/>
	<rect x="599.101" y="626.231" fill="#0D3653" width="13.254" height="13.268"/>
	<polygon fill="#0D3653" points="466.463,626.231 466.463,639.498 466.463,652.753 479.73,652.753 479.73,639.498 479.73,626.231 
		479.73,612.969 466.463,612.969 	"/>
	<polygon fill="#0D3653" points="373.632,626.231 360.364,626.231 360.364,639.498 360.364,652.753 373.632,652.753 
		373.632,639.498 386.899,639.498 386.899,652.753 386.899,666.034 400.153,666.034 400.153,652.753 400.153,639.498 
		400.153,626.231 386.899,626.231 	"/>
	<rect x="439.945" y="652.753" fill="#0D3653" width="13.268" height="13.28"/>
	<rect x="506.255" y="652.753" fill="#0D3653" width="13.254" height="13.28"/>
	<polygon fill="#0D3653" points="373.632,679.276 360.364,679.276 360.364,692.562 373.632,692.562 386.899,692.562 
		386.899,679.276 386.899,666.027 373.632,666.027 	"/>
	<polygon fill="#0D3653" points="426.679,666.027 413.424,666.027 413.424,679.282 400.157,679.282 400.157,692.55 413.424,692.55 
		426.679,692.55 439.946,692.55 439.946,679.282 426.679,679.282 	"/>
	<polygon fill="#0D3653" points="532.787,626.231 519.52,626.231 519.52,639.498 532.787,639.498 532.787,652.753 532.787,666.034 
		519.52,666.034 519.52,679.276 532.787,679.276 532.787,692.556 546.042,692.556 559.308,692.556 559.308,679.276 546.042,679.276 
		546.042,666.034 546.042,652.753 546.042,639.498 559.308,639.498 559.308,626.231 546.042,626.231 	"/>
	<polygon fill="#0D3653" points="599.101,666.027 599.101,652.747 599.101,639.498 585.833,639.498 585.833,652.747 
		585.833,666.027 572.566,666.027 572.566,652.747 572.566,639.498 559.298,639.498 559.298,652.747 559.298,666.027 
		559.298,679.282 572.566,679.282 585.833,679.282 585.833,692.55 599.101,692.55 612.355,692.55 612.355,679.282 599.101,679.282 	
		"/>
	<polygon fill="#0D3653" points="625.623,652.753 625.623,639.492 612.355,639.492 612.355,652.753 612.355,666.04 612.355,679.276 
		625.623,679.276 638.889,679.276 638.889,666.04 625.623,666.04 	"/>
	<polygon fill="#0D3653" points="453.208,679.276 453.208,692.562 466.462,692.562 466.462,679.276 466.462,666.027 
		453.208,666.027 	"/>
	<polygon fill="#0D3653" points="492.992,679.276 492.992,666.027 479.737,666.027 479.737,679.276 479.737,692.562 
		466.457,692.562 466.457,705.811 479.737,705.811 492.992,705.811 506.259,705.811 506.259,692.562 492.992,692.562 	"/>
	<rect x="519.523" y="705.805" fill="#0D3653" width="13.268" height="13.255"/>
	<polygon fill="#0D3653" points="479.734,719.06 466.466,719.06 466.466,732.346 466.466,745.595 479.734,745.595 479.734,732.346 
		492.988,732.346 506.255,732.346 506.255,719.06 492.988,719.06 	"/>
	<rect x="519.523" y="732.327" fill="#0D3653" width="13.268" height="13.268"/>
	<rect x="479.734" y="745.582" fill="#0D3653" width="13.254" height="13.268"/>
	<polygon fill="#0D3653" points="466.463,772.117 466.463,785.404 479.73,785.404 479.73,772.117 479.73,758.856 466.463,758.856 	
		"/>
	<polygon fill="#0D3653" points="519.517,758.856 506.263,758.856 492.996,758.856 492.996,772.124 506.263,772.124 
		506.263,785.391 506.263,798.659 519.517,798.659 519.517,785.391 532.784,785.391 532.784,772.124 519.517,772.124 	"/>
	<rect x="479.734" y="785.385" fill="#0D3653" width="13.254" height="13.268"/>
	<polygon fill="#FFFFFF" points="402.418,846.947 402.418,756.601 312.069,756.601 	"/>
	<g opacity="0.15">
		<g>
			<defs>
				<rect id="SVGID_69_" x="402.419" y="756.601" width="90.361" height="90.403"/>
			</defs>
			<clipPath id="SVGID_70_">
				<use xlink:href="#SVGID_69_"  overflow="visible"/>
			</clipPath>
			<polygon clip-path="url(#SVGID_70_)" fill="#6E6F71" points="402.418,846.947 492.778,846.947 402.418,756.601 			"/>
		</g>
	</g>
	<g>
		<defs>
			<path id="SVGID_71_" d="M670.783,270.844c-0.52,0.394-0.637,1.137-0.247,1.651l5.19,6.872c-0.377,0.572-0.598,1.232-0.598,1.95
				c0,1.924,1.587,3.487,3.511,3.487c0.989,0,1.899-0.419,2.55-1.105h5.996c1.313,0,2.38-1.067,2.38-2.382s-1.067-2.369-2.38-2.369
				h-5.996c-0.651-0.686-1.561-1.143-2.55-1.143c-0.351,0-0.689,0.076-0.988,0.184l-5.216-6.897
				c-0.234-0.324-0.585-0.495-0.936-0.495C671.252,270.597,670.992,270.692,670.783,270.844"/>
		</defs>
		<clipPath id="SVGID_72_">
			<use xlink:href="#SVGID_71_"  overflow="visible"/>
		</clipPath>
		
			<linearGradient id="SVGID_73_" gradientUnits="userSpaceOnUse" x1="-443.0898" y1="4142.0259" x2="-430.0826" y2="4142.0259" gradientTransform="matrix(3.052 -3.052 -3.052 -3.052 14653.127 11587.6484)">
			<stop  offset="0" style="stop-color:#056637"/>
			<stop  offset="0.33" style="stop-color:#0A8B44"/>
			<stop  offset="0.66" style="stop-color:#36AC4A"/>
			<stop  offset="1" style="stop-color:#9AC341"/>
		</linearGradient>
		<polygon clip-path="url(#SVGID_72_)" fill="url(#SVGID_73_)" points="663.041,277.704 679.855,260.886 696.669,277.704 
			679.855,294.515 		"/>
	</g>
	<g>
		<defs>
			<path id="SVGID_74_" d="M661.666,267.008l2.445,1.886c3.461-4.497,8.728-7.075,14.412-7.075c10.002,0,18.158,8.13,18.158,18.158
				s-8.156,18.158-18.158,18.158c-1.912,0-3.785-0.273-5.567-0.857l-0.937,2.915c2.081,0.686,4.279,1.035,6.504,1.035
				c11.681,0,21.214-9.533,21.214-21.251c0-11.693-9.534-21.238-21.214-21.238C671.877,258.739,665.75,261.756,661.666,267.008"/>
		</defs>
		<clipPath id="SVGID_75_">
			<use xlink:href="#SVGID_74_"  overflow="visible"/>
		</clipPath>
		
			<linearGradient id="SVGID_76_" gradientUnits="userSpaceOnUse" x1="-438.4815" y1="4147.2021" x2="-425.4743" y2="4147.2021" gradientTransform="matrix(3.1123 -3.1123 -3.1123 -3.1123 14932.5947 11843.1748)">
			<stop  offset="0" style="stop-color:#056637"/>
			<stop  offset="0.33" style="stop-color:#0A8B44"/>
			<stop  offset="0.66" style="stop-color:#36AC4A"/>
			<stop  offset="1" style="stop-color:#9AC341"/>
		</linearGradient>
		<polygon clip-path="url(#SVGID_75_)" fill="url(#SVGID_76_)" points="640.426,279.99 680.705,239.711 720.978,279.984 
			680.7,320.263 		"/>
	</g>
	<g>
		<defs>
			<path id="SVGID_77_" d="M337.071,291.594l-27.667-14.1L337.071,291.594z"/>
		</defs>
		<clipPath id="SVGID_78_">
			<use xlink:href="#SVGID_77_"  overflow="visible"/>
		</clipPath>
		
			<linearGradient id="SVGID_79_" gradientUnits="userSpaceOnUse" x1="-234.5865" y1="4107.2275" x2="-221.5793" y2="4107.2275" gradientTransform="matrix(4.9677 0 0 -4.9677 1474.7559 20687.9688)">
			<stop  offset="0" style="stop-color:#34994B"/>
			<stop  offset="0.3397" style="stop-color:#6FB64C"/>
			<stop  offset="1" style="stop-color:#A2C851"/>
		</linearGradient>
		<rect x="309.404" y="277.5" clip-path="url(#SVGID_78_)" fill="url(#SVGID_79_)" width="27.667" height="14.1"/>
	</g>
	<g>
		<defs>
			<polygon id="SVGID_80_" points="341.715,293.95 341.715,319.196 353.395,304.093 353.915,303.432 373.999,277.494 			"/>
		</defs>
		<clipPath id="SVGID_81_">
			<use xlink:href="#SVGID_80_"  overflow="visible"/>
		</clipPath>
		
			<linearGradient id="SVGID_82_" gradientUnits="userSpaceOnUse" x1="-234.5883" y1="4104.665" x2="-221.5811" y2="4104.665" gradientTransform="matrix(4.9677 0 0 -4.9677 1474.7576 20689.0684)">
			<stop  offset="0" style="stop-color:#34994B"/>
			<stop  offset="0.3397" style="stop-color:#6FB64C"/>
			<stop  offset="1" style="stop-color:#A2C851"/>
		</linearGradient>
		<rect x="341.715" y="277.494" clip-path="url(#SVGID_81_)" fill="url(#SVGID_82_)" width="32.283" height="41.702"/>
	</g>
	<g>
		<defs>
			<path id="SVGID_83_" d="M341.715,319.196l-7.284-9.393L341.715,319.196z"/>
		</defs>
		<clipPath id="SVGID_84_">
			<use xlink:href="#SVGID_83_"  overflow="visible"/>
		</clipPath>
		
			<linearGradient id="SVGID_85_" gradientUnits="userSpaceOnUse" x1="-234.5882" y1="4101.6621" x2="-221.581" y2="4101.6621" gradientTransform="matrix(4.9677 0 0 -4.9677 1474.7559 20690.2695)">
			<stop  offset="0" style="stop-color:#34994B"/>
			<stop  offset="0.3397" style="stop-color:#6FB64C"/>
			<stop  offset="1" style="stop-color:#A2C851"/>
		</linearGradient>
		<rect x="334.431" y="309.802" clip-path="url(#SVGID_84_)" fill="url(#SVGID_85_)" width="7.283" height="9.393"/>
	</g>
	<g>
		<defs>
			<polygon id="SVGID_86_" points="353.395,304.093 341.715,319.196 353.915,303.432 			"/>
		</defs>
		<clipPath id="SVGID_87_">
			<use xlink:href="#SVGID_86_"  overflow="visible"/>
		</clipPath>
		
			<linearGradient id="SVGID_88_" gradientUnits="userSpaceOnUse" x1="-234.5882" y1="4102.2529" x2="-221.581" y2="4102.2529" gradientTransform="matrix(4.9677 0 0 -4.9677 1474.7559 20690.0254)">
			<stop  offset="0" style="stop-color:#34994B"/>
			<stop  offset="0.3397" style="stop-color:#6FB64C"/>
			<stop  offset="1" style="stop-color:#A2C851"/>
		</linearGradient>
		<rect x="341.714" y="303.439" clip-path="url(#SVGID_87_)" fill="url(#SVGID_88_)" width="12.201" height="15.764"/>
	</g>
	<g>
		<defs>
			<polygon id="SVGID_89_" points="328.72,302.441 329.878,303.953 334.431,309.802 309.405,277.494 			"/>
		</defs>
		<clipPath id="SVGID_90_">
			<use xlink:href="#SVGID_89_"  overflow="visible"/>
		</clipPath>
		
			<linearGradient id="SVGID_91_" gradientUnits="userSpaceOnUse" x1="-715.4148" y1="4382.4502" x2="-702.4076" y2="4382.4502" gradientTransform="matrix(0 -3.2053 3.2053 0 -13725.167 -1973.9447)">
			<stop  offset="0" style="stop-color:#096939"/>
			<stop  offset="0.3795" style="stop-color:#34994B"/>
			<stop  offset="1" style="stop-color:#6FB64C"/>
		</linearGradient>
		<rect x="309.403" y="277.5" clip-path="url(#SVGID_90_)" fill="url(#SVGID_91_)" width="25.027" height="32.302"/>
	</g>
	<g>
		<defs>
			<path id="SVGID_92_" d="M341.715,293.95l-4.643-2.356L341.715,293.95z"/>
		</defs>
		<clipPath id="SVGID_93_">
			<use xlink:href="#SVGID_92_"  overflow="visible"/>
		</clipPath>
		
			<linearGradient id="SVGID_94_" gradientUnits="userSpaceOnUse" x1="-715.4148" y1="4387.4839" x2="-702.4076" y2="4387.4839" gradientTransform="matrix(0 -3.2053 3.2053 0 -13723.8232 -1973.9447)">
			<stop  offset="0" style="stop-color:#096939"/>
			<stop  offset="0.3795" style="stop-color:#34994B"/>
			<stop  offset="1" style="stop-color:#6FB64C"/>
		</linearGradient>
		<rect x="337.071" y="291.6" clip-path="url(#SVGID_93_)" fill="url(#SVGID_94_)" width="4.644" height="2.35"/>
	</g>
	<g>
		<defs>
			<polygon id="SVGID_95_" points="329.878,303.953 328.72,302.441 309.405,277.494 			"/>
		</defs>
		<clipPath id="SVGID_96_">
			<use xlink:href="#SVGID_95_"  overflow="visible"/>
		</clipPath>
		
			<linearGradient id="SVGID_97_" gradientUnits="userSpaceOnUse" x1="-715.4148" y1="4381.7949" x2="-702.4076" y2="4381.7949" gradientTransform="matrix(0 -3.2053 3.2053 0 -13725.3408 -1973.9447)">
			<stop  offset="0" style="stop-color:#096939"/>
			<stop  offset="0.3795" style="stop-color:#34994B"/>
			<stop  offset="1" style="stop-color:#6FB64C"/>
		</linearGradient>
		<rect x="309.404" y="277.5" clip-path="url(#SVGID_96_)" fill="url(#SVGID_97_)" width="20.474" height="26.453"/>
	</g>
	<g>
		<defs>
			<polygon id="SVGID_98_" points="334.431,309.802 341.715,319.196 341.715,293.95 337.071,291.594 309.405,277.494 			"/>
		</defs>
		<clipPath id="SVGID_99_">
			<use xlink:href="#SVGID_98_"  overflow="visible"/>
		</clipPath>
		
			<linearGradient id="SVGID_100_" gradientUnits="userSpaceOnUse" x1="-234.5866" y1="4104.6621" x2="-221.5785" y2="4104.6621" gradientTransform="matrix(4.9677 0 0 -4.9677 1474.7509 20688.916)">
			<stop  offset="0" style="stop-color:#34994B"/>
			<stop  offset="0.3397" style="stop-color:#6FB64C"/>
			<stop  offset="1" style="stop-color:#A2C851"/>
		</linearGradient>
		<rect x="309.404" y="277.494" clip-path="url(#SVGID_99_)" fill="url(#SVGID_100_)" width="32.31" height="41.708"/>
	</g>
	<g>
		<defs>
			<polygon id="SVGID_101_" points="334.431,309.802 341.715,319.196 341.715,293.95 337.071,291.594 309.405,277.494 			"/>
		</defs>
		<clipPath id="SVGID_102_">
			<use xlink:href="#SVGID_101_"  overflow="visible"/>
		</clipPath>
		
			<linearGradient id="SVGID_103_" gradientUnits="userSpaceOnUse" x1="-715.4225" y1="4383.4995" x2="-702.4142" y2="4383.4995" gradientTransform="matrix(0 -3.2053 3.2053 0 -13724.8379 -1973.9425)">
			<stop  offset="0" style="stop-color:#096939"/>
			<stop  offset="0.3795" style="stop-color:#34994B"/>
			<stop  offset="1" style="stop-color:#6FB64C"/>
		</linearGradient>
		<rect x="309.404" y="277.5" clip-path="url(#SVGID_102_)" fill="url(#SVGID_103_)" width="32.31" height="41.695"/>
	</g>
	<g>
		<defs>
			<path id="SVGID_104_" d="M341.701,319.183"/>
		</defs>
		<clipPath id="SVGID_105_">
			<use xlink:href="#SVGID_104_"  overflow="visible"/>
		</clipPath>
		
			<linearGradient id="SVGID_106_" gradientUnits="userSpaceOnUse" x1="341.7012" y1="319.1831" x2="341.7012" y2="319.1831" gradientTransform="matrix(0 -0.0092 0.0092 0 447.6831 -1337.9288)">
			<stop  offset="0" style="stop-color:#096939"/>
			<stop  offset="0.3795" style="stop-color:#34994B"/>
			<stop  offset="1" style="stop-color:#6FB64C"/>
		</linearGradient>
		<path clip-path="url(#SVGID_105_)" fill="url(#SVGID_106_)" d="M341.701,319.183L341.701,319.183z"/>
	</g>
	<polygon fill="#010101" points="430.413,299.78 442.717,299.78 442.717,292.775 430.413,292.775 430.413,287.599 443.433,287.599 
		443.433,280.289 421.412,280.289 421.412,312.66 444.213,312.66 444.213,305.299 430.413,305.299 	"/>
	<path fill="#010101" d="M472.659,296.02c1.015-1.562,1.522-3.461,1.522-5.722c0-1.848-0.325-3.411-0.962-4.687
		c-0.65-1.283-1.535-2.312-2.654-3.106c-1.131-0.781-2.445-1.353-3.954-1.702c-1.522-0.343-3.135-0.521-4.878-0.521h-12.995v32.385
		h9.105v-11.508h2.107l5.984,11.508h10.184l-7.583-13.229C470.266,298.713,471.644,297.57,472.659,296.02 M464.608,292.413
		c-0.248,0.47-0.56,0.826-0.937,1.111c-0.391,0.241-0.819,0.451-1.301,0.572c-0.481,0.114-0.975,0.165-1.496,0.165h-3.03v-6.669
		h3.095c1.092,0,2.043,0.203,2.836,0.61c0.793,0.387,1.196,1.219,1.196,2.432C464.971,291.365,464.841,291.962,464.608,292.413"/>
	<rect x="477.887" y="280.295" fill="#010101" width="9.222" height="32.372"/>
	<path fill="#010101" d="M515.812,283.782c-1.666-1.264-3.59-2.147-5.763-2.68c-2.172-0.534-4.448-0.819-6.789-0.819h-12.045v32.378
		h12.318c2.276,0,4.501-0.311,6.647-0.953c2.159-0.635,4.058-1.6,5.723-2.928c1.652-1.327,2.979-3.004,3.967-5.056
		c1.002-2.045,1.496-4.503,1.496-7.336c0-3.074-0.507-5.621-1.521-7.679C518.83,286.659,517.49,285.007,515.812,283.782
		 M510.935,300.415c-0.468,1.111-1.119,2.007-1.925,2.693c-0.807,0.705-1.743,1.188-2.823,1.473
		c-1.08,0.286-2.224,0.438-3.434,0.438h-2.315v-17.205h2.484c1.196,0,2.341,0.159,3.395,0.432c1.067,0.298,1.99,0.762,2.771,1.416
		c0.793,0.648,1.418,1.518,1.873,2.585c0.456,1.067,0.69,2.42,0.69,4.033C511.65,297.932,511.402,299.298,510.935,300.415"/>
	<polygon fill="#010101" points="403.114,300.034 395.947,280.25 386.711,280.25 398.457,312.68 407.692,312.68 419.633,280.25 
		410.398,280.25 	"/>
	<path fill="#010101" d="M541.154,279.45c-9.405,0-17.014,7.609-17.014,17.002c0,9.4,7.609,17.015,17.014,17.015
		c9.391,0,17.013-7.615,17.013-17.015C558.167,287.059,550.545,279.45,541.154,279.45 M541.115,304.785
		c-4.605,0-8.338-3.715-8.338-8.333c0-4.592,3.734-8.326,8.338-8.326c4.604,0,8.338,3.734,8.338,8.326
		C549.452,301.07,545.718,304.785,541.115,304.785"/>
	<path fill="#010101" d="M577.711,304.785c-4.605,0-8.325-3.728-8.325-8.333c0-4.592,3.772-8.326,8.364-8.326
		c3.395,0,6.36,2.013,7.661,4.928l8.376-2.21c-2.329-6.631-8.637-11.394-16.051-11.394c-9.404,0-17.013,7.609-17.013,17.002
		c0,9.4,7.61,17.015,17.013,17.015c7.349,0,13.606-4.662,15.986-11.191l-8.389-2.21C583.98,302.861,581.014,304.785,577.711,304.785
		"/>
	<text transform="matrix(1 0 0 1 601.3721 313.3867)" fill="#26984D" font-family="'Roboto-BlackItalic'" font-size="47.6103">HR</text>
	<polygon fill="#9E1D21" points="179.65,814.416 11.154,915.044 11.154,807.576 179.65,706.954 	"/>
	<polygon fill="#9E1D21" points="824.114,814.416 992.609,915.044 992.609,807.576 824.114,706.954 	"/>
	<rect x="11.15" y="807.785" fill="#DD3D32" width="981.849" height="176.804"/>
	<g opacity="0.1">
		<g>
			<defs>
				<rect id="SVGID_107_" x="378.798" y="922.049" width="258.18" height="365.764"/>
			</defs>
			<clipPath id="SVGID_108_">
				<use xlink:href="#SVGID_107_"  overflow="visible"/>
			</clipPath>
			<path clip-path="url(#SVGID_108_)" fill="#010101" d="M614.661,1080.734H401.135c-12.331,0-22.32,10.003-22.32,22.324v163.759
				c0,11.565,9.378,20.94,20.941,20.94h216.284c11.564,0,20.941-9.374,20.941-20.94v-163.759
				C636.981,1090.737,626.992,1080.734,614.661,1080.734"/>
			<path clip-path="url(#SVGID_108_)" fill="#010101" d="M614.719,1080.734H401.063c-12.292,0-22.255,10.003-22.255,22.324
				c0,11.565,9.352,20.94,20.89,20.94h216.388c11.537,0,20.89-9.374,20.89-20.94C636.975,1090.737,627.01,1080.734,614.719,1080.734
				"/>
			<path clip-path="url(#SVGID_108_)" fill="#010101" d="M614.719,1080.734H401.05c-12.292,0-22.255,10.003-22.255,22.324
				c0,11.565,9.352,20.94,20.889,20.94h216.401c11.537,0,20.89-9.374,20.89-20.94
				C636.975,1090.737,627.01,1080.734,614.719,1080.734"/>
			<path clip-path="url(#SVGID_108_)" fill="#010101" d="M626.763,1215.671c-3.473,1.835-7.597,2.89-12.032,2.89H401.062
				c-8.077,0-15.14-3.474-19.042-8.688c-2.042-2.718-3.226-5.906-3.226-9.323v48.929c0,0.94,0.091,1.848,0.273,2.744
				c1.444,7.221,8.572,12.918,17.547,13.998c1.002,0.114,2.029,0.172,3.07,0.172h216.4c0.572,0,1.145-0.025,1.73-0.057
				c10.718-0.711,19.16-7.996,19.16-16.856v-48.929c0,0.349-0.013,0.737-0.052,1.092
				C636.505,1207.541,632.551,1212.667,626.763,1215.671"/>
			<path clip-path="url(#SVGID_108_)" fill="#010101" d="M636.975,1249.472v-9.647l-19.173,26.51
				C628.533,1265.616,636.975,1258.344,636.975,1249.472"/>
			<path clip-path="url(#SVGID_108_)" fill="#010101" d="M597.011,1218.554l-33.949,46.973l-0.624,0.87h2.575h25.104l36.642-50.727
				c-3.473,1.835-7.597,2.883-12.031,2.883H597.011z"/>
			<polygon clip-path="url(#SVGID_108_)" fill="#010101" points="521.076,1247.071 507.118,1266.391 534.785,1266.391 
				542.069,1256.312 569.358,1218.56 541.692,1218.56 			"/>
			<polygon clip-path="url(#SVGID_108_)" fill="#010101" points="479.108,1228.614 451.805,1266.391 479.459,1266.391 
				500.101,1237.855 514.032,1218.56 486.366,1218.56 			"/>
			<polygon clip-path="url(#SVGID_108_)" fill="#010101" points="458.111,1219.38 458.696,1218.56 456.225,1218.56 			"/>
			<path clip-path="url(#SVGID_108_)" fill="#010101" d="M431.046,1218.554l-34.431,47.659c1.002,0.121,2.029,0.184,3.057,0.184
				h24.467l33.975-47.018l-1.886-0.826H431.046z"/>
			<path clip-path="url(#SVGID_108_)" fill="#010101" d="M382.017,1209.866l-3.226,4.478v35.135c0,0.934,0.091,1.861,0.273,2.744
				l24.323-33.661h-2.328C392.981,1218.56,385.919,1215.086,382.017,1209.866"/>
			<path clip-path="url(#SVGID_108_)" fill="#010101" d="M418.725,1027.752v72.867h16.376v-73.801
				c0-40.012,32.557-72.568,72.58-72.568h0.377v-15.402h-0.43C458.527,938.848,418.725,978.664,418.725,1027.752"/>
			<path clip-path="url(#SVGID_108_)" fill="#010101" d="M508.485,938.848h-0.429v15.402h0.377c40.024,0,72.58,32.556,72.58,72.568
				v73.801h16.376v-72.861C597.388,978.664,557.586,938.848,508.485,938.848"/>
			<path clip-path="url(#SVGID_108_)" fill="#010101" d="M581.152,952.237c-9.482-9.476-20.525-16.92-32.817-22.121
				c-12.734-5.386-26.249-8.117-40.193-8.117h-0.091v16.856h0.429c49.103,0,88.905,39.803,88.905,88.904v72.854h14.008v-75.376
				c0-13.934-2.731-27.443-8.116-40.177C598.074,972.751,590.634,961.719,581.152,952.237"/>
			<path clip-path="url(#SVGID_108_)" fill="#010101" d="M435.015,952.287c-9.496,9.501-16.949,20.565-22.165,32.874
				c-5.398,12.76-8.13,26.313-8.13,40.266v75.185h14.009v-72.854c0-49.101,39.802-88.904,88.891-88.904h0.43v-16.856
				c-13.918,0.025-27.432,2.756-40.166,8.13C455.566,935.342,444.51,942.811,435.015,952.287"/>
			<path clip-path="url(#SVGID_108_)" fill="#010101" d="M509.546,1134.426c-8.416,0-15.245,6.834-15.245,15.262
				c0,5.799,3.252,10.86,8.026,13.42v26.758h14.439v-26.758c4.786-2.56,8.038-7.621,8.038-13.42
				C524.803,1141.26,517.974,1134.426,509.546,1134.426"/>
			<path clip-path="url(#SVGID_108_)" fill="#010101" d="M510.626,1134.477c-0.364-0.025-0.716-0.051-1.08-0.051
				c-8.416,0-15.244,6.834-15.244,15.262c0,5.799,3.252,10.86,8.026,13.42v26.758h2.159v-26.758
				c-4.786-2.56-8.038-7.621-8.038-13.42C496.448,1141.622,502.704,1135.042,510.626,1134.477"/>
		</g>
	</g>
	<path fill="#26984E" d="M614.661,1041.712H401.135c-12.331,0-22.32,10.003-22.32,22.324v163.759c0,11.565,9.378,20.94,20.941,20.94
		h216.284c11.564,0,20.941-9.374,20.941-20.94v-163.759C636.981,1051.715,626.992,1041.712,614.661,1041.712"/>
	<path fill="#0F2138" d="M614.719,1041.712H401.063c-12.292,0-22.255,10.003-22.255,22.324c0,11.566,9.352,20.94,20.89,20.94
		h216.388c11.537,0,20.89-9.374,20.89-20.94C636.975,1051.715,627.01,1041.712,614.719,1041.712"/>
	<path fill="#196A39" d="M614.719,1041.712H401.05c-12.292,0-22.255,10.003-22.255,22.324c0,11.566,9.352,20.94,20.889,20.94
		h216.401c11.537,0,20.89-9.374,20.89-20.94C636.975,1051.715,627.01,1041.712,614.719,1041.712"/>
	<path fill="#196A39" d="M626.763,1176.649c-3.473,1.835-7.597,2.89-12.032,2.89H401.062c-8.077,0-15.14-3.474-19.042-8.688
		c-2.042-2.718-3.226-5.907-3.226-9.323v48.929c0,0.94,0.091,1.848,0.273,2.744c1.444,7.221,8.572,12.918,17.547,13.998
		c1.002,0.114,2.029,0.172,3.07,0.172h216.4c0.572,0,1.145-0.025,1.73-0.057c10.718-0.711,19.16-7.996,19.16-16.856v-48.929
		c0,0.349-0.013,0.737-0.052,1.092C636.505,1168.52,632.551,1173.645,626.763,1176.649"/>
	<path fill="#F0C419" d="M636.975,1210.45v-9.647l-19.173,26.51C628.533,1226.595,636.975,1219.323,636.975,1210.45"/>
	<path fill="#F0C419" d="M597.011,1179.532l-33.949,46.973l-0.624,0.87h2.575h25.104l36.642-50.727
		c-3.473,1.835-7.597,2.883-12.031,2.883H597.011z"/>
	<polygon fill="#F0C419" points="521.076,1208.049 507.118,1227.37 534.785,1227.37 542.069,1217.29 569.358,1179.539 
		541.692,1179.539 	"/>
	<polygon fill="#F0C419" points="479.108,1189.593 451.805,1227.37 479.459,1227.37 500.101,1198.834 514.032,1179.539 
		486.366,1179.539 	"/>
	<polygon fill="#F0C419" points="458.111,1180.358 458.696,1179.539 456.225,1179.539 	"/>
	<path fill="#F0C419" d="M431.046,1179.532l-34.431,47.659c1.002,0.121,2.029,0.184,3.057,0.184h24.467l33.975-47.018l-1.886-0.826
		H431.046z"/>
	<path fill="#F0C419" d="M382.017,1170.844l-3.226,4.478v35.135c0,0.934,0.091,1.861,0.273,2.744l24.323-33.661h-2.328
		C392.981,1179.539,385.919,1176.065,382.017,1170.844"/>
	<path fill="#818285" d="M418.725,988.73v72.867h16.376v-73.801c0-40.012,32.557-72.569,72.58-72.569h0.377v-15.402h-0.43
		C458.527,899.827,418.725,939.642,418.725,988.73"/>
	<path fill="#BFC1C4" d="M508.485,899.827h-0.429v15.402h0.377c40.024,0,72.58,32.556,72.58,72.569v73.801h16.376v-72.861
		C597.388,939.642,557.586,899.827,508.485,899.827"/>
	<path fill="#818285" d="M581.152,913.215c-9.482-9.476-20.525-16.92-32.817-22.121c-12.734-5.386-26.249-8.117-40.193-8.117h-0.091
		v16.856h0.429c49.103,0,88.905,39.803,88.905,88.904v72.854h14.008v-75.376c0-13.934-2.731-27.443-8.116-40.177
		C598.074,933.729,590.634,922.697,581.152,913.215"/>
	<path fill="#BFC1C4" d="M435.015,913.266c-9.496,9.501-16.949,20.565-22.165,32.874c-5.398,12.76-8.13,26.313-8.13,40.266v75.185
		h14.009v-72.854c0-49.101,39.802-88.904,88.891-88.904h0.43v-16.856c-13.918,0.025-27.432,2.756-40.166,8.13
		C455.566,896.321,444.51,903.79,435.015,913.266"/>
	<path fill="#0E4723" d="M509.546,1095.405c-8.416,0-15.245,6.834-15.245,15.262c0,5.799,3.252,10.86,8.026,13.42v26.757h14.439
		v-26.757c4.786-2.56,8.038-7.621,8.038-13.42C524.803,1102.239,517.974,1095.405,509.546,1095.405"/>
	<path fill="#196A39" d="M510.626,1095.456c-0.364-0.025-0.716-0.051-1.08-0.051c-8.416,0-15.244,6.834-15.244,15.262
		c0,5.799,3.252,10.86,8.026,13.42v26.757h2.159v-26.757c-4.786-2.56-8.038-7.621-8.038-13.42
		C496.448,1102.601,502.704,1096.021,510.626,1095.456"/>
	<path fill="#73A6C7" d="M517.599,862.533h-19.407c-2.198,0-3.993,1.785-3.993,3.995v63.645c0,2.21,1.795,3.995,3.993,3.995h19.407
		c2.185,0,3.967-1.785,3.967-3.995v-63.645C521.567,864.317,519.784,862.533,517.599,862.533"/>
	<g opacity="0.2">
		<g>
			<defs>
				<rect id="SVGID_109_" x="494.211" y="924.787" width="27.354" height="9.362"/>
			</defs>
			<clipPath id="SVGID_110_">
				<use xlink:href="#SVGID_109_"  overflow="visible"/>
			</clipPath>
			<path clip-path="url(#SVGID_110_)" fill="#231F20" d="M517.599,928.801h-19.407c-2.198,0-3.993-1.778-3.993-3.976v5.348
				c0,2.21,1.795,3.989,3.993,3.989h19.407c2.185,0,3.967-1.778,3.967-3.989v-5.348
				C521.567,927.022,519.784,928.801,517.599,928.801"/>
		</g>
	</g>
	<g opacity="0.1">
		<g>
			<defs>
				<rect id="SVGID_111_" x="494.211" y="862.482" width="27.354" height="10.276"/>
			</defs>
			<clipPath id="SVGID_112_">
				<use xlink:href="#SVGID_111_"  overflow="visible"/>
			</clipPath>
			<path clip-path="url(#SVGID_112_)" fill="#231F20" d="M517.599,862.533h-19.407c-2.198,0-3.993,1.785-3.993,3.995v6.243
				c0-2.198,1.795-3.989,3.993-3.989h19.407c2.185,0,3.967,1.791,3.967,3.989v-6.243
				C521.567,864.317,519.784,862.533,517.599,862.533"/>
		</g>
	</g>
	<g opacity="0.2">
		<g>
			<defs>
				<rect id="SVGID_113_" x="494.315" y="884.851" width="27.25" height="33.039"/>
			</defs>
			<clipPath id="SVGID_114_">
				<use xlink:href="#SVGID_113_"  overflow="visible"/>
			</clipPath>
			<rect x="494.315" y="884.787" clip-path="url(#SVGID_114_)" fill="#FFFFFF" width="27.25" height="33.064"/>
		</g>
	</g>
	<g opacity="0.2">
		<g>
			<defs>
				<rect id="SVGID_115_" x="494.315" y="889.277" width="27.25" height="14.042"/>
			</defs>
			<clipPath id="SVGID_116_">
				<use xlink:href="#SVGID_115_"  overflow="visible"/>
			</clipPath>
			<rect x="494.315" y="889.258" clip-path="url(#SVGID_116_)" fill="#FFFFFF" width="27.25" height="14.036"/>
		</g>
	</g>
</g>
</svg>
